<?xml version="1.0" encoding="UTF-8"?>
<svg xmlns="http://www.w3.org/2000/svg" viewBox="0 0 156.89 204.4">
  <defs>
    <style>
      .cls-1 {
        fill: #66625c;
        mix-blend-mode: multiply;
        opacity: .56;
      }

      .cls-1, .cls-2, .cls-3, .cls-4 {
        stroke-width: 0px;
      }

      .cls-5 {
        isolation: isolate;
      }

      .cls-2 {
        fill: #ddb565;
      }

      .cls-3 {
        fill: #d6d6d6;
      }

      .cls-4 {
        fill: #fff;
      }
    </style>
  </defs>
  <g class="cls-5">
    <g id="Layer_2" data-name="Layer 2">
      <g id="Layer_1-2" data-name="Layer 1">
        <rect class="cls-1" x="0" width="156.89" height="204.4"/>
        <polygon class="cls-2" points="60.16 53.48 89.9 23.7 96.73 23.04 94.71 56.36 71.12 69.03 60.16 53.48"/>
        <path class="cls-4" d="m90.66,25.49h-3.05v-.61c0-1.01-.82-1.83-1.83-1.83s-1.83.82-1.83,1.83v.61h-10.99v-.61c0-1.01-.82-1.83-1.83-1.83s-1.83.82-1.83,1.83v.61h-3.05c-1.69,0-3.05,1.37-3.05,3.05v24.43c0,1.69,1.37,3.05,3.05,3.05h24.43c1.69,0,3.05-1.37,3.05-3.05v-24.43c0-1.69-1.37-3.05-3.05-3.05Zm-21.37,3.66c0,1.01.82,1.83,1.83,1.83s1.83-.82,1.83-1.83h10.99c0,1.01.82,1.83,1.83,1.83s1.83-.82,1.83-1.83h2.44v3.66h-23.2v-3.66h2.44Zm-2.44,23.2v-15.88h23.2v15.88h-23.2Z"/>
        <g>
          <path class="cls-3" d="m64.16,110.23c.74,1.07,1.7,1.77,2.73,1.77s2.07-.7,2.99-2.36h.55v4.84c0,1.51.59,1.96,1.88,1.96l1.11.37v2.11l-1.11.37c-2.84,0-3.55-1.88-3.18-4.51.07-.52.44-2.92.52-3.58-.96,2.14-2.44,3.32-4.1,3.18.11.67.18,1.33.18,1.96,0,4.29-3.36,7.09-7.57,7.09-3.4,0-5.84-1.81-5.84-6.28,0-1.63.33-3.44.85-4.84l.33.11c-.33,1.07-.55,2.55-.55,3.55,0,3.29,2.18,4.62,5.58,4.62s5.32-1.44,6.65-2.62l-2.44-5.28,1.03-2.44h.37Zm-5.13.85l-1.81-1.81,1.81-1.81,1.22,1.22c.41.41.41.78,0,1.15l-1.22,1.26Z"/>
          <path class="cls-3" d="m69.52,124.53l-1.7-1.7,1.7-1.74,1.44,1.44s.04.07.07.07l1.51-1.51,1.44,1.44c.18.18.18.37,0,.55l-1.44,1.44-1.51-1.51-.07.07-1.44,1.44Zm3.21-8.09l1.07.37v2.11l-1.07.37h-.41v-2.84h.41Z"/>
          <path class="cls-3" d="m76.35,115.7v.04c-.92,2.55-1.81,3.55-3.66,3.55v-2.84c2.11,0,2.96-.33,3.99-2.11l.37-.67h.37c.52,2.14.96,2.77,1.88,2.77.74,0,1.11.37,1.11,1.11v.63c0,.74-.37,1.11-1.11,1.11-1.77,0-2.62-1.51-2.96-3.58Zm.92-3.88l-1.81-1.81,1.81-1.81,1.51,1.51c.18.22.18.41,0,.59l-1.51,1.51Z"/>
          <path class="cls-3" d="m79.31,116.44c1.96,0,3.03-.15,4.36-.55l-1.74-2.88,1.14-2.25h.37c.96,2.14,1.33,2.96.55,5.36l-.07.22c-.85,2.48-2.14,2.96-4.62,2.96v-2.84Zm2.25-7.61l-1.7-1.7,1.7-1.74,1.44,1.44s.07.07.07.11l1.55-1.55,1.44,1.44c.18.18.18.37,0,.55l-1.44,1.44-1.55-1.55s-.04.07-.07.11l-1.44,1.44Zm1.62-3.03l-1.7-1.7,1.7-1.7,1.44,1.44c.15.18.15.33,0,.52l-1.44,1.44Z"/>
          <path class="cls-3" d="m91.28,100.15c-.22-.18-.74-.3-1.29-.33-.48,0-.96.11-1.29.41.15.78,1,1.4,1.88,1.4h1.29l.07.11-.55.96h-1.07c-1,0-1.29.11-2.44.78l-.15-.18.52-.55c.18-.18.37-.33.59-.44-.52-.44-.55-1.15-.37-1.85.37-1.26,1.29-1.66,1.92-1.66.7,0,1.14.55,1.26.96l-.26.37-.11.04Zm-1.22,4.4c3.88,4.17,8.87,9.16,8.16,11.97l-.04.15c-.52,2.22-2.03,2.62-7.06,2.62l-.37-.33.63-2.51c2.55,0,5.13-.11,6.58-.37l-6.87-6.94-.78.92-1.29-1.37c-1.07-1.15-.18-2.59.33-3.36l.52-.78h.18Z"/>
          <path class="cls-3" d="m97.04,102.66l.33.11-.22.92,2.07,1.29-1.11,2.55-.22-.15c-.18,3.84-1.29,7.35-5.76,9.53l-.74-.07c4.17-2.14,5.28-4.95,5.28-9.68v-.59c-.66-.55-.78-1.29-.37-2.22l.74-1.7Z"/>
          <path class="cls-3" d="m103.47,120.39h-.37v-15.29l1.11-2.33h.37v12.6c0,.74-.11,1.48-.3,2.18l-.81,2.84Z"/>
          <path class="cls-3" d="m28.3,137.9c0,5.58-10.05,9.38-10.05,12.52h10.64v2.11h-11.23v-.55c0-6.54,7.79-9.75,7.79-14.33,0-1.66-1-3.29-2.96-3.29-1.77,0-2.88,1.29-3.77,2.44v-1.88c.74-.33,2.07-.89,4.06-.89,2.44,0,5.5.81,5.5,3.88Z"/>
          <path class="cls-3" d="m41.83,143.44c0,7.54-2.88,9.46-5.5,9.46s-5.5-2-5.5-9.46,2.88-9.42,5.5-9.42,5.5,1.96,5.5,9.42Zm-8.16,0c0,5.98,1,9.09,2.66,9.09s2.66-3.1,2.66-9.09-1.03-9.05-2.66-9.05-2.66,3.1-2.66,9.05Z"/>
          <path class="cls-3" d="m53.91,137.9c0,5.58-10.05,9.38-10.05,12.52h10.64v2.11h-11.23v-.55c0-6.54,7.79-9.75,7.79-14.33,0-1.66-1-3.29-2.96-3.29-1.77,0-2.88,1.29-3.77,2.44v-1.88c.74-.33,2.07-.89,4.06-.89,2.44,0,5.5.81,5.5,3.88Z"/>
          <path class="cls-3" d="m55.91,147.95v-.85l5.58-12.97h2.55l-5.65,13.45h5.87v-8.2h2.84v8.2h1.48v.37h-1.48v4.58h-2.84v-4.58h-8.35Z"/>
          <path class="cls-3" d="m78.37,151.72c0,2.4-.96,4.29-2.84,6.39l-5.73-.48v-.37c4.21-.96,6.28-2.36,8.24-5.39l-1.96-4.51,1.15-2.25h.29l1.29,3.62c.22.7.67.96,1.55.96.74,0,1.11.37,1.11,1.11v.63c0,.74-.37,1.11-1.11,1.11-.63,0-1.33-.15-2-.81Z"/>
          <path class="cls-3" d="m81.77,157.78l-1.7-1.7,1.7-1.74,1.44,1.44s.04.07.07.07l1.51-1.51,1.44,1.44c.18.18.18.37,0,.55l-1.44,1.44-1.51-1.51s-.04.04-.07.07l-1.44,1.44Zm-1.4-8.09c1.96,0,3.03-.15,4.36-.55l-1.74-2.88,1.14-2.25h.37c.96,2.14,1.33,2.96.55,5.36l-.07.22c-.85,2.47-2.14,2.96-4.62,2.96v-2.84Z"/>
          <path class="cls-3" d="m88.82,153.64h-.37v-15.29l1.11-2.33h.37v12.6c0,.74-.11,1.48-.3,2.18l-.81,2.84Z"/>
          <path class="cls-3" d="m96.43,147.32c2.96,0,4.65-.48,5.25-1.48h.37l-1.03,2.44c-.48,1.18-1.37,1.81-4.1,1.88v.07c0,3.81-1.26,6.13-3.07,7.87l-5.73-.44v-.37c3.44-.41,7.94-3.29,8.53-6.87l-.18-.26h-3.18l-.3-.33.59-2.51h2.84Z"/>
          <path class="cls-3" d="m101.53,158l-1.81-1.81,1.81-1.81,1.51,1.51c.18.22.18.41,0,.59l-1.51,1.51Zm-.22-9.38v-3.1l.37-2.11h.37v3.77c0,1.88.44,2.51,1.85,2.51.74,0,1.11.37,1.11,1.11v.63c0,.74-.37,1.11-1.11,1.11-2.29,0-2.59-1.7-2.59-3.92Z"/>
          <path class="cls-3" d="m105.82,149.69c3.25,0,4.47-.26,5.62-.74-.15-.78-.3-1.74-.55-2.66l-.59,1.55c-.52.52-1.26,1.03-2.29,1.03-1.18,0-2.36-.7-1.7-3.81.29-1.44,1.26-4.65,3.25-4.65,2.77,0,2.84,6.32,2.25,8.39l-.07.26c-.52,1.88-1.85,3.47-5.91,3.47h-1.96v-2.84h1.96Zm1.07-5.28c-.52,1.33.18,1.96,1.59,1.96.96,0,1.7-.3,2.18-.7-.44-1.37-1.11-2.48-2.25-2.48-1,0-1.4.92-1.51,1.22Zm2.62-5.84l-1.81-1.81,1.81-1.81,1.51,1.51c.18.22.18.41,0,.59l-1.51,1.51Z"/>
          <path class="cls-3" d="m119.08,134.43v-.37h5.65v18.47h-2.84v-18.1h-2.81Z"/>
          <path class="cls-3" d="m139.66,140.19v6.5c0,3.18-1.96,5.84-7.02,5.84-1.29,0-2.77-.18-4.21-.85l-.04-1.85c1.07,1,2.51,2.33,4.51,2.33,2.14,0,3.92-1.55,3.92-4.47v-3.44c-.96.37-1.85.7-3.29.7-3.92,0-5.87-2.62-5.87-5.47s2-5.61,6.1-5.61c3.73,0,5.91,2.55,5.91,6.32Zm-2.84.26c0-3.36-.96-6.21-3.1-6.21-2,0-3.21,2.36-3.21,5.17,0,1.99.59,5.17,3.4,5.17.78,0,1.81-.26,2.92-.78v-3.36Z"/>
        </g>
      </g>
    </g>
  </g>
</svg>