<?xml version="1.0" encoding="UTF-8"?>
<svg xmlns="http://www.w3.org/2000/svg" viewBox="0 0 156.89 204.4">
  <defs>
    <style>
      .cls-1 {
        fill: #66625c;
        mix-blend-mode: multiply;
        opacity: .56;
      }

      .cls-1, .cls-2, .cls-3, .cls-4 {
        stroke-width: 0px;
      }

      .cls-5 {
        isolation: isolate;
      }

      .cls-2 {
        fill: #ddb565;
      }

      .cls-3 {
        fill: #d6d6d6;
      }

      .cls-4 {
        fill: #fff;
      }
    </style>
  </defs>
  <g class="cls-5">
    <g id="Layer_2" data-name="Layer 2">
      <g id="Layer_1-2" data-name="Layer 1">
        <rect class="cls-1" x="0" width="156.89" height="204.4"/>
        <polygon class="cls-2" points="55.46 51.81 85.21 22.03 92.04 21.37 90.02 54.69 66.43 67.36 55.46 51.81"/>
        <path class="cls-4" d="m71.83,26.05c-9.11,0-16.49,7.38-16.49,16.49s7.38,16.49,16.49,16.49,16.49-7.38,16.49-16.49c-.01-9.1-7.39-16.48-16.49-16.49Zm0,29.31c-7.08,0-12.82-5.74-12.82-12.82s5.74-12.82,12.82-12.82,12.82,5.74,12.82,12.82c0,7.08-5.74,12.82-12.82,12.82Zm10.38-12.82c0,1.01-.82,1.83-1.83,1.83h-8.55c-1.01,0-1.83-.82-1.83-1.83v-8.55c0-1.01.82-1.83,1.83-1.83s1.83.82,1.83,1.83v6.72h6.72c1.01,0,1.83.82,1.83,1.83Z"/>
        <g>
          <path class="cls-3" d="m41.19,104.28h.33l2.03,3.92c.74,1.48,1.07,1.85,1.7,1.85h.04c.74,0,1.11.37,1.11,1.11v.63c0,.74-.37,1.11-1.11,1.11h-.04c-.78,0-1.26-.26-1.74-.89l-1,2.11-4.25-1.33c-1.14-.33-1.99-.55-1.7-2.44l.33-2.29c-.55.37-1.22.81-2.03,1.44v5.43c0,.74-.11,1.44-.33,2.18l-.74,2.7h-.37v-8.05l1.51-3.36c.33-.74.78-1.29,1.37-1.7,1.51-1.03,3.36-1.96,4.88-2.4Zm-.96,2.18c-.7.3-1.18.48-1.44.63-2.14,1.07-2.11,2.59-.15,3.1l4.43,1.18c-.15-.22-.33-.52-.52-.85l-2.33-4.06Z"/>
          <path class="cls-3" d="m66.79,111.93c-2.22.7-5.95.96-11.56.96h-9.94v-2.84h9.94c7.72,0,10.31-.11,14-1.11l-.11-.41c-.29-1.07-.81-1.26-4.58-1.26h-8.31c-2.84,0-4.77-.07-7.39-.33-.66-.07-1-.48-.81-1.11,1.4-4.21,4.29-5.76,8.98-8.42l.33.26-.89,2.7-6.72,3.92c2.22.33,4.1.37,6.5.37h8.75c5.39,0,4.8,2.55,4.54,4.54l-.04.22c0,.19-.07.37-.11.52.7.07,1.51.11,2.47.11.74,0,1.11.37,1.11,1.11v.63c0,.74-.37,1.11-1.11,1.11-1.92,0-3.36-.22-5.06-.96Z"/>
          <path class="cls-3" d="m71.89,110.04c.96,0,2.4,0,3.14-.52.37-.26.44-.55.44-1.77v-9.16l1.11-2.33h.37v11.27c0,1.29.22,2.51,1.96,2.51.74,0,1.11.37,1.11,1.11v.63c0,.74-.37,1.11-1.11,1.11-2.33,0-3.1-1.59-3.32-3.36l-.07.48c-.26,1.59-1.22,2.88-3.62,2.88v-2.84Z"/>
          <path class="cls-3" d="m82.61,109.3v.04c-.92,2.55-1.81,3.55-3.66,3.55v-2.84c2.11,0,2.96-.33,3.99-2.11l.37-.67h.37c.52,2.14.96,2.77,1.88,2.77.74,0,1.11.37,1.11,1.11v.63c0,.74-.37,1.11-1.11,1.11-1.77,0-2.62-1.51-2.96-3.58Zm.52,9.05l-1.81-1.81,1.81-1.81,1.51,1.51c.18.22.18.41,0,.59l-1.51,1.51Z"/>
          <path class="cls-3" d="m91.84,111.56c-1.81.92-3.36,1.33-6.28,1.33v-2.84c1.74,0,3.14-.04,4.36-.18-.48-.63-.96-1.48-.92-2.48,0-2.11,2.07-4.43,4.32-4.43,2.7,0,3.1,3.29,2.11,5.39-.26.55-.59,1.07-1.07,1.51.92.15,1.81.18,2.48.18.74,0,1.11.37,1.11,1.11v.63c0,.74-.37,1.11-1.11,1.11-1.59,0-3.44-.37-4.99-1.33Zm.67-2.18c1.11-.3,2.07-.7,2.7-1.11-.29-1.15-.96-2.25-1.7-2.77-1.74,0-3.25.48-4.21,1.33.74,1.29,1.96,2.07,3.21,2.55Zm-1.22-8.39l-1.7-1.7,1.7-1.74,1.44,1.44s.07.07.07.11l1.55-1.55,1.44,1.44c.19.19.19.37,0,.55l-1.44,1.44-1.55-1.55s-.04.07-.07.11l-1.44,1.44Z"/>
          <path class="cls-3" d="m100.45,110.15c-.26,1.51-1.26,2.73-3.58,2.73v-2.84c.96,0,2.4,0,3.14-.52.37-.26.44-.55.44-1.77v-1.44l.92-1.92h.37v3.14c0,1.26.33,2.51,1.85,2.51.74,0,1.11.37,1.11,1.11v.63c0,.74-.37,1.11-1.11,1.11-1.77,0-3.07-1.03-3.14-2.73Zm-.63-7.72l-1.7-1.7,1.7-1.74,1.44,1.44s.07.07.07.11l1.55-1.55,1.44,1.44c.18.18.18.37,0,.55l-1.44,1.44-1.55-1.55s-.04.07-.07.11l-1.44,1.44Z"/>
          <path class="cls-3" d="m108.14,106.42l.59.15-.7,2.25c1.07.81,2.22,1.22,3.14,1.22,1,0,1.4-.48,1.77-1.37l.85-2.25.63.15-1.04,3.14,1.96.48c.48.11.85.18,1.15.18.59,0,.92-.22,1.15-.48l-1.74-3.32.92-2.25.37.04,1.99,4.69c.3.74.63,1,1.26,1,.74,0,1.11.37,1.11,1.11v.63c0,.74-.37,1.11-1.11,1.11-.81,0-1.51-.55-2.14-1.77l-.37-.63-.33.78c-.44.96-.92,1.77-2.18,1.77-.3,0-.67-.04-1.07-.15-.18-.04-1.51-.41-2.25-.59-.44.37-1.03.59-1.85.59-.3,0-1.74-.04-3.21-1.59-.63,1-1.59,1.59-3.44,1.59v-2.84c1.11,0,3.21-.07,3.8-1.7l.74-1.92Z"/>
          <path class="cls-3" d="m120.44,110.04c1.96,0,3.03-.15,4.36-.55l-1.74-2.88,1.14-2.25h.37c.96,2.14,1.33,2.96.55,5.36l-.07.22c-.85,2.48-2.14,2.96-4.62,2.96v-2.84Zm3.92-7.54l-1.81-1.81,1.81-1.81,1.51,1.51c.18.22.18.41,0,.59l-1.51,1.51Z"/>
          <path class="cls-3" d="m40.38,145.33c0,2.4-.96,4.29-2.84,6.39l-5.73-.48v-.37c4.21-.96,6.28-2.36,8.24-5.39l-1.96-4.51,1.15-2.25h.29l1.29,3.62c.22.7.67.96,1.55.96.74,0,1.11.37,1.11,1.11v.63c0,.74-.37,1.11-1.11,1.11-.63,0-1.33-.15-2-.81Z"/>
          <path class="cls-3" d="m43.78,151.38l-1.7-1.7,1.7-1.74,1.44,1.44s.04.07.07.07l1.51-1.51,1.44,1.44c.18.18.18.37,0,.55l-1.44,1.44-1.51-1.51s-.04.04-.07.07l-1.44,1.44Zm-1.4-8.09c1.96,0,3.03-.15,4.36-.55l-1.74-2.88,1.14-2.25h.37c.96,2.14,1.33,2.96.55,5.36l-.07.22c-.85,2.47-2.14,2.96-4.62,2.96v-2.84Z"/>
          <path class="cls-3" d="m55.78,142.59l-2.33-4.8.78-2.29h.33l3.1,6.39c.44.89.78,1.4,1.55,1.4h.04c.74,0,1.11.37,1.11,1.11v.63c0,.74-.37,1.11-1.11,1.11h-.04c-1.4,0-2.22-1.07-2.66-1.96l-.48-1c-.37,1.66-1.55,2.99-4.21,2.99-2,0-2.77-.74-2.77-2.33,0-.44.07-1.51.18-2.51h.26c-.15,1.48.37,1.99,2.44,1.99,1.33,0,2.55-.22,3.81-.74Z"/>
          <path class="cls-3" d="m65.54,144.81c-1.81.92-3.36,1.33-6.28,1.33v-2.84c1.74,0,3.14-.04,4.36-.18-.48-.63-.96-1.48-.92-2.48,0-2.11,2.07-4.43,4.32-4.43,2.7,0,3.1,3.29,2.11,5.39-.26.55-.59,1.07-1.07,1.51.92.15,1.81.18,2.48.18.74,0,1.11.37,1.11,1.11v.63c0,.74-.37,1.11-1.11,1.11-1.59,0-3.44-.37-4.99-1.33Zm.67-2.18c1.11-.3,2.07-.7,2.7-1.11-.29-1.15-.96-2.25-1.7-2.77-1.74,0-3.25.48-4.21,1.33.74,1.29,1.96,2.07,3.21,2.55Zm-1.22-8.39l-1.7-1.7,1.7-1.74,1.44,1.44s.07.07.07.11l1.55-1.55,1.44,1.44c.19.19.19.37,0,.55l-1.44,1.44-1.55-1.55s-.04.07-.07.11l-1.44,1.44Z"/>
          <path class="cls-3" d="m70.53,143.29c1.96,0,3.03-.15,4.36-.55l-1.74-2.88,1.14-2.25h.37c.96,2.14,1.33,2.96.55,5.36l-.07.22c-.85,2.47-2.14,2.96-4.62,2.96v-2.84Zm2.25-7.65l-1.7-1.7,1.7-1.74,1.44,1.44s.07.07.07.11l1.55-1.55,1.44,1.44c.18.18.18.37,0,.55l-1.44,1.44-1.55-1.55s-.04.07-.07.11l-1.44,1.44Z"/>
          <path class="cls-3" d="m92.43,146.14v-12.38c-.89-.63-1.11-1.4-.63-2.44l.74-1.7.33.11-.22.92,2.07,1.29-1,2.29v9.05h1.85c.74,0,1.11.37,1.11,1.11v.63c0,.74-.37,1.11-1.11,1.11h-2.66c-.04.15-.04.3-.07.41-.44,2.99-2.73,4.99-5.73,4.99s-4.73-1.85-4.73-5.8c0-1.96.44-3.47.85-4.58l.37.11c-.26.85-.59,2.48-.59,3.55,0,2.51,1.85,3.88,4.47,3.88,2.29,0,3.73-1.07,4.95-1.99v-.55Z"/>
          <path class="cls-3" d="m117.08,145.18c-2.22.7-5.95.96-11.56.96h-9.94v-2.84h9.94c7.72,0,10.31-.11,14-1.11l-.11-.41c-.29-1.07-.81-1.26-4.58-1.26h-8.31c-2.84,0-4.77-.07-7.39-.33-.67-.07-1-.48-.81-1.11,1.4-4.21,4.29-5.76,8.98-8.42l.33.26-.89,2.7-6.72,3.92c2.22.33,4.1.37,6.5.37h8.75c5.39,0,4.8,2.55,4.54,4.54l-.04.22c0,.19-.07.37-.11.52.7.07,1.51.11,2.47.11.74,0,1.11.37,1.11,1.11v.63c0,.74-.37,1.11-1.11,1.11-1.92,0-3.36-.22-5.06-.96Z"/>
          <path class="cls-3" d="m122.18,143.29c1.96,0,3.03-.15,4.36-.55l-1.74-2.88,1.14-2.25h.37c.96,2.14,1.33,2.96.55,5.36l-.07.22c-.85,2.47-2.14,2.96-4.62,2.96v-2.84Zm2.88,8.31l-1.81-1.81,1.81-1.81,1.51,1.51c.18.22.18.41,0,.59l-1.51,1.51Z"/>
        </g>
        <g>
          <path class="cls-3" d="m30.97,169.05v-1l4.99-1.26v1.11l-4.99,1.15Zm0,2.36v-1l4.99-1.26v1.11l-4.99,1.15Z"/>
          <path class="cls-3" d="m29.68,180.87l1.22-1.03c-1.15-1.22-.74-2.88-.15-4.21.7-1.55,1.7-2.77,2.99-2.77,1.4,0,2.25,1.4,2.55,2.03l-.59,1.59c-.55-.52-1.85-1.26-3.07-1.26-.59,0-1.18.15-1.66.59.19,1.22.78,2.22,2.33,2.44h3.18l.26.55-1.29,2.29h-2.14c-1.96,0-2.88.55-4.1,1.59l-.18-.15.67-1.66Z"/>
          <path class="cls-3" d="m38.62,177.4v-6.39c0-1.48-.15-2.36-.37-3.73l1.29-2.7h.37v12.19c0,.92.59,1.48,1.85,1.48.67,0,1.11.44,1.11,1.11v.63c0,.67-.48,1.11-1.11,1.11-1.26,0-3.14-.3-3.14-3.69Z"/>
          <path class="cls-3" d="m46.31,174.63l.59.15-.7,2.25c1.07.81,2.22,1.22,3.14,1.22,1,0,1.4-.48,1.77-1.37l.85-2.25.63.15-1.04,3.14,1.96.48c.48.11.85.18,1.15.18.59,0,.92-.22,1.15-.48l-1.74-3.32.92-2.25.37.04,1.99,4.69c.3.74.63,1,1.26,1,.74,0,1.11.37,1.11,1.11v.63c0,.74-.37,1.11-1.11,1.11-.81,0-1.51-.55-2.14-1.77l-.37-.63-.33.78c-.44.96-.92,1.77-2.18,1.77-.3,0-.67-.04-1.07-.15-.18-.04-1.51-.41-2.25-.59-.44.37-1.03.59-1.85.59-.3,0-1.74-.04-3.21-1.59-.63,1-1.59,1.59-3.44,1.59v-2.84c1.11,0,3.21-.07,3.8-1.7l.74-1.92Z"/>
          <path class="cls-3" d="m69.03,176.85c.26.78-.07,1.55-.44,2.36l-1.04,2.22-.33.33-6.5-2.25-.37.59c-.37.59-.89,1-1.74,1v-2.84c1.66,0,2.4-.18,3.07-1.22l1.14-1.77c1.15-1.77,1.74-3.07,3.14-3.07,2.33,0,2.81,3.77,3.07,4.65Zm-6.76.22l5.8,2c-1-2.14-1.66-4.54-3.18-4.54-.33,0-1.07.11-1.63,1l-1,1.55Z"/>
          <path class="cls-3" d="m77.19,162.62h8.98v.37h-6.35l-.33,7.43c.59-.11,1-.18,1.7-.18,3.66,0,5.87,2,5.87,5.43s-2.4,5.8-6.13,5.8c-1.81,0-3.69-.52-4.8-.96l-.04-1.85c.81.67,3.07,2.48,4.84,2.48,2.18,0,3.29-2.77,3.29-5.73,0-3.29-1.37-4.8-3.21-4.8-1.03,0-2.66.48-3.84.85l-.33-.26.37-8.57Z"/>
          <path class="cls-3" d="m93.49,174l-1.81-1.81,1.81-1.81,1.51,1.51c.18.18.18.41,0,.55l-1.51,1.55Zm0,7.46l-1.81-1.81,1.81-1.81,1.51,1.51c.18.18.18.41,0,.55l-1.51,1.55Z"/>
          <path class="cls-3" d="m110.44,172.01c0,7.54-2.88,9.46-5.5,9.46s-5.5-2-5.5-9.46,2.88-9.42,5.5-9.42,5.5,1.96,5.5,9.42Zm-8.16,0c0,5.98,1,9.09,2.66,9.09s2.66-3.1,2.66-9.09-1.03-9.05-2.66-9.05-2.66,3.1-2.66,9.05Z"/>
          <path class="cls-3" d="m123.41,172.01c0,7.54-2.88,9.46-5.5,9.46s-5.5-2-5.5-9.46,2.88-9.42,5.5-9.42,5.5,1.96,5.5,9.42Zm-8.16,0c0,5.98,1,9.09,2.66,9.09s2.66-3.1,2.66-9.09-1.03-9.05-2.66-9.05-2.66,3.1-2.66,9.05Z"/>
        </g>
      </g>
    </g>
  </g>
</svg>