<?xml version="1.0" encoding="UTF-8"?>
<svg xmlns="http://www.w3.org/2000/svg" viewBox="0 0 156.89 204.4">
  <defs>
    <style>
      .cls-1 {
        fill: #66625c;
        mix-blend-mode: multiply;
        opacity: .56;
      }

      .cls-1, .cls-2, .cls-3, .cls-4 {
        stroke-width: 0px;
      }

      .cls-5 {
        isolation: isolate;
      }

      .cls-2 {
        fill: #ddb565;
      }

      .cls-3 {
        fill: #d6d6d6;
      }

      .cls-4 {
        fill: #fff;
      }
    </style>
  </defs>
  <g class="cls-5">
    <g id="Layer_2" data-name="Layer 2">
      <g id="Layer_1-2" data-name="Layer 1">
        <rect class="cls-1" x="0" width="156.89" height="204.4"/>
        <g>
          <polygon class="cls-2" points="60.21 51.81 89.96 22.03 96.79 21.37 94.77 54.69 71.18 67.36 60.21 51.81"/>
          <path class="cls-4" d="m76.59,26.05c-9.11,0-16.49,7.38-16.49,16.49s7.38,16.49,16.49,16.49,16.49-7.38,16.49-16.49c-.01-9.1-7.39-16.48-16.49-16.49Zm0,29.31c-7.08,0-12.82-5.74-12.82-12.82s5.74-12.82,12.82-12.82,12.82,5.74,12.82,12.82c0,7.08-5.74,12.82-12.82,12.82Zm10.38-12.82c0,1.01-.82,1.83-1.83,1.83h-8.55c-1.01,0-1.83-.82-1.83-1.83v-8.55c0-1.01.82-1.83,1.83-1.83s1.83.82,1.83,1.83v6.72h6.72c1.01,0,1.83.82,1.83,1.83Z"/>
        </g>
        <g>
          <path class="cls-3" d="m46.21,109.27l-1.7-2.66,1.11-2.25h.41c.96,2.14,1.48,3.55.3,5.76l-.26.48c-.89,1.7-3.99,2.66-8.61,2.66-2.18,0-4.47-.22-5.69-.89-1.14-.59-1.48-1.66-1.48-2.99,0-1.11.22-2.4.52-3.62h.37c-.18,2.03-.41,3.29,1.07,3.88,1.07.44,3.62.78,6.06.78,2.25,0,5.02-.3,7.91-1.15Zm-9.57-3.88l-1.7-1.7,1.7-1.74,1.44,1.44s.07.07.07.11l1.55-1.55,1.44,1.44c.18.19.18.37,0,.55l-1.44,1.44-1.55-1.55s-.04.07-.07.11l-1.44,1.44Z"/>
          <path class="cls-3" d="m50.35,113.99h-.37v-15.29l1.11-2.33h.37v12.6c0,.74-.11,1.48-.3,2.18l-.81,2.84Z"/>
          <path class="cls-3" d="m62.69,112.07c0,2.4-.96,4.29-2.84,6.39l-5.73-.48v-.37c4.21-.96,6.28-2.36,8.24-5.39l-1.96-4.51,1.15-2.25h.29l1.29,3.62c.22.7.67.96,1.55.96.74,0,1.11.37,1.11,1.11v.63c0,.74-.37,1.11-1.11,1.11-.63,0-1.33-.15-2-.81Z"/>
          <path class="cls-3" d="m70.97,111.56c-1.81.92-3.36,1.33-6.28,1.33v-2.84c1.74,0,3.14-.04,4.36-.18-.48-.63-.96-1.48-.92-2.48,0-2.11,2.07-4.43,4.32-4.43,2.7,0,3.1,3.29,2.11,5.39-.26.55-.59,1.07-1.07,1.51.92.15,1.81.18,2.48.18.74,0,1.11.37,1.11,1.11v.63c0,.74-.37,1.11-1.11,1.11-1.59,0-3.44-.37-4.99-1.33Zm.67-2.18c1.11-.3,2.07-.7,2.7-1.11-.29-1.15-.96-2.25-1.7-2.77-1.74,0-3.25.48-4.21,1.33.74,1.29,1.96,2.07,3.21,2.55Zm-1.22-8.39l-1.7-1.7,1.7-1.74,1.44,1.44s.07.07.07.11l1.55-1.55,1.44,1.44c.19.19.19.37,0,.55l-1.44,1.44-1.55-1.55s-.04.07-.07.11l-1.44,1.44Z"/>
          <path class="cls-3" d="m77.91,110.04c3.25,0,4.47-.26,5.62-.74-.15-.78-.3-1.74-.55-2.66l-.59,1.55c-.52.52-1.26,1.03-2.29,1.03-1.18,0-2.36-.7-1.7-3.81.29-1.44,1.26-4.65,3.25-4.65,2.77,0,2.84,6.32,2.25,8.39l-.07.26c-.52,1.88-1.85,3.47-5.91,3.47h-1.96v-2.84h1.96Zm1.07-5.28c-.52,1.33.18,1.96,1.59,1.96.96,0,1.7-.3,2.18-.7-.44-1.37-1.11-2.48-2.25-2.48-1,0-1.4.92-1.51,1.22Zm2.62-5.84l-1.81-1.81,1.81-1.81,1.51,1.51c.18.22.18.41,0,.59l-1.51,1.51Z"/>
          <path class="cls-3" d="m93.06,113.99h-.37v-15.29l1.11-2.33h.37v12.6c0,.74-.11,1.48-.3,2.18l-.81,2.84Z"/>
          <path class="cls-3" d="m103.4,109.34l-2.33-4.8.78-2.29h.33l3.1,6.39c.44.89.78,1.4,1.55,1.4h.04c.74,0,1.11.37,1.11,1.11v.63c0,.74-.37,1.11-1.11,1.11h-.04c-1.4,0-2.22-1.07-2.66-1.96l-.48-1c-.37,1.66-1.55,2.99-4.21,2.99-2,0-2.77-.74-2.77-2.33,0-.44.07-1.51.18-2.51h.26c-.15,1.48.37,1.99,2.44,1.99,1.33,0,2.55-.22,3.81-.74Z"/>
          <path class="cls-3" d="m110.53,109.3v.04c-.92,2.55-1.81,3.55-3.66,3.55v-2.84c2.11,0,2.96-.33,3.99-2.11l.37-.67h.37c.52,2.14.96,2.77,1.88,2.77.74,0,1.11.37,1.11,1.11v.63c0,.74-.37,1.11-1.11,1.11-1.77,0-2.62-1.51-2.96-3.58Zm.52,9.05l-1.81-1.81,1.81-1.81,1.51,1.51c.18.22.18.41,0,.59l-1.51,1.51Z"/>
          <path class="cls-3" d="m113.49,110.04c1.96,0,3.03-.15,4.36-.55l-1.74-2.88,1.14-2.25h.37c.96,2.14,1.33,2.96.55,5.36l-.07.22c-.85,2.48-2.14,2.96-4.62,2.96v-2.84Zm2.25-7.65l-1.7-1.7,1.7-1.74,1.44,1.44s.07.07.07.11l1.55-1.55,1.44,1.44c.18.18.18.37,0,.55l-1.44,1.44-1.55-1.55s-.04.07-.07.11l-1.44,1.44Z"/>
          <path class="cls-3" d="m40.04,146.14v-12.38c-.89-.63-1.11-1.4-.63-2.44l.74-1.7.33.11-.22.92,2.07,1.29-1,2.29v9.05h1.85c.74,0,1.11.37,1.11,1.11v.63c0,.74-.37,1.11-1.11,1.11h-2.66c-.04.15-.04.3-.07.41-.44,2.99-2.73,4.99-5.73,4.99s-4.73-1.85-4.73-5.8c0-1.96.44-3.47.85-4.58l.37.11c-.26.85-.59,2.48-.59,3.55,0,2.51,1.85,3.88,4.47,3.88,2.29,0,3.73-1.07,4.95-1.99v-.55Z"/>
          <path class="cls-3" d="m49.46,144.81c-1.81.92-3.36,1.33-6.28,1.33v-2.84c1.74,0,3.14-.04,4.36-.18-.48-.63-.96-1.48-.92-2.48,0-2.11,2.07-4.43,4.32-4.43,2.7,0,3.1,3.29,2.11,5.39-.26.55-.59,1.07-1.07,1.51.92.15,1.81.18,2.48.18.74,0,1.11.37,1.11,1.11v.63c0,.74-.37,1.11-1.11,1.11-1.59,0-3.44-.37-4.99-1.33Zm.67-2.18c1.11-.3,2.07-.7,2.7-1.11-.29-1.15-.96-2.25-1.7-2.77-1.74,0-3.25.48-4.21,1.33.74,1.29,1.96,2.07,3.21,2.55Zm.44-8.27l-1.81-1.81,1.81-1.81,1.51,1.51c.18.22.18.41,0,.59l-1.51,1.51Z"/>
          <path class="cls-3" d="m54.45,143.29h4.03c.67,0,1.11.3,1.11.74v1.48c0,.37-.44.63-1.11.63h-4.03v-2.84Z"/>
          <path class="cls-3" d="m58.48,143.29h4.03c.67,0,1.11.3,1.11.74v1.48c0,.37-.44.63-1.11.63h-4.03v-2.84Z"/>
          <path class="cls-3" d="m62.51,143.29h4.03c.67,0,1.11.3,1.11.74v1.48c0,.37-.44.63-1.11.63h-4.03v-2.84Z"/>
          <path class="cls-3" d="m66.53,143.29h4.03c.67,0,1.11.3,1.11.74v1.48c0,.37-.44.63-1.11.63h-4.03v-2.84Z"/>
          <path class="cls-3" d="m70.56,143.29h4.03c.67,0,1.11.3,1.11.74v1.48c0,.37-.44.63-1.11.63h-4.03v-2.84Z"/>
          <path class="cls-3" d="m74.59,143.29h4.03c.67,0,1.11.3,1.11.74v1.48c0,.37-.44.63-1.11.63h-4.03v-2.84Z"/>
          <path class="cls-3" d="m78.61,143.29h4.03c.67,0,1.11.3,1.11.74v1.48c0,.37-.44.63-1.11.63h-4.03v-2.84Z"/>
          <path class="cls-3" d="m82.64,143.29h4.03c.67,0,1.11.3,1.11.74v1.48c0,.37-.44.63-1.11.63h-4.03v-2.84Z"/>
          <path class="cls-3" d="m86.67,143.29h4.03c.67,0,1.11.3,1.11.74v1.48c0,.37-.44.63-1.11.63h-4.03v-2.84Z"/>
          <path class="cls-3" d="m90.7,146.14v-2.84h5.02c2.84,0,4.99-1.03,6.46-1.96-2.73-.85-5.36-2.03-6.98-2.03-.89,0-1.77.37-2.29,1.22l-.3-.22.85-1.33c1.07-1.63,2.07-1.96,3.14-1.96,2.81,0,5.95,2.48,10.01,2.51h.85l.33.26-.92,2.4h-.26c-1.15,0-2.44-.26-3.73-.63.11.96.81,1.74,1.77,1.74h3.1c.74,0,1.11.37,1.11,1.11v.63c0,.74-.37,1.11-1.11,1.11h-1.88c-2.36,0-3.69-1.59-3.69-3.99v-.41c-3.07,2.18-5.02,4.4-9.79,4.4h-1.7Z"/>
          <path class="cls-3" d="m111.64,129.51l.33.11-.22.92,2.07,1.29-1.07,2.44v5.47c0,3.07-1.48,6.39-4.99,6.39v-2.84c1.22,0,2.36-.22,3.69-.74v-8.94c-.81-.63-1-1.4-.55-2.4l.74-1.7Z"/>
          <path class="cls-3" d="m116.08,147.25h-.37v-15.29l1.11-2.33h.37v12.6c0,.74-.11,1.48-.3,2.18l-.81,2.84Z"/>
        </g>
        <g>
          <path class="cls-3" d="m28.79,169.05v-1l4.99-1.26v1.11l-4.99,1.15Zm0,2.36v-1l4.99-1.26v1.11l-4.99,1.15Z"/>
          <path class="cls-3" d="m27.5,180.87l1.22-1.03c-1.15-1.22-.74-2.88-.15-4.21.7-1.55,1.7-2.77,2.99-2.77,1.4,0,2.25,1.4,2.55,2.03l-.59,1.59c-.55-.52-1.85-1.26-3.07-1.26-.59,0-1.18.15-1.66.59.19,1.22.78,2.22,2.33,2.44h3.18l.26.55-1.29,2.29h-2.14c-1.96,0-2.88.55-4.1,1.59l-.18-.15.67-1.66Z"/>
          <path class="cls-3" d="m36.44,177.4v-6.39c0-1.48-.15-2.36-.37-3.73l1.29-2.7h.37v12.19c0,.92.59,1.48,1.85,1.48.67,0,1.11.44,1.11,1.11v.63c0,.67-.48,1.11-1.11,1.11-1.26,0-3.14-.3-3.14-3.69Z"/>
          <path class="cls-3" d="m44.12,174.63l.59.15-.7,2.25c1.07.81,2.22,1.22,3.14,1.22,1,0,1.4-.48,1.77-1.37l.85-2.25.63.15-1.04,3.14,1.96.48c.48.11.85.18,1.15.18.59,0,.92-.22,1.15-.48l-1.74-3.32.92-2.25.37.04,1.99,4.69c.3.74.63,1,1.26,1,.74,0,1.11.37,1.11,1.11v.63c0,.74-.37,1.11-1.11,1.11-.81,0-1.51-.55-2.14-1.77l-.37-.63-.33.78c-.44.96-.92,1.77-2.18,1.77-.3,0-.67-.04-1.07-.15-.18-.04-1.51-.41-2.25-.59-.44.37-1.03.59-1.85.59-.3,0-1.74-.04-3.21-1.59-.63,1-1.59,1.59-3.44,1.59v-2.84c1.11,0,3.21-.07,3.8-1.7l.74-1.92Z"/>
          <path class="cls-3" d="m66.85,176.85c.26.78-.07,1.55-.44,2.36l-1.04,2.22-.33.33-6.5-2.25-.37.59c-.37.59-.89,1-1.74,1v-2.84c1.66,0,2.4-.18,3.07-1.22l1.14-1.77c1.15-1.77,1.74-3.07,3.14-3.07,2.33,0,2.81,3.77,3.07,4.65Zm-6.76.22l5.8,2c-1-2.14-1.66-4.54-3.18-4.54-.33,0-1.07.11-1.63,1l-1,1.55Z"/>
          <path class="cls-3" d="m84.95,163.33v1.85c-.52-.59-2.4-2.22-4.36-2.22-2.62,0-3.33,2.96-3.33,5.47v2.73c1-.33,2.22-.7,3.51-.7,3.36,0,5.65,2.59,5.65,5.5,0,2.73-2,5.43-5.99,5.43s-6.02-2.29-6.02-5.43v-7.06c0-3.44,2.03-6.32,6.21-6.32,1.7,0,3.25.44,4.32.74Zm-1.4,12.93c0-2.18-.92-5.43-3.66-5.43-.7,0-1.51.18-2.62.66v4.95c0,2.14,1.11,4.58,3.18,4.58s3.1-2.55,3.1-4.77Z"/>
          <path class="cls-3" d="m92.82,174l-1.81-1.81,1.81-1.81,1.51,1.51c.18.18.18.41,0,.55l-1.51,1.55Zm0,7.46l-1.81-1.81,1.81-1.81,1.51,1.51c.18.18.18.41,0,.55l-1.51,1.55Z"/>
          <path class="cls-3" d="m107.93,167.06c0,2.11-1.44,3.84-4.29,4.58,2.92.74,4.95,2.33,4.95,4.69s-2.18,5.06-5.69,5.06c-1.51,0-3.25-.48-4.43-1.03v-1.81c1.11,1.22,2.62,2.48,4.17,2.48,1.74,0,3.14-1.63,3.14-4.47,0-2.18-.85-4.62-3.29-4.62h-2.59v-.37h1.51c2.11,0,3.66-1.96,3.66-4.21,0-1.7-.92-4.36-3.07-4.36-1.18,0-2.4.85-3.21,2v-1.77c1.37-.37,2.51-.59,3.66-.59,3.47,0,5.47,1.96,5.47,4.43Z"/>
          <path class="cls-3" d="m121.53,172.01c0,7.54-2.88,9.46-5.5,9.46s-5.5-2-5.5-9.46,2.88-9.42,5.5-9.42,5.5,1.96,5.5,9.42Zm-8.16,0c0,5.98,1,9.09,2.66,9.09s2.66-3.1,2.66-9.09-1.03-9.05-2.66-9.05-2.66,3.1-2.66,9.05Z"/>
        </g>
      </g>
    </g>
  </g>
</svg>