<?xml version="1.0" encoding="UTF-8"?>
<svg xmlns="http://www.w3.org/2000/svg" viewBox="0 0 156.89 204.4">
  <defs>
    <style>
      .cls-1 {
        fill: #66625c;
        mix-blend-mode: multiply;
        opacity: .56;
      }

      .cls-1, .cls-2, .cls-3, .cls-4 {
        stroke-width: 0px;
      }

      .cls-5 {
        isolation: isolate;
      }

      .cls-2 {
        fill: #ddb565;
      }

      .cls-3 {
        fill: #d6d6d6;
      }

      .cls-4 {
        fill: #fff;
      }
    </style>
  </defs>
  <g class="cls-5">
    <g id="Layer_2" data-name="Layer 2">
      <g id="Layer_1-2" data-name="Layer 1">
        <rect class="cls-1" x="0" width="156.89" height="204.4"/>
        <polygon class="cls-2" points="54.59 51.44 84.33 21.66 91.16 21 89.14 54.32 65.56 66.99 54.59 51.44"/>
        <path class="cls-4" d="m70.96,30.29c-3.71,0-6.72,3.01-6.72,6.72s3.01,6.72,6.72,6.72,6.72-3.01,6.72-6.72c0-3.71-3.01-6.71-6.72-6.72Zm0,9.77c-1.69,0-3.05-1.37-3.05-3.05s1.37-3.05,3.05-3.05,3.05,1.37,3.05,3.05-1.37,3.05-3.05,3.05Zm0-17.1c-7.75,0-14.04,6.29-14.04,14.04,0,11.81,12.46,20.67,12.99,21.04.63.44,1.47.44,2.1,0,2.36-1.74,4.52-3.74,6.44-5.95,4.29-4.92,6.56-10.15,6.56-15.09,0-7.75-6.29-14.04-14.04-14.04Zm4.78,26.67c-1.46,1.67-3.05,3.21-4.78,4.61-1.72-1.39-3.32-2.94-4.78-4.61-2.55-2.95-5.6-7.54-5.6-12.63,0-5.73,4.65-10.38,10.38-10.38s10.38,4.65,10.38,10.38c0,5.09-3.05,9.67-5.6,12.63Z"/>
        <g>
          <path class="cls-3" d="m40.79,115.73l-2.33-4.8.78-2.29h.33l3.1,6.39c.44.89.78,1.4,1.55,1.4h.04c.74,0,1.11.37,1.11,1.11v.63c0,.74-.37,1.11-1.11,1.11h-.04c-1.4,0-2.22-1.07-2.66-1.96l-.48-1c-.37,1.66-1.55,2.99-4.21,2.99-2,0-2.77-.74-2.77-2.33,0-.44.07-1.51.18-2.51h.26c-.15,1.48.37,1.99,2.44,1.99,1.33,0,2.55-.22,3.81-.74Z"/>
          <path class="cls-3" d="m44.26,116.44c1.96,0,3.03-.15,4.36-.55l-1.74-2.88,1.14-2.25h.37c.96,2.14,1.33,2.96.55,5.36l-.07.22c-.85,2.48-2.14,2.96-4.62,2.96v-2.84Zm3.92-7.54l-1.81-1.81,1.81-1.81,1.51,1.51c.18.22.18.41,0,.59l-1.51,1.51Z"/>
          <path class="cls-3" d="m53.46,120.39h-.37v-15.29l1.11-2.33h.37v12.6c0,.74-.11,1.48-.3,2.18l-.81,2.84Z"/>
          <path class="cls-3" d="m60.26,118.47c0,2.4-.96,4.29-2.84,6.39l-5.73-.48v-.37c4.21-.96,6.28-2.36,8.24-5.39l-1.96-4.51,1.15-2.25h.29l1.29,3.62c.22.7.67.96,1.55.96.74,0,1.11.37,1.11,1.11v.63c0,.74-.37,1.11-1.11,1.11-.63,0-1.33-.15-2-.81Z"/>
          <path class="cls-3" d="m62.26,119.28v-2.84h7.28c1.7,0,3.51-.74,4.99-1.74-2.96-.85-5.95-2.25-7.72-2.25-.89,0-1.77.37-2.29,1.22l-.3-.22.85-1.33c1.07-1.63,2.07-1.96,3.14-1.96,2.81,0,5.95,2.48,10.01,2.51h.85l.33.26-.92,2.36h-.63c-2.47,0-3.58-.18-5.28,1.11-1.4,1.07-2.44,2.88-6.35,2.88h-3.95Zm8.28,5.47l-1.81-1.81,1.81-1.81,1.51,1.51c.19.22.19.41,0,.59l-1.51,1.51Z"/>
          <path class="cls-3" d="m98.83,116.95c0,5.58-2.7,9.24-7.5,9.24-3.62,0-5.76-2.07-5.76-6.17,0-1.4.26-3.69.78-5.25l.37.11c-.3,1.03-.52,2.44-.52,3.55,0,3.18,1.88,4.91,6.02,4.91,2.81,0,5.06-.78,5.62-1.99.18-2.22,0-4.06-.48-5.47l-.55,2.03c-.41.89-1.22,1.44-2.29,1.44-1.88,0-2.88-1.66-1.81-5.06.48-1.55,1.44-3.73,3.21-3.73,2.18,0,2.92,3.51,2.92,6.39Zm-4.58-8.35l-1.7-1.7,1.7-1.74,1.44,1.44s.07.07.07.11l1.55-1.55,1.44,1.44c.18.18.18.37,0,.55l-1.44,1.44-1.55-1.55s-.04.07-.07.11l-1.44,1.44Zm-1.33,6.24c-.33,1.11.33,1.7,1.81,1.7,1.29,0,1.81-.48,2.47-1.11-.55-1.37-1.44-2.14-2.55-2.14-.85,0-1.51.78-1.74,1.55Z"/>
          <path class="cls-3" d="m107.15,115.73l-2.33-4.8.78-2.29h.33l3.1,6.39c.44.89.78,1.4,1.55,1.4h.04c.74,0,1.11.37,1.11,1.11v.63c0,.74-.37,1.11-1.11,1.11h-.04c-1.4,0-2.22-1.07-2.66-1.96l-.48-1c-.37,1.66-1.55,2.99-4.21,2.99-2,0-2.77-.74-2.77-2.33,0-.44.07-1.51.18-2.51h.26c-.15,1.48.37,1.99,2.44,1.99,1.33,0,2.55-.22,3.8-.74Z"/>
          <path class="cls-3" d="m114.28,115.7v.04c-.92,2.55-1.81,3.55-3.66,3.55v-2.84c2.11,0,2.96-.33,3.99-2.11l.37-.67h.37c.52,2.14.96,2.77,1.88,2.77.74,0,1.11.37,1.11,1.11v.63c0,.74-.37,1.11-1.11,1.11-1.77,0-2.62-1.51-2.96-3.58Zm.92-3.88l-1.81-1.81,1.81-1.81,1.51,1.51c.18.22.18.41,0,.59l-1.51,1.51Z"/>
          <path class="cls-3" d="m119.19,116.44c3.25,0,4.47-.26,5.62-.74-.15-.78-.3-1.74-.55-2.66l-.59,1.55c-.52.52-1.26,1.03-2.29,1.03-1.18,0-2.36-.7-1.7-3.81.29-1.44,1.26-4.65,3.25-4.65,2.77,0,2.84,6.32,2.25,8.39l-.07.26c-.52,1.88-1.85,3.47-5.91,3.47h-1.96v-2.84h1.96Zm1.07-5.28c-.52,1.33.18,1.96,1.59,1.96.96,0,1.7-.3,2.18-.7-.44-1.37-1.11-2.48-2.25-2.48-1,0-1.4.92-1.51,1.22Zm2.62-5.84l-1.81-1.81,1.81-1.81,1.51,1.51c.18.22.18.41,0,.59l-1.51,1.51Z"/>
          <path class="cls-3" d="m28.45,145.33c.85,1.48,1.59,4.06,1.59,6.1,0,4.29-3.36,7.09-7.57,7.09-3.4,0-5.84-1.81-5.84-6.28,0-1.63.33-3.44.85-4.84l.33.11c-.33,1.07-.55,2.55-.55,3.58,0,3.25,2.18,4.58,5.58,4.58s5.32-1.44,6.69-2.62l-2.44-5.25,1-2.48h.37Zm-5.13.85l-1.81-1.81,1.81-1.81,1.51,1.51c.18.22.18.41,0,.59l-1.51,1.51Z"/>
          <path class="cls-3" d="m33.36,153.64h-.37v-15.29l1.11-2.33h.37v12.6c0,.74-.11,1.48-.3,2.18l-.81,2.84Z"/>
          <path class="cls-3" d="m38.06,158.07l-5.73-.41v-.37c3.14-.37,7.83-3.07,8.42-6.43l-2.73-3.84,1.15-2.48h.37c1.18,2.03,1.59,3.58,1.59,5.76,0,3.84-1.26,6.13-3.07,7.76Zm1.33-15.37l-1.81-1.81,1.81-1.81,1.51,1.51c.18.22.18.41,0,.59l-1.51,1.51Z"/>
          <path class="cls-3" d="m43.49,148.84v-6.39c0-1.48-.15-2.36-.37-3.73l1.29-2.7h.37v12.19c0,.92.59,1.48,1.85,1.48.67,0,1.11.44,1.11,1.11v.63c0,.67-.48,1.11-1.11,1.11-1.26,0-3.14-.3-3.14-3.69Z"/>
          <path class="cls-3" d="m46.63,152.53v-2.84h5.02c2.84,0,4.99-1.03,6.46-1.96-2.73-.85-5.36-2.03-6.98-2.03-.89,0-1.77.37-2.29,1.22l-.3-.22.85-1.33c1.07-1.63,2.07-1.96,3.14-1.96,2.81,0,5.95,2.48,10.01,2.51h.85l.33.26-.92,2.4h-.26c-1.15,0-2.44-.26-3.73-.63.11.96.81,1.74,1.77,1.74h3.1c.74,0,1.11.37,1.11,1.11v.63c0,.74-.37,1.11-1.11,1.11h-1.88c-2.36,0-3.69-1.59-3.69-3.99v-.41c-3.07,2.18-5.02,4.4-9.79,4.4h-1.7Zm10.01,5.47l-1.81-1.81,1.81-1.81,1.51,1.51c.19.22.19.41,0,.59l-1.51,1.51Z"/>
          <path class="cls-3" d="m63.7,149.69c1.96,0,3.03-.15,4.36-.55l-1.74-2.88,1.14-2.25h.37c.96,2.14,1.33,2.96.55,5.36l-.07.22c-.85,2.47-2.14,2.96-4.62,2.96v-2.84Zm2.88,8.31l-1.81-1.81,1.81-1.81,1.51,1.51c.18.22.18.41,0,.59l-1.51,1.51Z"/>
          <path class="cls-3" d="m76.33,160.81h-.37v-5.95c0-.81.18-1.88.44-2.66l.29-.78c.37-1.15,1.04-2.33,3.25-2.33,1.04,0,2.33.26,3.69.59-.67-1.55-2.44-3.32-4.14-3.32-.55,0-1.11.19-1.44,1.15l-.33.85-.37-.11.37-1.11c.41-1.29,1.03-3.55,3.07-3.55,2.48,0,3.55,3.4,3.1,6.06l-.41,2.55-.3.22c-2.29-.44-3.47-.59-5.95-.74v4.73c0,.67-.11,1.55-.3,2.18l-.63,2.22Z"/>
          <path class="cls-3" d="m92.18,152.53c-.44,2.4-1.48,4.32-2.92,5.54l-5.91-.41v-.37c4.47-.92,7.79-2.77,8.57-4.77-5.06,0-6.98-.26-5.62-4.84.59-1.88,1.55-3.95,3.29-3.95,2.62,0,2.81,4.54,2.84,5.95h1.18c.74,0,1.11.37,1.11,1.11v.63c0,.74-.37,1.11-1.11,1.11h-1.44Zm-3.69-6.02c-1.26,0-1.74,1.03-1.85,1.37-.63,1.66,1.85,1.81,5.06,1.81-.55-1.81-1.74-3.18-3.21-3.18Z"/>
          <path class="cls-3" d="m97.24,148.95v.04c-.92,2.55-1.81,3.55-3.66,3.55v-2.84c2.11,0,2.96-.33,3.99-2.11l.37-.67h.37c.52,2.14.96,2.77,1.88,2.77.74,0,1.11.37,1.11,1.11v.63c0,.74-.37,1.11-1.11,1.11-1.77,0-2.62-1.51-2.96-3.58Zm-.96,8.83l-1.7-1.7,1.7-1.74,1.44,1.44s.04.07.07.07l1.51-1.51,1.44,1.44c.18.18.18.37,0,.55l-1.44,1.44-1.51-1.51s-.04.04-.07.07l-1.44,1.44Z"/>
          <path class="cls-3" d="m103.82,149.8c-.26,1.51-1.26,2.73-3.58,2.73v-2.84c.96,0,2.4,0,3.14-.52.37-.26.44-.55.44-1.77v-1.44l.92-1.92h.37v3.14c0,1.26.33,2.51,1.85,2.51.74,0,1.11.37,1.11,1.11v.63c0,.74-.37,1.11-1.11,1.11-1.77,0-3.07-1.03-3.14-2.73Zm1.03-7.61l-1.81-1.81,1.81-1.81,1.51,1.51c.18.22.18.41,0,.59l-1.51,1.51Z"/>
          <path class="cls-3" d="m110.62,148.95v.04c-.92,2.55-1.81,3.55-3.66,3.55v-2.84c2.11,0,2.96-.33,3.99-2.11l.37-.67h.37c.52,2.14.96,2.77,1.88,2.77.74,0,1.11.37,1.11,1.11v.63c0,.74-.37,1.11-1.11,1.11-1.77,0-2.62-1.51-2.96-3.58Zm-.96,8.83l-1.7-1.7,1.7-1.74,1.44,1.44s.04.07.07.07l1.51-1.51,1.44,1.44c.18.18.18.37,0,.55l-1.44,1.44-1.51-1.51s-.04.04-.07.07l-1.44,1.44Z"/>
          <path class="cls-3" d="m113.57,149.69c.96,0,2.4,0,3.14-.52.37-.26.44-.55.44-1.77v-9.16l1.11-2.33h.37v11.27c0,1.29.22,2.51,1.96,2.51.74,0,1.11.37,1.11,1.11v.63c0,.74-.37,1.11-1.11,1.11-2.33,0-3.1-1.59-3.32-3.36l-.07.48c-.26,1.59-1.22,2.88-3.62,2.88v-2.84Z"/>
          <path class="cls-3" d="m124.29,148.95v.04c-.92,2.55-1.81,3.55-3.66,3.55v-2.84c2.11,0,2.96-.33,3.99-2.11l.37-.67h.37c.52,2.14.96,2.77,1.88,2.77.74,0,1.11.37,1.11,1.11v.63c0,.74-.37,1.11-1.11,1.11-1.77,0-2.62-1.51-2.96-3.58Zm-.96,8.83l-1.7-1.7,1.7-1.74,1.44,1.44s.04.07.07.07l1.51-1.51,1.44,1.44c.18.18.18.37,0,.55l-1.44,1.44-1.51-1.51s-.04.04-.07.07l-1.44,1.44Z"/>
          <path class="cls-3" d="m137.66,148.28c.26.78-.07,1.55-.44,2.36l-1.04,2.22-.33.33-6.5-2.25-.37.59c-.37.59-.89,1-1.74,1v-2.84c1.66,0,2.4-.18,3.07-1.22l1.14-1.77c1.15-1.77,1.74-3.07,3.14-3.07,2.33,0,2.81,3.77,3.07,4.65Zm-6.76.22l5.8,2c-1-2.14-1.66-4.54-3.18-4.54-.33,0-1.07.11-1.63,1l-1,1.55Z"/>
        </g>
      </g>
    </g>
  </g>
</svg>