<?xml version="1.0" encoding="UTF-8"?>
<svg id="Layer_2" data-name="Layer 2" xmlns="http://www.w3.org/2000/svg" viewBox="0 0 859.03 187.1">
  <defs>
    <style>
      .cls-1 {
        fill: #d6d6d6;
        stroke-width: 0px;
      }
    </style>
  </defs>
  <g id="Layer_1-2" data-name="Layer 1">
    <g>
      <path class="cls-1" d="m17.92,15.74c1.29,2.24,2.41,6.16,2.41,9.24,0,6.5-5.1,10.75-11.48,10.75-5.15,0-8.85-2.74-8.85-9.52,0-2.46.5-5.21,1.29-7.34l.5.17c-.5,1.62-.84,3.86-.84,5.43,0,4.93,3.3,6.94,8.46,6.94s8.06-2.18,10.14-3.98l-3.7-7.95,1.51-3.75h.56Zm-7.78,1.29l-2.74-2.74,2.74-2.74,2.3,2.3c.28.34.28.62,0,.9l-2.3,2.3Z"/>
      <path class="cls-1" d="m25.37,28.34h-.56V5.15l1.68-3.53h.56v19.1c0,1.12-.17,2.24-.45,3.3l-1.23,4.31Z"/>
      <path class="cls-1" d="m32.48,35.06l-8.68-.62v-.56c4.76-.56,11.87-4.65,12.77-9.74l-4.14-5.82,1.74-3.75h.56c1.79,3.08,2.41,5.43,2.41,8.74,0,5.82-1.9,9.3-4.65,11.76Zm2.02-23.3l-2.74-2.74,2.74-2.74,2.3,2.3c.28.34.28.62,0,.9l-2.3,2.3Z"/>
      <path class="cls-1" d="m40.71,21.06v-9.69c0-2.24-.22-3.58-.56-5.66l1.96-4.09h.56v18.48c0,1.4.9,2.24,2.8,2.24,1.01,0,1.68.67,1.68,1.68v.95c0,1.01-.73,1.68-1.68,1.68-1.9,0-4.76-.45-4.76-5.6Z"/>
      <path class="cls-1" d="m45.47,26.66v-4.31h11.03c2.58,0,5.32-1.12,7.56-2.63-4.48-1.29-9.02-3.42-11.7-3.42-1.34,0-2.69.56-3.47,1.85l-.45-.34,1.29-2.02c1.62-2.46,3.14-2.97,4.76-2.97,4.26,0,9.02,3.75,15.18,3.81h1.29l.5.39-1.4,3.58h-.95c-3.75,0-5.43-.28-8.01,1.68-2.13,1.62-3.7,4.37-9.63,4.37h-5.99Zm12.54,8.29l-2.74-2.74,2.74-2.74,2.3,2.3c.28.34.28.62,0,.9l-2.3,2.3Z"/>
      <path class="cls-1" d="m82.32,7.78l-2.58-2.58,2.58-2.63,2.18,2.18c.06.06.11.11.11.17l2.35-2.35,2.18,2.18c.28.28.28.56,0,.84l-2.18,2.18-2.35-2.35c0,.06-.06.11-.11.17l-2.18,2.18Zm11.76,18.87c-2.91,0-4.48-1.18-4.7-4.31l-.84,2.35-.5.28c-2.69-.5-5.04-1.29-7.17-2.24l.84-3.53c.34-1.51,1.9-2.63,3.19-3.7l4.48-3.7v-1.85l1.34-2.8h.56v13.33c0,1.62,1.46,1.85,2.8,1.85h.06c1.12,0,1.68.56,1.68,1.68v.95c0,1.12-.56,1.68-1.68,1.68h-.06Zm-11.14-7.73c2.07.9,3.58,1.34,6.44,1.96v-8.34l-.5.95c-.45.84-1.46,1.57-2.18,2.18l-3.75,3.25Z"/>
      <path class="cls-1" d="m99.62,21.22v.06c-1.4,3.86-2.74,5.38-5.54,5.38v-4.31c3.19,0,4.48-.5,6.05-3.19l.56-1.01h.56c.78,3.25,1.46,4.2,2.86,4.2,1.12,0,1.68.56,1.68,1.68v.95c0,1.12-.56,1.68-1.68,1.68-2.69,0-3.98-2.3-4.48-5.43Zm1.4-5.88l-2.74-2.74,2.74-2.74,2.3,2.3c.28.34.28.62,0,.9l-2.3,2.3Z"/>
      <path class="cls-1" d="m106.23,34.61l-2.58-2.58,2.58-2.63,2.18,2.18c.06.06.06.11.11.11l2.3-2.3,2.18,2.18c.28.28.28.56,0,.84l-2.18,2.18-2.3-2.3q-.06.06-.11.11l-2.18,2.18Zm-2.13-12.26c2.97,0,4.59-.22,6.61-.84l-2.63-4.37,1.74-3.42h.56c1.46,3.25,2.02,4.48.84,8.12l-.11.34c-1.29,3.75-3.25,4.48-7,4.48v-4.31Z"/>
      <path class="cls-1" d="m124.43,21.28l-3.53-7.28,1.18-3.47h.5l4.7,9.69c.67,1.34,1.18,2.13,2.35,2.13h.06c1.12,0,1.68.56,1.68,1.68v.95c0,1.12-.56,1.68-1.68,1.68h-.06c-2.13,0-3.36-1.62-4.03-2.97l-.73-1.51c-.56,2.52-2.35,4.54-6.38,4.54-3.02,0-4.2-1.12-4.2-3.53,0-.67.11-2.3.28-3.81h.39c-.22,2.24.56,3.02,3.7,3.02,2.02,0,3.86-.34,5.77-1.12Z"/>
      <path class="cls-1" d="m144.14,25.2l-1.62,3.3-.5.17-5.6-2.8c-.84-.39-1.46-.84-1.9-1.29-1.34,1.57-3.25,2.07-4.82,2.07v-4.31c1.79,0,2.97-.17,3.75-.39.11-1.29.95-2.58,2.24-3.7l5.77-4.93h.5l2.58,6.22c.84,1.96,1.74,2.8,3.02,2.8,1.12,0,1.68.56,1.68,1.68v.95c0,1.12-.56,1.68-1.68,1.68-1.34,0-2.46-.5-3.42-1.46Zm-4.59-8.74l-3.58,2.97c-.56.45-.5,1.29.17,1.62l7.78,3.92c-.5-.5-.9-1.18-1.23-1.9l-3.14-6.61Z"/>
      <path class="cls-1" d="m147.56,22.34c2.97,0,4.59-.22,6.61-.84l-2.63-4.37,1.74-3.42h.56c1.46,3.25,2.02,4.48.84,8.12l-.11.34c-1.29,3.75-3.25,4.48-7,4.48v-4.31Zm4.37,12.6l-2.74-2.74,2.74-2.74,2.3,2.3c.28.34.28.62,0,.9l-2.3,2.3Z"/>
      <path class="cls-1" d="m178.86,18.98c6.44,0,8.18,2.07,8.18,5.43,0,6.27-6.27,8.9-12.1,8.9s-9.41-2.46-9.41-8.46c0-2.58.67-5.04,1.85-7.62l.39.17c-.62,1.29-1.34,3.3-1.34,5.43,0,3.81,2.46,6.1,9.02,6.1,5.21,0,9.69-1.46,11.09-3.64-.06-1.18-2.46-2.02-5.99-2.02h-4.48l-.28-.5,1.01-3.81h2.07Zm-5.99,22.23l-2.58-2.58,2.58-2.63,2.18,2.18c.06.06.06.11.11.11l2.3-2.3,2.18,2.18c.28.28.28.56,0,.84l-2.18,2.18-2.3-2.3q-.06.06-.11.11l-2.18,2.18Z"/>
      <path class="cls-1" d="m176.85,18.98c2.63,0,4.76-.34,6.78-1.12l-2.8-4.09,1.74-3.42h.56c1.46,3.25,2.02,4.03.78,7.67l-.11.39c-.56,1.68-3.3,3.19-6.94,3.19v-2.63Zm6.27-11.42l-2.74-2.74,2.74-2.74,2.3,2.3c.28.34.28.62,0,.9l-2.3,2.3Z"/>
      <path class="cls-1" d="m190.68,21.06v-9.69c0-2.24-.22-3.58-.56-5.66l1.96-4.09h.56v18.48c0,1.4.9,2.24,2.8,2.24,1.01,0,1.68.67,1.68,1.68v.95c0,1.01-.73,1.68-1.68,1.68-1.9,0-4.76-.45-4.76-5.6Z"/>
      <path class="cls-1" d="m200.98,21.22v.06c-1.4,3.86-2.74,5.38-5.54,5.38v-4.31c3.19,0,4.48-.5,6.05-3.19l.56-1.01h.56c.78,3.25,1.46,4.2,2.86,4.2,1.12,0,1.68.56,1.68,1.68v.95c0,1.12-.56,1.68-1.68,1.68-2.69,0-3.98-2.3-4.48-5.43Zm-1.12-5.99l-2.58-2.58,2.58-2.63,2.18,2.18c.06.06.11.11.11.17l2.35-2.35,2.18,2.18c.28.28.28.56,0,.84l-2.18,2.18-2.35-2.35c0,.06-.06.11-.11.17l-2.18,2.18Zm2.46-4.59l-2.58-2.58,2.58-2.58,2.18,2.18c.22.28.22.5,0,.78l-2.18,2.18Z"/>
      <path class="cls-1" d="m211.34,1.46l.5.17-.34,1.4,3.14,1.96-1.62,3.7v8.29c0,4.65-2.24,9.69-7.56,9.69v-4.31c1.85,0,3.58-.34,5.6-1.12V7.67c-1.23-.95-1.51-2.13-.84-3.64l1.12-2.58Z"/>
      <path class="cls-1" d="m218.06,28.34h-.56V5.15l1.68-3.53h.56v19.1c0,1.12-.17,2.24-.45,3.3l-1.23,4.31Z"/>
      <path class="cls-1" d="m254.41,17.3c-.73-1.23-1.51-1.46-2.46-1.46-4.09,0-7.11,4.09-7.11,5.04,0,.67,1.29.84,2.46.95l5.21.73c1.46.22,1.74,1.06,1.62,2.35l-.22,1.74c-.45,4.76-6.22,8.06-12.43,8.06s-8.96-3.08-8.96-9.07c0-3.25.9-6.55,1.96-8.68l.5.28c-.62,1.29-1.51,3.58-1.51,6.1,0,4.26,2.46,7,9.13,7,4.7,0,9.07-1.4,10.86-3.53l-7.17-1.23c-1.62-.22-2.3-1.01-2.18-3.14.22-4.42,3.58-10.92,8.46-10.92,3.75,0,3.14,3.75,2.35,5.6l-.5.17Zm-14.5,25.31l-2.58-2.58,2.58-2.63,2.18,2.18c.06.06.06.11.11.11l2.3-2.3,2.18,2.18c.28.28.28.56,0,.84l-2.18,2.18-2.3-2.3q-.06.06-.11.11l-2.18,2.18Z"/>
      <path class="cls-1" d="m267.9,26.66c-.67,3.64-2.24,6.55-4.42,8.4l-8.96-.62v-.56c6.78-1.4,11.82-4.2,12.99-7.22-7.67,0-10.58-.39-8.51-7.34.9-2.86,2.35-5.99,4.98-5.99,3.98,0,4.26,6.89,4.31,9.02h1.79c1.12,0,1.68.56,1.68,1.68v.95c0,1.12-.56,1.68-1.68,1.68h-2.18Zm-5.6-9.13c-1.9,0-2.63,1.57-2.8,2.07-.95,2.52,2.8,2.74,7.67,2.74-.84-2.74-2.63-4.82-4.87-4.82Z"/>
      <path class="cls-1" d="m275.52,22.51c-.39,2.3-1.9,4.14-5.43,4.14v-4.31c1.46,0,3.64,0,4.76-.78.56-.39.67-.84.67-2.69v-2.18l1.4-2.91h.56v4.76c0,1.9.5,3.81,2.8,3.81,1.12,0,1.68.56,1.68,1.68v.95c0,1.12-.56,1.68-1.68,1.68-2.69,0-4.65-1.57-4.76-4.14Zm1.57-11.54l-2.74-2.74,2.74-2.74,2.3,2.3c.28.34.28.62,0,.9l-2.3,2.3Z"/>
      <path class="cls-1" d="m287.17,16.86l.9.22-1.06,3.42c1.62,1.23,3.36,1.85,4.76,1.85,1.51,0,2.13-.73,2.69-2.07l1.29-3.42.95.22-1.57,4.76,2.97.73c.73.17,1.29.28,1.74.28.9,0,1.4-.34,1.74-.73l-2.63-5.04,1.4-3.42.56.06,3.02,7.11c.45,1.12.95,1.51,1.9,1.51,1.12,0,1.68.56,1.68,1.68v.95c0,1.12-.56,1.68-1.68,1.68-1.23,0-2.3-.84-3.25-2.69l-.56-.95-.5,1.18c-.67,1.46-1.4,2.69-3.3,2.69-.45,0-1.01-.06-1.62-.22-.28-.06-2.3-.62-3.42-.9-.67.56-1.57.9-2.8.9-.45,0-2.63-.06-4.87-2.41-.95,1.51-2.41,2.41-5.21,2.41v-4.31c1.68,0,4.87-.11,5.77-2.58l1.12-2.91Z"/>
      <path class="cls-1" d="m311.7,1.46l.5.17-.34,1.4,3.14,1.96-1.62,3.7v8.29c0,4.65-2.24,9.69-7.56,9.69v-4.31c1.85,0,3.58-.34,5.6-1.12V7.67c-1.23-.95-1.51-2.13-.84-3.64l1.12-2.58Z"/>
      <path class="cls-1" d="m318.42,28.34h-.56V5.15l1.68-3.53h.56v19.1c0,1.12-.17,2.24-.45,3.3l-1.23,4.31Z"/>
      <path class="cls-1" d="m349.78,15.4h.45l1.96,5.49c.39,1.06,1.01,1.46,2.35,1.46,1.12,0,1.68.56,1.68,1.68v.95c0,1.12-.56,1.68-1.68,1.68-.9,0-1.85-.17-2.8-1.01-.56,5.6-4.65,8.9-10.3,8.9-5.21,0-8.51-2.91-8.51-9.18,0-2.97.73-5.66,1.29-7.11l.45.11c-.5,1.4-.78,3.25-.78,4.76,0,4.93,3.42,7.11,8.29,7.11,4.26,0,6.94-1.62,8.79-3.02l-2.91-8.4,1.74-3.42Zm-7.28.62l-2.74-2.74,2.74-2.74,2.3,2.3c.28.34.28.62,0,.9l-2.3,2.3Z"/>
      <path class="cls-1" d="m356.66,34.61l-2.58-2.58,2.58-2.63,2.18,2.18c.06.06.06.11.11.11l2.3-2.3,2.18,2.18c.28.28.28.56,0,.84l-2.18,2.18-2.3-2.3q-.06.06-.11.11l-2.18,2.18Zm-2.13-12.26c2.97,0,4.59-.22,6.61-.84l-2.63-4.37,1.74-3.42h.56c1.46,3.25,2.02,4.48.84,8.12l-.11.34c-1.29,3.75-3.25,4.48-7,4.48v-4.31Z"/>
      <path class="cls-1" d="m369.49,25.42c0,3.64-1.46,6.5-4.31,9.69l-8.68-.73v-.56c6.38-1.46,9.52-3.58,12.49-8.18l-2.97-6.83,1.74-3.42h.45l1.96,5.49c.34,1.06,1.01,1.46,2.35,1.46,1.12,0,1.68.56,1.68,1.68v.95c0,1.12-.56,1.68-1.68,1.68-.95,0-2.02-.22-3.02-1.23Z"/>
      <path class="cls-1" d="m375.2,22.34c.62,0,1.29.06,2.02.22-.11-1.46,1.12-2.8,2.91-4.31l5.6-4.87h.56l3.08,7.28c.45,1.18,1.06,1.68,2.13,1.68,1.12,0,1.68.56,1.68,1.68v.95c0,1.12-.56,1.68-1.68,1.68-2.13,0-3.36-1.23-4.98-4.7l-2.52-5.49-3.53,2.91c-.73.56-.73,1.12,0,1.68l6.5,5.38-2.18,3.36-.56.17-2.02-1.74c-1.62-1.46-2.69-1.57-5.1-1.57h-4.59v-4.31h2.69Z"/>
      <path class="cls-1" d="m385.28,10.25l-2.58-2.58,2.58-2.63,2.18,2.18c.06.06.11.11.11.17l2.35-2.35,2.18,2.18c.28.28.28.56,0,.84l-2.18,2.18-2.35-2.35c0,.06-.06.11-.11.17l-2.18,2.18Zm2.46-4.59l-2.58-2.58,2.58-2.58,2.18,2.18c.22.28.22.5,0,.78l-2.18,2.18Zm4.37,16.69l1.62.56v3.19l-1.62.56h-.62v-4.31h.62Z"/>
      <path class="cls-1" d="m397.54,22.51c-.39,2.3-1.9,4.14-5.43,4.14v-4.31c1.46,0,3.64,0,4.76-.78.56-.39.67-.84.67-2.69v-2.18l1.4-2.91h.56v4.76c0,1.9.5,3.81,2.8,3.81,1.12,0,1.68.56,1.68,1.68v.95c0,1.12-.56,1.68-1.68,1.68-2.69,0-4.65-1.57-4.76-4.14Zm-.95-11.7l-2.58-2.58,2.58-2.63,2.18,2.18c.06.06.11.11.11.17l2.35-2.35,2.18,2.18c.28.28.28.56,0,.84l-2.18,2.18-2.35-2.35c0,.06-.06.11-.11.17l-2.18,2.18Z"/>
      <path class="cls-1" d="m409.19,16.86l.9.22-1.06,3.42c1.62,1.23,3.36,1.85,4.76,1.85,1.51,0,2.13-.73,2.69-2.07l1.29-3.42.95.22-1.57,4.76,2.97.73c.73.17,1.29.28,1.74.28.9,0,1.4-.34,1.74-.73l-2.63-5.04,1.4-3.42.56.06,3.02,7.11c.45,1.12.95,1.51,1.9,1.51,1.12,0,1.68.56,1.68,1.68v.95c0,1.12-.56,1.68-1.68,1.68-1.23,0-2.3-.84-3.25-2.69l-.56-.95-.5,1.18c-.67,1.46-1.4,2.69-3.3,2.69-.45,0-1.01-.06-1.62-.22-.28-.06-2.3-.62-3.42-.9-.67.56-1.57.9-2.8.9-.45,0-2.63-.06-4.87-2.41-.95,1.51-2.41,2.41-5.21,2.41v-4.31c1.68,0,4.87-.11,5.77-2.58l1.12-2.91Z"/>
      <path class="cls-1" d="m440.44,23.07l-2.07,3.81c-2.58-1.85-3.86-2.52-4.54-2.58-1.12,0-2.46,2.35-5.94,2.35v-4.31c4.03,0,4.93-.56,7.06-2.58,2.24,1.12,3.47,1.85,5.49,3.3Z"/>
      <path class="cls-1" d="m433.78,1.46l.5.17-.34,1.4,3.14,1.96-1.62,3.7v9.18c0,1.62.45,2.24,1.62,3.19l2.18,1.79-3.98-.22c-1.06-.84-1.79-2.3-1.79-3.64V7.67c-1.23-.95-1.51-2.13-.84-3.64l1.12-2.58Z"/>
      <path class="cls-1" d="m444.3,28.34h-.56V5.15l1.68-3.53h.56v19.1c0,1.12-.17,2.24-.45,3.3l-1.23,4.31Z"/>
      <path class="cls-1" d="m469.62,21.22c2.46.84,4.42,1.12,7.45,1.12l1.68.22v3.08c.22.45.34,1.12.34,1.9,0,5.38-5.1,8.96-11.87,8.96s-9.63-3.25-9.63-9.58c0-2.97.67-5.66,1.85-8.18l.39.17c-.62,1.29-1.34,3.64-1.34,5.94,0,4.65,2.91,7.28,9.02,7.28,4.87,0,9.3-1.68,11.09-4.2-1.18-.28-3.64-.84-6.5-1.57-1.06-.22-2.07-.45-3.19-.84l-.28-.45,1.01-3.86Z"/>
      <path class="cls-1" d="m486.58,24.64c-2.74,1.4-5.1,2.02-9.52,2.02v-4.31c2.63,0,4.76-.06,6.61-.28-.73-.95-1.46-2.24-1.4-3.75,0-3.19,3.14-6.72,6.55-6.72,4.09,0,4.7,4.98,3.19,8.18-.39.84-.9,1.62-1.62,2.3,1.4.22,2.74.28,3.75.28,1.12,0,1.68.56,1.68,1.68v.95c0,1.12-.56,1.68-1.68,1.68-2.41,0-5.21-.56-7.56-2.02Zm1.01-3.3c1.68-.45,3.14-1.06,4.09-1.68-.45-1.74-1.46-3.42-2.58-4.2-2.63,0-4.93.73-6.38,2.02,1.12,1.96,2.97,3.14,4.87,3.86Zm-1.85-12.71l-2.58-2.58,2.58-2.63,2.18,2.18c.06.06.11.11.11.17l2.35-2.35,2.18,2.18c.28.28.28.56,0,.84l-2.18,2.18-2.35-2.35c0,.06-.06.11-.11.17l-2.18,2.18Z"/>
      <path class="cls-1" d="m499.69,21.22v.06c-1.4,3.86-2.74,5.38-5.54,5.38v-4.31c3.19,0,4.48-.5,6.05-3.19l.56-1.01h.56c.78,3.25,1.46,4.2,2.86,4.2,1.12,0,1.68.56,1.68,1.68v.95c0,1.12-.56,1.68-1.68,1.68-2.69,0-3.98-2.3-4.48-5.43Zm-1.12-6.05l-2.58-2.58,2.58-2.63,2.18,2.18c.06.06.11.11.11.17l2.35-2.35,2.18,2.18c.28.28.28.56,0,.84l-2.18,2.18-2.35-2.35c0,.06-.06.11-.11.17l-2.18,2.18Z"/>
      <path class="cls-1" d="m504.17,22.34c1.46,0,3.64,0,4.76-.78.56-.39.67-.84.67-2.69V4.98l1.68-3.53h.56v17.08c0,1.96.34,3.81,2.97,3.81,1.12,0,1.68.56,1.68,1.68v.95c0,1.12-.56,1.68-1.68,1.68-3.53,0-4.7-2.41-5.04-5.1l-.11.73c-.39,2.41-1.85,4.37-5.49,4.37v-4.31Z"/>
      <path class="cls-1" d="m527.46,23.07l-2.07,3.81c-2.58-1.85-3.86-2.52-4.54-2.58-1.12,0-2.46,2.35-5.94,2.35v-4.31c4.03,0,4.93-.56,7.06-2.58,2.24,1.12,3.47,1.85,5.49,3.3Z"/>
      <path class="cls-1" d="m520.8,1.46l.5.17-.34,1.4,3.14,1.96-1.62,3.7v9.18c0,1.62.45,2.24,1.62,3.19l2.18,1.79-3.98-.22c-1.06-.84-1.79-2.3-1.79-3.64V7.67c-1.23-.95-1.51-2.13-.84-3.64l1.12-2.58Z"/>
      <path class="cls-1" d="m537.66,39.2h-.56v-9.02c0-1.23.28-2.86.67-4.03l.45-1.18c.56-1.74,1.57-3.53,4.93-3.53,1.57,0,3.53.39,5.6.9-1.01-2.35-3.7-5.04-6.27-5.04-.84,0-1.68.28-2.18,1.74l-.5,1.29-.56-.17.56-1.68c.62-1.96,1.57-5.38,4.65-5.38,3.75,0,5.38,5.15,4.7,9.18l-.62,3.86-.45.34c-3.47-.67-5.26-.9-9.02-1.12v7.17c0,1.01-.17,2.35-.45,3.3l-.95,3.36Z"/>
      <path class="cls-1" d="m552.83,21.06v-9.69c0-2.24-.22-3.58-.56-5.66l1.96-4.09h.56v18.48c0,1.4.9,2.24,2.8,2.24,1.01,0,1.68.67,1.68,1.68v.95c0,1.01-.73,1.68-1.68,1.68-1.9,0-4.76-.45-4.76-5.6Z"/>
      <path class="cls-1" d="m560.28,22.34c.62,0,1.29.06,2.02.22-.11-1.46,1.12-2.8,2.91-4.31l5.6-4.87h.56l3.08,7.28c.45,1.18,1.06,1.68,2.13,1.68,1.12,0,1.68.56,1.68,1.68v.95c0,1.12-.56,1.68-1.68,1.68-2.13,0-3.36-1.23-4.98-4.7l-2.52-5.49-3.53,2.91c-.73.56-.73,1.12,0,1.68l6.5,5.38-2.18,3.36-.56.17-2.02-1.74c-1.62-1.46-2.69-1.57-5.1-1.57h-4.59v-4.31h2.69Z"/>
      <path class="cls-1" d="m576.58,22.34c5.26,0,11.03-.56,14.67-1.12l-2.07-2.69c-1.18-1.51-2.13-2.41-3.81-2.41-2.74,0-6.16,2.58-11.2,6.72l-.62-.34c4.03-3.7,9.46-9.58,14-9.58.9,0,1.79.22,2.52.78,2.02,1.46,2.41,4.31,1.68,7.45l-.06.28c-.06.28-.17.62-.22.84.5.06,1.12.06,1.74.06,1.12,0,1.68.56,1.68,1.68v.95c0,1.12-.56,1.68-1.68,1.68-2.41,0-4.31-.22-6.33-.9-2.41.62-5.71.9-10.3.9v-4.31Zm.95-10.08l-2.74-2.74,2.74-2.74,2.3,2.3c.28.34.28.62,0,.9l-2.3,2.3Z"/>
      <path class="cls-1" d="m593.21,22.34c2.97,0,4.59-.22,6.61-.84l-2.63-4.37,1.74-3.42h.56c1.46,3.25,2.02,4.48.84,8.12l-.11.34c-1.29,3.75-3.25,4.48-7,4.48v-4.31Zm5.94-11.42l-2.74-2.74,2.74-2.74,2.3,2.3c.28.34.28.62,0,.9l-2.3,2.3Z"/>
      <path class="cls-1" d="m607.26,3.7c4.09,5.66,5.88,9.35,8.01,18.37l-1.06.28c-1.23-6.27-4.03-9.24-5.99-11.09l-1.62.67-1.68-2.02c-1.68-1.96.06-4.09.9-5.26l.67-.95h.78Z"/>
      <path class="cls-1" d="m603.4,27.38c9.97-3.25,16.52-7.11,16.52-19.94v-2.46l1.74-3.53h.56v17.08c0,1.96.34,3.81,2.97,3.81,1.12,0,1.68.56,1.68,1.68v.95c0,1.12-.56,1.68-1.68,1.68-4.7,0-5.26-4.31-5.26-7.78v-3.58h-.17c-1.12,5.32-2.97,8.85-5.21,12.1l-10.98.56-.17-.56Z"/>
      <path class="cls-1" d="m631.06,1.46l.5.17-.34,1.4,3.14,1.96-1.62,3.7v8.29c0,4.65-2.24,9.69-7.56,9.69v-4.31c1.85,0,3.58-.34,5.6-1.12V7.67c-1.23-.95-1.51-2.13-.84-3.64l1.12-2.58Z"/>
      <path class="cls-1" d="m655.31,13.61h.5l3.08,5.94c1.12,2.24,1.62,2.8,2.58,2.8h.06c1.12,0,1.68.56,1.68,1.68v.95c0,1.12-.56,1.68-1.68,1.68h-.06c-1.18,0-1.9-.39-2.63-1.34l-1.51,3.19-6.44-2.02c-1.74-.5-3.02-.84-2.58-3.7l.5-3.47c-.84.56-1.85,1.23-3.08,2.18v8.23c0,1.12-.17,2.18-.5,3.3l-1.12,4.09h-.56v-12.21l2.3-5.1c.5-1.12,1.18-1.96,2.07-2.58,2.3-1.57,5.1-2.97,7.39-3.64Zm-1.46,3.3c-1.06.45-1.79.73-2.18.95-3.25,1.62-3.19,3.92-.22,4.7l6.72,1.79c-.22-.34-.5-.78-.78-1.29l-3.53-6.16Z"/>
      <path class="cls-1" d="m694.12,25.2c-3.36,1.06-9.02,1.46-17.53,1.46h-15.06v-4.31h15.06c11.7,0,15.62-.17,21.22-1.68l-.17-.62c-.45-1.62-1.23-1.9-6.94-1.9h-12.6c-4.31,0-7.22-.11-11.2-.5-1.01-.11-1.51-.73-1.23-1.68,2.13-6.38,6.5-8.74,13.61-12.77l.5.39-1.34,4.09-10.19,5.94c3.36.5,6.22.56,9.86.56h13.27c8.18,0,7.28,3.86,6.89,6.89l-.06.34c0,.28-.11.56-.17.78,1.06.11,2.3.17,3.75.17,1.12,0,1.68.56,1.68,1.68v.95c0,1.12-.56,1.68-1.68,1.68-2.91,0-5.1-.34-7.67-1.46Z"/>
      <path class="cls-1" d="m701.85,22.34c2.97,0,4.59-.22,6.61-.84l-2.63-4.37,1.74-3.42h.56c1.46,3.25,2.02,4.48.84,8.12l-.11.34c-1.29,3.75-3.25,4.48-7,4.48v-4.31Zm3.42-11.59l-2.58-2.58,2.58-2.63,2.18,2.18c.06.06.11.11.11.17l2.35-2.35,2.18,2.18c.28.28.28.56,0,.84l-2.18,2.18-2.35-2.35c0,.06-.06.11-.11.17l-2.18,2.18Z"/>
      <path class="cls-1" d="m722.01,26.66c-.67,3.64-2.24,6.55-4.42,8.4l-8.96-.62v-.56c6.78-1.4,11.82-4.2,12.99-7.22-7.67,0-10.58-.39-8.51-7.34.9-2.86,2.35-5.99,4.98-5.99,3.98,0,4.26,6.89,4.31,9.02h1.79c1.12,0,1.68.56,1.68,1.68v.95c0,1.12-.56,1.68-1.68,1.68h-2.18Zm-5.6-9.13c-1.9,0-2.63,1.57-2.8,2.07-.95,2.52,2.8,2.74,7.67,2.74-.84-2.74-2.63-4.82-4.87-4.82Z"/>
      <path class="cls-1" d="m739.82,25.54c-3.14.56-7.06,1.12-11.65,1.12h-4.03v-4.31h6.05c-.62-1.18-1.06-2.52-1.06-4.14,0-3.7,2.63-6.89,5.88-6.89,2.58,0,4.42,1.96,5.38,5.6l-.39.39c-1.79-1.23-3.25-1.79-4.7-1.79-1.9,0-4.14.9-5.6,2.24,1.4,1.51,3.02,3.14,4.31,4.37,2.58-.17,4.87-.5,7.78-.9l.28.5-2.24,3.81Z"/>
      <path class="cls-1" d="m754.26,21.28l-3.53-7.28,1.18-3.47h.5l4.7,9.69c.67,1.34,1.18,2.13,2.35,2.13h.06c1.12,0,1.68.56,1.68,1.68v.95c0,1.12-.56,1.68-1.68,1.68h-.06c-2.13,0-3.36-1.62-4.03-2.97l-.73-1.51c-.56,2.52-2.35,4.54-6.38,4.54-3.02,0-4.2-1.12-4.2-3.53,0-.67.11-2.3.28-3.81h.39c-.22,2.24.56,3.02,3.7,3.02,2.02,0,3.86-.34,5.77-1.12Z"/>
      <path class="cls-1" d="m759.53,22.34c2.97,0,4.59-.22,6.61-.84l-2.63-4.37,1.74-3.42h.56c1.46,3.25,2.02,4.48.84,8.12l-.11.34c-1.29,3.75-3.25,4.48-7,4.48v-4.31Zm4.37,12.6l-2.74-2.74,2.74-2.74,2.3,2.3c.28.34.28.62,0,.9l-2.3,2.3Z"/>
      <path class="cls-1" d="m802.82,21.17c-.22-1.18-.5-2.63-.84-3.98l-.9,2.35c-.78.78-1.9,1.57-3.47,1.57-1.79,0-3.58-1.06-2.58-5.77.45-2.18,1.9-7.06,5.1-7.06,4.03,0,4.14,9.58,3.25,12.71l-.11.39c-1.57,5.6-8.9,5.82-13.72,5.82-3.3,0-6.78-.34-8.62-1.34-1.74-.9-2.24-2.52-2.24-4.54,0-1.68.34-3.64.78-5.49h.56c-.28,3.08-.62,4.98,1.62,5.88,1.62.67,5.49,1.18,9.18,1.18,3.42,0,7.62-.45,11.98-1.74Zm-4.59-8.68c-1.51,0-2.13,1.4-2.3,1.85-.78,2.02.28,2.97,2.41,2.97,1.46,0,2.58-.45,3.3-1.06-.67-2.07-1.68-3.75-3.42-3.75Zm1.74-7l-2.74-2.74,2.74-2.74,2.3,2.3c.28.34.28.62,0,.9l-2.3,2.3Z"/>
      <path class="cls-1" d="m812.28,18.76c4.48,0,7.06-.73,7.95-2.24h.56v2.02c0,2.86.67,3.81,3.92,3.81,1.12,0,1.68.56,1.68,1.68v.95c0,1.12-.56,1.68-1.68,1.68-3.42,0-5.04-1.34-5.04-4.65,0-.56.06-1.68.28-3.42-.17.28-.62,1.34-.73,1.62-.73,1.79-2.07,2.74-6.22,2.86v.11c0,5.77-1.9,9.3-4.65,11.93l-8.68-.67v-.56c5.21-.62,12.04-4.98,12.94-10.42l-.28-.39h-4.82l-.45-.5.9-3.81h4.31Z"/>
      <path class="cls-1" d="m830.48,16.13l.95.28-1.4,4.26c-.17.39-.28.73-.39,1.12l3.19.78c.73.17,1.29.28,1.74.28.9,0,1.4-.34,1.74-.73l-2.63-5.04,1.4-3.42.56.06,3.02,7.11c.45,1.12.95,1.51,1.9,1.51,1.12,0,1.68.56,1.68,1.68v.95c0,1.12-.56,1.68-1.68,1.68-1.23,0-2.3-.84-3.25-2.69l-.56-.95-.5,1.18c-.67,1.46-1.4,2.69-3.3,2.69-.45,0-1.01-.06-1.62-.22-.28-.11-3.02-.78-3.92-1.06-.73.67-1.57,1.06-2.63,1.06v-4.31c1.9,0,3.42-.11,4.26-2.35l1.46-3.86Zm-2.52-2.86l-2.58-2.58,2.58-2.63,2.18,2.18c.06.06.11.11.11.17l2.35-2.35,2.18,2.18c.28.28.28.56,0,.84l-2.18,2.18-2.35-2.35c0,.06-.06.11-.11.17l-2.18,2.18Zm2.52-4.65l-2.58-2.58,2.58-2.58,2.18,2.18c.22.28.22.5,0,.78l-2.18,2.18Z"/>
      <path class="cls-1" d="m846.1,21.22v.06c-1.4,3.86-2.74,5.38-5.54,5.38v-4.31c3.19,0,4.48-.5,6.05-3.19l.56-1.01h.56c.78,3.25,1.46,4.2,2.86,4.2,1.12,0,1.68.56,1.68,1.68v.95c0,1.12-.56,1.68-1.68,1.68-2.69,0-3.98-2.3-4.48-5.43Zm-1.12-6.05l-2.58-2.58,2.58-2.63,2.18,2.18c.06.06.11.11.11.17l2.35-2.35,2.18,2.18c.28.28.28.56,0,.84l-2.18,2.18-2.35-2.35c0,.06-.06.11-.11.17l-2.18,2.18Z"/>
      <path class="cls-1" d="m850.58,22.34c2.97,0,4.59-.22,6.61-.84l-2.63-4.37,1.74-3.42h.56c1.46,3.25,2.02,4.48.84,8.12l-.11.34c-1.29,3.75-3.25,4.48-7,4.48v-4.31Zm5.94-11.42l-2.74-2.74,2.74-2.74,2.3,2.3c.28.34.28.62,0,.9l-2.3,2.3Z"/>
      <path class="cls-1" d="m247.16,58.18l-2.58-2.58,2.58-2.63,2.18,2.18c.06.06.11.11.11.17l2.35-2.35,2.18,2.18c.28.28.28.56,0,.84l-2.18,2.18-2.35-2.35c0,.06-.06.11-.11.17l-2.18,2.18Zm11.76,18.87c-2.91,0-4.48-1.18-4.7-4.31l-.84,2.35-.5.28c-2.69-.5-5.04-1.29-7.17-2.24l.84-3.53c.34-1.51,1.9-2.63,3.19-3.7l4.48-3.7v-1.85l1.34-2.8h.56v13.33c0,1.62,1.46,1.85,2.8,1.85h.06c1.12,0,1.68.56,1.68,1.68v.95c0,1.12-.56,1.68-1.68,1.68h-.06Zm-11.14-7.73c2.07.9,3.58,1.34,6.44,1.96v-8.34l-.5.95c-.45.84-1.46,1.57-2.18,2.18l-3.75,3.25Z"/>
      <path class="cls-1" d="m264.46,71.62v.06c-1.4,3.86-2.74,5.38-5.54,5.38v-4.31c3.19,0,4.48-.5,6.05-3.19l.56-1.01h.56c.78,3.25,1.46,4.2,2.86,4.2,1.12,0,1.68.56,1.68,1.68v.95c0,1.12-.56,1.68-1.68,1.68-2.69,0-3.98-2.3-4.48-5.43Zm-1.46,13.38l-2.58-2.58,2.58-2.63,2.18,2.18c.06.06.06.11.11.11l2.3-2.3,2.18,2.18c.28.28.28.56,0,.84l-2.18,2.18-2.3-2.3q-.06.06-.11.11l-2.18,2.18Z"/>
      <path class="cls-1" d="m268.94,72.74c1.46,0,3.64,0,4.76-.78.56-.39.67-.84.67-2.69v-13.89l1.68-3.53h.56v17.08c0,1.96.34,3.81,2.97,3.81,1.12,0,1.68.56,1.68,1.68v.95c0,1.12-.56,1.68-1.68,1.68-3.53,0-4.7-2.41-5.04-5.1l-.11.73c-.39,2.41-1.85,4.37-5.49,4.37v-4.31Z"/>
      <path class="cls-1" d="m281.76,85.01l-2.58-2.58,2.58-2.63,2.18,2.18c.06.06.06.11.11.11l2.3-2.3,2.18,2.18c.28.28.28.56,0,.84l-2.18,2.18-2.3-2.3q-.06.06-.11.11l-2.18,2.18Zm-2.13-12.26c2.97,0,4.59-.22,6.61-.84l-2.63-4.37,1.74-3.42h.56c1.46,3.25,2.02,4.48.84,8.12l-.11.34c-1.29,3.75-3.25,4.48-7,4.48v-4.31Z"/>
      <path class="cls-1" d="m299.8,77.06c-.67,3.64-2.24,6.55-4.42,8.4l-8.96-.62v-.56c6.78-1.4,11.82-4.2,12.99-7.22-7.67,0-10.58-.39-8.51-7.34.9-2.86,2.35-5.99,4.98-5.99,3.98,0,4.26,6.89,4.31,9.02h1.79c1.12,0,1.68.56,1.68,1.68v.95c0,1.12-.56,1.68-1.68,1.68h-2.18Zm-5.6-9.13c-1.9,0-2.63,1.57-2.8,2.07-.95,2.52,2.8,2.74,7.67,2.74-.84-2.74-2.63-4.82-4.87-4.82Z"/>
      <path class="cls-1" d="m301.92,77.06v-4.31h7.62c4.31,0,7.56-1.57,9.8-2.97-4.14-1.29-8.12-3.08-10.58-3.08-1.34,0-2.69.56-3.47,1.85l-.45-.34,1.29-2.02c1.62-2.46,3.14-2.97,4.76-2.97,4.26,0,9.02,3.75,15.18,3.81h1.29l.5.39-1.4,3.64h-.39c-1.74,0-3.7-.39-5.66-.95.17,1.46,1.23,2.63,2.69,2.63h4.7c1.12,0,1.68.56,1.68,1.68v.95c0,1.12-.56,1.68-1.68,1.68h-2.86c-3.58,0-5.6-2.41-5.6-6.05v-.62c-4.65,3.3-7.62,6.66-14.84,6.66h-2.58Z"/>
      <path class="cls-1" d="m333.34,71.62v.06c-1.4,3.86-2.74,5.38-5.54,5.38v-4.31c3.19,0,4.48-.5,6.05-3.19l.56-1.01h.56c.78,3.25,1.46,4.2,2.86,4.2,1.12,0,1.68.56,1.68,1.68v.95c0,1.12-.56,1.68-1.68,1.68-2.69,0-3.98-2.3-4.48-5.43Zm-1.12-6.05l-2.58-2.58,2.58-2.63,2.18,2.18c.06.06.11.11.11.17l2.35-2.35,2.18,2.18c.28.28.28.56,0,.84l-2.18,2.18-2.35-2.35c0,.06-.06.11-.11.17l-2.18,2.18Z"/>
      <path class="cls-1" d="m343.7,51.86l.5.17-.34,1.4,3.14,1.96-1.62,3.7v8.29c0,4.65-2.24,9.69-7.56,9.69v-4.31c1.85,0,3.58-.34,5.6-1.12v-13.55c-1.23-.95-1.51-2.13-.84-3.64l1.12-2.58Z"/>
      <path class="cls-1" d="m350.42,78.74h-.56v-23.18l1.68-3.53h.56v19.1c0,1.12-.17,2.24-.45,3.3l-1.23,4.31Z"/>
      <path class="cls-1" d="m356.86,69.05c.73-2.3,2.18-5.32,4.76-5.32,4.14,0,4.37,7.73,4.37,9.46,0,5.38-1.9,9.74-4.82,12.26l-8.96-.62v-.56c7.5-1.57,12.66-4.65,12.99-7.73.06-1.62-.11-3.02-.45-4.26l-.73,2.58c-.9,1.23-2.18,2.18-3.75,2.18-1.96,0-5.49-1.51-3.42-8.01Zm.22,1.06c-.9,2.46,2.13,2.63,3.14,2.63,1.9,0,3.19-.67,4.2-1.46-.9-2.13-2.35-3.36-4.26-3.36-2.07,0-2.86,1.57-3.08,2.18Z"/>
      <path class="cls-1" d="m378.81,58.18l-2.58-2.58,2.58-2.63,2.18,2.18c.06.06.11.11.11.17l2.35-2.35,2.18,2.18c.28.28.28.56,0,.84l-2.18,2.18-2.35-2.35c0,.06-.06.11-.11.17l-2.18,2.18Zm11.76,18.87c-2.91,0-4.48-1.18-4.7-4.31l-.84,2.35-.5.28c-2.69-.5-5.04-1.29-7.17-2.24l.84-3.53c.34-1.51,1.9-2.63,3.19-3.7l4.48-3.7v-1.85l1.34-2.8h.56v13.33c0,1.62,1.46,1.85,2.8,1.85h.06c1.12,0,1.68.56,1.68,1.68v.95c0,1.12-.56,1.68-1.68,1.68h-.06Zm-11.14-7.73c2.07.9,3.58,1.34,6.44,1.96v-8.34l-.5.95c-.45.84-1.46,1.57-2.18,2.18l-3.75,3.25Z"/>
      <path class="cls-1" d="m396.06,72.91c-.39,2.3-1.9,4.14-5.43,4.14v-4.31c1.46,0,3.64,0,4.76-.78.56-.39.67-.84.67-2.69v-2.18l1.4-2.91h.56v4.76c0,1.9.5,3.81,2.8,3.81,1.12,0,1.68.56,1.68,1.68v.95c0,1.12-.56,1.68-1.68,1.68-2.69,0-4.65-1.57-4.76-4.14Zm-2.46,12.1l-2.58-2.58,2.58-2.63,2.18,2.18c.06.06.06.11.11.11l2.3-2.3,2.18,2.18c.28.28.28.56,0,.84l-2.18,2.18-2.3-2.3q-.06.06-.11.11l-2.18,2.18Z"/>
      <path class="cls-1" d="m407.71,67.26l.9.22-1.06,3.42c1.62,1.23,3.36,1.85,4.76,1.85,1.51,0,2.13-.73,2.69-2.07l1.29-3.42.95.22-1.4,4.26,6.22,1.51c-.5-.9-2.13-3.75-2.63-4.65l1.79-3.92h.5c1.23,4.03,1.85,7.06.22,10.36l-1.18,2.35-6.61-1.68c-.73.84-1.68,1.34-3.25,1.34-.45,0-2.63-.06-4.87-2.41-.95,1.51-2.41,2.41-5.21,2.41v-4.31c1.68,0,4.87-.11,5.77-2.58l1.12-2.91Z"/>
      <path class="cls-1" d="m426.47,71.46v-9.69c0-2.24-.22-3.58-.56-5.66l1.96-4.09h.56v18.48c0,1.4.9,2.24,2.8,2.24,1.01,0,1.68.67,1.68,1.68v.95c0,1.01-.73,1.68-1.68,1.68-1.9,0-4.76-.45-4.76-5.6Z"/>
      <path class="cls-1" d="m438.12,67.26l.9.22-1.06,3.42c1.62,1.23,3.36,1.85,4.76,1.85,1.51,0,2.13-.73,2.69-2.07l1.29-3.42.95.22-1.4,4.26,6.22,1.51c-.5-.9-2.13-3.75-2.63-4.65l1.79-3.92h.5c1.23,4.03,1.85,7.06.22,10.36l-1.18,2.35-6.61-1.68c-.73.84-1.68,1.34-3.25,1.34-.45,0-2.63-.06-4.87-2.41-.95,1.51-2.41,2.41-5.21,2.41v-4.31c1.68,0,4.87-.11,5.77-2.58l1.12-2.91Z"/>
      <path class="cls-1" d="m462.03,48.05c-.34-.28-1.12-.45-1.96-.5-.73,0-1.46.17-1.96.62.22,1.18,1.51,2.13,2.86,2.13h1.96l.11.17-.84,1.46h-1.62c-1.51,0-1.96.17-3.7,1.18l-.22-.28.78-.84c.28-.28.56-.5.9-.67-.78-.67-.84-1.74-.56-2.8.56-1.9,1.96-2.52,2.91-2.52,1.06,0,1.74.84,1.9,1.46l-.39.56-.17.06Zm-1.85,6.66c5.88,6.33,13.44,13.89,12.38,18.14l-.06.22c-.78,3.36-3.08,3.98-10.7,3.98l-.56-.5.95-3.81c3.86,0,7.78-.17,9.97-.56l-10.42-10.53-1.18,1.4-1.96-2.07c-1.62-1.74-.28-3.92.5-5.1l.78-1.18h.28Z"/>
      <path class="cls-1" d="m470.76,51.86l.5.17-.34,1.4,3.14,1.96-1.68,3.86-.34-.22c-.28,5.82-1.96,11.14-8.74,14.45l-1.12-.11c6.33-3.25,8.01-7.5,8.01-14.67v-.9c-1.01-.84-1.18-1.96-.56-3.36l1.12-2.58Z"/>
      <path class="cls-1" d="m480.51,78.74h-.56v-23.18l1.68-3.53h.56v19.1c0,1.12-.17,2.24-.45,3.3l-1.23,4.31Z"/>
      <path class="cls-1" d="m519.15,71.57l-2.58-4.03,1.68-3.42h.62c1.46,3.25,2.24,5.38.45,8.74l-.39.73c-1.34,2.58-6.05,4.03-13.05,4.03-3.3,0-6.78-.34-8.62-1.34-1.74-.9-2.24-2.52-2.24-4.54,0-1.68.34-3.64.78-5.49h.56c-.28,3.08-.62,4.98,1.62,5.88,1.62.67,5.49,1.18,9.18,1.18,3.42,0,7.62-.45,11.98-1.74Zm-14.5-5.88l-2.58-2.58,2.58-2.63,2.18,2.18c.06.06.11.11.11.17l2.35-2.35,2.18,2.18c.28.28.28.56,0,.84l-2.18,2.18-2.35-2.35c0,.06-.06.11-.11.17l-2.18,2.18Z"/>
      <path class="cls-1" d="m523.91,71.46v-9.69c0-2.24-.22-3.58-.56-5.66l1.96-4.09h.56v18.48c0,1.4.9,2.24,2.8,2.24,1.01,0,1.68.67,1.68,1.68v.95c0,1.01-.73,1.68-1.68,1.68-1.9,0-4.76-.45-4.76-5.6Z"/>
      <path class="cls-1" d="m544.35,75.94c-3.14.56-7.06,1.12-11.65,1.12h-4.03v-4.31h6.05c-.62-1.18-1.06-2.52-1.06-4.14,0-3.7,2.63-6.89,5.88-6.89,2.58,0,4.42,1.96,5.38,5.6l-.39.39c-1.79-1.23-3.25-1.79-4.7-1.79-1.9,0-4.14.9-5.6,2.24,1.4,1.51,3.02,3.14,4.31,4.37,2.58-.17,4.87-.5,7.78-.9l.28.5-2.24,3.81Z"/>
      <path class="cls-1" d="m549.78,71.46v-9.69c0-2.24-.22-3.58-.56-5.66l1.96-4.09h.56v18.48c0,1.4.9,2.24,2.8,2.24,1.01,0,1.68.67,1.68,1.68v.95c0,1.01-.73,1.68-1.68,1.68-1.9,0-4.76-.45-4.76-5.6Z"/>
      <path class="cls-1" d="m560.08,71.62v.06c-1.4,3.86-2.74,5.38-5.54,5.38v-4.31c3.19,0,4.48-.5,6.05-3.19l.56-1.01h.56c.78,3.25,1.46,4.2,2.86,4.2,1.12,0,1.68.56,1.68,1.68v.95c0,1.12-.56,1.68-1.68,1.68-2.69,0-3.98-2.3-4.48-5.43Zm1.4-5.88l-2.74-2.74,2.74-2.74,2.3,2.3c.28.34.28.62,0,.9l-2.3,2.3Z"/>
      <path class="cls-1" d="m571.28,66.92h.5v2.02c0,3.3,2.18,3.75,3.08,3.81,3.98-3.7,9.35-9.41,13.78-9.41.95,0,1.79.22,2.58.78,2.02,1.46,2.41,4.31,1.68,7.45l-.06.28c-.06.28-.17.56-.28.84.56.06,1.18.06,1.85.06,1.12,0,1.68.56,1.68,1.68v.95c0,1.12-.56,1.68-1.68,1.68-2.41,0-4.31-.22-6.38-.95-2.13.67-4.93.95-8.18.95-6.89,0-9.74-1.23-9.97-3.25-.73,1.79-2.35,3.25-5.32,3.25v-4.31c4.14,0,5.54,0,6.44-4.48l.28-1.34Zm18.98,2.02c-1.12-1.51-2.13-2.41-3.64-2.41-2.8,0-6.05,2.35-10.75,6.22,7.45-.06,12.94-.56,16.46-1.12l-2.07-2.69Z"/>
      <path class="cls-1" d="m594.41,72.74c1.46,0,3.64,0,4.76-.78.56-.39.67-.84.67-2.69v-13.89l1.68-3.53h.56v17.08c0,1.96.34,3.81,2.97,3.81,1.12,0,1.68.56,1.68,1.68v.95c0,1.12-.56,1.68-1.68,1.68-3.53,0-4.7-2.41-5.04-5.1l-.11.73c-.39,2.41-1.85,4.37-5.49,4.37v-4.31Z"/>
      <path class="cls-1" d="m610.99,51.86l.5.17-.34,1.4,3.14,1.96-1.62,3.7v8.29c0,4.65-2.24,9.69-7.56,9.69v-4.31c1.85,0,3.58-.34,5.6-1.12v-13.55c-1.23-.95-1.51-2.13-.84-3.64l1.12-2.58Z"/>
      <path class="cls-1" d="m245.83,171.3l-2.51-3.94,1.64-3.33h.6c1.42,3.17,2.19,5.25.44,8.53l-.38.71c-1.31,2.52-5.9,3.94-12.74,3.94-3.23,0-6.62-.33-8.42-1.31-1.7-.87-2.19-2.46-2.19-4.43,0-1.64.33-3.55.76-5.36h.55c-.27,3.01-.6,4.87,1.59,5.74,1.58.66,5.36,1.15,8.97,1.15,3.33,0,7.44-.44,11.7-1.69Zm-14.16-5.74l-2.51-2.51,2.51-2.57,2.13,2.13c.05.05.11.11.11.16l2.3-2.3,2.13,2.13c.27.27.27.55,0,.82l-2.13,2.13-2.3-2.3c0,.05-.05.11-.11.16l-2.13,2.13Z"/>
      <path class="cls-1" d="m251.95,178.3h-.55v-22.63l1.64-3.44h.55v18.64c0,1.09-.16,2.19-.44,3.23l-1.2,4.21Z"/>
      <path class="cls-1" d="m258.89,184.86l-8.47-.6v-.55c4.65-.55,11.59-4.54,12.46-9.51l-4.05-5.69,1.7-3.66h.55c1.75,3.01,2.35,5.3,2.35,8.53,0,5.69-1.86,9.08-4.54,11.48Zm1.97-22.74l-2.68-2.68,2.68-2.68,2.24,2.24c.27.33.27.6,0,.88l-2.24,2.24Z"/>
      <path class="cls-1" d="m266.93,171.19v-9.46c0-2.19-.22-3.5-.55-5.52l1.91-3.99h.55v18.04c0,1.37.88,2.19,2.73,2.19.98,0,1.64.66,1.64,1.64v.93c0,.98-.71,1.64-1.64,1.64-1.86,0-4.65-.44-4.65-5.47Z"/>
      <path class="cls-1" d="m271.58,176.66v-4.21h7.44c4.21,0,7.38-1.53,9.57-2.9-4.05-1.26-7.93-3.01-10.33-3.01-1.31,0-2.62.55-3.39,1.8l-.44-.33,1.26-1.97c1.58-2.41,3.06-2.9,4.65-2.9,4.16,0,8.8,3.66,14.82,3.72h1.26l.49.38-1.37,3.55h-.38c-1.69,0-3.61-.38-5.52-.93.16,1.42,1.2,2.57,2.62,2.57h4.59c1.09,0,1.64.55,1.64,1.64v.93c0,1.09-.55,1.64-1.64,1.64h-2.79c-3.5,0-5.47-2.35-5.47-5.9v-.6c-4.54,3.23-7.44,6.51-14.49,6.51h-2.51Zm14.82,8.09l-2.68-2.68,2.68-2.68,2.24,2.24c.27.33.27.6,0,.88l-2.24,2.24Z"/>
      <path class="cls-1" d="m296.83,172.45c2.9,0,4.48-.22,6.45-.82l-2.57-4.26,1.69-3.33h.55c1.42,3.17,1.97,4.37.82,7.93l-.11.33c-1.26,3.66-3.17,4.37-6.83,4.37v-4.21Zm5.79-11.15l-2.68-2.68,2.68-2.68,2.24,2.24c.27.33.27.6,0,.87l-2.24,2.24Z"/>
      <path class="cls-1" d="m312.74,154.84c5.74,6.18,13.12,13.56,12.08,17.71l-.05.22c-.77,3.28-3.01,3.88-10.44,3.88l-.55-.49.93-3.72c3.77,0,7.6-.16,9.73-.55l-10.17-10.28-1.15,1.37-1.91-2.02c-1.59-1.69-.27-3.83.49-4.98l.77-1.15h.27Zm5.74,27.06c-.33-.27-1.09-.44-1.91-.49-.71,0-1.42.16-1.91.6.22,1.15,1.48,2.08,2.79,2.08h1.91l.11.16-.82,1.42h-1.59c-1.48,0-1.91.16-3.61,1.15l-.22-.27.77-.82c.27-.27.55-.49.88-.66-.77-.66-.82-1.69-.55-2.73.55-1.86,1.91-2.46,2.84-2.46,1.04,0,1.7.82,1.86,1.42l-.38.55-.16.05Z"/>
      <path class="cls-1" d="m323.07,152.05l.49.16-.33,1.37,3.06,1.91-1.64,3.77-.33-.22c-.27,5.69-1.91,10.88-8.53,14.11l-1.09-.11c6.18-3.17,7.82-7.33,7.82-14.32v-.87c-.98-.82-1.15-1.91-.55-3.28l1.09-2.52Z"/>
      <path class="cls-1" d="m332.59,178.3h-.55v-22.63l1.64-3.44h.55v18.64c0,1.09-.16,2.19-.44,3.23l-1.2,4.21Z"/>
      <path class="cls-1" d="m373.15,175.02c0,1.09-.55,1.64-1.64,1.64-1.91,0-2.41-1.75-2.95-3.72l-1.26-4.92c-.6-.44-1.91-.88-3.39-.88-3.77,0-6.07,2.73-6.07,3.66,0,.66,1.37.71,2.57.88l4.65.71c1.42.22,1.59,1.53,1.59,2.57l-.16,1.69c-.6,5.63-7.22,7.82-12.03,7.82-5.14,0-8.91-2.52-8.91-9.08,0-3.23.93-6.29,1.91-8.2l.38.22c-.6,1.26-1.37,3.5-1.37,5.96,0,4.65,2.9,6.89,8.58,6.89s9.46-2.02,11.1-3.61c-.98-.16-3.23-.38-4.65-.66-2.95-.55-4.15-1.48-4.05-4.43.16-3.39,3.39-8.58,8.04-8.58,1.97,0,2.68.87,3.01,2.62l.93,4.81c.22,1.31.66,2.02,2.08,2.02,1.09,0,1.64.55,1.64,1.64v.93Z"/>
      <path class="cls-1" d="m367.9,160.75l-2.68-2.68,2.68-2.68,2.24,2.24c.27.33.27.6,0,.87l-2.24,2.24Zm4.21,11.7l1.58.55v3.12l-1.58.55h-.6v-4.21h.6Z"/>
      <path class="cls-1" d="m377.47,171.35v.05c-1.37,3.77-2.68,5.25-5.41,5.25v-4.21c3.12,0,4.37-.49,5.9-3.12l.55-.98h.55c.77,3.17,1.42,4.1,2.79,4.1,1.09,0,1.64.55,1.64,1.64v.93c0,1.09-.55,1.64-1.64,1.64-2.62,0-3.88-2.24-4.37-5.3Zm.77,13.39l-2.68-2.68,2.68-2.68,2.24,2.24c.27.33.27.6,0,.88l-2.24,2.24Z"/>
      <path class="cls-1" d="m387.14,149.32c-1.75-.49-1.58-1.69-1.37-2.57.44-1.37,1.42-3.01,2.73-3.01.16,0,.38,0,.6.11,1.37.6,1.2,2.41.77,3.94l1.48.44-.77,2.13-1.53-.44c-.88,1.8-1.86,2.51-3.06,2.79l-3.55-1.31.11-.33c2.62-.22,5.3-.38,6.29-1.09v-.11l-1.7-.55Zm-.66-3.55c-.44.66.22,1.15,1.04,1.42l1.53.38c-.05-.98-.55-2.3-1.75-2.3-.27,0-.6.16-.82.49Z"/>
      <path class="cls-1" d="m381.84,172.45c2.9,0,4.48-.22,6.45-.82l-2.57-4.26,1.69-3.33h.55c1.42,3.17,1.97,4.37.82,7.93l-.11.33c-1.26,3.66-3.17,4.37-6.83,4.37v-4.21Zm3.33-11.32l-2.51-2.52,2.51-2.57,2.13,2.13c.05.05.11.11.11.16l2.3-2.3,2.13,2.13c.27.27.27.55,0,.82l-2.13,2.13-2.3-2.3c0,.05-.05.11-.11.16l-2.13,2.13Z"/>
      <path class="cls-1" d="m392.66,168.84c.71-2.24,2.13-5.19,4.65-5.19,4.05,0,4.26,7.54,4.26,9.24,0,5.25-1.86,9.51-4.7,11.97l-8.75-.6v-.55c7.33-1.53,12.36-4.54,12.68-7.54.05-1.59-.11-2.95-.44-4.15l-.71,2.51c-.87,1.2-2.13,2.13-3.66,2.13-1.91,0-5.36-1.48-3.34-7.82Zm.22,1.04c-.87,2.41,2.08,2.57,3.06,2.57,1.86,0,3.12-.66,4.1-1.42-.87-2.08-2.3-3.28-4.15-3.28-2.02,0-2.79,1.53-3.01,2.13Z"/>
      <path class="cls-1" d="m431.1,175.34c-.22,5.85-3.99,9.73-10.11,9.73-5.08,0-8.36-2.9-8.36-8.97,0-2.95.76-5.52,1.31-7l.44.16c-.49,1.31-.82,3.17-.82,4.59,0,4.81,3.39,7,8.15,7,4.1,0,6.72-1.64,8.58-3.01l-2.84-8.15,1.64-3.33h.55l1.42,3.72c.38,1.04,1.09,1.64,2.19,1.97,3.88-3.61,8.91-8.8,13.12-8.8.88,0,1.75.22,2.51.77,1.91,1.42,2.3,4.21,1.64,7.27l-.05.27c-.88,3.77-4.98,5.08-12.03,5.08-3.66,0-5.47-.33-7.33-1.31Zm18.86-3.99l-2.02-2.62c-1.09-1.48-2.08-2.35-3.61-2.35-2.62,0-5.74,2.24-10.22,5.9.77.11,1.7.16,2.84.16,3.88,0,9.46-.55,13.01-1.09Z"/>
      <path class="cls-1" d="m457.83,175.45c0,3.55-1.42,6.34-4.21,9.46l-8.47-.71v-.55c6.23-1.42,9.29-3.5,12.19-7.98l-2.9-6.67,1.7-3.33h.44l1.91,5.36c.33,1.04.98,1.42,2.3,1.42,1.09,0,1.64.55,1.64,1.64v.93c0,1.09-.55,1.64-1.64,1.64-.93,0-1.97-.22-2.95-1.2Z"/>
      <path class="cls-1" d="m470.07,174.69c-2.68,1.37-4.97,1.97-9.29,1.97v-4.21c2.57,0,4.65-.05,6.45-.27-.71-.93-1.42-2.19-1.37-3.66,0-3.12,3.06-6.56,6.4-6.56,3.99,0,4.59,4.87,3.12,7.98-.38.82-.88,1.59-1.59,2.24,1.37.22,2.68.27,3.66.27,1.09,0,1.64.55,1.64,1.64v.93c0,1.09-.55,1.64-1.64,1.64-2.35,0-5.08-.55-7.38-1.97Zm.98-3.23c1.64-.44,3.06-1.04,3.99-1.64-.44-1.69-1.42-3.33-2.51-4.1-2.57,0-4.81.71-6.23,1.97,1.09,1.91,2.9,3.06,4.76,3.77Zm.66-12.25l-2.68-2.68,2.68-2.68,2.24,2.24c.27.33.27.6,0,.87l-2.24,2.24Z"/>
      <path class="cls-1" d="m483.19,152.05l.49.16-.33,1.37,3.06,1.91-1.58,3.61v8.09c0,4.54-2.19,9.46-7.38,9.46v-4.21c1.8,0,3.5-.33,5.47-1.09v-13.23c-1.2-.93-1.48-2.08-.82-3.55l1.09-2.52Z"/>
      <path class="cls-1" d="m489.75,178.3h-.55v-22.63l1.64-3.44h.55v18.64c0,1.09-.16,2.19-.44,3.23l-1.2,4.21Z"/>
      <path class="cls-1" d="m510.85,172.83c-2.9,1.42-6.83,3.55-6.83,6.18,0,2.24,2.79,4.1,8.58,4.1,1.09,0,5.08-.05,7.16-.49l.22.55-7.6,3.94c-6.29,0-8.97-3.44-8.97-7.22,0-4.26,3.39-6.56,6.29-8.75-1.04-1.37-2.08-2.02-4.7-3.33v-.71l1.75-2.9c.93-.44,3.01-.93,4.76-.93,3.5,0,4.21,2.02,4.21,3.28,0,2.08-2.02,3.39-3.77,4.98,1.42.66,2.57.93,5.19.93,1.09,0,1.64.55,1.64,1.64v.93c0,1.09-.55,1.64-1.64,1.64-3.39,0-4.81-1.48-6.29-3.83Z"/>
      <path class="cls-1" d="m522.55,171.35v.05c-1.37,3.77-2.68,5.25-5.41,5.25v-4.21c3.12,0,4.37-.49,5.9-3.12l.55-.98h.55c.77,3.17,1.42,4.1,2.79,4.1,1.09,0,1.64.55,1.64,1.64v.93c0,1.09-.55,1.64-1.64,1.64-2.62,0-3.88-2.24-4.37-5.3Zm1.37-5.74l-2.68-2.68,2.68-2.68,2.24,2.24c.27.33.27.6,0,.88l-2.24,2.24Z"/>
      <path class="cls-1" d="m533.49,166.76h.49v1.97c0,3.23,2.13,3.66,3.01,3.72,3.88-3.61,9.13-9.18,13.45-9.18.93,0,1.75.22,2.52.77,1.97,1.42,2.35,4.21,1.64,7.27l-.05.27c-.05.27-.16.55-.27.82.55.05,1.15.05,1.8.05,1.09,0,1.64.55,1.64,1.64v.93c0,1.09-.55,1.64-1.64,1.64-2.35,0-4.21-.22-6.23-.93-2.08.66-4.81.93-7.98.93-6.72,0-9.51-1.2-9.73-3.17-.71,1.75-2.3,3.17-5.19,3.17v-4.21c4.05,0,5.41,0,6.29-4.37l.27-1.31Zm18.53,1.97c-1.09-1.48-2.08-2.35-3.55-2.35-2.73,0-5.9,2.3-10.5,6.07,7.27-.05,12.63-.55,16.07-1.09l-2.02-2.62Z"/>
      <path class="cls-1" d="m561.36,149.32c-1.75-.49-1.58-1.69-1.37-2.57.44-1.37,1.42-3.01,2.73-3.01.16,0,.38,0,.6.11,1.37.6,1.2,2.41.77,3.94l1.48.44-.77,2.13-1.53-.44c-.88,1.8-1.86,2.51-3.06,2.79l-3.55-1.31.11-.33c2.62-.22,5.3-.38,6.29-1.09v-.11l-1.7-.55Zm-.66-3.55c-.44.66.22,1.15,1.04,1.42l1.53.38c-.05-.98-.55-2.3-1.75-2.3-.27,0-.6.16-.82.49Z"/>
      <path class="cls-1" d="m556.06,172.45c2.9,0,4.48-.22,6.45-.82l-2.57-4.26,1.69-3.33h.55c1.42,3.17,1.97,4.37.82,7.93l-.11.33c-1.26,3.66-3.17,4.37-6.83,4.37v-4.21Zm3.33-11.32l-2.51-2.52,2.51-2.57,2.13,2.13c.05.05.11.11.11.16l2.3-2.3,2.13,2.13c.27.27.27.55,0,.82l-2.13,2.13-2.3-2.3c0,.05-.05.11-.11.16l-2.13,2.13Z"/>
      <path class="cls-1" d="m601.6,176.66c-2.57,0-3.88-2.24-4.32-5.25-.05.11-.16.49-.22.55-.44,1.37-.88,2.35-1.64,3.17-1.8,1.75-5.36,2.08-10.11,2.08-3.28,0-6.62-.33-8.37-1.31-1.7-.87-2.24-2.46-2.24-4.59,0-1.48.27-3.01.82-5.19h.55c-.33,3.06-.44,4.81,1.7,5.69,1.58.66,5.19,1.2,8.15,1.2,1.86,0,6.89,0,9.24-.82.93-.33,1.8-.82,2.19-1.75l.98-2.08h.49c.82,3.17,1.42,4.1,2.79,4.1h.05c1.09,0,1.64.55,1.64,1.64v.93c0,1.09-.55,1.64-1.64,1.64h-.05Zm-17.6-9.95l-2.51-2.52,2.51-2.57,2.13,2.13c.05.05.11.11.11.16l2.3-2.3,2.13,2.13c.27.27.27.55,0,.82l-2.13,2.13-2.3-2.3c0,.05-.05.11-.11.16l-2.13,2.13Zm2.41-4.48l-2.51-2.51,2.51-2.52,2.13,2.13c.22.27.22.49,0,.77l-2.13,2.13Z"/>
      <path class="cls-1" d="m607.07,171.35v.05c-1.37,3.77-2.68,5.25-5.41,5.25v-4.21c3.12,0,4.37-.49,5.9-3.12l.55-.98h.55c.77,3.17,1.42,4.1,2.79,4.1,1.09,0,1.64.55,1.64,1.64v.93c0,1.09-.55,1.64-1.64,1.64-2.62,0-3.88-2.24-4.37-5.3Zm-1.42,13.07l-2.51-2.52,2.51-2.57,2.13,2.13c.05.05.05.11.11.11l2.24-2.24,2.13,2.13c.27.27.27.55,0,.82l-2.13,2.13-2.24-2.24-.11.11-2.13,2.13Z"/>
      <path class="cls-1" d="m611.44,176.66v-4.21h10.77c2.51,0,5.19-1.09,7.38-2.57-4.37-1.26-8.8-3.33-11.43-3.33-1.31,0-2.62.55-3.39,1.8l-.44-.33,1.26-1.97c1.58-2.41,3.06-2.9,4.65-2.9,4.16,0,8.8,3.66,14.82,3.72h1.26l.49.38-1.37,3.5h-.93c-3.66,0-5.3-.27-7.82,1.64-2.08,1.59-3.61,4.26-9.4,4.26h-5.85Z"/>
    </g>
  </g>
</svg>