<?xml version="1.0" encoding="UTF-8"?>
<svg id="Layer_2" data-name="Layer 2" xmlns="http://www.w3.org/2000/svg" viewBox="0 0 590.49 679.59">
  <defs>
    <style>
      .cls-1 {
        fill: #ddb565;
      }

      .cls-1, .cls-2 {
        stroke-width: 0px;
      }

      .cls-2 {
        fill: #fff;
      }
    </style>
  </defs>
  <g id="Layer_1-2" data-name="Layer 1">
    <polygon class="cls-1" points="0 444.62 410.61 33.5 504.92 24.48 476.98 484.4 151.41 659.28 0 444.62"/>
    <g>
      <g>
        <path class="cls-2" d="m469.3,214l-197.67,92.16-23.26,23.26,198.13-84.81-1.99-4.67,19-8.53c2.23-5.9,4.17-11.65,5.79-17.41Z"/>
        <path class="cls-2" d="m309.11,267.09c-6.63,7.73-14.2,15.77-22.67,24.24l-7.8,7.8,154.53-82.78-2.39-4.48,44.1-24.59c.71-5.63,1.09-11.13,1.19-16.6l-166.95,96.4Z"/>
        <path class="cls-1" d="m280.31,64.81l-4.56-2.32L305.98.1c-5.16-.18-10.37-.11-15.62.23l-69.04,148.1c8.05-6.03,16.08-10.89,24.1-14.6l34.89-69.02Z"/>
        <path class="cls-1" d="m269.21,126.05c3.59-.66,7.06-1.07,10.55-1.18l27.66-44.59-4.34-2.71L345.65,6.36c-1.48-.44-2.98-.86-4.47-1.26-3.29-.87-6.59-1.61-9.97-2.21l-72.64,125.83c3.54-1.14,7.08-2.02,10.65-2.67Z"/>
        <path class="cls-2" d="m337.16,227.42c-3.95,7.76-9.31,16.08-16.15,25.03l96.44-63.06-2.79-4.26,59.47-40.35c-.6-3.6-1.31-7.16-2.21-10.68-.36-1.39-.71-2.78-1.15-4.15l-130.8,91.61c-.85,1.93-1.8,3.87-2.8,5.86Z"/>
        <path class="cls-1" d="m308.9,130.41l24.19-32.32-4.1-3.06,53.32-73.8c-4.23-2.33-8.59-4.45-13.04-6.38l-77.43,110.57c5.98.79,11.65,2.49,17.07,4.99Z"/>
        <path class="cls-2" d="m345.73,206.12l53.7-42.23-3.14-4.02,65.85-53.61c-1.99-4.45-4.2-8.8-6.64-13.09l-107.38,90.06c.7,7-.09,14.62-2.4,22.89Z"/>
        <path class="cls-1" d="m328.53,144.47c.87.87,1.71,1.78,2.54,2.65l26.01-29.07-3.82-3.39,61.42-71.04c-3.63-3.2-7.41-6.2-11.25-9.01l-85.01,101.35c3.46,2.43,6.86,5.26,10.1,8.51Z"/>
        <path class="cls-2" d="m345.67,171.56l33.58-31.51-3.49-3.71,65.96-64.04c-2.92-3.8-5.98-7.51-9.25-11.12l-94.58,94.58c3.41,5.04,6,10.32,7.78,15.8Z"/>
        <path class="cls-2" d="m372.35,354.78l25.44-25.44-144.41,25.47h-4.44l159.49-37.37c6.43-7.3,12.3-14.44,17.69-21.66l-193.45,51.89,204.55-67.13c5.47-8.09,10.39-16.11,14.6-23.96l-205.43,74.82-130.13,130.13,147.19-1.11,2.22,1.11,10.76-10.77,2.1,8.31h13.96l-5.13-19.25,7.86-7.87,3.06-3.03,10.47,30.15h14.44l-14.67-40.44,6.18-6.19.16.36,4.68-1.98,21.66,48.24h15.23l-28.09-60.22,1.19-1.19h-.05s3.87-3.88,3.87-3.88l3.08,5.71,4.52-2.38,34.52,61.97h16.27l-45.3-78.39,5.11-5.12,5.38,8.23,4.25-2.79,52.93,78.04h17.61l-67.38-96.28,4.08-4.08,5.55,7.08,4.01-3.17,78.49,96.45.35.43.55-.43,4.74-3.86,3.25,3.86h8.96v-1.93l-85.89-102.32h-16.12Zm-90.16,65.72h.06s-.05.05-.05.05v-.05Z"/>
        <polygon class="cls-2" points="396.27 354.78 470.91 431.71 474.36 428.37 474.36 414.11 415.04 354.78 396.27 354.78"/>
        <polygon class="cls-2" points="423.81 354.78 474.36 398.5 474.36 379.15 445.33 354.78 423.81 354.78"/>
      </g>
      <g>
        <path class="cls-2" d="m71.23,541.51h.75l1.44,4.62c.69,2.6,2.08,2.77,3.12,2.77,1.21,0,1.79.58,1.79,1.73v3.29c0,1.15-.58,1.73-1.73,1.73-1.62,0-2.77-.23-3.87-1.21-.46,6.17-4.91,9.64-10.96,9.64s-9.75-3.46-9.75-10.1c0-3.4.98-7.21,1.79-9.58l.75.29c-.52,1.85-.81,4.04-.81,5.42,0,4.79,3.29,7.27,9.12,7.27,3.69,0,6.81-1.04,8.89-2.31l-3.23-7.73,2.71-5.83Zm-8.25,2.54l-3.58-3.58,3.58-3.52,2.88,2.83c.46.52.46.92,0,1.44l-2.88,2.83Z"/>
        <path class="cls-2" d="m76.66,548.9h7.44c1.04,0,1.73.46,1.73,1.15v4.73c0,.52-.69.87-1.73.87h-7.44v-6.75Z"/>
        <path class="cls-2" d="m84.1,548.9h7.44c1.04,0,1.73.46,1.73,1.15v4.73c0,.52-.69.87-1.73.87h-7.44v-6.75Z"/>
        <path class="cls-2" d="m91.55,548.9h7.44c1.04,0,1.73.46,1.73,1.15v4.73c0,.52-.69.87-1.73.87h-7.44v-6.75Z"/>
        <path class="cls-2" d="m98.99,548.9h7.44c1.04,0,1.73.46,1.73,1.15v4.73c0,.52-.69.87-1.73.87h-7.44v-6.75Z"/>
        <path class="cls-2" d="m108.23,564.77l-3.17-3.23,3.17-3.17,2.54,2.6c.06,0,.12.06.12.12l2.71-2.71,2.54,2.6c.4.4.4.81,0,1.21l-2.54,2.6-2.71-2.71c0,.06-.06.06-.12.12l-2.54,2.6Zm-1.79-15.87c2.89,0,5.19-.4,7.33-1.04l-3.98-5.25,3.29-4.91h.75c1.79,4.39,2.08,6.98.69,10.96l-.17.46c-1.62,4.79-3.58,6.52-7.91,6.52v-6.75Z"/>
        <path class="cls-2" d="m123.4,554.44c0,3.92-1.79,7.33-5.14,10.85l-10.45-2.02v-.75c6.87-1.9,11.25-4.33,14.49-8.14l-3.06-7.04,2.71-5.83h.75l1.39,4.62c.69,2.6,2.19,2.77,3.23,2.77,1.15,0,1.73.58,1.73,1.73v3.29c0,1.15-.58,1.73-1.73,1.73-1.56,0-2.83-.23-3.92-1.21Z"/>
        <path class="cls-2" d="m127.33,548.9h7.44c1.04,0,1.73.46,1.73,1.15v4.73c0,.52-.69.87-1.73.87h-7.44v-6.75Z"/>
        <path class="cls-2" d="m134.77,548.9h7.44c1.04,0,1.73.46,1.73,1.15v4.73c0,.52-.69.87-1.73.87h-7.44v-6.75Z"/>
        <path class="cls-2" d="m142.22,548.9h7.44c1.04,0,1.73.46,1.73,1.15v4.73c0,.52-.69.87-1.73.87h-7.44v-6.75Z"/>
        <path class="cls-2" d="m166.63,553.4l-3.06,4.62-.75.17-6.06-3.92c-.81-.46-1.39-1.04-1.79-1.56-1.27,1.85-3.17,2.94-5.31,2.94v-6.75c2.19,0,3.58-.17,4.56-.52.52-1.62,1.73-3.17,3.12-4.39l6.64-5.77.75.12,3.87,8.14c.75,1.62,1.56,2.42,2.77,2.42s1.73.58,1.73,1.73v3.29c0,1.15-.58,1.73-1.73,1.73-1.5,0-3.17-.46-4.73-2.25Zm-5.71-10.5l-2.83,2.25c-.87.69-.87,1.9.12,2.54l7.79,4.91c-.29-.4-.58-.87-.81-1.44l-4.27-8.25Z"/>
        <path class="cls-2" d="m171.36,548.9h7.44c1.04,0,1.73.46,1.73,1.15v4.73c0,.52-.69.87-1.73.87h-7.44v-6.75Z"/>
        <path class="cls-2" d="m178.8,548.9h7.44c1.04,0,1.73.46,1.73,1.15v4.73c0,.52-.69.87-1.73.87h-7.44v-6.75Z"/>
        <path class="cls-2" d="m193,548.38l-.17.63c-1.67,5.54-3.75,6.64-6.58,6.64v-6.75c3.75,0,6.12-.75,7.67-4.21l.58-1.27h.75c.63,3.29,1.44,5.48,3.64,5.48,1.15,0,1.73.58,1.73,1.73v3.29c0,1.15-.58,1.73-1.73,1.73-3.35,0-5.54-2.94-5.89-7.27Zm-.81-7.96l-3.17-3.23,3.17-3.17,2.54,2.6c.06,0,.06.06.12.06l2.65-2.65,2.54,2.6c.4.4.4.81,0,1.21l-2.54,2.6-2.65-2.65c-.06,0-.06.06-.12.06l-2.54,2.6Zm2.71-5.48l-3.12-3.17,3.12-3.17,2.6,2.6c.4.4.4.81,0,1.21l-2.6,2.54Z"/>
        <path class="cls-2" d="m198.94,548.9h7.44c1.04,0,1.73.46,1.73,1.15v4.73c0,.52-.69.87-1.73.87h-7.44v-6.75Z"/>
        <path class="cls-2" d="m206.39,548.9h7.44c1.04,0,1.73.46,1.73,1.15v4.73c0,.52-.69.87-1.73.87h-7.44v-6.75Z"/>
        <path class="cls-2" d="m220.59,548.38l-.17.63c-1.67,5.54-3.75,6.64-6.58,6.64v-6.75c3.75,0,6.12-.75,7.67-4.21l.58-1.27h.75c.63,3.29,1.44,5.48,3.64,5.48,1.15,0,1.73.58,1.73,1.73v3.29c0,1.15-.58,1.73-1.73,1.73-3.35,0-5.54-2.94-5.89-7.27Zm-.81-7.96l-3.17-3.23,3.17-3.17,2.54,2.6c.06,0,.06.06.12.06l2.65-2.65,2.54,2.6c.4.4.4.81,0,1.21l-2.54,2.6-2.65-2.65c-.06,0-.06.06-.12.06l-2.54,2.6Z"/>
        <path class="cls-2" d="m226.53,548.9h7.44c1.04,0,1.73.46,1.73,1.15v4.73c0,.52-.69.87-1.73.87h-7.44v-6.75Z"/>
        <path class="cls-2" d="m233.97,548.9h7.44c1.04,0,1.73.46,1.73,1.15v4.73c0,.52-.69.87-1.73.87h-7.44v-6.75Z"/>
        <path class="cls-2" d="m241.42,548.9h7.44c1.04,0,1.73.46,1.73,1.15v4.73c0,.52-.69.87-1.73.87h-7.44v-6.75Z"/>
        <path class="cls-2" d="m256.65,542.67l1.1.29-1.44,4.56c1.85.92,3.81,1.38,5.77,1.38,2.31,0,2.77-.69,3.58-2.71l1.39-3.46,1.1.29-1.56,5.08,2.71.75c.69.23,1.27.29,1.79.29.69,0,1.15-.17,1.5-.58l-2.19-4.33,2.54-5.02.75.06,2.71,6.75c.81,2.19,1.38,2.89,2.94,2.89,1.15,0,1.73.58,1.73,1.73v3.29c0,1.15-.58,1.73-1.73,1.73-2.66,0-3.92-1.44-5.31-4.21l-.75-1.5-.87,3c-.58,1.9-1.33,3.12-3.64,2.83-.75,0-2.88-.75-4.56-1.73-.75,1.04-1.79,1.62-3.29,1.62-2.25,0-4.62-1.27-6.29-3.46-1.38,2.89-3.06,3.46-5.77,3.46v-6.75c3.35,0,5.42-.52,6.58-3.4l1.21-2.83Z"/>
        <path class="cls-2" d="m279.39,548.9h7.44c1.04,0,1.73.46,1.73,1.15v4.73c0,.52-.69.87-1.73.87h-7.44v-6.75Z"/>
        <path class="cls-2" d="m286.83,548.9h7.44c1.04,0,1.73.46,1.73,1.15v4.73c0,.52-.69.87-1.73.87h-7.44v-6.75Z"/>
        <path class="cls-2" d="m294.28,548.9h7.44c1.04,0,1.73.46,1.73,1.15v4.73c0,.52-.69.87-1.73.87h-7.44v-6.75Z"/>
        <path class="cls-2" d="m301.72,548.9h7.44c1.04,0,1.73.46,1.73,1.15v4.73c0,.52-.69.87-1.73.87h-7.44v-6.75Z"/>
        <path class="cls-2" d="m309.17,548.9h7.44c1.04,0,1.73.46,1.73,1.15v4.73c0,.52-.69.87-1.73.87h-7.44v-6.75Z"/>
        <path class="cls-2" d="m333.58,553.4l-3.06,4.62-.75.17-6.06-3.92c-.81-.46-1.39-1.04-1.79-1.56-1.27,1.85-3.17,2.94-5.31,2.94v-6.75c2.19,0,3.58-.17,4.56-.52.52-1.62,1.73-3.17,3.12-4.39l6.64-5.77.75.12,3.87,8.14c.75,1.62,1.56,2.42,2.77,2.42s1.73.58,1.73,1.73v3.29c0,1.15-.58,1.73-1.73,1.73-1.5,0-3.17-.46-4.73-2.25Zm-5.71-10.5l-2.83,2.25c-.87.69-.87,1.9.12,2.54l7.79,4.91c-.29-.4-.58-.87-.81-1.44l-4.27-8.25Z"/>
        <path class="cls-2" d="m338.31,548.9h7.44c1.04,0,1.73.46,1.73,1.15v4.73c0,.52-.69.87-1.73.87h-7.44v-6.75Z"/>
        <path class="cls-2" d="m345.76,548.9h7.44c1.04,0,1.73.46,1.73,1.15v4.73c0,.52-.69.87-1.73.87h-7.44v-6.75Z"/>
        <path class="cls-2" d="m353.2,548.9h7.44c1.04,0,1.73.46,1.73,1.15v4.73c0,.52-.69.87-1.73.87h-7.44v-6.75Z"/>
        <path class="cls-2" d="m367.22,525.53l.69.29-.46,2.02,4.67,3.35-2.31,4.5v7.1c0,1.79-.75,3.92-2.6,7.56-.63,1.33-2.77,5.31-6.58,5.31v-6.75c1.9,0,3.92-.4,5.83-1.15v-12.98c-1.96-1.33-2.42-3.06-1.33-5.19l2.08-4.04Z"/>
        <path class="cls-2" d="m375.48,557.38h-.75v-26.26l2.89-5.48h.75v21.87c0,1.9-.35,3.75-1.1,5.54l-1.79,4.33Z"/>
        <path class="cls-2" d="m403.18,547.57c2.42.81,4.79,1.33,7.73,1.33l1.62.63v2.37c.87.58,1.33,1.9,1.33,3.17,0,7.21-4.91,11.43-12.7,11.43-6.69,0-10.1-3.12-10.1-10.56,0-4.16,1.04-7.91,2.02-10.1l.63.29c-.4,1.1-1.21,3.69-1.21,6.12,0,4.79,3.06,7.56,9.75,7.56,4.39,0,8.6-1.21,10.62-3-.81-.17-4.1-.87-7.04-1.56-1.1-.17-2.19-.4-3.58-.75l-.58-.75,1.5-6.17Z"/>
        <path class="cls-2" d="m410.91,548.9h7.44c1.04,0,1.73.46,1.73,1.15v4.73c0,.52-.69.87-1.73.87h-7.44v-6.75Z"/>
        <path class="cls-2" d="m418.35,548.9h7.44c1.04,0,1.73.46,1.73,1.15v4.73c0,.52-.69.87-1.73.87h-7.44v-6.75Z"/>
        <path class="cls-2" d="m425.8,548.9h7.44c1.04,0,1.73.46,1.73,1.15v4.73c0,.52-.69.87-1.73.87h-7.44v-6.75Z"/>
        <path class="cls-2" d="m433.24,548.9h7.44c1.04,0,1.73.46,1.73,1.15v4.73c0,.52-.69.87-1.73.87h-7.44v-6.75Z"/>
        <path class="cls-2" d="m440.69,548.9h7.44c1.04,0,1.73.46,1.73,1.15v4.73c0,.52-.69.87-1.73.87h-7.44v-6.75Z"/>
        <path class="cls-2" d="m457.13,552.94c-2.83,1.73-5.83,2.71-9,2.71v-6.75c1.85,0,3.92-.06,5.94-.23-.4-.92-.75-2.02-.69-3.29,0-3.64,2.71-8.83,6.81-8.83,4.44,0,4.33,6.69,3.06,9.98-.35.75-.75,1.5-1.27,2.19,1.27.12,2.54.17,3.69.17s1.73.58,1.73,1.73v3.29c0,1.15-.58,1.73-1.73,1.73-3.12,0-6.17-.92-8.54-2.71Zm.12-19.45l-3.17-3.23,3.17-3.17,2.54,2.6c.06,0,.06.06.12.06l2.65-2.65,2.54,2.6c.4.4.4.81,0,1.21l-2.54,2.6-2.65-2.65c-.06,0-.06.06-.12.06l-2.54,2.6Zm1.5,14.48c1.39-.29,2.6-.69,3.41-1.21-.17-1.62-1.1-3.35-2.19-4.15-2.19,0-3.98.52-5.71,1.5.87,2.02,2.54,3.23,4.5,3.87Z"/>
        <path class="cls-2" d="m465.67,548.9h7.44c1.04,0,1.73.46,1.73,1.15v4.73c0,.52-.69.87-1.73.87h-7.44v-6.75Z"/>
        <path class="cls-2" d="m473.12,548.9h7.44c1.04,0,1.73.46,1.73,1.15v4.73c0,.52-.69.87-1.73.87h-7.44v-6.75Z"/>
        <path class="cls-2" d="m480.56,548.9h7.44c1.04,0,1.73.46,1.73,1.15v4.73c0,.52-.69.87-1.73.87h-7.44v-6.75Z"/>
        <path class="cls-2" d="m488.01,548.9h7.44c1.04,0,1.73.46,1.73,1.15v4.73c0,.52-.69.87-1.73.87h-7.44v-6.75Z"/>
        <path class="cls-2" d="m502.2,548.38l-.17.63c-1.67,5.54-3.75,6.64-6.58,6.64v-6.75c3.75,0,6.12-.75,7.67-4.21l.58-1.27h.75c.63,3.29,1.44,5.48,3.64,5.48,1.15,0,1.73.58,1.73,1.73v3.29c0,1.15-.58,1.73-1.73,1.73-3.35,0-5.54-2.94-5.89-7.27Zm-.81-7.96l-3.17-3.23,3.17-3.17,2.54,2.6c.06,0,.06.06.12.06l2.65-2.65,2.54,2.6c.4.4.4.81,0,1.21l-2.54,2.6-2.65-2.65c-.06,0-.06.06-.12.06l-2.54,2.6Z"/>
        <path class="cls-2" d="m508.15,548.9h7.44c1.04,0,1.73.46,1.73,1.15v4.73c0,.52-.69.87-1.73.87h-7.44v-6.75Z"/>
        <path class="cls-2" d="m515.59,548.9h7.44c1.04,0,1.73.46,1.73,1.15v4.73c0,.52-.69.87-1.73.87h-7.44v-6.75Z"/>
        <path class="cls-2" d="m523.04,548.9h7.44c1.04,0,1.73.46,1.73,1.15v4.73c0,.52-.69.87-1.73.87h-7.44v-6.75Z"/>
        <path class="cls-2" d="m530.42,548.9c1.62,0,3.92-.17,5.02-.87.75-.46.98-1.15.98-3.06v-13.91l2.88-5.48h.75v18.93c0,3.17.46,4.39,2.94,4.39,1.21,0,1.73.58,1.73,1.73v3.29c0,1.15-.52,1.73-1.73,1.73-3.35,0-5.71-1.85-6.41-6.23-.69,3.81-2.71,6.23-6.17,6.23v-6.75Z"/>
        <path class="cls-2" d="m543.06,548.9h7.44c1.04,0,1.73.46,1.73,1.15v4.73c0,.52-.69.87-1.73.87h-7.44v-6.75Z"/>
        <path class="cls-2" d="m550.51,548.9h7.44c1.04,0,1.73.46,1.73,1.15v4.73c0,.52-.69.87-1.73.87h-7.44v-6.75Z"/>
        <path class="cls-2" d="m557.95,548.9h7.44c1.04,0,1.73.46,1.73,1.15v4.73c0,.52-.69.87-1.73.87h-7.44v-6.75Z"/>
        <path class="cls-2" d="m565.4,548.9h7.44c1.04,0,1.73.46,1.73,1.15v4.73c0,.52-.69.87-1.73.87h-7.44v-6.75Z"/>
        <path class="cls-2" d="m590.32,545.73c.52,1.79-.29,3.75-1.1,5.6l-2.25,5.08-.69.4-9.98-4.04-.12.23c-.87,1.44-1.73,2.65-3.35,2.65v-6.75c3.23,0,4.85-.58,6.06-2.71l1.85-3.29c1.27-2.19,2.89-4.27,4.73-4.27.4,0,.87.06,1.27.29,2.71,1.04,3.23,5.54,3.58,6.81Zm-10.56,1.21l7.91,3.12c-1.15-3.06-2.19-5.94-4.56-6.06-.46,0-1.67.06-2.89,2.14l-.46.81Z"/>
        <path class="cls-2" d="m76.95,597.53c1.96,4.85,2.71,7.62,2.65,10.85-.17,7.67-5.54,12.75-12.93,12.75-6.75,0-10.04-4.21-10.04-9.98,0-3.46,1.21-7.56,1.96-9.52l.69.23c-.52,1.85-.92,4.21-.92,5.83,0,5.08,4.1,6.75,9.06,6.75,5.25,0,8.48-1.85,11.08-3.75l-5.66-7.79,3.29-5.37h.81Zm-9.29,2.25l-3.58-3.58,3.58-3.52,2.88,2.83c.46.52.46.92,0,1.44l-2.88,2.83Z"/>
        <path class="cls-2" d="m84.8,613.81h-.75v-26.26l2.89-5.48h.75v21.87c0,1.9-.35,3.75-1.1,5.54l-1.79,4.33Z"/>
        <path class="cls-2" d="m93.86,621.66l-10.45-1.91v-.81c7.56-1.96,13.33-5.89,15.35-11.54l-5.83-5.54,3-5.6h.75c1.9,3.4,3,6.23,3,10.79,0,6.41-2.14,10.73-5.83,14.6Zm2.48-28.62l-3.58-3.58,3.58-3.52,2.89,2.83c.46.52.46.92,0,1.44l-2.89,2.83Z"/>
        <path class="cls-2" d="m103.61,604.05v-9c0-3-.52-4.79-.98-6.29l3.58-6.75h.75v20.95c0,1.79,1.56,2.37,3.29,2.37,1.1,0,1.73.63,1.73,1.73v3.29c0,1.1-.63,1.73-1.73,1.73-2.71,0-6.64-.46-6.64-8.02Z"/>
        <path class="cls-2" d="m110.25,605.32h7.44c1.04,0,1.73.46,1.73,1.15v4.73c0,.52-.69.87-1.73.87h-7.44v-6.75Z"/>
        <path class="cls-2" d="m117.69,605.32h7.44c1.04,0,1.73.46,1.73,1.15v4.73c0,.52-.69.87-1.73.87h-7.44v-6.75Z"/>
        <path class="cls-2" d="m125.14,605.32h7.44c1.04,0,1.73.46,1.73,1.15v4.73c0,.52-.69.87-1.73.87h-7.44v-6.75Z"/>
        <path class="cls-2" d="m132.58,605.32h7.44c1.04,0,1.73.46,1.73,1.15v4.73c0,.52-.69.87-1.73.87h-7.44v-6.75Z"/>
        <path class="cls-2" d="m140.02,612.08v-6.75h9.58c3,0,5.25-.75,7.1-2.37-3.64-.98-7.04-2.31-9.58-2.31-1.73,0-3,.63-3.75,1.79l-.52-.29,1.56-3.4c1.44-3.06,3.06-4.27,5.42-4.27,4.1,0,8.31,3.46,14.48,3.52l1.67.06.52.58-2.19,5.37h-.92c-1.5,0-3.06-.23-4.5-.52.12,1.44,1.21,1.85,2.37,1.85h6c1.15,0,1.73.58,1.73,1.73v3.29c0,1.15-.58,1.73-1.73,1.73h-3.52c-4.96,0-7.04-2.77-7.04-6.92v-.98c-4.73,3.4-6.81,7.91-14.31,7.91h-2.37Zm15.52,10.62l-3.58-3.58,3.58-3.52,2.89,2.83c.46.52.46.92,0,1.44l-2.89,2.83Z"/>
        <path class="cls-2" d="m167.26,605.32c2.89,0,5.19-.4,7.33-1.04l-3.98-5.25,3.29-4.91h.75c1.79,4.39,2.08,6.98.69,10.96l-.17.46c-1.62,4.79-3.58,6.52-7.91,6.52v-6.75Zm4.44,17.37l-3.58-3.58,3.58-3.52,2.89,2.83c.46.52.46.92,0,1.44l-2.89,2.83Z"/>
        <path class="cls-2" d="m199.64,604c2.42.81,4.79,1.33,7.73,1.33l1.62.63v2.37c.87.58,1.33,1.9,1.33,3.17,0,7.21-4.91,11.43-12.7,11.43-6.69,0-10.1-3.12-10.1-10.56,0-4.15,1.04-7.91,2.02-10.1l.63.29c-.4,1.1-1.21,3.69-1.21,6.12,0,4.79,3.06,7.56,9.75,7.56,4.39,0,8.6-1.21,10.62-3-.81-.17-4.1-.87-7.04-1.56-1.1-.17-2.19-.4-3.58-.75l-.58-.75,1.5-6.17Zm-4.62,28.1l-3.17-3.23,3.17-3.17,2.54,2.6c.06,0,.06.06.12.06l2.65-2.65,2.54,2.6c.4.4.4.81,0,1.21l-2.54,2.6-2.65-2.66c-.06,0-.06.06-.12.06l-2.54,2.6Z"/>
        <path class="cls-2" d="m207.37,605.32h7.44c1.04,0,1.73.46,1.73,1.15v4.73c0,.52-.69.87-1.73.87h-7.44v-6.75Z"/>
        <path class="cls-2" d="m214.81,605.32h7.44c1.04,0,1.73.46,1.73,1.15v4.73c0,.52-.69.87-1.73.87h-7.44v-6.75Z"/>
        <path class="cls-2" d="m222.26,605.32h7.44c1.04,0,1.73.46,1.73,1.15v4.73c0,.52-.69.87-1.73.87h-7.44v-6.75Z"/>
        <path class="cls-2" d="m229.7,605.32h7.44c1.04,0,1.73.46,1.73,1.15v4.73c0,.52-.69.87-1.73.87h-7.44v-6.75Z"/>
        <path class="cls-2" d="m237.15,605.32c2.89,0,5.19-.4,7.33-1.04l-3.98-5.25,3.29-4.91h.75c1.79,4.39,2.08,6.98.69,10.96l-.17.46c-1.62,4.79-3.58,6.52-7.91,6.52v-6.75Zm6.92-14.48l-3.58-3.58,3.58-3.52,2.89,2.83c.46.52.46.92,0,1.44l-2.89,2.83Z"/>
        <path class="cls-2" d="m251.23,604.05v-9c0-3-.52-4.79-.98-6.29l3.58-6.75h.75v20.95c0,1.79,1.56,2.37,3.29,2.37,1.1,0,1.73.63,1.73,1.73v3.29c0,1.1-.63,1.73-1.73,1.73-2.71,0-6.64-.46-6.64-8.02Z"/>
        <path class="cls-2" d="m257.87,605.32h7.44c1.04,0,1.73.46,1.73,1.15v4.73c0,.52-.69.87-1.73.87h-7.44v-6.75Z"/>
        <path class="cls-2" d="m265.31,605.32h7.44c1.04,0,1.73.46,1.73,1.15v4.73c0,.52-.69.87-1.73.87h-7.44v-6.75Z"/>
        <path class="cls-2" d="m272.75,605.32h7.44c1.04,0,1.73.46,1.73,1.15v4.73c0,.52-.69.87-1.73.87h-7.44v-6.75Z"/>
        <path class="cls-2" d="m280.2,605.32h7.44c1.04,0,1.73.46,1.73,1.15v4.73c0,.52-.69.87-1.73.87h-7.44v-6.75Z"/>
        <path class="cls-2" d="m287.64,605.32h7.44c1.04,0,1.73.46,1.73,1.15v4.73c0,.52-.69.87-1.73.87h-7.44v-6.75Z"/>
        <path class="cls-2" d="m301.84,604.8l-.17.63c-1.67,5.54-3.75,6.64-6.58,6.64v-6.75c3.75,0,6.12-.75,7.67-4.21l.58-1.27h.75c.63,3.29,1.44,5.48,3.64,5.48,1.15,0,1.73.58,1.73,1.73v3.29c0,1.15-.58,1.73-1.73,1.73-3.35,0-5.54-2.94-5.89-7.27Zm-.81-7.96l-3.17-3.23,3.17-3.17,2.54,2.6c.06,0,.06.06.12.06l2.65-2.65,2.54,2.6c.4.4.4.81,0,1.21l-2.54,2.6-2.65-2.65c-.06,0-.06.06-.12.06l-2.54,2.6Zm2.71-5.48l-3.12-3.17,3.12-3.17,2.6,2.6c.4.4.4.81,0,1.21l-2.6,2.54Z"/>
        <path class="cls-2" d="m307.78,605.32h7.44c1.04,0,1.73.46,1.73,1.15v4.73c0,.52-.69.87-1.73.87h-7.44v-6.75Z"/>
        <path class="cls-2" d="m315.23,605.32h7.44c1.04,0,1.73.46,1.73,1.15v4.73c0,.52-.69.87-1.73.87h-7.44v-6.75Z"/>
        <path class="cls-2" d="m322.67,605.32h7.44c1.04,0,1.73.46,1.73,1.15v4.73c0,.52-.69.87-1.73.87h-7.44v-6.75Z"/>
        <path class="cls-2" d="m330.12,605.32h7.44c1.04,0,1.73.46,1.73,1.15v4.73c0,.52-.69.87-1.73.87h-7.44v-6.75Z"/>
        <path class="cls-2" d="m337.56,605.32h7.44c1.04,0,1.73.46,1.73,1.15v4.73c0,.52-.69.87-1.73.87h-7.44v-6.75Z"/>
        <path class="cls-2" d="m351.58,581.95l.69.29-.46,2.02,4.67,3.35-2.31,4.5v7.1c0,1.79-.75,3.92-2.6,7.56-.63,1.33-2.77,5.31-6.58,5.31v-6.75c1.9,0,3.92-.4,5.83-1.15v-12.98c-1.96-1.33-2.42-3.06-1.33-5.19l2.08-4.04Z"/>
        <path class="cls-2" d="m359.84,613.81h-.75v-26.26l2.89-5.48h.75v21.87c0,1.9-.35,3.75-1.1,5.54l-1.79,4.33Z"/>
        <path class="cls-2" d="m398.79,600.07c-.63-1.04-1.15-1.79-3.12-1.79-3.81,0-7.27,2.83-7.27,4.21,0,.52.4.81,2.02,1.04l7.21.81c1.85.23,2.19,1.62,2.02,3.29l-.29,3.58c-.58,6.12-6.41,9.52-12.87,9.52s-9.98-3.29-9.98-9.81c0-3.58,1.1-7.96,1.91-10.45l.75.29c-.4,1.04-1.15,3.75-1.15,6.12,0,5.54,4.39,7.1,10.04,7.1,5.02,0,9.29-1.21,10.5-3.06l-7.73-.81c-2.77-.29-3.41-2.48-3.35-5.08.06-5.83,3.41-13.33,9.23-13.33,4.79,0,3.52,5.14,2.66,8.25l-.58.12Zm-14.66,29.72l-3.17-3.23,3.17-3.17,2.54,2.6c.06,0,.06.06.12.06l2.65-2.66,2.54,2.6c.4.4.4.81,0,1.21l-2.54,2.6-2.65-2.66c-.06,0-.06.06-.12.06l-2.54,2.6Z"/>
        <path class="cls-2" d="m416.45,605.32c1.15,0,1.73.58,1.73,1.73v3.29c0,1.15-.58,1.73-1.73,1.73h-2.08c-.75,3.98-2.37,7.1-4.44,9.52l-11.6-1.9v-.75c6.87-2.19,13.16-4.62,15.18-6.87-9.29-.06-11.48-1.67-9.41-9.98.87-3.41,2.25-7.16,5.14-7.16,3.87,0,5.19,5.83,5.48,10.39h1.73Zm-11.48-2.48c-.58,1.96,2.71,2.42,7.33,2.48-1.27-2.48-3-4.15-4.85-4.15-1.73,0-2.31,1.1-2.48,1.67Z"/>
        <path class="cls-2" d="m416.45,605.32h7.44c1.04,0,1.73.46,1.73,1.15v4.73c0,.52-.69.87-1.73.87h-7.44v-6.75Z"/>
        <path class="cls-2" d="m423.89,605.32h7.44c1.04,0,1.73.46,1.73,1.15v4.73c0,.52-.69.87-1.73.87h-7.44v-6.75Z"/>
        <path class="cls-2" d="m431.34,605.32h7.44c1.04,0,1.73.46,1.73,1.15v4.73c0,.52-.69.87-1.73.87h-7.44v-6.75Z"/>
        <path class="cls-2" d="m438.78,605.32h7.44c1.04,0,1.73.46,1.73,1.15v4.73c0,.52-.69.87-1.73.87h-7.44v-6.75Z"/>
        <path class="cls-2" d="m446.23,605.32h7.44c1.04,0,1.73.46,1.73,1.15v4.73c0,.52-.69.87-1.73.87h-7.44v-6.75Z"/>
        <path class="cls-2" d="m453.67,605.32h7.44c1.04,0,1.73.46,1.73,1.15v4.73c0,.52-.69.87-1.73.87h-7.44v-6.75Z"/>
        <path class="cls-2" d="m461.12,605.32h7.44c1.04,0,1.73.46,1.73,1.15v4.73c0,.52-.69.87-1.73.87h-7.44v-6.75Z"/>
        <path class="cls-2" d="m475.31,604.8l-.17.63c-1.67,5.54-3.75,6.64-6.58,6.64v-6.75c3.75,0,6.12-.75,7.67-4.21l.58-1.27h.75c.63,3.29,1.44,5.48,3.64,5.48,1.15,0,1.73.58,1.73,1.73v3.29c0,1.15-.58,1.73-1.73,1.73-3.35,0-5.54-2.94-5.89-7.27Zm1.9-8.25l-3.58-3.58,3.58-3.52,2.89,2.83c.46.52.46.92,0,1.44l-2.89,2.83Z"/>
        <path class="cls-2" d="m481.26,605.32h7.44c1.04,0,1.73.46,1.73,1.15v4.73c0,.52-.69.87-1.73.87h-7.44v-6.75Z"/>
        <path class="cls-2" d="m488.7,605.32h7.44c1.04,0,1.73.46,1.73,1.15v4.73c0,.52-.69.87-1.73.87h-7.44v-6.75Z"/>
        <path class="cls-2" d="m496.15,605.32h7.44c1.04,0,1.73.46,1.73,1.15v4.73c0,.52-.69.87-1.73.87h-7.44v-6.75Z"/>
        <path class="cls-2" d="m503.59,605.32h7.44c1.04,0,1.73.46,1.73,1.15v4.73c0,.52-.69.87-1.73.87h-7.44v-6.75Z"/>
        <path class="cls-2" d="m511.03,605.32h7.44c1.04,0,1.73.46,1.73,1.15v4.73c0,.52-.69.87-1.73.87h-7.44v-6.75Z"/>
        <path class="cls-2" d="m526.27,599.09l1.1.29-1.44,4.56c1.85.92,3.81,1.38,5.77,1.38,2.31,0,2.77-.69,3.58-2.71l1.39-3.46,1.1.29-1.56,5.08,2.71.75c.69.23,1.27.29,1.79.29.69,0,1.15-.17,1.5-.58l-2.19-4.33,2.54-5.02.75.06,2.71,6.75c.81,2.19,1.38,2.89,2.94,2.89,1.15,0,1.73.58,1.73,1.73v3.29c0,1.15-.58,1.73-1.73,1.73-2.66,0-3.92-1.44-5.31-4.21l-.75-1.5-.87,3c-.58,1.9-1.33,3.12-3.64,2.83-.75,0-2.88-.75-4.56-1.73-.75,1.04-1.79,1.62-3.29,1.62-2.25,0-4.62-1.27-6.29-3.46-1.38,2.89-3.06,3.46-5.77,3.46v-6.75c3.35,0,5.42-.52,6.58-3.4l1.21-2.83Z"/>
        <path class="cls-2" d="m549.01,605.32h7.44c1.04,0,1.73.46,1.73,1.15v4.73c0,.52-.69.87-1.73.87h-7.44v-6.75Z"/>
        <path class="cls-2" d="m556.45,605.32h7.44c1.04,0,1.73.46,1.73,1.15v4.73c0,.52-.69.87-1.73.87h-7.44v-6.75Z"/>
        <path class="cls-2" d="m563.9,605.32h7.44c1.04,0,1.73.46,1.73,1.15v4.73c0,.52-.69.87-1.73.87h-7.44v-6.75Z"/>
        <path class="cls-2" d="m577.92,581.95l.69.29-.46,2.02,4.67,3.35-2.31,4.5v7.1c0,1.79-.75,3.92-2.6,7.56-.63,1.33-2.77,5.31-6.58,5.31v-6.75c1.9,0,3.92-.4,5.83-1.15v-12.98c-1.96-1.33-2.42-3.06-1.33-5.19l2.08-4.04Z"/>
        <path class="cls-2" d="m586.17,613.81h-.75v-26.26l2.89-5.48h.75v21.87c0,1.9-.35,3.75-1.1,5.54l-1.79,4.33Z"/>
      </g>
      <g>
        <path class="cls-2" d="m64.04,646.92h4.27l11.95,27.73h-5.64l-2.59-6.35h-12.03l-2.51,6.35h-5.52l12.07-27.73Zm6.27,17.16l-4.27-11.28-4.35,11.28h8.62Z"/>
        <path class="cls-2" d="m82.92,655.86h4.46v3.02h.08c.44-.94,1.12-1.76,2.04-2.45.91-.69,2.16-1.04,3.72-1.04,1.25,0,2.32.21,3.19.63s1.59.97,2.13,1.64c.55.68.94,1.46,1.18,2.35.23.89.35,1.82.35,2.78v11.87h-4.7v-9.52c0-.52-.03-1.1-.08-1.74-.05-.64-.19-1.24-.41-1.8-.22-.56-.57-1.03-1.04-1.41s-1.11-.57-1.92-.57-1.44.13-1.98.39c-.54.26-.98.61-1.33,1.06-.35.44-.61.95-.76,1.53-.16.58-.24,1.18-.24,1.8v10.26h-4.7v-18.8Z"/>
        <path class="cls-2" d="m105.4,655.86h4.46v3.02h.08c.44-.94,1.12-1.76,2.04-2.45.91-.69,2.16-1.04,3.72-1.04,1.25,0,2.32.21,3.19.63s1.59.97,2.13,1.64c.55.68.94,1.46,1.18,2.35.23.89.35,1.82.35,2.78v11.87h-4.7v-9.52c0-.52-.03-1.1-.08-1.74-.05-.64-.19-1.24-.41-1.8-.22-.56-.57-1.03-1.04-1.41s-1.11-.57-1.92-.57-1.44.13-1.98.39c-.54.26-.98.61-1.33,1.06-.35.44-.61.95-.76,1.53-.16.58-.24,1.18-.24,1.8v10.26h-4.7v-18.8Z"/>
        <path class="cls-2" d="m145.04,674.66h-4.47v-3.02h-.08c-.44.94-1.12,1.76-2.04,2.45-.91.69-2.15,1.04-3.72,1.04-1.25,0-2.32-.2-3.19-.61-.88-.41-1.59-.95-2.13-1.65-.55-.69-.94-1.48-1.17-2.37-.24-.89-.35-1.81-.35-2.78v-11.87h4.7v9.52c0,.52.03,1.1.08,1.74.05.64.19,1.24.41,1.8s.56,1.03,1.02,1.41,1.1.57,1.94.57c.78,0,1.44-.13,1.98-.39.53-.26.98-.61,1.33-1.06.35-.44.61-.95.76-1.53.16-.57.23-1.18.23-1.8v-10.26h4.7v18.8Z"/>
        <path class="cls-2" d="m162.12,672.07h-.12c-.68,1.1-1.54,1.88-2.59,2.35-1.04.47-2.19.71-3.45.71-.86,0-1.7-.12-2.53-.35-.82-.23-1.55-.59-2.19-1.06-.64-.47-1.16-1.06-1.55-1.76s-.59-1.53-.59-2.47c0-1.02.18-1.89.55-2.6.37-.72.85-1.32,1.47-1.8.61-.48,1.33-.87,2.13-1.16.81-.29,1.65-.5,2.53-.65.88-.14,1.76-.23,2.64-.27.89-.04,1.72-.06,2.51-.06h1.17v-.51c0-1.17-.41-2.06-1.21-2.64-.81-.59-1.84-.88-3.09-.88-.99,0-1.92.18-2.78.53-.86.35-1.61.83-2.23,1.43l-2.47-2.47c1.04-1.1,2.26-1.87,3.66-2.33,1.4-.46,2.84-.69,4.33-.69,1.33,0,2.46.15,3.37.45.91.3,1.67.69,2.27,1.16.6.47,1.06,1.01,1.39,1.63.33.61.56,1.23.71,1.86.14.63.23,1.23.25,1.82.03.59.04,1.1.04,1.55v10.81h-4.23v-2.58Zm-.27-5.84h-.98c-.65,0-1.38.03-2.19.08-.81.05-1.57.18-2.29.37-.72.2-1.33.49-1.82.88-.5.39-.75.91-.75,1.57,0,.44.1.82.29,1.12.2.3.45.56.76.76.31.21.67.36,1.06.45.39.09.78.14,1.17.14,1.65,0,2.85-.38,3.6-1.16.76-.77,1.14-1.82,1.14-3.15v-1.06Z"/>
        <path class="cls-2" d="m171.48,645.04h4.7v29.61h-4.7v-29.61Z"/>
        <path class="cls-2" d="m191.7,646.92h4.94v27.73h-4.94v-27.73Z"/>
        <path class="cls-2" d="m202.27,655.86h4.46v3.02h.08c.44-.94,1.12-1.76,2.04-2.45.91-.69,2.16-1.04,3.72-1.04,1.25,0,2.32.21,3.19.63s1.59.97,2.13,1.64c.55.68.94,1.46,1.18,2.35.23.89.35,1.82.35,2.78v11.87h-4.7v-9.52c0-.52-.03-1.1-.08-1.74-.05-.64-.19-1.24-.41-1.8-.22-.56-.57-1.03-1.04-1.41s-1.11-.57-1.92-.57-1.44.13-1.98.39c-.54.26-.98.61-1.33,1.06-.35.44-.61.95-.76,1.53-.16.58-.24,1.18-.24,1.8v10.26h-4.7v-18.8Z"/>
        <path class="cls-2" d="m222.21,655.86h5.13l5.01,13.16h.08l5.05-13.16h4.82l-7.4,18.8h-5.01l-7.68-18.8Z"/>
        <path class="cls-2" d="m248.85,666.9c.16,1.41.71,2.51,1.65,3.29s2.08,1.18,3.41,1.18c1.17,0,2.16-.24,2.96-.72s1.5-1.09,2.1-1.82l3.37,2.55c-1.1,1.36-2.32,2.32-3.68,2.9-1.36.57-2.78.86-4.27.86-1.41,0-2.74-.23-4-.71-1.25-.47-2.34-1.14-3.25-2-.91-.86-1.64-1.9-2.17-3.11-.54-1.21-.8-2.57-.8-4.05s.27-2.84.8-4.05c.54-1.21,1.26-2.25,2.17-3.11.91-.86,2-1.53,3.25-2,1.25-.47,2.58-.71,4-.71,1.31,0,2.5.23,3.58.69s2.01,1.12,2.78,1.98c.77.86,1.37,1.93,1.8,3.19.43,1.27.65,2.72.65,4.37v1.29h-14.34Zm9.64-3.53c-.03-1.41-.46-2.51-1.29-3.29-.84-.78-2-1.17-3.49-1.17-1.41,0-2.53.41-3.35,1.21-.82.81-1.33,1.89-1.51,3.25h9.64Z"/>
        <path class="cls-2" d="m277.6,661.07c-.89-1.28-2.12-1.92-3.68-1.92-.63,0-1.24.16-1.84.47-.6.31-.9.82-.9,1.53,0,.58.25.99.74,1.25.5.26,1.12.48,1.88.67.76.18,1.57.37,2.45.57.88.2,1.69.5,2.45.9.76.41,1.38.96,1.88,1.67.5.71.74,1.67.74,2.9,0,1.12-.24,2.07-.72,2.84-.48.77-1.11,1.39-1.88,1.86-.77.47-1.64.81-2.6,1.02-.97.21-1.93.31-2.9.31-1.49,0-2.84-.21-4.05-.63-1.21-.42-2.3-1.18-3.27-2.27l3.13-2.94c.6.68,1.25,1.23,1.94,1.66.69.43,1.53.65,2.53.65.34,0,.69-.04,1.06-.12.37-.08.71-.21,1.02-.39.31-.18.57-.41.76-.69.2-.27.29-.59.29-.96,0-.65-.25-1.14-.74-1.45s-1.12-.57-1.88-.76c-.76-.2-1.57-.38-2.45-.55-.88-.17-1.69-.44-2.45-.82-.76-.38-1.38-.91-1.88-1.59-.5-.68-.75-1.62-.75-2.82,0-1.04.22-1.95.65-2.72.43-.77,1-1.4,1.7-1.9s1.51-.86,2.43-1.1,1.84-.35,2.78-.35c1.25,0,2.49.21,3.72.65,1.23.43,2.22,1.17,2.98,2.21l-3.13,2.82Z"/>
        <path class="cls-2" d="m282.77,659.85v-4h3.88v-5.44h4.7v5.44h5.17v4h-5.17v8.23c0,.94.18,1.68.53,2.23.35.55,1.05.82,2.1.82.42,0,.88-.04,1.37-.14s.89-.24,1.18-.45v3.96c-.5.23-1.1.4-1.82.49-.72.09-1.35.14-1.9.14-1.25,0-2.28-.14-3.08-.41s-1.42-.69-1.88-1.25c-.46-.56-.77-1.26-.94-2.1s-.25-1.8-.25-2.9v-8.62h-3.88Z"/>
        <path class="cls-2" d="m299.26,665.26c0-1.49.27-2.84.8-4.05.54-1.21,1.26-2.25,2.17-3.11.91-.86,2-1.53,3.25-2,1.25-.47,2.58-.71,4-.71s2.74.24,4,.71c1.25.47,2.34,1.14,3.25,2,.91.86,1.64,1.9,2.17,3.11.54,1.21.8,2.57.8,4.05s-.27,2.84-.8,4.05c-.54,1.21-1.26,2.25-2.17,3.11-.91.86-2,1.53-3.25,2-1.25.47-2.59.71-4,.71s-2.74-.23-4-.71c-1.25-.47-2.34-1.14-3.25-2-.91-.86-1.64-1.9-2.17-3.11-.54-1.21-.8-2.57-.8-4.05Zm4.7,0c0,.73.12,1.44.37,2.12.25.68.61,1.28,1.1,1.8.48.52,1.06.94,1.74,1.25.68.31,1.45.47,2.31.47s1.63-.16,2.31-.47c.68-.31,1.26-.73,1.74-1.25.48-.52.85-1.12,1.1-1.8.25-.68.37-1.38.37-2.12s-.12-1.44-.37-2.12c-.25-.68-.61-1.28-1.1-1.8-.48-.52-1.06-.94-1.74-1.25-.68-.31-1.45-.47-2.31-.47s-1.63.16-2.31.47c-.68.31-1.26.73-1.74,1.25-.48.52-.85,1.12-1.1,1.8-.25.68-.37,1.38-.37,2.12Z"/>
        <path class="cls-2" d="m324.1,655.86h4.7v2.98h.08c.52-1.1,1.27-1.95,2.23-2.55.97-.6,2.08-.9,3.33-.9.29,0,.57.03.84.08.27.05.55.12.84.2v4.54c-.39-.1-.78-.19-1.16-.25-.38-.07-.75-.1-1.12-.1-1.1,0-1.98.2-2.64.61-.67.41-1.17.87-1.53,1.39-.35.52-.59,1.04-.71,1.57-.12.52-.18.91-.18,1.17v10.07h-4.7v-18.8Z"/>
        <path class="cls-2" d="m349.56,646.92h17.9v4.46h-12.97v7.29h12.22v4.47h-12.22v11.52h-4.94v-27.73Z"/>
        <path class="cls-2" d="m370.67,665.26c0-1.49.27-2.84.8-4.05.54-1.21,1.26-2.25,2.17-3.11.91-.86,2-1.53,3.25-2,1.25-.47,2.58-.71,4-.71s2.74.24,4,.71c1.25.47,2.34,1.14,3.25,2,.91.86,1.64,1.9,2.17,3.11.54,1.21.8,2.57.8,4.05s-.27,2.84-.8,4.05c-.54,1.21-1.26,2.25-2.17,3.11-.91.86-2,1.53-3.25,2-1.25.47-2.59.71-4,.71s-2.74-.23-4-.71c-1.25-.47-2.34-1.14-3.25-2-.91-.86-1.64-1.9-2.17-3.11-.54-1.21-.8-2.57-.8-4.05Zm4.7,0c0,.73.12,1.44.37,2.12.25.68.61,1.28,1.1,1.8.48.52,1.06.94,1.74,1.25.68.31,1.45.47,2.31.47s1.63-.16,2.31-.47c.68-.31,1.26-.73,1.74-1.25.48-.52.85-1.12,1.1-1.8.25-.68.37-1.38.37-2.12s-.12-1.44-.37-2.12c-.25-.68-.61-1.28-1.1-1.8-.48-.52-1.06-.94-1.74-1.25-.68-.31-1.45-.47-2.31-.47s-1.63.16-2.31.47c-.68.31-1.26.73-1.74,1.25-.48.52-.85,1.12-1.1,1.8-.25.68-.37,1.38-.37,2.12Z"/>
        <path class="cls-2" d="m395.51,655.86h4.7v2.98h.08c.52-1.1,1.27-1.95,2.23-2.55.97-.6,2.08-.9,3.33-.9.29,0,.57.03.84.08.27.05.55.12.84.2v4.54c-.39-.1-.78-.19-1.16-.25-.38-.07-.75-.1-1.12-.1-1.1,0-1.98.2-2.64.61-.67.41-1.17.87-1.53,1.39-.35.52-.59,1.04-.71,1.57-.12.52-.18.91-.18,1.17v10.07h-4.7v-18.8Z"/>
        <path class="cls-2" d="m427.9,674.66h-4.47v-3.02h-.08c-.44.94-1.12,1.76-2.04,2.45-.91.69-2.15,1.04-3.72,1.04-1.25,0-2.32-.2-3.19-.61-.88-.41-1.59-.95-2.13-1.65-.55-.69-.94-1.48-1.17-2.37-.24-.89-.35-1.81-.35-2.78v-11.87h4.7v9.52c0,.52.03,1.1.08,1.74.05.64.19,1.24.41,1.8s.56,1.03,1.02,1.41,1.1.57,1.94.57c.78,0,1.44-.13,1.98-.39.53-.26.98-.61,1.33-1.06.35-.44.61-.95.76-1.53.16-.57.23-1.18.23-1.8v-10.26h4.7v18.8Z"/>
        <path class="cls-2" d="m433.04,655.86h4.47v2.94h.08c.42-.89,1.09-1.68,2.02-2.37.93-.69,2.17-1.04,3.74-1.04,2.92,0,4.88,1.16,5.88,3.49.68-1.2,1.53-2.08,2.55-2.64,1.02-.56,2.23-.84,3.64-.84,1.25,0,2.31.21,3.17.63.86.42,1.56.99,2.1,1.72s.92,1.59,1.16,2.57c.24.98.35,2.03.35,3.15v11.2h-4.7v-10.65c0-.57-.05-1.13-.16-1.67-.11-.54-.29-1-.55-1.41-.26-.41-.61-.72-1.06-.96-.44-.24-1.02-.35-1.72-.35s-1.35.14-1.86.41c-.51.27-.93.64-1.25,1.1-.33.46-.56.98-.71,1.57-.14.59-.22,1.18-.22,1.78v10.18h-4.7v-11.2c0-1.17-.24-2.11-.72-2.8-.48-.69-1.31-1.04-2.49-1.04-.78,0-1.44.13-1.98.39-.54.26-.98.61-1.33,1.06-.35.44-.61.95-.76,1.53-.16.58-.23,1.18-.23,1.8v10.26h-4.7v-18.8Z"/>
        <path class="cls-2" d="m468.88,669.25h4.78l-3.33,10.34h-4.19l2.74-10.34Z"/>
        <path class="cls-2" d="m502.72,666.98c0,1.1-.18,2.15-.53,3.17s-.88,1.91-1.57,2.68c-.69.77-1.56,1.38-2.61,1.84-1.04.46-2.26.69-3.64.69-2.22,0-4.02-.51-5.41-1.53s-2.3-2.64-2.74-4.86l4.62-1.1c.16.91.53,1.64,1.12,2.19.59.55,1.31.82,2.17.82,1.41,0,2.37-.48,2.88-1.43.51-.95.76-2.26.76-3.94v-18.61h4.94v20.06Z"/>
        <path class="cls-2" d="m520.04,672.07h-.12c-.68,1.1-1.54,1.88-2.59,2.35-1.04.47-2.19.71-3.45.71-.86,0-1.7-.12-2.53-.35-.82-.23-1.55-.59-2.19-1.06-.64-.47-1.16-1.06-1.55-1.76s-.59-1.53-.59-2.47c0-1.02.18-1.89.55-2.6.37-.72.85-1.32,1.47-1.8.61-.48,1.33-.87,2.13-1.16.81-.29,1.65-.5,2.53-.65.88-.14,1.76-.23,2.64-.27.89-.04,1.72-.06,2.51-.06h1.17v-.51c0-1.17-.41-2.06-1.21-2.64-.81-.59-1.84-.88-3.09-.88-.99,0-1.92.18-2.78.53-.86.35-1.61.83-2.23,1.43l-2.47-2.47c1.04-1.1,2.26-1.87,3.66-2.33,1.4-.46,2.84-.69,4.33-.69,1.33,0,2.46.15,3.37.45.91.3,1.67.69,2.27,1.16.6.47,1.06,1.01,1.39,1.63.33.61.56,1.23.71,1.86.14.63.23,1.23.25,1.82.03.59.04,1.1.04,1.55v10.81h-4.23v-2.58Zm-.27-5.84h-.98c-.65,0-1.38.03-2.19.08-.81.05-1.57.18-2.29.37-.72.2-1.33.49-1.82.88-.5.39-.75.91-.75,1.57,0,.44.1.82.29,1.12.2.3.45.56.76.76.31.21.67.36,1.06.45.39.09.78.14,1.17.14,1.65,0,2.85-.38,3.6-1.16.76-.77,1.14-1.82,1.14-3.15v-1.06Z"/>
        <path class="cls-2" d="m527.99,670.31l10.07-10.62v-.08h-9.6v-3.76h15.28v4.27l-10.18,10.77h10.65v3.76h-16.22v-4.35Z"/>
        <path class="cls-2" d="m559.95,672.07h-.12c-.68,1.1-1.54,1.88-2.59,2.35-1.04.47-2.19.71-3.45.71-.86,0-1.7-.12-2.53-.35-.82-.23-1.55-.59-2.19-1.06-.64-.47-1.16-1.06-1.55-1.76s-.59-1.53-.59-2.47c0-1.02.18-1.89.55-2.6.37-.72.85-1.32,1.47-1.8.61-.48,1.33-.87,2.13-1.16.81-.29,1.65-.5,2.53-.65.88-.14,1.76-.23,2.64-.27.89-.04,1.72-.06,2.51-.06h1.17v-.51c0-1.17-.41-2.06-1.21-2.64-.81-.59-1.84-.88-3.09-.88-.99,0-1.92.18-2.78.53-.86.35-1.61.83-2.23,1.43l-2.47-2.47c1.04-1.1,2.26-1.87,3.66-2.33,1.4-.46,2.84-.69,4.33-.69,1.33,0,2.46.15,3.37.45.91.3,1.67.69,2.27,1.16.6.47,1.06,1.01,1.39,1.63.33.61.56,1.23.71,1.86.14.63.23,1.23.25,1.82.03.59.04,1.1.04,1.55v10.81h-4.23v-2.58Zm-.27-5.84h-.98c-.65,0-1.38.03-2.19.08-.81.05-1.57.18-2.29.37-.72.2-1.33.49-1.82.88-.5.39-.75.91-.75,1.57,0,.44.1.82.29,1.12.2.3.45.56.76.76.31.21.67.36,1.06.45.39.09.78.14,1.17.14,1.65,0,2.85-.38,3.6-1.16.76-.77,1.14-1.82,1.14-3.15v-1.06Z"/>
        <path class="cls-2" d="m569.24,655.86h4.46v3.02h.08c.44-.94,1.12-1.76,2.04-2.45.91-.69,2.16-1.04,3.72-1.04,1.25,0,2.32.21,3.19.63s1.59.97,2.13,1.64c.55.68.94,1.46,1.18,2.35.23.89.35,1.82.35,2.78v11.87h-4.7v-9.52c0-.52-.03-1.1-.08-1.74-.05-.64-.19-1.24-.41-1.8-.22-.56-.57-1.03-1.04-1.41s-1.11-.57-1.92-.57-1.44.13-1.98.39c-.54.26-.98.61-1.33,1.06-.35.44-.61.95-.76,1.53-.16.58-.24,1.18-.24,1.8v10.26h-4.7v-18.8Z"/>
      </g>
    </g>
  </g>
</svg>