<?xml version="1.0" encoding="UTF-8"?>
<svg xmlns="http://www.w3.org/2000/svg" viewBox="0 0 697 65.01">
  <defs>
    <style>
      .cls-1 {
        fill: #66625c;
        mix-blend-mode: multiply;
        opacity: .56;
      }

      .cls-1, .cls-2, .cls-3 {
        stroke-width: 0px;
      }

      .cls-4 {
        isolation: isolate;
      }

      .cls-2 {
        fill: #ddb565;
      }

      .cls-3 {
        fill: #d6d6d6;
      }
    </style>
  </defs>
  <g class="cls-4">
    <g id="Layer_2" data-name="Layer 2">
      <g id="Layer_1-2" data-name="Layer 1">
        <rect class="cls-1" width="697" height="65.01"/>
        <polygon class="cls-2" points="411.06 39.8 440.81 10.02 447.64 9.37 445.62 42.68 422.03 55.35 411.06 39.8"/>
        <g>
          <path class="cls-3" d="m235.41,41.69l-5.73-.41v-.37c3.14-.37,7.83-3.07,8.42-6.43l-2.73-3.84,1.15-2.48h.37c1.18,2.03,1.59,3.58,1.59,5.76,0,3.84-1.26,6.13-3.07,7.76Z"/>
          <path class="cls-3" d="m246.68,36.15c-.44,2.4-1.48,4.32-2.92,5.54l-5.91-.41v-.37c4.47-.92,7.79-2.77,8.57-4.77-5.06,0-6.98-.26-5.62-4.84.59-1.88,1.55-3.95,3.29-3.95,2.62,0,2.81,4.54,2.84,5.95h1.18c.74,0,1.11.37,1.11,1.11v.63c0,.74-.37,1.11-1.11,1.11h-1.44Zm-3.69-6.02c-1.26,0-1.74,1.03-1.85,1.37-.63,1.66,1.85,1.81,5.06,1.81-.55-1.81-1.74-3.18-3.21-3.18Z"/>
          <path class="cls-3" d="m252.52,29.47h.33v1.33c0,2.18,1.44,2.47,2.03,2.51,2.62-2.44,6.17-6.21,9.09-6.21.63,0,1.18.15,1.7.52,1.33.96,1.59,2.84,1.11,4.91l-.04.18c-.04.18-.11.37-.18.55.37.04.78.04,1.22.04.74,0,1.11.37,1.11,1.11v.63c0,.74-.37,1.11-1.11,1.11-1.59,0-2.84-.15-4.21-.63-1.4.44-3.25.63-5.39.63-4.54,0-6.43-.81-6.58-2.14-.48,1.18-1.55,2.14-3.51,2.14v-2.84c2.73,0,3.66,0,4.25-2.96l.18-.89Zm3.25-1.85l-1.81-1.81,1.81-1.81,1.51,1.51c.18.22.18.41,0,.59l-1.51,1.51Zm9.27,3.18c-.74-1-1.4-1.59-2.4-1.59-1.85,0-3.99,1.55-7.09,4.1,4.91-.04,8.53-.37,10.86-.74l-1.37-1.77Z"/>
          <path class="cls-3" d="m267.78,36.15v-2.84h5.02c2.84,0,4.99-1.03,6.46-1.96-2.73-.85-5.36-2.03-6.98-2.03-.89,0-1.77.37-2.29,1.22l-.3-.22.85-1.33c1.07-1.62,2.07-1.96,3.14-1.96,2.81,0,5.95,2.48,10.01,2.51h.85l.33.26-.92,2.4h-.26c-1.15,0-2.44-.26-3.73-.63.11.96.81,1.74,1.77,1.74h3.1c.74,0,1.11.37,1.11,1.11v.63c0,.74-.37,1.11-1.11,1.11h-1.88c-2.36,0-3.69-1.59-3.69-3.99v-.41c-3.07,2.18-5.02,4.4-9.79,4.4h-1.7Z"/>
          <path class="cls-3" d="m288.73,19.53l.33.11-.22.92,2.07,1.29-1.07,2.44v5.47c0,3.07-1.48,6.39-4.99,6.39v-2.84c1.22,0,2.36-.22,3.69-.74v-8.94c-.81-.63-1-1.4-.55-2.4l.74-1.7Z"/>
          <path class="cls-3" d="m293.16,37.26h-.37v-15.29l1.11-2.33h.37v12.6c0,.74-.11,1.48-.3,2.18l-.81,2.84Z"/>
          <path class="cls-3" d="m309.05,32.61l-2.33-4.8.78-2.29h.33l3.1,6.39c.44.89.78,1.4,1.55,1.4h.04c.74,0,1.11.37,1.11,1.11v.63c0,.74-.37,1.11-1.11,1.11h-.04c-1.4,0-2.22-1.07-2.66-1.96l-.48-1c-.37,1.66-1.55,2.99-4.21,2.99-2,0-2.77-.74-2.77-2.33,0-.44.07-1.51.18-2.51h.26c-.15,1.48.37,2,2.44,2,1.33,0,2.55-.22,3.81-.74Z"/>
          <path class="cls-3" d="m316.18,32.57v.04c-.92,2.55-1.81,3.55-3.66,3.55v-2.84c2.11,0,2.96-.33,3.99-2.11l.37-.67h.37c.52,2.14.96,2.77,1.88,2.77.74,0,1.11.37,1.11,1.11v.63c0,.74-.37,1.11-1.11,1.11-1.77,0-2.62-1.51-2.96-3.58Zm-.96,8.83l-1.7-1.7,1.7-1.74,1.44,1.44s.04.07.07.07l1.51-1.51,1.44,1.44c.18.18.18.37,0,.55l-1.44,1.44-1.51-1.51-.07.07-1.44,1.44Z"/>
          <path class="cls-3" d="m330.84,20.67l.33.26-.89,2.7-6.72,3.92c2.22.33,4.1.37,6.5.37h8.75c5.39,0,4.8,2.55,4.54,4.54l-.04.22c-.33,2.7-4.32,3.47-14.26,3.47h-9.94v-2.84h9.94c7.72,0,10.31-.11,14-1.11l-.11-.41c-.29-1.07-.81-1.26-4.58-1.26h-8.31c-2.84,0-4.77-.07-7.39-.33-.67-.07-1-.48-.81-1.11,1.4-4.21,4.29-5.76,8.98-8.42Z"/>
          <path class="cls-3" d="m348.73,15.24c-.22-.18-.74-.29-1.29-.33-.48,0-.96.11-1.29.41.15.78,1,1.4,1.88,1.4h1.29l.07.11-.55.96h-1.07c-1,0-1.29.11-2.44.78l-.15-.18.52-.55c.18-.18.37-.33.59-.44-.52-.44-.55-1.14-.37-1.85.37-1.26,1.29-1.66,1.92-1.66.7,0,1.15.55,1.26.96l-.26.37-.11.04Zm-1.81,17.21v-6.39c0-1.48-.15-2.36-.37-3.73l1.29-2.7h.37v12.19c0,.92.59,1.48,1.85,1.48.67,0,1.11.44,1.11,1.11v.63c0,.67-.48,1.11-1.11,1.11-1.26,0-3.14-.3-3.14-3.69Z"/>
          <path class="cls-3" d="m353.71,32.57v.04c-.92,2.55-1.81,3.55-3.66,3.55v-2.84c2.11,0,2.96-.33,3.99-2.11l.37-.67h.37c.52,2.14.96,2.77,1.88,2.77.74,0,1.11.37,1.11,1.11v.63c0,.74-.37,1.11-1.11,1.11-1.77,0-2.62-1.51-2.96-3.58Zm-.74-3.99l-1.7-1.7,1.7-1.74,1.44,1.44s.07.07.07.11l1.55-1.55,1.44,1.44c.19.18.19.37,0,.55l-1.44,1.44-1.55-1.55s-.04.07-.07.11l-1.44,1.44Z"/>
          <path class="cls-3" d="m360.55,19.53l.33.11-.22.92,2.07,1.29-1.07,2.44v5.47c0,3.07-1.48,6.39-4.99,6.39v-2.84c1.22,0,2.36-.22,3.69-.74v-8.94c-.81-.63-1-1.4-.55-2.4l.74-1.7Z"/>
          <path class="cls-3" d="m369.53,32.46v-6.39c0-1.48-.15-2.36-.37-3.73l1.29-2.7h.37v12.19c0,.92.59,1.48,1.85,1.48.67,0,1.11.44,1.11,1.11v.63c0,.67-.48,1.11-1.11,1.11-1.26,0-3.14-.3-3.14-3.69Z"/>
          <path class="cls-3" d="m376.33,32.57v.04c-.92,2.55-1.81,3.55-3.66,3.55v-2.84c2.11,0,2.96-.33,3.99-2.11l.37-.67h.37c.52,2.14.96,2.77,1.88,2.77.74,0,1.11.37,1.11,1.11v.63c0,.74-.37,1.11-1.11,1.11-1.77,0-2.62-1.51-2.96-3.58Zm.92-3.88l-1.81-1.81,1.81-1.81,1.51,1.51c.18.22.18.41,0,.59l-1.51,1.51Z"/>
          <path class="cls-3" d="m384.6,25.37l.18-.18c5.13,2.22,7.2,5.69,6.28,9.35l-.55,2.25-.3.18-3.8-1.03c-.89-.22-1.59-.55-2.14-.92-1.55.7-3.33,1.15-4.99,1.15v-2.84c.74,0,2,0,3.36-.11-.33-.81-.33-1.7-.07-2.66.29-1.11.85-2.11,1.51-2.7l.52-2.48Zm.81,3.84c-.81,0-1.77.52-2.51,1.15.22.85.81,1.7,2.62,2.44.74-.15,1.37-.37,1.81-.63-.11-.89-1.26-2.4-1.92-2.96Zm5.32,5.17c-.52-1.55-1.77-3.55-3.51-4.95.52.96.74,2.03.37,2.88-.11.33-.33.67-.67.96l3.81,1.11Z"/>
          <path class="cls-3" d="m401.6,35.34c0,2.4-.96,4.29-2.84,6.39l-5.73-.48v-.37c4.21-.96,6.28-2.36,8.24-5.39l-1.96-4.51,1.15-2.25h.29l1.29,3.62c.22.7.67.96,1.55.96.74,0,1.11.37,1.11,1.11v.63c0,.74-.37,1.11-1.11,1.11-.63,0-1.33-.15-2-.81Z"/>
          <path class="cls-3" d="m409.87,34.82c-1.81.92-3.36,1.33-6.28,1.33v-2.84c1.74,0,3.14-.04,4.36-.18-.48-.63-.96-1.48-.92-2.47,0-2.11,2.07-4.43,4.32-4.43,2.7,0,3.1,3.29,2.11,5.39-.26.55-.59,1.07-1.07,1.51.92.15,1.81.18,2.48.18.74,0,1.11.37,1.11,1.11v.63c0,.74-.37,1.11-1.11,1.11-1.59,0-3.44-.37-4.99-1.33Zm.67-2.18c1.11-.29,2.07-.7,2.7-1.11-.29-1.14-.96-2.25-1.7-2.77-1.74,0-3.25.48-4.21,1.33.74,1.29,1.96,2.07,3.21,2.55Zm-1.22-8.39l-1.7-1.7,1.7-1.74,1.44,1.44s.07.07.07.11l1.55-1.55,1.44,1.44c.19.18.19.37,0,.55l-1.44,1.44-1.55-1.55s-.04.07-.07.11l-1.44,1.44Z"/>
          <path class="cls-3" d="m414.86,33.31c1.96,0,3.03-.15,4.36-.55l-1.74-2.88,1.14-2.25h.37c.96,2.14,1.33,2.96.55,5.36l-.07.22c-.85,2.47-2.14,2.96-4.62,2.96v-2.84Zm3.92-7.54l-1.81-1.81,1.81-1.81,1.51,1.51c.18.22.18.41,0,.59l-1.51,1.51Z"/>
          <path class="cls-3" d="m424.06,37.26h-.37v-15.29l1.11-2.33h.37v12.6c0,.74-.11,1.48-.3,2.18l-.81,2.84Z"/>
        </g>
      </g>
    </g>
  </g>
</svg>