<?xml version="1.0" encoding="UTF-8"?>
<svg id="Layer_2" data-name="Layer 2" xmlns="http://www.w3.org/2000/svg" viewBox="0 0 260.58 57.82">
  <defs>
    <style>
      .cls-1 {
        fill: #ddb565;
        stroke-width: 0px;
      }
    </style>
  </defs>
  <g id="Layer_1-2" data-name="Layer 1">
    <g>
      <path class="cls-1" d="m232.14,0c-15.7,0-28.44,12.95-28.44,28.91s12.74,28.91,28.44,28.91,28.44-12.95,28.44-28.91S247.85,0,232.14,0m0,57.32c-15.46,0-27.95-12.7-27.95-28.41S216.69.49,232.14.49s28,12.7,28,28.41-12.54,28.41-28,28.41"/>
      <path class="cls-1" d="m232.14,49.61c11.23,0,20.37-9.29,20.37-20.71s-9.14-20.7-20.37-20.7-20.32,9.29-20.32,20.7,9.09,20.71,20.32,20.71m0-40.87c10.94,0,19.83,9.04,19.83,20.16s-8.9,20.16-19.83,20.16-19.78-9.04-19.78-20.16,8.85-20.16,19.78-20.16"/>
      <path class="cls-1" d="m232.24,48.28c10.3,0,18.67-8.5,18.67-18.98,0-1.09-.1-2.17-.29-3.21h-6.51v-1.78h-3.26v-4h-1.22v4.05h-.78v6.57h-.34v-7.71h-1.31v7.71h-.58v-5.78h-1.75v1.43h-2.24v-1.73h-.73v-2.22h-1.07v8.89h-.34v-13.69h-1.31v4.1h-.73v9.59h-.49v-3.26s-2.77-2.52-6.37,0v1.04h-2.19v3.56h-1.07v-8.55h-1.6v9.83h-2.58c2.14,8.15,9.43,14.13,18.08,14.13m18.03-21.69s.58,3.36,0,5.39c0,0-3.06-2.52-6.37-.05v-.99h-2.14v-4.35h8.51Zm-9.43-1.88h2.92v1.38h-2.43v4.84h-.49v-6.23Zm-.78-3.95h.34v10.18h-.34v-10.18Zm-.87,4h.44v6.18h-.44v-6.18Zm-1.65-1.09h.58v7.26h-.58v-7.26Zm-2.29,1.83h.97v5.48h-.97v-5.48Zm-2.38,1.48h1.99v4h-1.99v-4Zm-1.75-3.95h.39v8.55h-.39v-8.55Zm-1.51-4.79h.49v13.34h-.49v-13.34Zm-.88,4.2h.44v9.09h-.44v-9.09Zm-11.57,12.16v-9.88h.78v9.88h.39v-1.33h1.46v-3.41h1.75v2.27h.39v-3.61s2.82-2.03,5.64-.1v3.16h-2.62l.05.4h6.9v-6.77h.44v6.23h11.23v2.08h.34v-.94s1.07-1.28,3.16-1.28,3.11,1.24,3.11,1.24v.05c-1.56,8.7-8.99,15.27-17.99,15.27-8.26,0-15.21-5.58-17.45-13.29l2.43.05Z"/>
      <path class="cls-1" d="m211.05,35.92l-.24-.84c-.63-.25-1.31-.54-1.94-.84l1.6-.4-.15-.64-3.6.79.15.74,1.12-.3.73.4c-.49.49-.97.94-1.41,1.43l.29.94c.58-.74,1.12-1.38,1.75-2.03.53.25,1.17.49,1.7.74"/>
      <polygon class="cls-1" points="211.19 36.27 207.74 37.56 207.98 38.25 211.39 36.86 211.19 36.27"/>
      <path class="cls-1" d="m212.46,39.14l-2.19,1.19c.53-.79,1.07-1.58,1.6-2.32-.05-.2-.15-.4-.24-.59l-3.4,1.48c.1.25.19.44.29.64l2.19-1.04c-.53.74-1.07,1.58-1.51,2.37.1.25.19.44.34.64l3.21-1.83c-.1-.2-.19-.35-.29-.54"/>
      <path class="cls-1" d="m213.33,43.68c-.29-.4-.58-.79-.88-1.19l-.49.35c.14.25.29.44.49.69l-.39.3c-.15-.05-.29-.1-.44-.2-.1-.1-.24-.2-.34-.35-.15-.25-.19-.49-.1-.79.05-.3.29-.54.68-.79.34-.2.63-.3.88-.3.29.05.49.15.68.4.1.15.14.3.1.49,0,.15-.05.3-.19.44l.53.44c.24-.25.34-.54.34-.84.05-.3-.05-.59-.29-.89-.15-.25-.34-.44-.53-.54-.29-.15-.58-.2-.92-.15-.34.05-.68.15-1.02.35-.29.2-.53.44-.73.69-.19.3-.24.59-.24.94s.15.64.34.99c.19.25.39.44.68.59.24.15.49.25.73.3l1.12-.94Z"/>
      <path class="cls-1" d="m215.57,46.35c.24-.25.39-.49.53-.69.1-.25.14-.44.19-.64,0-.25-.05-.44-.1-.59-.1-.15-.19-.3-.39-.49-.24-.3-.49-.59-.73-.89l-2.87,2.42c.29.35.63.69.92,1.04.19.25.34.35.49.44.24.1.44.15.58.15.24,0,.49-.1.73-.2.19-.15.44-.3.63-.54m-1.02-.05c-.15.05-.29.1-.39.1s-.19-.05-.29-.1c-.1-.05-.19-.15-.34-.3l-.34-.4,1.8-1.63.19.2c.2.2.29.35.34.44.1.1.1.2.1.3,0,.15-.05.25-.1.4-.1.15-.24.35-.44.54-.19.2-.39.35-.53.44"/>
      <path class="cls-1" d="m218.48,48.72c.34-.49.49-.99.44-1.43-.05-.44-.24-.79-.58-1.09-.19-.15-.39-.25-.63-.3-.15-.05-.29-.05-.49-.05-.2.05-.39.1-.58.2-.24.15-.49.35-.73.59-.39.44-.63.94-.58,1.38,0,.44.19.89.63,1.24.44.35.87.44,1.31.35.49-.1.88-.4,1.21-.89m-1.36.2c-.29.05-.53,0-.78-.15-.19-.2-.34-.44-.34-.74s.15-.59.44-.89c.29-.35.53-.54.83-.59.24-.05.49,0,.68.15.19.2.29.4.34.69,0,.25-.14.54-.39.89-.24.35-.49.59-.78.64"/>
      <path class="cls-1" d="m219.94,50.45c.24-.84.49-1.68.78-2.52-.29-.15-.53-.3-.83-.49l-1.99,3.16c.19.1.34.25.53.35l1.55-2.52c-.34.99-.63,1.93-.92,2.92.19.1.44.25.63.35.68-.74,1.31-1.53,1.94-2.27l-1.31,2.62.63.3,1.55-3.41c-.24-.1-.53-.25-.83-.4-.53.64-1.12,1.28-1.75,1.93"/>
      <path class="cls-1" d="m225.53,50.06c-.24-.05-.44-.1-.68-.05-.14,0-.34.1-.49.2-.19.1-.34.2-.44.35-.19.2-.39.49-.49.84-.24.59-.24,1.09-.1,1.48.19.44.53.74,1.07.94.53.15.97.1,1.36-.15.39-.3.63-.69.78-1.28.15-.59.1-1.09-.1-1.48-.19-.4-.49-.69-.92-.84m.34,2.12c-.1.44-.29.74-.49.89-.24.15-.49.2-.78.1-.29-.1-.49-.25-.58-.54-.1-.25-.1-.59.05-.99.15-.4.34-.69.58-.84.19-.15.44-.2.68-.1.29.05.44.25.53.49.1.25.1.59,0,.99"/>
      <path class="cls-1" d="m226.7,54.31l.73.15.24-1.53c.49.05.97.15,1.41.2l.1-.64c-.49-.05-.92-.1-1.36-.2l.15-.89c.49.1,1.02.2,1.51.25l.1-.64c-.73-.05-1.41-.2-2.09-.35l-.78,3.66Z"/>
      <path class="cls-1" d="m233.26,52.82c-.15-.1-.39-.2-.73-.25-.29-.1-.53-.2-.58-.25-.1-.1-.1-.15-.1-.25s0-.2.1-.25c.1-.05.24-.1.44-.1s.29,0,.39.1c.1.1.19.2.19.4.24,0,.44-.05.68-.05-.05-.35-.15-.59-.39-.79-.19-.2-.49-.3-.88-.3-.24,0-.44.05-.63.1-.15.1-.29.25-.39.4-.1.15-.15.35-.15.54,0,.3.05.54.24.74.15.15.44.3.78.4.29.05.49.1.58.15.1.05.19.1.24.15.05.05.05.15.05.25.05.15-.05.25-.15.35-.1.1-.29.15-.49.2-.24,0-.39-.1-.53-.2-.15-.1-.19-.3-.24-.54l-.68.05c0,.44.15.74.39.99.24.2.58.35,1.07.35.29-.05.53-.1.78-.2.19-.1.34-.25.44-.44.1-.2.15-.4.15-.59,0-.25-.1-.44-.19-.59-.1-.15-.19-.3-.39-.35"/>
      <path class="cls-1" d="m235.06,50.95c-.24,1.28-.53,2.62-.88,3.9.24-.05.49-.05.78-.1l.19-.89c.44,0,.93-.1,1.36-.2l.44.79.83-.15c-.78-1.14-1.41-2.27-2.04-3.46l-.68.1Zm.19,2.27c.1-.44.19-.94.29-1.43.19.44.44.89.63,1.28-.29.05-.58.1-.92.15"/>
      <path class="cls-1" d="m239.68,49.86l-.58.2.63,1.98c.1.3.15.49.15.59.05.15,0,.25-.05.4-.1.1-.24.2-.44.25-.19.05-.34.05-.49,0-.15-.05-.24-.15-.29-.3-.05-.1-.1-.3-.19-.59l-.49-1.98-.63.15.44,1.93c.1.44.19.74.29.94.1.15.19.25.29.35.14.1.29.2.49.2.19.05.49,0,.78-.1.29-.05.49-.15.63-.3.15-.15.29-.3.34-.44.05-.15.05-.3.05-.49-.05-.2-.15-.49-.29-.94l-.63-1.83Z"/>
      <path class="cls-1" d="m243.57,50.2c-.19-.35-.34-.59-.53-.74-.14-.2-.34-.3-.53-.4-.2-.1-.39-.15-.58-.1-.14,0-.34.1-.58.2-.34.15-.68.3-1.02.44l1.31,3.51c.44-.2.88-.4,1.31-.54.24-.15.39-.25.53-.4.15-.15.24-.3.34-.49.05-.2.05-.44,0-.74-.05-.25-.1-.49-.24-.74m-.44,1.33c-.05.1-.1.2-.19.25-.05.1-.19.15-.39.25l-.49.2-.92-2.27.24-.15c.24-.1.44-.15.49-.15.15-.05.24-.05.39,0,.1.05.19.15.29.25.1.1.24.3.34.54.14.3.24.49.24.69.05.15.05.3,0,.4"/>
      <polygon class="cls-1" points="243.13 48.23 244.93 51.54 245.56 51.14 243.66 47.93 243.13 48.23"/>
      <path class="cls-1" d="m245.76,46.45c.44,1.28.78,2.52,1.12,3.85l.63-.49-.24-.84c.34-.3.73-.59,1.07-.89l.78.44.58-.54c-1.17-.59-2.33-1.24-3.4-1.93l-.53.4Zm1.99,1.28l-.73.59-.49-1.38c.39.25.83.54,1.22.79"/>
      <path class="cls-1" d="m250.66,45.07c-.15,0-.29.05-.49.1.19-.3.24-.54.19-.74-.05-.25-.14-.44-.39-.64-.14-.15-.34-.25-.53-.3-.14,0-.34,0-.49.05-.15.1-.34.25-.58.49-.29.35-.58.64-.93.94l2.53,2.77.53-.54-1.07-1.09.1-.1c.1-.15.19-.2.24-.25.1-.05.19-.05.29-.05s.29.05.63.1l.92.15.58-.64-.83-.15c-.34-.05-.58-.1-.73-.1m-.92-.25c-.05.1-.15.25-.39.49l-.34.35-.63-.69.34-.35c.19-.2.29-.3.34-.35.05-.05.15-.1.24-.1.1.05.19.05.29.15.1.1.15.15.15.25.05.1.05.15,0,.25"/>
      <path class="cls-1" d="m250.13,41.9c.73,1.09,1.46,2.22,2.14,3.36.15-.2.29-.4.49-.59l-.49-.79c.29-.35.53-.74.78-1.14l.88.2.44-.69c-1.31-.25-2.58-.54-3.84-.89l-.39.54Zm2.29.64l-.53.79c-.29-.4-.58-.79-.83-1.19l1.36.4Z"/>
      <path class="cls-1" d="m255.38,39.04c-.1-.15-.24-.25-.39-.3-.2-.1-.39-.15-.58-.1-.19.05-.39.15-.53.3,0-.15-.05-.3-.14-.44-.1-.15-.19-.25-.39-.3-.14-.1-.24-.1-.39-.1s-.29.05-.39.1c-.15.05-.24.1-.29.2-.1.1-.15.3-.29.49-.19.4-.39.74-.58,1.14l3.16,1.88c.24-.35.44-.69.63-1.09.19-.4.34-.69.34-.79.1-.2.1-.4.05-.54,0-.15-.1-.3-.19-.44m-1.99.3s-.1.2-.19.44l-.19.4-.78-.44.19-.3c.15-.3.24-.44.24-.49.1-.1.15-.15.24-.15.1-.05.19-.05.29.05.1.05.14.1.19.2.05.1.05.2,0,.3m1.51.59s-.1.2-.19.44l-.34.59-.83-.49.24-.49c.15-.3.24-.44.34-.54.05-.05.15-.1.24-.1s.19,0,.29.05c.1.05.19.15.24.25,0,.05.05.2,0,.3"/>
      <path class="cls-1" d="m252.76,37.16l3.45,1.43c.1-.2.15-.44.24-.69l-3.45-1.33c-.05.2-.14.4-.24.59"/>
      <path class="cls-1" d="m253.48,35.13c1.07.79,2.09,1.58,3.11,2.47.1-.25.15-.49.24-.74l-.68-.54c.14-.44.24-.94.39-1.38l.88-.1.19-.79c-1.36.2-2.63.35-3.94.44l-.19.64Zm2.38-.15l-.24.94c-.39-.3-.83-.59-1.22-.84.49-.05.97-.05,1.46-.1"/>
      <path class="cls-1" d="m225.68,6.13l.19.79c.73-.25,1.51-.4,2.24-.54l.34-.05c.83-.15,1.65-.25,2.48-.3h.49c.68,0,1.36,0,2.04.05.1,0,.14-.05.24-.1.1-.1.15-.15.15-.25l.15-1.78c-.44.25-.63.4-.68.44-.1.1-.1.35-.15.79h-1.75c-.19,0-.34,0-.53.05l-.05-1.33c-.39.3-.58.49-.63.54-.05.1-.05.4,0,.84-.63.05-1.26.1-1.9.2l-.34.1h-.15l-.29-1.78c-.24.3-.39.44-.58.49-.15.05-.39.1-.68.2-.29.15-.49.35-.58.69-.1.35-.1.64,0,.94m.73-.74c.1-.15.24-.25.34-.3h.24l.15.64c-.24.05-.53.15-.78.2l-.05-.15c-.05-.1,0-.25.1-.4"/>
      <path class="cls-1" d="m242.11,8.4l2.09-4.25-.63.05c-.24.05-.39.15-.44.35l-1.6,3.56c.19.05.39.2.58.3"/>
      <path class="cls-1" d="m234.92,7.41c.29.05.53-.05.68-.3.1-.15.19-.4.24-.79l.34.05.53.1c.83.2,1.6.4,2.38.64l.58.2c.29.1.58.25.83.35l1.75-4.4-.63.1c-.19.05-.34.15-.39.35l-1.07,2.92-.19-.05-.58-.25c-.24-.05-.49-.15-.73-.2-.1-.05-.2-.15-.29-.25-.05-.15-.05-.3-.05-.4.05-.1.19-.1.53,0,.1,0,.29.05.49.15.19.05.29.15.34.15l.39-1.14c-.29.15-.53.25-.83.15-.05,0-.15-.05-.29-.1-.19-.05-.29-.15-.44-.15-.19-.05-.44-.05-.58.05-.2.1-.29.25-.34.49-.05.2-.05.44.05.79-.24-.1-.49-.15-.73-.2l-.58-.1-.34-.05.15-.84-.49.15c-.15.05-.24.1-.34.15-.05.1-.1.25-.15.44l-.14,1.19-.88-.1c0,.2.1.44.24.59.15.2.34.3.53.3"/>
      <path class="cls-1" d="m213.48,14.82l.58.44c.24-.35.53-.69.78-1.04l.44.4c-.24.3-.49.64-.73.99.19.15.39.2.68.1.19-.05.39-.15.53-.35.24-.3.34-.59.2-.89-.1-.2-.29-.44-.63-.79l.19-.2.39-.44c.58-.59,1.17-1.19,1.85-1.73l.44-.35c.88-.74,1.85-1.43,2.87-1.98l.49-.3c.29-.15.53-.3.83-.44l-1.99-4.25-.39.54c-.1.2-.1.35,0,.54l1.41,2.77-.24.1-.44.3-.73-1.24c-.24.35-.39.54-.39.59-.05.15-.05.25.05.4.05.05.1.15.15.25.1.15.19.25.24.4l-.44.25-.63-.94c-.24.35-.39.54-.39.59-.05.1,0,.25.1.4.05.05.1.1.15.2.05.05.1.15.15.2l-.49.35-.44-.69-.34.49c-.05.1-.05.2-.05.25.05.1.1.2.24.4l-.24.15-.44.4-.58.49c-.1.1-.24.15-.39.1-.15,0-.24-.05-.34-.15-.05-.05,0-.25.29-.44.05-.1.19-.2.39-.35.15-.1.24-.2.29-.2l-.78-.94c.05.35-.05.59-.29.79,0,.05-.1.1-.24.2-.14.1-.24.2-.34.3-.15.15-.24.35-.24.54-.05.2.05.4.19.54.15.15.39.25.68.35l-.53.54-.44.44-.19.25-1.31-1.19c-.05.25-.14.59-.39,1.04-.15.4-.24.69-.19.89.05.3.29.64.68.94m.19-1.58l.53.44c-.1.2-.24.35-.39.49l-.05-.05c-.15-.1-.24-.25-.24-.4s.05-.35.15-.49"/>
      <path class="cls-1" d="m211.63,16.21s.05-.1.15-.15c.1-.05.15-.05.19,0l.39.25c-.39.59-.73,1.24-1.02,1.83l.73.4c.34-.69.73-1.43,1.17-2.08.15-.2.1-.35-.1-.49l-1.02-.64c-.19-.2-.39-.2-.58-.1-.14.1-.29.25-.49.54,0,.05-.05.1-.1.2-.05.1-.1.15-.1.2-.29.49-.58.79-.88.79l.92.54c.19-.44.49-.89.73-1.28"/>
      <path class="cls-1" d="m208.18,22.63c0,.3.1.59.34.84.24.25.49.4.78.44l.78.2c.19-.79.39-1.53.63-2.27l.1-.3c.24-.69.49-1.38.78-2.03.05-.1.05-.15,0-.3-.05-.1-.1-.15-.14-.2l-1.6-.74c.05.44.15.74.19.79.05.1.29.2.68.4-.24.59-.49,1.19-.68,1.78l-.1.35-.05.15-1.7-.54c.15.3.19.54.15.74-.05.15-.1.4-.15.69m.78-.15c0-.1.05-.2.1-.25l.63.2c-.1.25-.15.54-.24.79l-.1-.05c-.15,0-.24-.1-.34-.25-.1-.2-.1-.35-.05-.44"/>
      <path class="cls-1" d="m223.35,7.81c.19-.1.44-.15.63-.25l-1.65-4.4-.44.49c-.1.2-.1.4-.05.59l1.51,3.56Z"/>
      <path class="cls-1" d="m257.81,22.53l-3.74.94.15.69,4.57-.99-.49-.49c-.15-.15-.34-.2-.49-.15"/>
      <path class="cls-1" d="m245.71,10.62l.34.25c1.17.94,2.24,1.98,3.16,3.11l.19.15c.34.49.73.94,1.07,1.43l.15.25c.19.25.39.54.53.79-.1.2-.19.4-.19.59s.05.4.15.54c.1.2.24.3.39.4.19.1.39.15.63.1l.1.3c.1.15.19.35.29.54.29.59.53,1.24.78,1.83-.29.1-.49.3-.58.49-.14.25-.19.49-.1.74.05.25.24.44.49.59.24.15.53.15.78.1l4.52-1.28-.49-.44c-.19-.15-.34-.15-.53-.1l-3.69,1.14s-.15.05-.24,0c-.1-.05-.14-.1-.19-.2-.05-.2.1-.4.49-.54.1-.05.19-.05.29-.1.1,0,.14-.05.14-.05l1.7-.59c-.19-.15-.44-.4-.68-.79-.24-.4-.49-.59-.63-.69-.29-.2-.63-.15-1.07.05l-.24-.49-.29-.59-.15-.3c.1-.1.19-.3.24-.59,0-.35.1-.59.19-.74-.19,0-.44-.05-.68-.15-.34-.1-.58-.15-.73-.2-.15-.25-.34-.54-.53-.79l-.19-.3-.1-.15,3.11-2.27-.58-.3c-.19-.05-.39,0-.53.1l-2.38,1.93c-.19-.3-.39-.49-.63-.74l-.14-.2-.15-.2c.44-.4.68-.69.73-.84.1-.2,0-.35-.15-.54-.05-.05-.15-.15-.24-.3-.15-.1-.24-.2-.34-.3-.24-.25-.44-.49-.63-.74-.05-.05-.05-.1,0-.2v-.05s.44,0,1.12.2c.34.1.73.25,1.12.4l.19-.1c-1.26-.54-2.58-.99-3.84-1.33-.15,0-.24.05-.39.25l-.1.15c.78.64,1.56,1.33,2.29,2.12.19.2.19.44-.05.64-.05.05-.1.1-.15.15-.87-.94-1.75-1.73-2.72-2.52l-.34-.25-.05-.05,1.07-1.43c-.34,0-.58,0-.73-.1-.15-.1-.34-.25-.58-.4-.29-.1-.58-.1-.92.05-.29.15-.49.35-.68.59l-.44.74c.63.35,1.26.79,1.85,1.24m8.26,9.14c.1,0,.24,0,.34.1.15.1.19.2.24.3.05.05.05.15.05.2l-.58.25-.29-.74c.1-.05.19-.1.24-.1m-2.14-2.87c.1-.05.19-.05.24-.05.1.05.19.1.24.2.05.05.05.15,0,.25,0,.1-.05.15-.15.2-.1.05-.19.1-.29.05-.05,0-.15-.05-.19-.15-.05-.1-.05-.2-.05-.25.05-.1.1-.2.2-.25m-6.85-8c.05-.1.19-.15.39-.2.15,0,.29,0,.44.1.05.05.14.1.14.15l-.34.59c-.24-.2-.49-.35-.73-.49l.1-.15Z"/>
      <path class="cls-1" d="m206.96,22.83c.05-.25-.1-.49-.29-.54-.19-.05-.39.1-.49.35-.05.25.1.49.29.54.19.05.44-.1.49-.35"/>
      <path class="cls-1" d="m206.82,21.84c.19.05.39-.1.49-.35.05-.2-.05-.44-.24-.49-.19-.1-.44.05-.49.3-.1.25.05.49.24.54"/>
      <path class="cls-1" d="m225.44,3.51c.19-.05.34-.3.29-.49-.05-.2-.24-.3-.49-.25-.24.05-.39.3-.34.49.05.2.29.3.53.25"/>
      <path class="cls-1" d="m226.7,3.21c.24-.05.39-.3.39-.49-.05-.2-.29-.35-.53-.3-.24.05-.39.3-.34.49.05.2.29.3.49.3"/>
      <path class="cls-1" d="m245.8,6.57c.19.1.44.1.58-.1.1-.2.05-.44-.19-.54-.19-.15-.44-.1-.58.1-.1.15,0,.4.19.54"/>
      <path class="cls-1" d="m246.92,7.31c.19.15.44.1.58-.05.1-.2.05-.44-.15-.59-.19-.15-.49-.1-.58.1-.1.15-.05.4.15.54"/>
      <path class="cls-1" d="m229.13,7.51c.19,0,.34-.2.29-.44,0-.2-.19-.35-.39-.3-.19,0-.34.2-.29.44,0,.2.19.35.39.3"/>
      <path class="cls-1" d="m230.25,7.41c.19-.05.34-.2.29-.44,0-.2-.19-.35-.39-.35s-.34.2-.29.44c0,.2.19.35.39.35"/>
      <path class="cls-1" d="m233.02,6.92c0-.2-.15-.4-.34-.4-.24,0-.39.2-.39.4s.15.4.34.4.39-.15.39-.4"/>
      <path class="cls-1" d="m211.53,20.95c-.05.2.05.4.24.49.19.05.39-.05.49-.2.05-.2-.05-.4-.24-.49-.19-.1-.39,0-.49.2"/>
      <path class="cls-1" d="m212.17,20.36c.19.1.44,0,.49-.15.1-.2,0-.4-.19-.49-.19-.1-.39-.05-.49.15-.1.2,0,.44.19.49"/>
      <path class="cls-1" d="m221.6,16.85l.53-.44.15.2-.49.44c.05.1.19.15.29.15.15,0,.24-.05.34-.15.1-.1.19-.2.24-.3,0-.15,0-.25-.1-.35l-.92-1.24c-.05.1-.15.25-.34.44-.1.2-.19.3-.19.44s.1.3.24.49l.24.3Zm-.05-.89s.05-.1.1-.15l.19.25-.24.25v-.05h-.05s0-.1-.05-.15c0-.05,0-.15.05-.15"/>
      <path class="cls-1" d="m226.51,14.28c-.15.05-.19.2-.15.3.05.1.19.15.29.1.1-.05.15-.15.1-.25-.05-.15-.14-.2-.24-.15"/>
      <path class="cls-1" d="m225.44,14.77c-.1.05-.15.2-.1.3.05.1.15.15.24.1.1-.05.15-.2.1-.3-.05-.1-.14-.15-.24-.1"/>
      <path class="cls-1" d="m224.85,15.07c-.1.05-.15.2-.1.3.05.1.2.15.29.05.1-.05.1-.15.05-.25-.05-.1-.14-.15-.24-.1"/>
      <path class="cls-1" d="m219.26,19.96c-.1.1-.1.25,0,.3.1.1.24.05.29-.05.05-.05.05-.2-.05-.25-.05-.1-.19-.1-.24,0"/>
      <path class="cls-1" d="m221.16,17.84s-.1.2,0,.3c.1.05.19.05.29,0,.1-.1.1-.25,0-.3-.05-.1-.19-.1-.29,0"/>
      <path class="cls-1" d="m220.72,18.28c-.1.1-.1.2,0,.3.05.1.19.05.24,0,.1-.1.1-.2,0-.3-.05-.1-.19-.1-.24,0"/>
      <path class="cls-1" d="m228.06,13.74c-.1.05-.19.15-.15.25.05.1.15.2.24.15.1-.05.19-.15.14-.25-.05-.1-.14-.15-.24-.15"/>
      <path class="cls-1" d="m217.27,20.85c.1.05.19.05.34.05-.1.15-.15.3-.1.44,0,.2.1.3.24.4.14.05.29.1.44.05.15-.05.29-.1.39-.25.15-.25.29-.44.44-.69,0,0,.05-.05,0-.1,0-.05,0-.1-.05-.15l-.19-.1c-.24.25-.44.59-.63.89,0,.05-.05.05-.1.05s-.05,0-.1-.05c-.05,0-.05-.05-.1-.1v-.1c.24-.4.53-.74.78-1.14.2-.3.44-.54.68-.84l.19-.25c.19-.25.44-.49.63-.74l.24-.2.73-.74s.05-.1.05-.15,0-.1-.05-.15l-.58-.64c-.05.25-.1.4-.1.44.05.05.1.15.24.3l-.58.64-.19.2-.34-.35-.1.35s.05.15.19.25c-.15.2-.34.35-.49.54l-.14.2-.34-.3-.1.35s.1.15.19.25c-.15.2-.29.4-.49.59,0,.05,0,.1-.05.15-.1.1-.14.2-.14.25-.24.3-.39.4-.58.25,0,0,0-.1.1-.2,0-.05.1-.15.15-.25.1-.1.14-.15.14-.15l-.49-.35s.05.15.05.2-.05.15-.1.2l-.1.1s-.05.1-.05.1c-.1.15-.15.3-.15.4,0,.15.05.25.19.35"/>
      <path class="cls-1" d="m218.63,17.74c.1-.1.1-.25,0-.3-.1-.1-.19-.1-.29,0-.1.1-.1.25,0,.35.1.05.19.05.29-.05"/>
      <path class="cls-1" d="m233.26,13.39c0,.1.05.2.19.25.1,0,.19-.1.19-.2s-.05-.2-.19-.2c-.1-.05-.19.05-.19.15"/>
      <path class="cls-1" d="m232.14,11.22c.1,0,.24-.05.24-.2,0-.1-.14-.2-.24-.2-.15,0-.24.1-.24.2,0,.15.1.25.24.2"/>
      <path class="cls-1" d="m240.41,15.12l1.22-2.03h-.34c-.1,0-.19.05-.24.15l-.97,1.68.34.2Z"/>
      <path class="cls-1" d="m243.57,18.53s-.1.2,0,.3c.1.05.19.1.29,0,.1-.1.1-.2,0-.3-.1-.1-.19-.1-.29,0"/>
      <path class="cls-1" d="m243.13,18.04c-.1.1-.1.25,0,.3.1.1.19.1.29,0,.05-.05.05-.2,0-.3-.1-.05-.24-.05-.29,0"/>
      <path class="cls-1" d="m241.33,15.71l.97.74.15.15c.29.25.58.49.88.79l.1.05c.34.35.68.69.97,1.04l.19.2c.34.44.73.84,1.02,1.28l.05.05c.19.25.39.49.53.79l1.94-1.33-.29-.15c-.1-.05-.19,0-.29.05l-1.21.89-.29-.4s.05-.05.15-.1c.1-.1.19-.25.19-.4,0-.2-.05-.4-.15-.49l.44-.35c-.24-.1-.34-.1-.39-.1-.1,0-.19.05-.29.15-.19-.1-.34-.15-.53-.15-.15,0-.29,0-.44.1l-.14-.1-.15-.2.44-.44c-.24-.1-.34-.1-.39-.1s-.15.1-.34.25c-.24-.3-.49-.54-.73-.79l-.1-.05v-.05l.29-.35-.34-.05s-.14.05-.24.15l-.63-.54-.15-.1-.05-.05.53-.74c-.14.05-.29,0-.39-.05-.05-.05-.15-.1-.29-.2-.15-.1-.29-.1-.44-.05-.15.1-.29.2-.39.3l-.19.35Zm4.62,3.71s-.05.05-.05.05l-.1.05-.15-.2.24-.2c.1.1.1.2.05.3m-.63-.64h.05c.1-.05.19-.05.29.05l-.24.2-.14-.2.05-.05Zm-3.45-3.26s.1-.05.19-.05.19,0,.24.05c.05,0,.1.05.1.1l-.19.25-.34-.25v-.1Z"/>
      <path class="cls-1" d="m243.18,15.02c.1-.1.05-.2-.05-.3-.1-.1-.24-.05-.29,0-.1.1-.05.25.05.35.1.05.24.05.29-.05"/>
      <path class="cls-1" d="m242.6,14.58c.05-.1.05-.2-.05-.3-.1-.1-.24-.05-.34.05-.05.05,0,.2.1.3.1.05.24.05.29-.05"/>
      <path class="cls-1" d="m246.53,21.3l.19.3,1.94-1.24-.24-.15c-.14-.05-.24-.05-.29,0l-1.6,1.09Z"/>
      <path class="cls-1" d="m223.88,15.17c.05.1.05.2-.05.3,0,.1-.1.15-.19.25-.1.05-.19.05-.29.05-.05,0-.15-.05-.19-.15l-.19-.2c-.1.1-.1.3.05.44.05.15.19.2.39.25.19,0,.34,0,.44-.1.19-.1.29-.3.39-.49.05-.2.05-.35-.05-.54l.14-.1.24-.1c.34-.25.73-.4,1.07-.59l.24-.1,1.02-.4.24-.1c.39-.15.73-.25,1.12-.35,0,0,.05-.05.1-.05v.05c.34-.1.68-.2,1.02-.25l.19-.05c.19-.05.39-.05.63-.1l-.34-2.32-.24.2s-.1.15-.1.25l.24,1.53-.29.05-.15.05h-.1l-.34-1.93-.29.2c-.05.1-.1.2-.05.3l.29,1.48-.49.15c-.15-.05-.29-.15-.44-.25l-.34-.3c-.1-.1-.19-.1-.29-.1-.1.05-.19.1-.24.25l.1.35c.05-.1.1-.15.15-.15s.14,0,.19.1c.15.1.24.2.39.2-.29.1-.58.2-.83.3l-.24.05-.15-.4-.24.25s-.05.15.05.3l-.73.3-.24.1-.24-.59c-.14.25-.24.35-.24.4s.05.2.15.4c-.29.1-.53.25-.83.4l-.24.15-.1.1-.97-1.68-.15.3c-.05.1-.05.2,0,.3l1.02,1.63Z"/>
      <path class="cls-1" d="m231.42,11.27c.1,0,.19-.1.19-.2,0-.15-.1-.2-.24-.2-.1,0-.19.1-.19.2s.1.2.24.2"/>
      <path class="cls-1" d="m244.25,16.36l.15-.15s-.05-.05-.1-.05c0-.05-.05-.05-.05-.05-.1-.1-.1-.2-.05-.25h.05l.24.2.1-.1-.29-.3s-.1-.05-.15-.05-.1,0-.1.05c-.05.05-.1.15-.05.2l-.1-.1-.15.15c.19.1.34.25.49.44"/>
      <path class="cls-1" d="m232.63,13.39c0,.1.05.2.19.2.1,0,.19-.1.19-.2s-.1-.2-.19-.2-.19.05-.19.2"/>
      <path class="cls-1" d="m231.37,11.91c-.1.15-.15.3-.1.44v.4c.44,0,.83-.05,1.22,0h.19c.44,0,.88.05,1.31.1h.29c.78.15,1.51.3,2.24.49l.15.05.87.3.15.1,1.17.44c-.1.15-.1.3-.05.4.05.15.1.25.24.3.1.1.24.1.39.05s.29-.1.34-.25l1.12-2.03h-.34c-.1,0-.19.05-.19.15l-.92,1.73s-.05.05-.1.05c-.05.05-.1.05-.14.05-.1-.1-.1-.2,0-.4,0-.05,0-.1.05-.15l.05-.05.39-.84c-.15.05-.29,0-.53-.05-.24-.05-.39-.05-.49-.05-.15.05-.29.2-.39.4l-.44-.15-.15-.1h-.1l.68-1.83-.34.05c-.1.05-.15.1-.19.2l-.49,1.43-.49-.15-.1-.05h-.15c.1-.3.1-.49.1-.59-.05-.1-.1-.15-.24-.15,0-.05-.1-.05-.19-.05-.05-.05-.15-.05-.19-.05l-.49-.15s-.05-.05-.1-.1l.05-.05s.15-.1.53-.2l.58-.1.05-.1c-.68.1-1.41.25-2.04.44-.05,0-.1.05-.15.2v.05c.53.1,1.12.2,1.6.35.15.05.19.15.19.3-.05,0-.05.05-.05.1-.58-.2-1.22-.3-1.85-.4h-.24l.05-.64c-.19.1-.34.15-.34.2-.05.05-.1.15-.1.4-.34-.05-.68-.05-1.02-.1h-.24v-.89c-.1.1-.24.15-.34.2h-.34c-.15.05-.29.15-.39.3m7.29,1.68s.1-.1.19-.1c.05,0,.1,0,.19.05l.05.05-.1.3c-.14-.05-.24-.15-.39-.2,0-.05.05-.1.05-.1m-7.05-1.33s.05-.15.1-.2c.1-.05.14-.1.24-.1h.1v.35h-.44v-.05Z"/>
      <path class="cls-1" d="m217.46,37.36c.1.1.19.15.29.15s.19-.05.29-.15c.1-.05.14-.1.19-.2.05-.05.05-.15.05-.2,0-.1-.05-.15-.1-.3l-.34-.44-1.41.89.15.25.58-.4.05.05s.05.1.05.15v.1s-.05.1-.14.25l-.15.4.15.3.19-.35c.05-.15.1-.25.14-.3v-.2Zm.29-.79l.15.2c.05.1.1.15.1.15v.15s-.05.05-.1.1c-.05.05-.1.05-.15.05,0,0-.05,0-.1-.05,0,0-.05-.05-.14-.2l-.1-.15.34-.25Z"/>
      <path class="cls-1" d="m217.85,38.89c.15,0,.29-.05.44-.15.15-.1.24-.25.29-.4s0-.3-.1-.4c-.05-.1-.1-.15-.19-.2h-.29c-.1.05-.19.05-.29.15-.1.05-.19.15-.24.25-.05.1-.1.2-.1.3.05.1.05.2.15.25.05.15.19.2.34.2m0-.79c.1-.05.19-.1.24-.1.1,0,.15.05.19.1.05.05.05.1.05.2-.05.05-.1.15-.19.2-.1.1-.19.15-.24.15-.1,0-.15-.05-.19-.1-.05-.05-.05-.15-.05-.2.05-.1.1-.15.19-.25"/>
      <path class="cls-1" d="m219.31,38.99l-.83.4.53-.74-.19-.25-.68,1.09c-.1.05-.15.05-.19.05s-.1,0-.15-.05l-.05-.1-.19.15.1.15s.05.1.1.1c.05.05.1.05.1.05h.15s.1-.05.15-.05l.19-.1,1.12-.49-.15-.2Z"/>
      <path class="cls-1" d="m219.8,40.22c.1-.1.14-.2.19-.25v-.15c0-.1-.05-.15-.15-.25-.1-.1-.15-.15-.24-.15s-.19,0-.29.05l.1.25q.1-.05.14-.05s.1,0,.1.05c.05.05.1.1.1.15s-.05.05-.1.1v.05s-.15-.1-.24-.15c-.1-.05-.15-.1-.2-.1h-.19s-.1.05-.14.1c-.1.05-.15.15-.15.25,0,.05.05.15.1.25.05.05.1.05.15.1h.19v.05s-.05.05-.05.1l.15.2c.05-.1.1-.15.1-.15.05-.05.1-.1.15-.2l.29-.25Zm-.49.1h-.1c-.1,0-.14,0-.14-.05-.05-.05-.05-.1-.05-.1,0-.05.05-.1.05-.15.05,0,.1-.05.14,0,0,0,.05,0,.15.05.05.05.1.05.15.1l-.05.05q-.1.05-.15.1"/>
      <polygon class="cls-1" points="220.82 39.93 220.62 39.78 219.41 40.96 219.6 41.16 220.82 39.93"/>
      <path class="cls-1" d="m220.43,41.66c0,.2.1.35.24.49.1.1.24.15.34.15.15,0,.29-.1.44-.2l-.15-.25c-.1.1-.19.1-.24.15-.1,0-.14-.05-.24-.1-.05-.05-.1-.15-.1-.25.05-.1.1-.25.24-.4.15-.15.24-.25.34-.3.15,0,.19,0,.29.1.05,0,.1.1.1.15,0,.1,0,.15-.05.25l.24.1c.05-.15.1-.25.1-.35,0-.15-.1-.3-.2-.4-.14-.1-.29-.15-.49-.1-.19.05-.39.15-.58.35-.15.2-.24.4-.29.59"/>
      <path class="cls-1" d="m221.65,42.15c-.1.1-.15.2-.15.3-.05.1-.05.2,0,.3.05.1.1.2.15.25.14.1.29.1.44.05.15,0,.29-.1.39-.25.1-.2.15-.35.15-.49s-.1-.25-.19-.35c-.05-.05-.15-.1-.24-.1s-.19,0-.29.05c-.1.1-.19.15-.24.25m.63,0s.1.1.1.2c0,.05-.05.15-.15.25-.05.1-.15.2-.19.2-.1,0-.15,0-.19-.05-.05,0-.1-.1-.1-.15,0-.1.05-.2.1-.3.1-.1.14-.15.24-.15.05-.05.15-.05.19,0"/>
      <path class="cls-1" d="m222.52,43.53l.29-.49c.1-.1.14-.15.19-.2,0-.05.05-.05.1-.05h.1s.05.05.05.1c.05,0,.05.05,0,.05,0,.05-.05.1-.1.2l-.34.59.19.15.34-.49c.05-.1.1-.2.14-.2t.1-.1s.1,0,.1.05c.05,0,.1.05.1.1s-.05.1-.1.25l-.39.59.24.15.39-.69c.05-.1.1-.2.1-.25.05-.05.05-.15,0-.2,0-.05-.05-.1-.15-.15-.05,0-.1-.05-.14-.05s-.1.05-.19.05v-.15s-.05-.1-.1-.15c-.1-.05-.24-.05-.39,0l.1-.15-.19-.15-.68,1.04.24.15Z"/>
      <path class="cls-1" d="m224.03,44.47l.24-.54c.1-.1.15-.15.15-.2.05-.05.1-.05.15-.1,0,0,.05,0,.1.05t.05.05v.1s-.05.1-.1.2l-.29.59.24.15.24-.54c.05-.1.1-.2.15-.25.05,0,.1-.05.1-.05h.14s.05.05.05.1,0,.15-.05.25l-.29.64.24.1.29-.69c.05-.1.1-.2.1-.25,0-.1,0-.15-.05-.2,0-.05-.05-.1-.15-.15h-.15s-.14,0-.19.05c0-.05,0-.15-.05-.2,0-.05-.05-.05-.1-.1-.1-.05-.24-.05-.34.05l.05-.15-.19-.15-.58,1.09.24.15Z"/>
      <polygon class="cls-1" points="225.63 45.26 226.12 44.08 225.87 44.03 225.39 45.12 225.63 45.26"/>
      <polygon class="cls-1" points="226.26 43.68 226.02 43.58 225.92 43.83 226.16 43.93 226.26 43.68"/>
      <path class="cls-1" d="m226.17,44.82s.15.15.34.3c0,.05.05.05.05.05v.1l-.05.05s-.1,0-.19,0c-.05-.05-.1-.05-.1-.1-.05-.05-.05-.1,0-.15l-.29-.05c0,.1,0,.2.05.3.05.1.15.15.29.2.14.1.24.05.34,0,.1-.05.19-.1.24-.2,0-.1,0-.2-.05-.3,0-.05-.1-.15-.19-.2-.14-.1-.19-.15-.19-.2v-.05s0-.05.05-.05c0-.05.05,0,.14,0t.1.1v.1l.24.05c.05-.1,0-.2-.05-.3,0-.05-.1-.1-.24-.15-.1-.05-.24-.05-.29-.05-.1.05-.15.15-.19.25-.05.1-.05.2,0,.3"/>
      <path class="cls-1" d="m227.53,45.46s.05.05.05.05v.1s0,.05-.05.05c-.05.05-.1,0-.15,0-.1,0-.1-.05-.15-.1,0-.05-.05-.1,0-.15l-.29-.05c0,.15,0,.25.05.3.1.1.19.2.29.25.14.05.29,0,.39-.05.1-.05.15-.15.19-.25,0-.1,0-.2-.05-.25,0-.1-.1-.15-.24-.25-.1-.05-.15-.1-.19-.15v-.05s.05-.05.05-.05c.05-.05.1-.05.15,0,.05,0,.1.05.1.05.05.05.05.1.05.15h.24c0-.1,0-.2-.05-.25-.05-.1-.15-.15-.29-.2-.1,0-.24,0-.29.05-.1.05-.15.1-.19.2-.05.1,0,.2.05.3.05.05.15.15.34.3"/>
      <polygon class="cls-1" points="228.55 44.92 228.3 44.87 228.01 46.06 228.25 46.1 228.55 44.92"/>
      <polygon class="cls-1" points="228.64 44.47 228.4 44.37 228.35 44.67 228.6 44.72 228.64 44.47"/>
      <path class="cls-1" d="m228.6,45.91c0,.1.05.2.15.25.05.1.14.15.24.15.15,0,.29,0,.39-.1.15-.1.19-.25.24-.44,0-.2,0-.35-.05-.49-.1-.15-.19-.2-.34-.25-.1,0-.19,0-.29.05-.05.05-.15.1-.19.2-.05.1-.1.2-.15.3,0,.15-.05.25,0,.35m.39-.54s.15-.1.19-.05c.05,0,.1.05.15.1.05.1.05.2,0,.3,0,.1-.05.2-.1.25-.05.05-.14.1-.19.1-.05-.05-.1-.05-.15-.15-.05-.05-.05-.15-.05-.3.05-.1.1-.2.15-.25"/>
      <path class="cls-1" d="m230.59,45.26s-.1-.05-.15-.05c-.1,0-.24.05-.34.15l.05-.15-.24-.05-.19,1.24.29.05.05-.59c.05-.1.05-.2.05-.25.05-.05.05-.1.1-.15h.15s.05,0,.1.05v.1s0,.1,0,.25l-.05.59.24.05.1-.74v-.25s0-.1-.05-.15c0-.05-.05-.05-.1-.1"/>
      <polygon class="cls-1" points="231.51 46.55 231.8 46.55 231.8 45.86 232.39 45.86 232.39 45.56 231.8 45.56 231.8 45.17 232.44 45.17 232.44 44.87 231.56 44.87 231.51 46.55"/>
      <path class="cls-1" d="m233.12,45.26c-.1,0-.19.05-.24.1-.1.05-.14.15-.19.25-.05.1-.05.2-.05.3,0,.15.05.3.05.4.05.1.15.15.24.2.05.05.14.1.24.05.15,0,.29-.05.39-.2.1-.15.1-.3.1-.49,0-.15-.1-.3-.19-.4-.1-.15-.2-.2-.34-.2m.24.94s-.15.1-.19.1-.15,0-.19-.1c-.05-.05-.05-.15-.1-.25,0-.15.05-.25.1-.3.05-.1.1-.1.15-.1s.14,0,.19.1c.05.05.05.15.1.25,0,.15-.05.25-.05.3"/>
      <path class="cls-1" d="m234.14,45.21s-.05.1-.1.2v-.2l-.24.05.1,1.19h.29l-.05-.4c0-.2-.05-.35-.05-.4.05-.05.05-.1.05-.15t.1-.05s.1,0,.14.05l.05-.3c-.1-.05-.15-.05-.19-.05s-.1.05-.1.05"/>
      <path class="cls-1" d="m235.64,45.86s-.05.1-.1.1c-.1,0-.14,0-.19-.05,0-.05-.05-.1-.05-.2l-.24.05c0,.2.1.35.15.4.1.1.24.1.39.1.1-.05.19-.1.24-.15.05-.1.1-.2.1-.3,0-.05,0-.15-.05-.3l-.24-1.04-.24.05.19,1.09c.05.1.05.2.05.25"/>
      <path class="cls-1" d="m236.32,45.86s.1.1.15.1c.05.05.1.05.19,0,.05,0,.1-.05.15-.1.05-.05.1-.1.1-.2l.1.2.19-.1-.34-1.19-.24.1.14.49c.05.2.1.3.1.35s-.05.1-.05.15c-.05,0-.1.05-.1.05h-.15s-.05-.05-.05-.1c-.05,0-.05-.1-.1-.3l-.15-.54-.24.05.19.79c0,.1.05.2.1.25"/>
      <path class="cls-1" d="m237.74,45.61l-.1-.2c.1.1.15.1.19.15.1,0,.15,0,.19-.05.15-.05.19-.1.24-.25.05-.15,0-.3-.05-.49-.1-.2-.19-.35-.29-.4-.1-.1-.24-.1-.34-.05-.1.05-.15.1-.19.25l-.19-.59-.24.1.53,1.63.24-.1Zm-.1-1.04s.1,0,.15.05.15.1.19.25c.05.15.05.25,0,.3,0,.1-.05.15-.1.15-.05.05-.14,0-.19-.05-.05-.05-.1-.15-.15-.25-.05-.15-.05-.25-.05-.3,0-.1.05-.1.15-.15"/>
      <path class="cls-1" d="m238.46,44.37s0-.1.05-.1c0-.05.05-.1.05-.1.1,0,.15-.05.15,0,.05,0,.1.05.1.1h.05s-.1.15-.24.2c-.05.05-.1.1-.15.15-.05.05-.05.1-.05.15s0,.15.05.2c0,.1.1.15.15.2.1.05.19.05.29,0,.05,0,.1-.05.15-.1,0-.05.05-.1.05-.15h.05s.05.05.05.1l.24-.15s-.05-.05-.1-.1-.05-.15-.1-.25l-.19-.35c-.05-.1-.1-.2-.15-.25-.05,0-.1-.05-.15-.05s-.15,0-.24.05c-.15.05-.19.15-.24.2-.05.1-.05.2,0,.3l.19-.05Zm.49.2s.05.1.05.15v.1s-.1.1-.1.1c-.05.05-.1.05-.15,0-.05,0-.05-.05-.1-.1v-.1s.05-.05.15-.1c.05-.05.1-.1.1-.15l.05.1Z"/>
      <polygon class="cls-1" points="239.63 44.77 239.87 44.67 239.34 43.58 239.1 43.68 239.63 44.77"/>
      <polygon class="cls-1" points="239.24 43.44 239.14 43.14 238.9 43.24 239.05 43.54 239.24 43.44"/>
      <polygon class="cls-1" points="240.36 44.42 239.58 42.89 239.34 43.04 240.12 44.52 240.36 44.42"/>
      <path class="cls-1" d="m240.85,43.14s-.05-.1-.05-.1c0-.05.05-.1.1-.1.05-.05.1-.05.15-.05l.1.1s-.1.15-.14.25c-.1.05-.15.1-.15.15-.05.05-.05.1-.05.2,0,.05.05.1.05.15.05.1.15.15.24.2.1,0,.15,0,.24-.05.05-.05.1-.1.14-.15,0-.05.05-.1.05-.2v.05s.1.05.1.05l.24-.15q-.1-.05-.14-.1s-.1-.1-.15-.2l-.19-.3c-.1-.15-.15-.2-.19-.25-.05,0-.1-.05-.19-.05-.05,0-.15.05-.24.1-.1.1-.14.15-.19.25,0,.1,0,.2.05.3l.24-.1Zm.39.05l.05.05s.1.1.1.15v.1q-.05.1-.1.15s-.05.05-.1,0c-.05,0-.1-.05-.1-.05-.05-.05-.05-.1-.05-.15.05,0,.05-.05.1-.1.05-.1.1-.15.1-.15"/>
      <path class="cls-1" d="m242.26,43.24l-.34-.49c-.05-.1-.1-.15-.15-.2v-.15s.05-.1.05-.15h.1s.1,0,.1.05c.05,0,.1.05.19.2l.34.49.24-.2-.49-.59s-.1-.1-.15-.15c0-.05-.05-.05-.1-.1h-.15s-.1.05-.15.05c-.1.1-.14.2-.14.4l-.1-.15-.19.1.68,1.04.24-.15Z"/>
      <path class="cls-1" d="m242.4,41.76c0,.15.05.3.19.44.1.15.24.25.39.3.1.05.24,0,.34-.05,0-.05.05-.1.1-.15v-.25l.1.15.19-.15-1.07-1.28-.19.15.39.44c-.15,0-.24,0-.34.05-.1.1-.15.2-.1.35m.29-.2s.15-.05.19,0c.05,0,.15.1.24.2.1.1.15.2.15.25,0,.1-.05.15-.1.2-.05.05-.1.05-.19,0-.05,0-.15-.1-.19-.2-.1-.1-.15-.2-.15-.25,0-.1,0-.15.05-.2"/>
      <path class="cls-1" d="m244.59,41.21l.19-.2-.49-.49c-.14-.35-.24-.69-.39-1.04l-.19.25c.1.2.19.44.24.69l-.68-.3-.24.25,1.02.35.53.49Z"/>
      <path class="cls-1" d="m244.69,39.88s-.05-.05-.05-.1,0-.1.05-.1c.05-.05.1-.1.14-.1,0,0,.05.05.1.05l.05.05s-.05.15-.15.25c-.05.05-.05.15-.1.2,0,.05,0,.1.05.15,0,.1.05.15.1.2.05.05.14.1.24.1s.15-.05.24-.1c.05-.05.05-.1.1-.15v-.2h.05l.05.05.19-.2s-.1-.05-.14-.1c-.05,0-.1-.05-.19-.15l-.29-.25c-.1-.1-.15-.15-.19-.15h-.19s-.15.05-.19.15c-.1.1-.15.2-.15.25,0,.1,0,.2.1.3l.19-.15Zm.44-.05l.05.05s.1.05.1.1t.05.1c0,.1-.05.15-.05.15-.05.05-.1.05-.15.05,0,0-.05,0-.1-.05t-.05-.1s.05-.1.05-.15c.05-.1.1-.15.1-.15"/>
      <path class="cls-1" d="m246.05,39.58l-.39-.35c-.1-.1-.19-.15-.19-.2-.05-.05-.05-.1-.05-.15v-.1s.05-.05.1-.05h.1s.1.05.24.15l.44.4.19-.2-.58-.49c-.1-.05-.15-.1-.19-.1-.05-.05-.1-.05-.15-.05h-.14s-.05.05-.1.1c-.1.1-.1.25-.05.4l-.15-.1-.15.15.92.79.15-.2Z"/>
      <path class="cls-1" d="m246.78,38.64l-.15-.1c.1,0,.19,0,.24-.05.05,0,.1-.05.15-.1.05-.1.1-.2.05-.35-.05-.15-.15-.25-.34-.4-.14-.1-.29-.15-.44-.15s-.24.05-.29.15c-.1.1-.1.2-.05.35l-.49-.4-.14.2,1.31,1.04.15-.2Zm-.49-.4c-.1-.05-.15-.15-.19-.2,0-.1,0-.15.05-.2s.1-.1.15-.05c.1,0,.19,0,.29.1.1.1.19.15.19.25.05.05.05.1,0,.15-.05.1-.15.1-.24.1-.05,0-.14-.05-.24-.15"/>
      <path class="cls-1" d="m247.21,37.7c.1.05.15.05.19,0,.05,0,.15-.05.15-.15.05-.05.05-.1.05-.15,0-.1,0-.15-.05-.25l.19.1.1-.2-1.02-.64-.15.2.44.3c.15.1.24.15.29.2,0,.05.05.05.05.1s0,.1-.05.15c0,.05-.05.05-.05.05-.05.05-.1.05-.15,0,0,0-.1-.05-.24-.15l-.49-.3-.15.2.63.44c.1.05.19.1.24.1"/>
      <path class="cls-1" d="m230.21,35.56s-.01.07-.01.07c0-.03,0-.05.01-.07"/>
      <path class="cls-1" d="m233.02,34.05s0-.01,0-.02c0,0,0,.01,0,.02"/>
      <path class="cls-1" d="m229.96,34.99s0-.01.01-.02c-.01.01-.02.02-.01.02"/>
      <path class="cls-1" d="m231.31,34.03s0,.01,0,.02c0,0,0-.01,0-.02"/>
      <path class="cls-1" d="m230.93,34.89s-.58,0-.71.67c.04-.12.19-.35.76-.27,0,.05-.34.15-.24.89,0,.05.05-.69.53-.49.05,0-.24.25-.05.64,0,0,.1-.44.49-.49l-.05.69.15.15.05,1.58-.1.15-.05.54-.44.4s.68.54.88.54c.24,0,.87-.54.87-.54l-.39-.4-.1-.54-.1-.15.05-1.58.14-.15s0-.69-.05-.69c.44.05.49.49.49.49.24-.4-.1-.64-.05-.64.53-.2.58.54.58.49.05-.74-.29-.84-.29-.89.83-.1.78.35.83.35-.1-.74-.83-.74-.73-.74.34-.35.97.1.97.1-.29-.54-1.07-.59-1.07-.59.19-.35.83-.25.83-.3-.45-.41-1.05-.15-1.11-.07,0,0,0,.01,0,.02,0,0,0-.01,0-.02.06-.34.58-.62.58-.62-.78-.05-1.02.4-1.02.4,0-.4.49-.59.53-.64-.78-.05-.97.74-.97.74,0,0-.15-.79-.92-.74,0,.05.49.25.49.64,0,0-.24-.44-1.02-.4,0,0,.51.28.62.62,0,0,.01.02,0,.02,0,0,0-.01,0-.02-.08-.09-.71-.33-1.11.07,0,.05.63-.05.83.3,0,0-.76.05-1.06.58.09-.08.62-.39.96-.08"/>
      <path class="cls-1" d="m230.78,41.51s-.1-.3-.1-.3h-.34l-.05.4.34.1s-.15.15-.29.35c-.15.15-.29.3-.53.1-.19-.15-.29.1-.29.2-.1.15,0,.2.05.3,0,.2.15.2.24.2.34.2,1.12-.84,1.12-.84l.15.3h.29l.05-.35s.05,0-.29-.15c.34-.35.68-.69,1.02-.94.34.25.68.59,1.02.94l-.29.15.05.35h.34l.14-.3s.73,1.04,1.07.84c.1,0,.24,0,.24-.2.05-.1.14-.15.05-.3,0-.1-.05-.35-.29-.2-.19.2-.34.05-.49-.1-.19-.2-.29-.35-.29-.35l.34-.1-.05-.4h-.39s-.1.25-.1.3c-.39-.35-.73-.64-1.02-.89,1.56-1.24,2.87-1.68,2.87-1.68,0,0-.15-.1-.49-.1-.39.05-.92.05-2.72,1.48-1.8-1.43-2.28-1.43-2.72-1.48-.34,0-.49.1-.49.1,0,0,1.31.44,2.92,1.68-.34.25-.68.54-1.07.89"/>
      <rect class="cls-1" x="12.1" y="24.77" width="1.33" height="1.41"/>
      <rect class="cls-1" x="19.26" y="13.91" width="1.35" height="1.41"/>
      <rect class="cls-1" x="23.75" y="24.78" width="1.33" height="1.41"/>
      <rect class="cls-1" x="25.97" y="24.78" width="1.33" height="1.41"/>
      <path class="cls-1" d="m26.69,16.79c.03,2.78.05,4.19.05,4.28,0,.82-.52,1.24-1.23,1.24h-3.32c-.34,0-.68-.17-.99-.5-.36-.38-.54-.9-.56-1.54-.02-1.15-.04-2.31-.04-3.48h-1.24c.05,3.12.05,4.53.02,4.24,0,.42-.18.75-.54,1.01-.29.18-.6.28-.94.28h-2.99c-.34,0-.68-.17-.99-.5-.36-.38-.54-.9-.56-1.54-.02-1.15-.04-2.31-.04-3.48h-1.24c.05,3.12.05,4.53.02,4.24,0,.42-.18.75-.56,1.01-.29.18-.6.28-.92.28h-2.85c-.58,0-1.03-.35-1.33-1.06-.16-.37-.27-.75-.32-1.14h1.1v-1.17h-1.57c-.92,0-1.66-.66-1.66-1.74-.02-1.08.45-1.63,1.41-1.63.34,0,.74.17,1.21.51l.67-.71c-.51-.64-1.19-.97-2.07-.97-.61,0-1.17.24-1.68.7-.54.53-.81,1.17-.81,1.94-.02.75.22,1.39.69,1.94-.94.07-1.73.48-2.4,1.21-.67.71-.99,1.58-.99,2.55,0,1.03.36,1.91,1.06,2.62.72.73,1.59,1.1,2.6,1.1h2.52v-1.25h-2.38c-.69,0-1.28-.26-1.77-.75-.49-.49-.74-1.08-.74-1.8s.25-1.3.74-1.8c.49-.49,1.08-.75,1.77-.75h1.21c.42,2.25,1.37,3.37,2.87,3.37h3.08c.99-.05,1.91-.59,2.25-1.48.09.27.23.53.45.79.38.46.83.7,1.37.7h3.21c.99-.05,1.91-.59,2.25-1.48.09.27.23.53.45.79.38.46.83.7,1.37.7h3.21c1.59,0,2.45-.92,2.45-2.38,0,.02-.02-1.41-.05-4.31h-1.24Z"/>
      <path class="cls-1" d="m33.09,23.48h1.62c-.27.86-.74,1.54-1.37,2.05-.67.53-1.46.79-2.36.79l.54,1.15c1.41-.13,2.54-.72,3.39-1.76.85-1.05,1.28-2.35,1.28-3.94v-2.13c0-1.93-.94-2.9-2.81-2.9-.72,0-1.37.24-1.93.73-.7.62-1.1,1.52-1.12,2.71,0,.9.22,1.69.74,2.33.52.64,1.19.95,2.02.95m-.81-5.24c.34-.42.74-.62,1.23-.62.92,0,1.39.55,1.41,1.63l.04,3.06h-1.53c-1.06,0-1.73-.97-1.73-2.2,0-.79.22-1.41.6-1.87"/>
      <rect class="cls-1" x="55.92" y="24.78" width="1.35" height="1.41"/>
      <rect class="cls-1" x="58.14" y="24.78" width="1.33" height="1.41"/>
      <rect class="cls-1" x="64.23" y="24.76" width="1.33" height="1.41"/>
      <rect class="cls-1" x="71.77" y="24.76" width="1.33" height="1.41"/>
      <path class="cls-1" d="m88.87,11.62h-1.24c0,.86.02,2.44.04,4.73.02,1.98.04,3.56.04,4.71,0,.83-.52,1.25-1.23,1.25h-2.51c-.34,0-.67-.16-.99-.49-.36-.39-.56-.83-.58-1.32-.05-3.46-.07-6.43-.09-8.91h-1.24c.05,3.74.09,6.89.09,9.44,0,.42-.18.75-.54,1.01-.31.18-.61.27-.94.27h-2.31c-.14-1.65-.56-2.95-1.23-3.92-.85-1.19-2.04-1.78-3.61-1.78-.87,0-1.84.26-2.92.77l.52,1.08c.85-.48,1.68-.71,2.49-.71.9,0,1.68.4,2.34,1.21.7.86,1.06,1.98,1.1,3.35h-9.02c-.34,0-.68-.16-.99-.49-.36-.39-.54-.9-.56-1.54-.02-1.15-.04-2.31-.04-3.48h-1.24c.05,3.12.05,4.53.02,4.23,0,.42-.18.75-.56,1.01-.29.18-.6.27-.92.27h-2.99c-.34,0-.69-.16-.99-.49-.36-.39-.54-.9-.56-1.54-.02-1.15-.04-2.31-.04-3.48h-1.24c.05,3.12.05,4.53.02,4.23,0,.42-.18.75-.56,1.01-.29.18-.6.27-.94.27h-2.98c-.34,0-.68-.15-.99-.44-.36-.35-.54-.79-.56-1.36-.05-4.03-.07-7.06-.07-9.09h-1.24l.11,10.85c.02,1.08-.33,2-1.03,2.77-.7.77-1.53,1.15-2.52,1.15s-1.84-.39-2.54-1.14c-.7-.75-1.05-1.67-1.05-2.75-.02-.16-.02-1.43-.02-3.78h-1.23c.02,1.54.04,2.79.04,3.76,0,1.43.47,2.66,1.41,3.67.94,1.01,2.07,1.52,3.39,1.52s2.4-.49,3.34-1.5c.94-.99,1.41-2.18,1.42-3.59.41.73.97,1.1,1.68,1.1h3.21c.99-.05,1.91-.59,2.25-1.49.09.27.23.53.45.79.38.46.83.7,1.37.7h3.21c.99-.05,1.91-.59,2.25-1.49.09.27.23.53.45.79.38.46.83.7,1.37.7h12.84c.99-.05,1.91-.59,2.25-1.49.09.27.23.53.45.79.38.46.83.7,1.37.7h2.4c1.59,0,2.45-.92,2.45-2.38,0-1.17-.02-2.75-.04-4.73-.02-2.33-.04-3.9-.04-4.75"/>
      <rect class="cls-1" x="97.59" y="12.54" width="1.33" height="1.43"/>
      <rect class="cls-1" x="95.39" y="12.54" width="1.33" height="1.43"/>
      <rect class="cls-1" x="106.52" y="24.78" width="1.33" height="1.41"/>
      <rect class="cls-1" x="104.3" y="24.78" width="1.35" height="1.41"/>
      <path class="cls-1" d="m141.02,11.62h-1.24c0,.86.02,2.44.04,4.73.02,1.98.04,3.56.04,4.71,0,.82-.52,1.25-1.23,1.25h-2.7c.02-.2.02-.4.02-.61,0-.92-.27-1.7-.81-2.36-.58-.71-1.35-1.06-2.31-1.06-1.88,0-2.99,1.3-2.99,3.43,0,.2.02.4.04.61h-3.23c-.34,0-.67-.17-.99-.49-.36-.39-.56-.83-.58-1.32-.05-3.46-.07-6.43-.09-8.91h-1.24c.05,3.74.09,6.89.09,9.44,0,.42-.18.75-.54,1.01-.31.18-.61.28-.94.28h-3.64c-.04-.46-.11-.9-.2-1.32-.63-2.8-2.2-4.2-4.74-4.2-.38,0-.77.04-1.19.11l3.14-3.1-.83-.83-4.31,4.56s-.07.02-.09.04l.58,1.06c.83-.49,1.66-.75,2.49-.75,1.08,0,1.98.4,2.72,1.23.74.81,1.15,1.87,1.21,3.19h-9.32c-.34,0-.69-.17-.99-.49-.36-.39-.54-.9-.56-1.54-.02-1.15-.04-2.31-.04-3.48h-1.24c.05,3.12.05,4.53.02,4.24,0,.42-.18.75-.56,1.01-.29.18-.6.28-.94.28h-3.16c-.5,0-.76-.31-.76-.92v-5.79h-1.24v.9h-.04c-.36-.59-1.14-1.04-1.98-1.04-.67,0-1.24.26-1.71.75-.6.61-.88,1.48-.88,2.64,0,1.74.68,2.62,2.06,2.62h2.65c-.02,1.34.61,2.02,1.91,2.02h3.52c.99-.05,1.91-.59,2.25-1.48.09.27.23.53.45.79.38.46.83.7,1.37.7h14.41c.99-.05,1.91-.59,2.25-1.48.09.27.23.53.45.79.38.46.83.7,1.37.7h3.48c.56,1.12,1.46,1.67,2.7,1.67s2.18-.55,2.67-1.67h3.03c1.59,0,2.45-.92,2.45-2.38,0-1.17-.02-2.75-.04-4.73-.02-2.33-.04-3.91-.04-4.75m-44.65,8.71c-.43,0-.72-.17-.87-.49-.09-.2-.14-.49-.14-.92,0-.79.16-1.41.51-1.83.29-.4.67-.61,1.12-.61.7,0,1.26.39,1.69,1.14l.02,2.71h-2.33Zm37.8,3.19c-.31.39-.72.59-1.21.59s-.9-.2-1.24-.59c-.38-.44-.58-1.05-.58-1.81s.16-1.39.5-1.83c.31-.39.72-.57,1.23-.57s.9.18,1.24.57c.38.46.56,1.08.56,1.83s-.16,1.37-.51,1.81"/>
      <polygon class="cls-1" points="144.68 11.62 143.43 11.62 143.52 23.48 144.77 23.48 144.68 11.62"/>
      <rect class="cls-1" x="151.22" y="12.54" width="1.33" height="1.43"/>
      <rect class="cls-1" x="153.42" y="12.54" width="1.33" height="1.43"/>
      <path class="cls-1" d="m163.18,14.68h-.72c-.49,0-.87-.37-.88-.9-.02-.64.2-.95.63-.95.23,0,.45.11.63.33l.31-.44c-.25-.33-.58-.49-.96-.49-.77,0-1.33.66-1.33,1.47,0,.38.11.71.34.99h-.94l-.34.64h3.26v-.64Z"/>
      <rect class="cls-1" x="169.63" y="24.78" width="1.33" height="1.41"/>
      <rect class="cls-1" x="167.41" y="24.78" width="1.35" height="1.41"/>
      <path class="cls-1" d="m188.96,21.1c0-1.17-.02-2.75-.04-4.73-.02-2.33-.04-3.9-.04-4.75h-1.24c0,.86.02,2.44.04,4.73.02,1.98.04,3.56.04,4.71,0,.83-.52,1.25-1.23,1.25h-3.82c-.47-3.68-2.33-5.52-5.57-5.52-1.23,0-2.43.26-3.61.75l.41.9c.38-.24.81-.4,1.28-.53-.47.62-.7,1.41-.7,2.35,0,.82.23,1.5.72,2.05h-3.95c-.34,0-.69-.17-.99-.49-.36-.39-.54-.9-.56-1.54-.02-1.15-.04-2.31-.04-3.48h-1.24c.05,3.12.05,4.53.02,4.24,0,.42-.18.75-.56,1.01-.29.18-.59.27-.94.27h-2.98c-.34,0-.69-.17-.99-.49-.36-.39-.54-.9-.56-1.54-.02-1.15-.04-2.31-.04-3.48h-1.24c.05,3.12.05,4.53.02,4.24,0,.42-.18.75-.56,1.01-.29.18-.6.27-.92.27h-3.17c-.5,0-.76-.31-.76-.92v-5.79h-1.24v.9h-.04c-.36-.59-1.14-1.05-1.98-1.05-.67,0-1.24.26-1.71.75-.6.61-.88,1.49-.88,2.64,0,1.74.69,2.62,2.06,2.62h2.65c-.02,1.34.61,2.02,1.91,2.02h3.52c.99-.06,1.91-.59,2.25-1.49.09.27.23.53.45.79.38.46.83.7,1.37.7h3.21c.99-.06,1.91-.59,2.25-1.49.09.27.24.53.45.79.38.46.83.7,1.37.7h15.13c1.59,0,2.45-.92,2.45-2.38m-36.77-.77c-.43,0-.72-.16-.87-.49-.09-.2-.14-.49-.14-.92,0-.79.16-1.41.5-1.83.29-.4.67-.61,1.12-.61.7,0,1.26.39,1.7,1.14l.02,2.71h-2.33Zm25.06,2.05c-.41,0-.78-.18-1.08-.57-.32-.4-.49-.97-.49-1.69s.14-1.3.43-1.71c.27-.37.61-.55,1.05-.55s.78.18,1.06.55c.34.42.51.99.51,1.71,0,1.47-.63,2.25-1.48,2.25m2.13-.07c.36-.53.54-1.21.54-2.05,0-.71-.18-1.34-.54-1.87.49.24.92.72,1.3,1.47.42.79.67,1.59.74,2.46h-2.04Z"/>
      <polygon class="cls-1" points="192.64 23.48 192.55 11.62 191.31 11.62 191.4 23.48 192.64 23.48"/>
      <path class="cls-1" d="m3.51,38.28v-.04c.94-.38,1.64-1.24,1.64-2.58,0-.75-.24-1.44-.66-1.88-.52-.56-1.27-.82-2.42-.82-.69,0-1.46.08-2,.21v9.94h.96v-4.46h1.08c1.04,0,1.53.62,1.78,2.03.23,1.26.43,2.15.57,2.44h1c-.17-.39-.37-1.27-.65-2.73-.21-1.1-.61-1.85-1.29-2.1m-1.34-.48h-1.13v-3.87c.2-.05.57-.11,1.09-.11,1.08,0,2.06.46,2.06,1.96,0,1.22-.79,2.01-2.01,2.01"/>
      <path class="cls-1" d="m9.28,35.72c-1.61,0-2.95,1.36-2.95,3.83,0,2.33,1.25,3.72,2.87,3.72,1.4,0,2.95-1.14,2.95-3.83,0-2.21-1.15-3.72-2.87-3.72m-.06,6.69c-1.13,0-1.91-1.3-1.91-2.9,0-1.39.57-2.93,1.93-2.93s1.92,1.62,1.92,2.9c0,1.63-.8,2.93-1.94,2.93"/>
      <path class="cls-1" d="m16.16,40.25c-.15.56-.3,1.1-.4,1.54h-.04c-.1-.44-.24-1.01-.4-1.51l-1.38-4.38h-1.05l2.23,6.9c.05.13.07,0,.07.08,0,.15-.57,1.97-2.04,2.6l.27.93c.23-.07.75-.29,1.28-.85.79-.85,1.32-2.2,2.07-4.54l1.68-5.11h-1.02l-1.27,4.36Z"/>
      <path class="cls-1" d="m23.74,38.6c0-1.43-.46-2.87-2.25-2.87-.71,0-1.41.22-1.92.61l.23.75c.43-.34.99-.52,1.54-.52,1.43,0,1.43,1.38,1.43,1.99-2.34-.01-3.66.93-3.66,2.66,0,1.05.64,2.05,1.84,2.05.89,0,1.54-.52,1.86-1.09h.03l.09.93h.88c-.08-.5-.09-1.13-.09-1.72v-2.79Zm-.95,2.13c0,.87-.66,1.69-1.6,1.69-.58,0-1.09-.41-1.09-1.34,0-1.52,1.49-1.72,2.68-1.72v1.36Z"/>
      <rect class="cls-1" x="25.68" y="32.52" width=".96" height="10.59"/>
      <path class="cls-1" d="m35.33,33.81c.69,0,1.26.18,1.67.41l.26-.93c-.28-.16-.89-.41-1.94-.41-2.58,0-4.35,2.03-4.35,5.28,0,3.42,1.83,5.1,4.1,5.1,1.01,0,1.79-.22,2.2-.45l-.21-.89c-.44.24-1.1.41-1.77.41-2.06,0-3.31-1.56-3.31-4.21,0-2.78,1.37-4.32,3.37-4.32"/>
      <path class="cls-1" d="m41.19,35.72c-1.61,0-2.95,1.36-2.95,3.83,0,2.33,1.25,3.72,2.87,3.72,1.4,0,2.95-1.14,2.95-3.83,0-2.21-1.15-3.72-2.87-3.72m-.06,6.69c-1.13,0-1.91-1.3-1.91-2.9,0-1.39.57-2.93,1.93-2.93s1.92,1.62,1.92,2.9c0,1.63-.8,2.93-1.94,2.93"/>
      <path class="cls-1" d="m52.2,35.73c-.97,0-1.61.58-2.03,1.44h-.02c-.27-.86-.9-1.44-1.72-1.44-.99,0-1.57.62-1.92,1.32h-.03l-.06-1.16h-.84c.02.6.05,1.12.05,1.87v5.36h.95v-4.42c0-1.12.73-2.05,1.55-2.05.89,0,1.32.88,1.32,2.03v4.45h.95v-4.54c0-1.1.71-1.93,1.48-1.93.95,0,1.39.9,1.39,2.3v4.17h.95v-4.34c0-2.48-1.23-3.05-2-3.05"/>
      <path class="cls-1" d="m62.74,35.73c-.97,0-1.61.58-2.02,1.44h-.02c-.27-.86-.9-1.44-1.72-1.44-1,0-1.57.62-1.92,1.32h-.03l-.06-1.16h-.84c.02.6.05,1.12.05,1.87v5.36h.95v-4.42c0-1.12.73-2.05,1.55-2.05.89,0,1.32.88,1.32,2.03v4.45h.95v-4.54c0-1.1.71-1.93,1.48-1.93.95,0,1.39.9,1.39,2.3v4.17h.95v-4.34c0-2.48-1.23-3.05-2-3.05"/>
      <path class="cls-1" d="m67.18,33.13c-.37,0-.64.33-.64.74s.25.75.62.75.64-.29.64-.75c0-.41-.24-.74-.62-.74"/>
      <rect class="cls-1" x="66.69" y="35.9" width=".96" height="7.22"/>
      <path class="cls-1" d="m71.48,38.96c-.81-.4-1.17-.69-1.17-1.31,0-.58.37-1.07,1.06-1.07.57,0,1,.25,1.23.42l.28-.83c-.34-.24-.84-.44-1.45-.44-1.27,0-2.06.93-2.06,2.05,0,.87.54,1.55,1.61,2.04.83.38,1.17.75,1.17,1.43s-.42,1.16-1.26,1.16c-.54,0-1.09-.26-1.42-.49l-.27.85c.43.29,1.03.49,1.65.49,1.38,0,2.23-.85,2.23-2.13,0-1.09-.59-1.69-1.61-2.17"/>
      <path class="cls-1" d="m76.48,38.96c-.81-.4-1.17-.69-1.17-1.31,0-.58.37-1.07,1.06-1.07.57,0,1,.25,1.23.42l.28-.83c-.34-.24-.84-.44-1.45-.44-1.27,0-2.06.93-2.06,2.05,0,.87.54,1.55,1.61,2.04.83.38,1.17.75,1.17,1.43s-.42,1.16-1.26,1.16c-.54,0-1.09-.26-1.42-.49l-.27.85c.43.29,1.03.49,1.65.49,1.38,0,2.23-.85,2.23-2.13,0-1.09-.59-1.69-1.61-2.17"/>
      <rect class="cls-1" x="79.65" y="35.9" width=".96" height="7.22"/>
      <path class="cls-1" d="m80.13,33.13c-.37,0-.64.33-.64.74s.25.75.62.75.64-.29.64-.75c0-.41-.24-.74-.62-.74"/>
      <path class="cls-1" d="m85.1,35.72c-1.61,0-2.95,1.36-2.95,3.83,0,2.33,1.25,3.72,2.87,3.72,1.4,0,2.95-1.14,2.95-3.83,0-2.21-1.14-3.72-2.87-3.72m-.06,6.69c-1.13,0-1.91-1.3-1.91-2.9,0-1.39.57-2.93,1.93-2.93s1.92,1.62,1.92,2.9c0,1.63-.8,2.93-1.94,2.93"/>
      <path class="cls-1" d="m92.43,35.73c-.98,0-1.71.63-2.02,1.34h-.02l-.06-1.18h-.86c.02.58.05,1.12.05,1.87v5.36h.96v-4.42c0-1.26.83-2.05,1.65-2.05,1.1,0,1.47,1.03,1.47,2.21v4.26h.96v-4.4c0-2.45-1.34-2.99-2.13-2.99"/>
      <path class="cls-1" d="m100.1,33.01c-.69.81-.69,1.99-.69,2.89h-.87v.86h.87v6.36h.96v-6.36h1.53v-.86h-1.53v-.41c0-1.16.24-2.22,1.24-2.22.34,0,.56.09.73.17l.16-.86c-.21-.11-.53-.21-.94-.21-.5,0-1.04.18-1.46.65"/>
      <path class="cls-1" d="m105.47,35.72c-1.61,0-2.95,1.36-2.95,3.83,0,2.33,1.25,3.72,2.87,3.72,1.4,0,2.95-1.14,2.95-3.83,0-2.21-1.15-3.72-2.87-3.72m-.06,6.69c-1.13,0-1.91-1.3-1.91-2.9,0-1.39.57-2.93,1.93-2.93s1.92,1.62,1.92,2.9c0,1.63-.8,2.93-1.94,2.93"/>
      <path class="cls-1" d="m110.77,37.29h-.04l-.05-1.39h-.84c.03.69.04,1.39.04,2.16v5.06h.96v-3.92c0-1.22.53-2.4,1.57-2.4.14,0,.24.01.35.03v-1.05c-.1-.01-.18-.04-.29-.04-.78,0-1.43.65-1.71,1.55"/>
      <path class="cls-1" d="m118.52,39.82c0,2-.58,2.52-1.6,2.52-.36,0-.67-.08-.89-.17l-.14.9c.24.12.71.21,1.1.21,1.41,0,2.49-.78,2.49-3.36v-6.87h-.96v6.78Z"/>
      <path class="cls-1" d="m126.35,35.9h-.96v4.49c0,1.27-.89,1.96-1.64,1.96-1.05,0-1.41-.98-1.41-2.38v-4.06h-.96v4.26c0,2.49,1.12,3.11,2.07,3.11,1.08,0,1.72-.73,2.01-1.3h.04l.05,1.14h.87c-.02-.56-.06-1.18-.06-1.92v-5.3Z"/>
      <path class="cls-1" d="m131.42,35.72c-.98,0-1.7.5-2.09,1.34h-.02v-4.54h-.96v8.8c0,.58-.02,1.31-.05,1.79h.83l.06-1.19h.03c.45.93,1.12,1.35,2.04,1.35,1.31,0,2.71-1.23,2.71-3.85,0-2.22-1.05-3.69-2.54-3.69m-.35,6.65c-1.06,0-1.77-1.01-1.77-2.08v-1.43c0-1.06.71-2.24,1.8-2.24,1.23,0,1.87,1.32,1.87,2.83,0,1.71-.68,2.91-1.91,2.91"/>
      <path class="cls-1" d="m139.63,38.6c0-1.43-.46-2.87-2.25-2.87-.71,0-1.41.22-1.92.61l.23.75c.43-.34.99-.52,1.54-.52,1.43,0,1.43,1.38,1.43,1.99-2.34-.01-3.66.93-3.66,2.66,0,1.05.64,2.05,1.84,2.05.89,0,1.54-.52,1.86-1.09h.03l.09.93h.88c-.08-.5-.09-1.13-.09-1.72v-2.79Zm-.95,2.13c0,.87-.66,1.69-1.6,1.69-.58,0-1.09-.41-1.09-1.34,0-1.52,1.49-1.72,2.68-1.72v1.36Z"/>
      <rect class="cls-1" x="141.57" y="35.9" width=".96" height="7.22"/>
      <path class="cls-1" d="m142.06,33.13c-.37,0-.64.33-.64.74s.25.75.62.75.64-.29.64-.75c0-.41-.24-.74-.62-.74"/>
      <rect class="cls-1" x="144.53" y="32.52" width=".96" height="10.59"/>
      <path class="cls-1" d="m156.62,37.67h-.89c-.16,1.24-.42,2.28-.82,3.03-.62-.82-1.49-1.99-2.22-2.99v-.05c1.39-.82,1.92-1.64,1.92-2.7,0-1.31-.81-2.09-1.82-2.09-1.37,0-2.11,1.22-2.11,2.44,0,.73.28,1.47.73,2.16v.04c-.99.67-1.68,1.63-1.68,2.96,0,1.51.96,2.81,2.58,2.81.93,0,1.75-.35,2.51-1.18.36.44.59.71.83,1.02h1.16c-.54-.69-.97-1.22-1.4-1.75.64-.89.98-2.16,1.2-3.69m-3.92-4.01c.74,0,1.04.7,1.04,1.36,0,.89-.59,1.47-1.5,2.07-.36-.56-.66-1.14-.66-1.89s.36-1.54,1.12-1.54m-.22,8.76c-1.06,0-1.81-.93-1.81-2.12,0-1.13.68-1.8,1.18-2.17.95,1.3,1.93,2.57,2.49,3.31-.46.62-1.15.98-1.86.98"/>
      <path class="cls-1" d="m164.06,35.83c-.35.78-.65,1.47-.89,2.15h-.04c-.26-.73-.54-1.38-.88-2.13l-1.23-2.82h-1.1l2.69,5.79v4.3h.96v-4.33l2.83-5.76h-1.08l-1.27,2.81Z"/>
      <path class="cls-1" d="m171.61,38.6c0-1.43-.46-2.87-2.25-2.87-.71,0-1.41.22-1.92.61l.23.75c.43-.34.99-.52,1.54-.52,1.43,0,1.43,1.38,1.43,1.99-2.34-.01-3.66.93-3.66,2.66,0,1.05.64,2.05,1.84,2.05.89,0,1.54-.52,1.86-1.09h.04l.09.93h.88c-.08-.5-.09-1.13-.09-1.72v-2.79Zm-.95,2.13c0,.87-.66,1.69-1.6,1.69-.58,0-1.09-.41-1.09-1.34,0-1.52,1.49-1.72,2.68-1.72v1.36Z"/>
      <path class="cls-1" d="m176.46,35.73c-.98,0-1.71.63-2.02,1.34h-.02l-.06-1.18h-.86c.02.58.05,1.12.05,1.87v5.36h.96v-4.42c0-1.26.83-2.05,1.65-2.05,1.1,0,1.47,1.03,1.47,2.21v4.26h.96v-4.4c0-2.45-1.34-2.99-2.13-2.99"/>
      <path class="cls-1" d="m183.62,35.72c-.98,0-1.7.5-2.09,1.34h-.02v-4.54h-.96v8.8c0,.58-.02,1.31-.05,1.79h.83l.06-1.19h.03c.45.93,1.12,1.35,2.04,1.35,1.31,0,2.71-1.23,2.71-3.85,0-2.22-1.05-3.69-2.54-3.69m-.35,6.65c-1.06,0-1.77-1.01-1.77-2.08v-1.43c0-1.06.71-2.24,1.8-2.24,1.23,0,1.87,1.32,1.87,2.83,0,1.71-.68,2.91-1.91,2.91"/>
      <path class="cls-1" d="m192.65,41.19v-5.3h-.96v4.49c0,1.27-.89,1.96-1.64,1.96-1.05,0-1.41-.98-1.41-2.38v-4.06h-.96v4.26c0,2.49,1.12,3.11,2.07,3.11,1.08,0,1.72-.73,2.01-1.3h.03l.05,1.14h.87c-.02-.56-.06-1.18-.06-1.92"/>
    </g>
  </g>
</svg>