<?xml version="1.0" encoding="UTF-8"?>
<svg id="Layer_2" data-name="Layer 2" xmlns="http://www.w3.org/2000/svg" viewBox="0 0 222.36 72.57">
  <defs>
    <style>
      .cls-1 {
        fill: #ddb565;
      }

      .cls-1, .cls-2 {
        stroke-width: 0px;
      }

      .cls-2 {
        fill: #fff;
      }
    </style>
  </defs>
  <g id="Layer_1-2" data-name="Layer 1">
    <g>
      <polygon class="cls-1" points="166.78 48.94 211.98 3.69 222.36 2.69 219.29 53.32 183.45 72.57 166.78 48.94"/>
      <g>
        <path class="cls-2" d="m212.98,23.56l-21.76,10.14-2.56,2.56,21.81-9.34-.22-.51,2.09-.94c.25-.65.46-1.28.64-1.92Z"/>
        <path class="cls-2" d="m195.35,29.4c-.73.85-1.56,1.74-2.5,2.67l-.86.86,17.01-9.11-.26-.49,4.85-2.71c.08-.62.12-1.23.13-1.83l-18.38,10.61Z"/>
        <path class="cls-1" d="m192.18,7.13l-.5-.26L195,.01c-.57-.02-1.14-.01-1.72.03l-7.6,16.3c.89-.66,1.77-1.2,2.65-1.61l3.84-7.6Z"/>
        <path class="cls-1" d="m190.95,13.88c.4-.07.78-.12,1.16-.13l3.04-4.91-.48-.3,4.69-7.84c-.16-.05-.33-.09-.49-.14-.36-.1-.72-.18-1.1-.24l-8,13.85c.39-.13.78-.22,1.17-.29Z"/>
        <path class="cls-2" d="m198.43,25.03c-.43.85-1.03,1.77-1.78,2.76l10.62-6.94-.31-.47,6.55-4.44c-.07-.4-.14-.79-.24-1.18-.04-.15-.08-.31-.13-.46l-14.4,10.08c-.09.21-.2.43-.31.65Z"/>
        <path class="cls-1" d="m195.32,14.36l2.66-3.56-.45-.34,5.87-8.12c-.47-.26-.95-.49-1.44-.7l-8.52,12.17c.66.09,1.28.27,1.88.55Z"/>
        <path class="cls-2" d="m199.38,22.69l5.91-4.65-.35-.44,7.25-5.9c-.22-.49-.46-.97-.73-1.44l-11.82,9.91c.08.77,0,1.61-.26,2.52Z"/>
        <path class="cls-1" d="m197.48,15.9c.1.1.19.2.28.29l2.86-3.2-.42-.37,6.76-7.82c-.4-.35-.82-.68-1.24-.99l-9.36,11.16c.38.27.75.58,1.11.94Z"/>
        <path class="cls-2" d="m199.37,18.88l3.7-3.47-.38-.41,7.26-7.05c-.32-.42-.66-.83-1.02-1.22l-10.41,10.41c.37.56.66,1.14.86,1.74Z"/>
        <path class="cls-2" d="m202.31,39.05l2.8-2.8-15.9,2.8h-.49l17.56-4.11c.71-.8,1.35-1.59,1.95-2.38l-21.29,5.71,22.52-7.39c.6-.89,1.14-1.77,1.61-2.64l-22.61,8.24-14.32,14.32,16.2-.12.24.12,1.18-1.19.23.91h1.54l-.56-2.12.87-.87.34-.33,1.15,3.32h1.59l-1.61-4.45.68-.68.02.04.52-.22,2.38,5.31h1.68l-3.09-6.63.13-.13h0s.43-.43.43-.43l.34.63.5-.26,3.8,6.82h1.79l-4.99-8.63.56-.56.59.91.47-.31,5.83,8.59h1.94l-7.42-10.6.45-.45.61.78.44-.35,8.64,10.62.04.05.06-.05.52-.42.36.42h.99v-.21l-9.46-11.26h-1.77Zm-9.92,7.23h0s0,0,0,0h0Z"/>
        <polygon class="cls-2" points="204.94 39.05 213.16 47.52 213.54 47.15 213.54 45.58 207.01 39.05 204.94 39.05"/>
        <polygon class="cls-2" points="207.97 39.05 213.54 43.87 213.54 41.74 210.34 39.05 207.97 39.05"/>
      </g>
      <g>
        <path class="cls-1" d="m5.55,12.43h.22l.42,1.33c.2.75.6.8.9.8.35,0,.52.17.52.5v.95c0,.33-.17.5-.5.5-.47,0-.8-.07-1.11-.35-.13,1.78-1.41,2.78-3.16,2.78S.01,17.93.01,16.02c0-.98.28-2.08.52-2.76l.22.08c-.15.53-.23,1.16-.23,1.56,0,1.38.95,2.1,2.63,2.1,1.06,0,1.96-.3,2.56-.67l-.93-2.23.78-1.68Zm-2.38.73l-1.03-1.03,1.03-1.01.83.81c.13.15.13.27,0,.42l-.83.81Z"/>
        <path class="cls-1" d="m7.12,14.56h2.15c.3,0,.5.13.5.33v1.36c0,.15-.2.25-.5.25h-2.15v-1.95Z"/>
        <path class="cls-1" d="m9.26,14.56h2.15c.3,0,.5.13.5.33v1.36c0,.15-.2.25-.5.25h-2.15v-1.95Z"/>
        <path class="cls-1" d="m11.41,14.56h2.15c.3,0,.5.13.5.33v1.36c0,.15-.2.25-.5.25h-2.15v-1.95Z"/>
        <path class="cls-1" d="m13.55,14.56h2.15c.3,0,.5.13.5.33v1.36c0,.15-.2.25-.5.25h-2.15v-1.95Z"/>
        <path class="cls-1" d="m16.22,19.13l-.92-.93.92-.91.73.75s.03.02.03.03l.78-.78.73.75c.12.12.12.23,0,.35l-.73.75-.78-.78s-.02.02-.03.03l-.73.75Zm-.52-4.57c.83,0,1.5-.12,2.11-.3l-1.15-1.51.95-1.41h.22c.52,1.26.6,2.01.2,3.16l-.05.13c-.47,1.38-1.03,1.88-2.28,1.88v-1.95Z"/>
        <path class="cls-1" d="m20.59,16.15c0,1.13-.52,2.11-1.48,3.13l-3.01-.58v-.22c1.98-.55,3.24-1.25,4.17-2.34l-.88-2.03.78-1.68h.22l.4,1.33c.2.75.63.8.93.8.33,0,.5.17.5.5v.95c0,.33-.17.5-.5.5-.45,0-.82-.07-1.13-.35Z"/>
        <path class="cls-1" d="m21.72,14.56h2.15c.3,0,.5.13.5.33v1.36c0,.15-.2.25-.5.25h-2.15v-1.95Z"/>
        <path class="cls-1" d="m23.87,14.56h2.15c.3,0,.5.13.5.33v1.36c0,.15-.2.25-.5.25h-2.15v-1.95Z"/>
        <path class="cls-1" d="m26.01,14.56h2.15c.3,0,.5.13.5.33v1.36c0,.15-.2.25-.5.25h-2.15v-1.95Z"/>
        <path class="cls-1" d="m33.05,15.85l-.88,1.33-.22.05-1.75-1.13c-.23-.13-.4-.3-.52-.45-.37.53-.92.85-1.53.85v-1.95c.63,0,1.03-.05,1.31-.15.15-.47.5-.91.9-1.26l1.91-1.66.22.03,1.11,2.35c.22.47.45.7.8.7s.5.17.5.5v.95c0,.33-.17.5-.5.5-.43,0-.92-.13-1.36-.65Zm-1.65-3.03l-.81.65c-.25.2-.25.55.03.73l2.25,1.41c-.08-.12-.17-.25-.23-.42l-1.23-2.38Z"/>
        <path class="cls-1" d="m34.41,14.56h2.15c.3,0,.5.13.5.33v1.36c0,.15-.2.25-.5.25h-2.15v-1.95Z"/>
        <path class="cls-1" d="m36.56,14.56h2.15c.3,0,.5.13.5.33v1.36c0,.15-.2.25-.5.25h-2.15v-1.95Z"/>
        <path class="cls-1" d="m40.65,14.41l-.05.18c-.48,1.6-1.08,1.91-1.9,1.91v-1.95c1.08,0,1.76-.22,2.21-1.21l.17-.37h.22c.18.95.42,1.58,1.05,1.58.33,0,.5.17.5.5v.95c0,.33-.17.5-.5.5-.96,0-1.6-.85-1.7-2.1Zm-.23-2.29l-.91-.93.91-.91.73.75s.02.02.03.02l.76-.76.73.75c.12.12.12.23,0,.35l-.73.75-.76-.77s-.02.02-.03.02l-.73.75Zm.78-1.58l-.9-.92.9-.91.75.75c.12.12.12.23,0,.35l-.75.73Z"/>
        <path class="cls-1" d="m42.36,14.56h2.15c.3,0,.5.13.5.33v1.36c0,.15-.2.25-.5.25h-2.15v-1.95Z"/>
        <path class="cls-1" d="m44.51,14.56h2.15c.3,0,.5.13.5.33v1.36c0,.15-.2.25-.5.25h-2.15v-1.95Z"/>
        <path class="cls-1" d="m48.6,14.41l-.05.18c-.48,1.6-1.08,1.91-1.9,1.91v-1.95c1.08,0,1.76-.22,2.21-1.21l.17-.37h.22c.18.95.42,1.58,1.05,1.58.33,0,.5.17.5.5v.95c0,.33-.17.5-.5.5-.96,0-1.6-.85-1.7-2.1Zm-.23-2.29l-.91-.93.91-.91.73.75s.02.02.03.02l.76-.76.73.75c.12.12.12.23,0,.35l-.73.75-.76-.77s-.02.02-.03.02l-.73.75Z"/>
        <path class="cls-1" d="m50.32,14.56h2.15c.3,0,.5.13.5.33v1.36c0,.15-.2.25-.5.25h-2.15v-1.95Z"/>
        <path class="cls-1" d="m52.46,14.56h2.15c.3,0,.5.13.5.33v1.36c0,.15-.2.25-.5.25h-2.15v-1.95Z"/>
        <path class="cls-1" d="m54.61,14.56h2.15c.3,0,.5.13.5.33v1.36c0,.15-.2.25-.5.25h-2.15v-1.95Z"/>
        <path class="cls-1" d="m59,12.76l.32.08-.42,1.31c.53.27,1.1.4,1.66.4.67,0,.8-.2,1.03-.78l.4-1,.32.08-.45,1.46.78.22c.2.07.37.08.52.08.2,0,.33-.05.43-.17l-.63-1.25.73-1.45.22.02.78,1.95c.23.63.4.83.85.83.33,0,.5.17.5.5v.95c0,.33-.17.5-.5.5-.77,0-1.13-.42-1.53-1.21l-.22-.43-.25.86c-.17.55-.38.9-1.05.81-.22,0-.83-.22-1.31-.5-.22.3-.52.47-.95.47-.65,0-1.33-.37-1.81-1-.4.83-.88,1-1.66,1v-1.95c.96,0,1.56-.15,1.9-.98l.35-.81Z"/>
        <path class="cls-1" d="m65.55,14.56h2.15c.3,0,.5.13.5.33v1.36c0,.15-.2.25-.5.25h-2.15v-1.95Z"/>
        <path class="cls-1" d="m67.7,14.56h2.15c.3,0,.5.13.5.33v1.36c0,.15-.2.25-.5.25h-2.15v-1.95Z"/>
        <path class="cls-1" d="m69.84,14.56h2.15c.3,0,.5.13.5.33v1.36c0,.15-.2.25-.5.25h-2.15v-1.95Z"/>
        <path class="cls-1" d="m71.99,14.56h2.15c.3,0,.5.13.5.33v1.36c0,.15-.2.25-.5.25h-2.15v-1.95Z"/>
        <path class="cls-1" d="m74.14,14.56h2.15c.3,0,.5.13.5.33v1.36c0,.15-.2.25-.5.25h-2.15v-1.95Z"/>
        <path class="cls-1" d="m81.17,15.85l-.88,1.33-.22.05-1.75-1.13c-.23-.13-.4-.3-.52-.45-.37.53-.92.85-1.53.85v-1.95c.63,0,1.03-.05,1.31-.15.15-.47.5-.91.9-1.26l1.91-1.66.22.03,1.11,2.35c.22.47.45.7.8.7s.5.17.5.5v.95c0,.33-.17.5-.5.5-.43,0-.92-.13-1.36-.65Zm-1.65-3.03l-.81.65c-.25.2-.25.55.03.73l2.25,1.41c-.08-.12-.17-.25-.23-.42l-1.23-2.38Z"/>
        <path class="cls-1" d="m82.54,14.56h2.15c.3,0,.5.13.5.33v1.36c0,.15-.2.25-.5.25h-2.15v-1.95Z"/>
        <path class="cls-1" d="m84.68,14.56h2.15c.3,0,.5.13.5.33v1.36c0,.15-.2.25-.5.25h-2.15v-1.95Z"/>
        <path class="cls-1" d="m86.83,14.56h2.15c.3,0,.5.13.5.33v1.36c0,.15-.2.25-.5.25h-2.15v-1.95Z"/>
        <path class="cls-1" d="m90.87,7.82l.2.08-.13.58,1.35.96-.67,1.3v2.05c0,.52-.22,1.13-.75,2.18-.18.38-.8,1.53-1.9,1.53v-1.95c.55,0,1.13-.12,1.68-.33v-3.74c-.57-.38-.7-.88-.38-1.5l.6-1.16Z"/>
        <path class="cls-1" d="m93.25,17h-.22v-7.57l.83-1.58h.22v6.3c0,.55-.1,1.08-.32,1.6l-.52,1.25Z"/>
        <path class="cls-1" d="m101.23,14.17c.7.23,1.38.38,2.23.38l.47.18v.68c.25.17.38.55.38.91,0,2.08-1.41,3.29-3.66,3.29-1.93,0-2.91-.9-2.91-3.04,0-1.2.3-2.28.58-2.91l.18.08c-.12.32-.35,1.06-.35,1.76,0,1.38.88,2.18,2.81,2.18,1.26,0,2.48-.35,3.06-.86-.23-.05-1.18-.25-2.03-.45-.32-.05-.63-.12-1.03-.22l-.17-.22.43-1.78Z"/>
        <path class="cls-1" d="m103.46,14.56h2.15c.3,0,.5.13.5.33v1.36c0,.15-.2.25-.5.25h-2.15v-1.95Z"/>
        <path class="cls-1" d="m105.61,14.56h2.15c.3,0,.5.13.5.33v1.36c0,.15-.2.25-.5.25h-2.15v-1.95Z"/>
        <path class="cls-1" d="m107.75,14.56h2.15c.3,0,.5.13.5.33v1.36c0,.15-.2.25-.5.25h-2.15v-1.95Z"/>
        <path class="cls-1" d="m109.9,14.56h2.15c.3,0,.5.13.5.33v1.36c0,.15-.2.25-.5.25h-2.15v-1.95Z"/>
        <path class="cls-1" d="m112.04,14.56h2.15c.3,0,.5.13.5.33v1.36c0,.15-.2.25-.5.25h-2.15v-1.95Z"/>
        <path class="cls-1" d="m116.79,15.72c-.82.5-1.68.78-2.59.78v-1.95c.53,0,1.13-.02,1.71-.07-.12-.27-.22-.58-.2-.95,0-1.05.78-2.54,1.96-2.54,1.28,0,1.25,1.93.88,2.88-.1.22-.22.43-.37.63.37.03.73.05,1.06.05s.5.17.5.5v.95c0,.33-.17.5-.5.5-.9,0-1.78-.27-2.46-.78Zm.03-5.6l-.92-.93.92-.91.73.75s.02.02.03.02l.77-.77.73.75c.12.12.12.23,0,.35l-.73.75-.77-.77s-.02.02-.03.02l-.73.75Zm.43,4.17c.4-.08.75-.2.98-.35-.05-.47-.32-.96-.63-1.2-.63,0-1.15.15-1.65.43.25.58.73.93,1.3,1.11Z"/>
        <path class="cls-1" d="m119.25,14.56h2.15c.3,0,.5.13.5.33v1.36c0,.15-.2.25-.5.25h-2.15v-1.95Z"/>
        <path class="cls-1" d="m121.39,14.56h2.15c.3,0,.5.13.5.33v1.36c0,.15-.2.25-.5.25h-2.15v-1.95Z"/>
        <path class="cls-1" d="m123.54,14.56h2.15c.3,0,.5.13.5.33v1.36c0,.15-.2.25-.5.25h-2.15v-1.95Z"/>
        <path class="cls-1" d="m125.68,14.56h2.15c.3,0,.5.13.5.33v1.36c0,.15-.2.25-.5.25h-2.15v-1.95Z"/>
        <path class="cls-1" d="m129.78,14.41l-.05.18c-.48,1.6-1.08,1.91-1.9,1.91v-1.95c1.08,0,1.76-.22,2.21-1.21l.17-.37h.22c.18.95.42,1.58,1.05,1.58.33,0,.5.17.5.5v.95c0,.33-.17.5-.5.5-.96,0-1.6-.85-1.7-2.1Zm-.23-2.29l-.91-.93.91-.91.73.75s.02.02.03.02l.76-.76.73.75c.12.12.12.23,0,.35l-.73.75-.76-.77s-.02.02-.03.02l-.73.75Z"/>
        <path class="cls-1" d="m131.49,14.56h2.15c.3,0,.5.13.5.33v1.36c0,.15-.2.25-.5.25h-2.15v-1.95Z"/>
        <path class="cls-1" d="m133.64,14.56h2.15c.3,0,.5.13.5.33v1.36c0,.15-.2.25-.5.25h-2.15v-1.95Z"/>
        <path class="cls-1" d="m135.78,14.56h2.15c.3,0,.5.13.5.33v1.36c0,.15-.2.25-.5.25h-2.15v-1.95Z"/>
        <path class="cls-1" d="m137.91,14.56c.47,0,1.13-.05,1.45-.25.22-.13.28-.33.28-.88v-4.01l.83-1.58h.22v5.46c0,.91.13,1.26.85,1.26.35,0,.5.17.5.5v.95c0,.33-.15.5-.5.5-.96,0-1.65-.53-1.85-1.8-.2,1.1-.78,1.8-1.78,1.8v-1.95Z"/>
        <path class="cls-1" d="m141.55,14.56h2.15c.3,0,.5.13.5.33v1.36c0,.15-.2.25-.5.25h-2.15v-1.95Z"/>
        <path class="cls-1" d="m143.7,14.56h2.15c.3,0,.5.13.5.33v1.36c0,.15-.2.25-.5.25h-2.15v-1.95Z"/>
        <path class="cls-1" d="m145.84,14.56h2.15c.3,0,.5.13.5.33v1.36c0,.15-.2.25-.5.25h-2.15v-1.95Z"/>
        <path class="cls-1" d="m147.99,14.56h2.15c.3,0,.5.13.5.33v1.36c0,.15-.2.25-.5.25h-2.15v-1.95Z"/>
        <path class="cls-1" d="m155.18,13.64c.15.52-.08,1.08-.32,1.61l-.65,1.46-.2.12-2.88-1.16-.03.07c-.25.42-.5.77-.96.77v-1.95c.93,0,1.4-.17,1.75-.78l.53-.95c.37-.63.83-1.23,1.36-1.23.12,0,.25.02.37.08.78.3.93,1.6,1.03,1.96Zm-3.04.35l2.28.9c-.33-.88-.63-1.71-1.31-1.75-.13,0-.48.02-.83.62l-.13.23Z"/>
        <path class="cls-1" d="m7.2,28.57c.57,1.4.78,2.2.76,3.13-.05,2.21-1.6,3.68-3.73,3.68-1.95,0-2.89-1.21-2.89-2.88,0-1,.35-2.18.57-2.74l.2.07c-.15.53-.27,1.21-.27,1.68,0,1.46,1.18,1.95,2.61,1.95,1.51,0,2.45-.53,3.19-1.08l-1.63-2.25.95-1.55h.23Zm-2.68.65l-1.03-1.03,1.03-1.01.83.81c.13.15.13.27,0,.42l-.83.81Z"/>
        <path class="cls-1" d="m9.46,33.26h-.22v-7.57l.83-1.58h.22v6.3c0,.55-.1,1.08-.32,1.6l-.52,1.25Z"/>
        <path class="cls-1" d="m12.07,35.53l-3.01-.55v-.23c2.18-.57,3.84-1.7,4.42-3.33l-1.68-1.6.87-1.61h.22c.55.98.87,1.8.87,3.11,0,1.85-.62,3.09-1.68,4.21Zm.71-8.25l-1.03-1.03,1.03-1.01.83.81c.13.15.13.27,0,.42l-.83.81Z"/>
        <path class="cls-1" d="m14.88,30.45v-2.59c0-.87-.15-1.38-.28-1.81l1.03-1.95h.22v6.04c0,.52.45.68.95.68.32,0,.5.18.5.5v.95c0,.32-.18.5-.5.5-.78,0-1.91-.13-1.91-2.31Z"/>
        <path class="cls-1" d="m16.8,30.82h2.15c.3,0,.5.13.5.33v1.36c0,.15-.2.25-.5.25h-2.15v-1.95Z"/>
        <path class="cls-1" d="m18.94,30.82h2.15c.3,0,.5.13.5.33v1.36c0,.15-.2.25-.5.25h-2.15v-1.95Z"/>
        <path class="cls-1" d="m21.09,30.82h2.15c.3,0,.5.13.5.33v1.36c0,.15-.2.25-.5.25h-2.15v-1.95Z"/>
        <path class="cls-1" d="m23.24,30.82h2.15c.3,0,.5.13.5.33v1.36c0,.15-.2.25-.5.25h-2.15v-1.95Z"/>
        <path class="cls-1" d="m25.38,32.77v-1.95h2.76c.87,0,1.51-.22,2.05-.68-1.05-.28-2.03-.67-2.76-.67-.5,0-.87.18-1.08.52l-.15-.08.45-.98c.42-.88.88-1.23,1.56-1.23,1.18,0,2.4,1,4.17,1.01l.48.02.15.17-.63,1.55h-.27c-.43,0-.88-.07-1.3-.15.03.42.35.53.68.53h1.73c.33,0,.5.17.5.5v.95c0,.33-.17.5-.5.5h-1.01c-1.43,0-2.03-.8-2.03-2v-.28c-1.36.98-1.96,2.28-4.12,2.28h-.68Zm4.47,3.06l-1.03-1.03,1.03-1.01.83.81c.13.15.13.27,0,.42l-.83.81Z"/>
        <path class="cls-1" d="m33.23,30.82c.83,0,1.5-.12,2.11-.3l-1.15-1.51.95-1.41h.22c.52,1.26.6,2.01.2,3.16l-.05.13c-.47,1.38-1.03,1.88-2.28,1.88v-1.95Zm1.28,5.01l-1.03-1.03,1.03-1.01.83.81c.13.15.13.27,0,.42l-.83.81Z"/>
        <path class="cls-1" d="m42.56,30.44c.7.23,1.38.38,2.23.38l.47.18v.68c.25.17.38.55.38.91,0,2.08-1.41,3.29-3.66,3.29-1.93,0-2.91-.9-2.91-3.04,0-1.2.3-2.28.58-2.91l.18.08c-.12.32-.35,1.06-.35,1.76,0,1.38.88,2.18,2.81,2.18,1.26,0,2.48-.35,3.06-.87-.23-.05-1.18-.25-2.03-.45-.32-.05-.63-.12-1.03-.22l-.17-.22.43-1.78Zm-1.33,8.1l-.91-.93.91-.91.73.75s.02.02.03.02l.76-.77.73.75c.12.12.12.23,0,.35l-.73.75-.76-.77s-.02.02-.03.02l-.73.75Z"/>
        <path class="cls-1" d="m44.79,30.82h2.15c.3,0,.5.13.5.33v1.36c0,.15-.2.25-.5.25h-2.15v-1.95Z"/>
        <path class="cls-1" d="m46.94,30.82h2.15c.3,0,.5.13.5.33v1.36c0,.15-.2.25-.5.25h-2.15v-1.95Z"/>
        <path class="cls-1" d="m49.08,30.82h2.15c.3,0,.5.13.5.33v1.36c0,.15-.2.25-.5.25h-2.15v-1.95Z"/>
        <path class="cls-1" d="m51.23,30.82h2.15c.3,0,.5.13.5.33v1.36c0,.15-.2.25-.5.25h-2.15v-1.95Z"/>
        <path class="cls-1" d="m53.38,30.82c.83,0,1.5-.12,2.11-.3l-1.15-1.51.95-1.41h.22c.52,1.26.6,2.01.2,3.16l-.05.13c-.47,1.38-1.03,1.88-2.28,1.88v-1.95Zm2-4.17l-1.03-1.03,1.03-1.01.83.81c.13.15.13.27,0,.42l-.83.81Z"/>
        <path class="cls-1" d="m57.44,30.45v-2.59c0-.87-.15-1.38-.28-1.81l1.03-1.95h.22v6.04c0,.52.45.68.95.68.32,0,.5.18.5.5v.95c0,.32-.18.5-.5.5-.78,0-1.91-.13-1.91-2.31Z"/>
        <path class="cls-1" d="m59.35,30.82h2.15c.3,0,.5.13.5.33v1.36c0,.15-.2.25-.5.25h-2.15v-1.95Z"/>
        <path class="cls-1" d="m61.49,30.82h2.15c.3,0,.5.13.5.33v1.36c0,.15-.2.25-.5.25h-2.15v-1.95Z"/>
        <path class="cls-1" d="m63.64,30.82h2.15c.3,0,.5.13.5.33v1.36c0,.15-.2.25-.5.25h-2.15v-1.95Z"/>
        <path class="cls-1" d="m65.79,30.82h2.15c.3,0,.5.13.5.33v1.36c0,.15-.2.25-.5.25h-2.15v-1.95Z"/>
        <path class="cls-1" d="m67.93,30.82h2.15c.3,0,.5.13.5.33v1.36c0,.15-.2.25-.5.25h-2.15v-1.95Z"/>
        <path class="cls-1" d="m72.02,30.67l-.05.18c-.48,1.6-1.08,1.91-1.9,1.91v-1.95c1.08,0,1.76-.22,2.21-1.21l.17-.37h.22c.18.95.42,1.58,1.05,1.58.33,0,.5.17.5.5v.95c0,.33-.17.5-.5.5-.96,0-1.6-.85-1.7-2.1Zm-.23-2.3l-.92-.93.92-.91.73.75s.02.02.03.02l.76-.76.73.75c.12.12.12.23,0,.35l-.73.75-.76-.76s-.02.02-.03.02l-.73.75Zm.78-1.58l-.9-.92.9-.91.75.75c.12.12.12.23,0,.35l-.75.73Z"/>
        <path class="cls-1" d="m73.74,30.82h2.15c.3,0,.5.13.5.33v1.36c0,.15-.2.25-.5.25h-2.15v-1.95Z"/>
        <path class="cls-1" d="m75.88,30.82h2.15c.3,0,.5.13.5.33v1.36c0,.15-.2.25-.5.25h-2.15v-1.95Z"/>
        <path class="cls-1" d="m78.03,30.82h2.15c.3,0,.5.13.5.33v1.36c0,.15-.2.25-.5.25h-2.15v-1.95Z"/>
        <path class="cls-1" d="m80.17,30.82h2.15c.3,0,.5.13.5.33v1.36c0,.15-.2.25-.5.25h-2.15v-1.95Z"/>
        <path class="cls-1" d="m82.32,30.82h2.15c.3,0,.5.13.5.33v1.36c0,.15-.2.25-.5.25h-2.15v-1.95Z"/>
        <path class="cls-1" d="m86.36,24.08l.2.08-.13.58,1.35.96-.67,1.3v2.05c0,.52-.22,1.13-.75,2.18-.18.38-.8,1.53-1.9,1.53v-1.95c.55,0,1.13-.12,1.68-.33v-3.74c-.57-.38-.7-.88-.38-1.5l.6-1.16Z"/>
        <path class="cls-1" d="m88.74,33.26h-.22v-7.57l.83-1.58h.22v6.3c0,.55-.1,1.08-.32,1.6l-.52,1.25Z"/>
        <path class="cls-1" d="m99.97,29.31c-.18-.3-.33-.52-.9-.52-1.1,0-2.1.81-2.1,1.21,0,.15.12.23.58.3l2.08.23c.53.07.63.47.58.95l-.08,1.03c-.17,1.76-1.85,2.74-3.71,2.74s-2.88-.95-2.88-2.83c0-1.03.32-2.3.55-3.01l.22.08c-.12.3-.33,1.08-.33,1.76,0,1.6,1.26,2.05,2.89,2.05,1.45,0,2.68-.35,3.03-.88l-2.23-.23c-.8-.08-.98-.72-.96-1.46.02-1.68.98-3.84,2.66-3.84,1.38,0,1.01,1.48.76,2.38l-.17.03Zm-4.22,8.57l-.92-.93.92-.92.73.75s.02.02.03.02l.77-.77.73.75c.12.12.12.23,0,.35l-.73.75-.77-.77s-.02.02-.03.02l-.73.75Z"/>
        <path class="cls-1" d="m105.06,30.82c.33,0,.5.17.5.5v.95c0,.33-.17.5-.5.5h-.6c-.22,1.15-.68,2.05-1.28,2.74l-3.34-.55v-.22c1.98-.63,3.79-1.33,4.37-1.98-2.68-.02-3.31-.48-2.71-2.88.25-.98.65-2.06,1.48-2.06,1.11,0,1.5,1.68,1.58,2.99h.5Zm-3.31-.72c-.17.57.78.7,2.11.72-.37-.72-.87-1.2-1.4-1.2-.5,0-.67.32-.71.48Z"/>
        <path class="cls-1" d="m105.06,30.82h2.15c.3,0,.5.13.5.33v1.36c0,.15-.2.25-.5.25h-2.15v-1.95Z"/>
        <path class="cls-1" d="m107.2,30.82h2.15c.3,0,.5.13.5.33v1.36c0,.15-.2.25-.5.25h-2.15v-1.95Z"/>
        <path class="cls-1" d="m109.35,30.82h2.15c.3,0,.5.13.5.33v1.36c0,.15-.2.25-.5.25h-2.15v-1.95Z"/>
        <path class="cls-1" d="m111.5,30.82h2.15c.3,0,.5.13.5.33v1.36c0,.15-.2.25-.5.25h-2.15v-1.95Z"/>
        <path class="cls-1" d="m113.64,30.82h2.15c.3,0,.5.13.5.33v1.36c0,.15-.2.25-.5.25h-2.15v-1.95Z"/>
        <path class="cls-1" d="m115.79,30.82h2.15c.3,0,.5.13.5.33v1.36c0,.15-.2.25-.5.25h-2.15v-1.95Z"/>
        <path class="cls-1" d="m117.93,30.82h2.15c.3,0,.5.13.5.33v1.36c0,.15-.2.25-.5.25h-2.15v-1.95Z"/>
        <path class="cls-1" d="m122.03,30.67l-.05.18c-.48,1.6-1.08,1.91-1.9,1.91v-1.95c1.08,0,1.76-.22,2.21-1.21l.17-.37h.22c.18.95.42,1.58,1.05,1.58.33,0,.5.17.5.5v.95c0,.33-.17.5-.5.5-.96,0-1.6-.85-1.7-2.1Zm.55-2.38l-1.03-1.03,1.03-1.01.83.82c.13.15.13.27,0,.42l-.83.81Z"/>
        <path class="cls-1" d="m123.74,30.82h2.15c.3,0,.5.13.5.33v1.36c0,.15-.2.25-.5.25h-2.15v-1.95Z"/>
        <path class="cls-1" d="m125.88,30.82h2.15c.3,0,.5.13.5.33v1.36c0,.15-.2.25-.5.25h-2.15v-1.95Z"/>
        <path class="cls-1" d="m128.03,30.82h2.15c.3,0,.5.13.5.33v1.36c0,.15-.2.25-.5.25h-2.15v-1.95Z"/>
        <path class="cls-1" d="m130.18,30.82h2.15c.3,0,.5.13.5.33v1.36c0,.15-.2.25-.5.25h-2.15v-1.95Z"/>
        <path class="cls-1" d="m132.32,30.82h2.15c.3,0,.5.13.5.33v1.36c0,.15-.2.25-.5.25h-2.15v-1.95Z"/>
        <path class="cls-1" d="m136.71,29.02l.32.08-.42,1.31c.53.27,1.1.4,1.66.4.67,0,.8-.2,1.03-.78l.4-1,.32.08-.45,1.46.78.22c.2.07.37.08.52.08.2,0,.33-.05.43-.17l-.63-1.25.73-1.45.22.02.78,1.95c.23.63.4.83.85.83.33,0,.5.17.5.5v.95c0,.33-.17.5-.5.5-.77,0-1.13-.42-1.53-1.21l-.22-.43-.25.86c-.17.55-.38.9-1.05.81-.22,0-.83-.22-1.31-.5-.22.3-.52.47-.95.47-.65,0-1.33-.37-1.81-1-.4.83-.88,1-1.66,1v-1.95c.96,0,1.56-.15,1.9-.98l.35-.81Z"/>
        <path class="cls-1" d="m143.27,30.82h2.15c.3,0,.5.13.5.33v1.36c0,.15-.2.25-.5.25h-2.15v-1.95Z"/>
        <path class="cls-1" d="m145.41,30.82h2.15c.3,0,.5.13.5.33v1.36c0,.15-.2.25-.5.25h-2.15v-1.95Z"/>
        <path class="cls-1" d="m147.56,30.82h2.15c.3,0,.5.13.5.33v1.36c0,.15-.2.25-.5.25h-2.15v-1.95Z"/>
        <path class="cls-1" d="m151.6,24.08l.2.08-.13.58,1.35.96-.67,1.3v2.05c0,.52-.22,1.13-.75,2.18-.18.38-.8,1.53-1.9,1.53v-1.95c.55,0,1.13-.12,1.68-.33v-3.74c-.57-.38-.7-.88-.38-1.5l.6-1.16Z"/>
        <path class="cls-1" d="m153.98,33.26h-.22v-7.57l.83-1.58h.22v6.3c0,.55-.1,1.08-.32,1.6l-.52,1.25Z"/>
      </g>
      <g>
        <path class="cls-1" d="m3.48,42.81h1.23l3.44,7.99h-1.63l-.75-1.83h-3.47l-.72,1.83H0l3.48-7.99Zm1.81,4.95l-1.23-3.25-1.25,3.25h2.48Z"/>
        <path class="cls-1" d="m8.92,45.38h1.29v.87h.02c.13-.27.32-.51.59-.71.26-.2.62-.3,1.07-.3.36,0,.67.06.92.18.25.12.46.28.62.47.16.2.27.42.34.68.07.26.1.52.1.8v3.42h-1.35v-2.74c0-.15,0-.32-.02-.5-.02-.18-.05-.36-.12-.52-.06-.16-.16-.3-.3-.41-.14-.11-.32-.16-.55-.16s-.42.04-.57.11c-.15.08-.28.18-.38.3-.1.13-.17.27-.22.44s-.07.34-.07.52v2.96h-1.36v-5.42Z"/>
        <path class="cls-1" d="m15.4,45.38h1.29v.87h.02c.13-.27.32-.51.59-.71.26-.2.62-.3,1.07-.3.36,0,.67.06.92.18.25.12.46.28.62.47.16.2.27.42.34.68.07.26.1.52.1.8v3.42h-1.35v-2.74c0-.15,0-.32-.02-.5-.02-.18-.05-.36-.12-.52-.06-.16-.16-.3-.3-.41-.14-.11-.32-.16-.55-.16s-.42.04-.57.11c-.15.08-.28.18-.38.3-.1.13-.17.27-.22.44s-.07.34-.07.52v2.96h-1.36v-5.42Z"/>
        <path class="cls-1" d="m26.83,50.8h-1.29v-.87h-.02c-.13.27-.32.51-.59.71-.26.2-.62.3-1.07.3-.36,0-.67-.06-.92-.17s-.46-.27-.62-.47c-.16-.2-.27-.43-.34-.68-.07-.26-.1-.52-.1-.8v-3.42h1.36v2.74c0,.15,0,.32.02.5.01.18.05.36.12.52.06.16.16.3.29.41s.32.16.56.16c.23,0,.42-.04.57-.11s.28-.18.38-.3.17-.27.22-.44c.04-.17.07-.34.07-.52v-2.96h1.35v5.42Z"/>
        <path class="cls-1" d="m31.75,50.06h-.03c-.2.32-.44.54-.75.68-.3.14-.63.2-.99.2-.25,0-.49-.03-.73-.1-.24-.07-.45-.17-.63-.3-.18-.14-.33-.3-.45-.51-.11-.2-.17-.44-.17-.71,0-.29.05-.54.16-.75s.25-.38.42-.52c.18-.14.38-.25.62-.33.23-.08.48-.15.73-.19.25-.04.51-.07.76-.08s.5-.02.72-.02h.34v-.15c0-.34-.12-.59-.35-.76-.23-.17-.53-.25-.89-.25-.29,0-.55.05-.8.15s-.46.24-.64.41l-.71-.71c.3-.32.65-.54,1.06-.67.4-.13.82-.2,1.25-.2.38,0,.71.04.97.13.26.09.48.2.65.33.17.14.31.29.4.47.09.18.16.36.2.54.04.18.07.36.07.52,0,.17.01.32.01.45v3.12h-1.22v-.75Zm-.08-1.68h-.28c-.19,0-.4,0-.63.02s-.45.05-.66.11c-.21.06-.38.14-.53.25-.14.11-.21.26-.21.45,0,.13.03.24.08.32.06.09.13.16.22.22.09.06.19.1.3.13.11.03.23.04.34.04.47,0,.82-.11,1.04-.33.22-.22.33-.52.33-.91v-.31Z"/>
        <path class="cls-1" d="m34.45,42.27h1.36v8.54h-1.36v-8.54Z"/>
        <path class="cls-1" d="m40.28,42.81h1.42v7.99h-1.42v-7.99Z"/>
        <path class="cls-1" d="m43.32,45.38h1.29v.87h.02c.13-.27.32-.51.59-.71.26-.2.62-.3,1.07-.3.36,0,.67.06.92.18.25.12.46.28.62.47.16.2.27.42.34.68.07.26.1.52.1.8v3.42h-1.35v-2.74c0-.15,0-.32-.02-.5-.02-.18-.05-.36-.12-.52-.06-.16-.16-.3-.3-.41-.14-.11-.32-.16-.55-.16s-.42.04-.57.11c-.15.08-.28.18-.38.3-.1.13-.17.27-.22.44s-.07.34-.07.52v2.96h-1.36v-5.42Z"/>
        <path class="cls-1" d="m49.07,45.38h1.48l1.45,3.79h.02l1.46-3.79h1.39l-2.13,5.42h-1.45l-2.21-5.42Z"/>
        <path class="cls-1" d="m56.75,48.57c.04.41.2.72.47.95.27.23.6.34.98.34.34,0,.62-.07.85-.21.23-.14.43-.31.6-.52l.97.73c-.32.39-.67.67-1.06.84-.39.17-.8.25-1.23.25-.41,0-.79-.07-1.15-.2-.36-.14-.67-.33-.94-.58-.26-.25-.47-.55-.63-.9-.15-.35-.23-.74-.23-1.17s.08-.82.23-1.17.36-.65.63-.9c.26-.25.58-.44.94-.58.36-.14.75-.2,1.15-.2.38,0,.72.07,1.03.2s.58.32.8.57c.22.25.4.56.52.92.12.37.19.78.19,1.26v.37h-4.13Zm2.78-1.02c0-.41-.13-.72-.37-.95-.24-.23-.58-.34-1-.34-.41,0-.73.12-.97.35s-.38.55-.43.94h2.78Z"/>
        <path class="cls-1" d="m65.04,46.89c-.26-.37-.61-.55-1.06-.55-.18,0-.36.04-.53.14-.17.09-.26.24-.26.44,0,.17.07.29.21.36.14.08.32.14.54.19.22.05.45.11.71.16.25.06.49.14.71.26.22.12.4.28.54.48.14.2.21.48.21.84,0,.32-.07.6-.21.82-.14.22-.32.4-.54.54-.22.14-.47.23-.75.29-.28.06-.56.09-.84.09-.43,0-.82-.06-1.17-.18-.35-.12-.66-.34-.94-.66l.9-.85c.17.2.36.36.56.48.2.12.44.19.73.19.1,0,.2-.01.3-.03s.2-.06.29-.11c.09-.05.16-.12.22-.2s.08-.17.08-.28c0-.19-.07-.33-.21-.42-.14-.09-.32-.16-.54-.22-.22-.06-.45-.11-.71-.16-.25-.05-.49-.13-.71-.24-.22-.11-.4-.26-.54-.46s-.21-.47-.21-.81c0-.3.06-.56.19-.78.12-.22.29-.4.49-.55s.44-.25.7-.32.53-.1.8-.1c.36,0,.72.06,1.07.19.35.12.64.34.86.64l-.9.81Z"/>
        <path class="cls-1" d="m66.53,46.54v-1.15h1.12v-1.57h1.36v1.57h1.49v1.15h-1.49v2.37c0,.27.05.49.15.64.1.16.3.24.6.24.12,0,.25-.01.4-.04s.26-.07.34-.13v1.14c-.14.07-.32.11-.53.14-.21.03-.39.04-.55.04-.36,0-.66-.04-.89-.12s-.41-.2-.54-.36c-.13-.16-.22-.36-.27-.6-.05-.24-.07-.52-.07-.84v-2.48h-1.12Z"/>
        <path class="cls-1" d="m71.28,48.09c0-.43.08-.82.23-1.17s.36-.65.63-.9c.26-.25.58-.44.94-.58.36-.14.75-.2,1.15-.2s.79.07,1.15.2c.36.14.67.33.94.58.26.25.47.55.63.9s.23.74.23,1.17-.08.82-.23,1.17c-.15.35-.36.65-.63.9s-.58.44-.94.58c-.36.14-.75.2-1.15.2s-.79-.07-1.15-.2c-.36-.14-.67-.33-.94-.58-.26-.25-.47-.55-.63-.9-.15-.35-.23-.74-.23-1.17Zm1.35,0c0,.21.04.41.11.61s.18.37.32.52c.14.15.31.27.5.36.2.09.42.14.67.14s.47-.04.67-.14c.2-.09.36-.21.5-.36.14-.15.24-.32.32-.52.07-.2.11-.4.11-.61s-.04-.41-.11-.61c-.07-.2-.18-.37-.32-.52s-.31-.27-.5-.36c-.2-.09-.42-.14-.67-.14s-.47.05-.67.14c-.2.09-.36.21-.5.36-.14.15-.25.32-.32.52s-.11.4-.11.61Z"/>
        <path class="cls-1" d="m78.44,45.38h1.36v.86h.02c.15-.32.37-.56.64-.73s.6-.26.96-.26c.08,0,.16,0,.24.02.08.02.16.03.24.06v1.31c-.11-.03-.22-.05-.33-.07-.11-.02-.22-.03-.32-.03-.32,0-.57.06-.76.18-.19.12-.34.25-.44.4-.1.15-.17.3-.2.45-.03.15-.05.26-.05.34v2.9h-1.36v-5.42Z"/>
        <path class="cls-1" d="m85.78,42.81h5.16v1.29h-3.74v2.1h3.52v1.29h-3.52v3.32h-1.42v-7.99Z"/>
        <path class="cls-1" d="m91.86,48.09c0-.43.08-.82.23-1.17s.36-.65.63-.9c.26-.25.58-.44.94-.58.36-.14.75-.2,1.15-.2s.79.07,1.15.2c.36.14.67.33.94.58.26.25.47.55.63.9s.23.74.23,1.17-.08.82-.23,1.17c-.15.35-.36.65-.63.9s-.58.44-.94.58c-.36.14-.75.2-1.15.2s-.79-.07-1.15-.2c-.36-.14-.67-.33-.94-.58-.26-.25-.47-.55-.63-.9-.15-.35-.23-.74-.23-1.17Zm1.35,0c0,.21.04.41.11.61s.18.37.32.52c.14.15.31.27.5.36.2.09.42.14.67.14s.47-.04.67-.14c.2-.09.36-.21.5-.36.14-.15.24-.32.32-.52.07-.2.11-.4.11-.61s-.04-.41-.11-.61c-.07-.2-.18-.37-.32-.52s-.31-.27-.5-.36c-.2-.09-.42-.14-.67-.14s-.47.05-.67.14c-.2.09-.36.21-.5.36-.14.15-.25.32-.32.52s-.11.4-.11.61Z"/>
        <path class="cls-1" d="m99.02,45.38h1.36v.86h.02c.15-.32.37-.56.64-.73s.6-.26.96-.26c.08,0,.16,0,.24.02.08.02.16.03.24.06v1.31c-.11-.03-.22-.05-.33-.07-.11-.02-.22-.03-.32-.03-.32,0-.57.06-.76.18-.19.12-.34.25-.44.4-.1.15-.17.3-.2.45-.03.15-.05.26-.05.34v2.9h-1.36v-5.42Z"/>
        <path class="cls-1" d="m108.36,50.8h-1.29v-.87h-.02c-.13.27-.32.51-.59.71-.26.2-.62.3-1.07.3-.36,0-.67-.06-.92-.17s-.46-.27-.62-.47c-.16-.2-.27-.43-.34-.68-.07-.26-.1-.52-.1-.8v-3.42h1.36v2.74c0,.15,0,.32.02.5.01.18.05.36.12.52.06.16.16.3.29.41s.32.16.56.16c.23,0,.42-.04.57-.11s.28-.18.38-.3.17-.27.22-.44c.04-.17.07-.34.07-.52v-2.96h1.35v5.42Z"/>
        <path class="cls-1" d="m109.84,45.38h1.29v.85h.02c.12-.26.31-.48.58-.68s.63-.3,1.08-.3c.84,0,1.41.33,1.69,1,.2-.35.44-.6.73-.76.29-.16.64-.24,1.05-.24.36,0,.67.06.92.18.25.12.45.29.6.5.15.21.27.46.33.74.07.28.1.59.1.91v3.23h-1.35v-3.07c0-.17-.01-.33-.04-.48s-.08-.29-.16-.41-.18-.21-.3-.28c-.13-.07-.29-.1-.5-.1s-.39.04-.54.12-.27.18-.36.32c-.09.13-.16.28-.2.45-.04.17-.06.34-.06.51v2.94h-1.35v-3.23c0-.34-.07-.61-.21-.81-.14-.2-.38-.3-.72-.3-.23,0-.42.04-.57.11s-.28.18-.38.3-.18.27-.22.44-.07.34-.07.52v2.96h-1.36v-5.42Z"/>
        <path class="cls-1" d="m120.17,49.25h1.38l-.96,2.98h-1.21l.79-2.98Z"/>
        <path class="cls-1" d="m129.92,48.59c0,.32-.05.62-.15.91s-.25.55-.45.77c-.2.22-.45.4-.75.53-.3.13-.65.2-1.05.2-.64,0-1.16-.15-1.56-.44-.4-.29-.66-.76-.79-1.4l1.33-.32c.04.26.15.47.32.63.17.16.38.24.63.24.41,0,.68-.14.83-.41.15-.27.22-.65.22-1.13v-5.36h1.42v5.78Z"/>
        <path class="cls-1" d="m134.92,50.06h-.03c-.2.32-.44.54-.75.68-.3.14-.63.2-.99.2-.25,0-.49-.03-.73-.1-.24-.07-.45-.17-.63-.3-.18-.14-.33-.3-.45-.51-.11-.2-.17-.44-.17-.71,0-.29.05-.54.16-.75s.25-.38.42-.52c.18-.14.38-.25.62-.33.23-.08.48-.15.73-.19.25-.04.51-.07.76-.08s.5-.02.72-.02h.34v-.15c0-.34-.12-.59-.35-.76-.23-.17-.53-.25-.89-.25-.29,0-.55.05-.8.15s-.46.24-.64.41l-.71-.71c.3-.32.65-.54,1.06-.67.4-.13.82-.2,1.25-.2.38,0,.71.04.97.13.26.09.48.2.65.33.17.14.31.29.4.47.09.18.16.36.2.54.04.18.07.36.07.52,0,.17.01.32.01.45v3.12h-1.22v-.75Zm-.08-1.68h-.28c-.19,0-.4,0-.63.02s-.45.05-.66.11c-.21.06-.38.14-.53.25-.14.11-.21.26-.21.45,0,.13.03.24.08.32.06.09.13.16.22.22.09.06.19.1.3.13.11.03.23.04.34.04.47,0,.82-.11,1.04-.33.22-.22.33-.52.33-.91v-.31Z"/>
        <path class="cls-1" d="m137.21,49.55l2.9-3.06v-.02h-2.77v-1.08h4.4v1.23l-2.94,3.1h3.07v1.08h-4.67v-1.25Z"/>
        <path class="cls-1" d="m146.42,50.06h-.03c-.2.32-.44.54-.75.68-.3.14-.63.2-.99.2-.25,0-.49-.03-.73-.1-.24-.07-.45-.17-.63-.3-.18-.14-.33-.3-.45-.51-.11-.2-.17-.44-.17-.71,0-.29.05-.54.16-.75s.25-.38.42-.52c.18-.14.38-.25.62-.33.23-.08.48-.15.73-.19.25-.04.51-.07.76-.08s.5-.02.72-.02h.34v-.15c0-.34-.12-.59-.35-.76-.23-.17-.53-.25-.89-.25-.29,0-.55.05-.8.15s-.46.24-.64.41l-.71-.71c.3-.32.65-.54,1.06-.67.4-.13.82-.2,1.25-.2.38,0,.71.04.97.13.26.09.48.2.65.33.17.14.31.29.4.47.09.18.16.36.2.54.04.18.07.36.07.52,0,.17.01.32.01.45v3.12h-1.22v-.75Zm-.08-1.68h-.28c-.19,0-.4,0-.63.02s-.45.05-.66.11c-.21.06-.38.14-.53.25-.14.11-.21.26-.21.45,0,.13.03.24.08.32.06.09.13.16.22.22.09.06.19.1.3.13.11.03.23.04.34.04.47,0,.82-.11,1.04-.33.22-.22.33-.52.33-.91v-.31Z"/>
        <path class="cls-1" d="m149.1,45.38h1.29v.87h.02c.13-.27.32-.51.59-.71.26-.2.62-.3,1.07-.3.36,0,.67.06.92.18.25.12.46.28.62.47.16.2.27.42.34.68.07.26.1.52.1.8v3.42h-1.35v-2.74c0-.15,0-.32-.02-.5-.02-.18-.05-.36-.12-.52-.06-.16-.16-.3-.3-.41-.14-.11-.32-.16-.55-.16s-.42.04-.57.11c-.15.08-.28.18-.38.3-.1.13-.17.27-.22.44s-.07.34-.07.52v2.96h-1.36v-5.42Z"/>
      </g>
    </g>
  </g>
</svg>