<?xml version="1.0" encoding="UTF-8"?>
<svg id="Layer_2" data-name="Layer 2" xmlns="http://www.w3.org/2000/svg" viewBox="0 0 297.06 387.87">
  <defs>
    <style>
      .cls-1 {
        fill: #fff;
      }

      .cls-1, .cls-2 {
        stroke-width: 0px;
      }

      .cls-2 {
        fill: #00903e;
      }
    </style>
  </defs>
  <g id="Layer_1-2" data-name="Layer 1">
    <g>
      <polygon class="cls-2" points="0 261.58 241.57 19.71 297.06 14.4 280.62 284.98 89.08 387.87 0 261.58"/>
      <g>
        <path class="cls-1" d="m246.89,125.9l-116.29,54.22-13.69,13.69,116.57-49.9-1.17-2.75,11.18-5.02c1.31-3.47,2.45-6.86,3.41-10.24Z"/>
        <path class="cls-1" d="m152.65,157.14c-3.9,4.55-8.35,9.28-13.34,14.26l-4.59,4.59,90.91-48.7-1.41-2.64,25.95-14.47c.42-3.31.64-6.55.7-9.77l-98.22,56.72Z"/>
        <path class="cls-2" d="m135.71,38.13l-2.68-1.36L150.81.06c-3.04-.11-6.1-.06-9.19.13l-40.62,87.13c4.74-3.55,9.46-6.41,14.18-8.59l20.53-40.61Z"/>
        <path class="cls-2" d="m129.18,74.16c2.11-.39,4.15-.63,6.21-.69l16.27-26.23-2.56-1.59L174.15,3.74c-.87-.26-1.75-.51-2.63-.74-1.93-.51-3.87-.95-5.87-1.3l-42.74,74.03c2.08-.67,4.17-1.19,6.27-1.57Z"/>
        <path class="cls-1" d="m169.15,133.8c-2.32,4.57-5.48,9.46-9.5,14.73l56.74-37.1-1.64-2.51,34.99-23.74c-.36-2.12-.77-4.21-1.3-6.29-.21-.82-.42-1.64-.68-2.44l-76.95,53.89c-.5,1.14-1.06,2.28-1.65,3.45Z"/>
        <path class="cls-2" d="m152.53,76.72l14.23-19.01-2.41-1.8,31.37-43.42c-2.49-1.37-5.05-2.62-7.67-3.75l-45.55,65.05c3.52.46,6.86,1.46,10.04,2.94Z"/>
        <path class="cls-1" d="m174.19,121.27l31.6-24.85-1.85-2.37,38.74-31.54c-1.17-2.62-2.47-5.18-3.91-7.7l-63.17,52.99c.41,4.12-.05,8.6-1.41,13.46Z"/>
        <path class="cls-2" d="m164.08,85c.51.51,1.01,1.05,1.5,1.56l15.3-17.1-2.25-1.99,36.14-41.79c-2.14-1.88-4.36-3.65-6.62-5.3l-50.01,59.63c2.04,1.43,4.03,3.09,5.94,5Z"/>
        <path class="cls-1" d="m174.16,100.93l19.76-18.54-2.05-2.18,38.81-37.68c-1.72-2.24-3.52-4.42-5.44-6.54l-55.64,55.64c2,2.97,3.53,6.07,4.58,9.3Z"/>
        <path class="cls-1" d="m189.86,208.73l14.97-14.97-84.96,14.98h-2.61l93.83-21.99c3.78-4.29,7.24-8.5,10.41-12.74l-113.81,30.53,120.34-39.49c3.22-4.76,6.12-9.48,8.59-14.1l-120.86,44.02-76.56,76.56,86.59-.65,1.31.65,6.33-6.34,1.23,4.89h8.22l-3.02-11.33,4.63-4.63,1.8-1.78,6.16,17.74h8.5l-8.63-23.79,3.64-3.64.09.21,2.75-1.17,12.74,28.38h8.96l-16.53-35.43.7-.7h-.03s2.28-2.28,2.28-2.28l1.81,3.36,2.66-1.4,20.31,36.46h9.57l-26.65-46.12,3.01-3.01,3.17,4.84,2.5-1.64,31.14,45.91h10.36l-39.64-56.64,2.4-2.4,3.27,4.16,2.36-1.87,46.18,56.75.21.25.32-.25,2.79-2.27,1.91,2.27h5.27v-1.14l-50.53-60.2h-9.48Zm-53.05,38.67h.04s-.03.03-.03.03v-.03Z"/>
        <polygon class="cls-1" points="203.93 208.73 247.84 253.99 249.87 252.02 249.87 243.63 214.97 208.73 203.93 208.73"/>
        <polygon class="cls-1" points="220.13 208.73 249.87 234.45 249.87 223.06 232.79 208.73 220.13 208.73"/>
      </g>
    </g>
  </g>
</svg>