<?xml version="1.0" encoding="UTF-8"?>
<svg id="Layer_2" data-name="Layer 2" xmlns="http://www.w3.org/2000/svg" viewBox="0 0 68.6 43.38">
  <defs>
    <style>
      .cls-1 {
        fill: #eab88b;
        stroke-width: 0px;
      }
    </style>
  </defs>
  <g id="Layer_1-2" data-name="Layer 1">
    <g>
      <path class="cls-1" d="m66.33.35c-10.66,8.85-21.32,17.7-32.03,26.58C23.61,18.05,12.94,9.2,2.27.35c.01-.1.02-.2.03-.31,21.3-.11,42.61.03,63.91,0,.04.1.08.2.12.3Z"/>
      <path class="cls-1" d="m1.97,43.02c.93-.87,1.81-1.66,2.64-2.48,6.02-5.99,12.03-12,18.04-18q.89-.89,1.82-.11c2.83,2.35,5.65,4.69,8.48,7.04,1.12.93,1.55.93,2.69-.01,2.9-2.4,5.81-4.79,8.68-7.21.56-.47.91-.47,1.43.06,6.84,6.86,13.7,13.69,20.55,20.53.06.06.11.14.16.21-.9.42-63.09.48-64.5-.02Z"/>
      <path class="cls-1" d="m68.6,2.3v38.5c-.19-.14-.33-.22-.44-.34-5.93-5.92-11.85-11.85-17.77-17.78-1.65-1.65-1.64-4.05.14-5.54,5.89-4.93,11.81-9.82,17.73-14.72.04-.03.11-.04.35-.12Z"/>
      <path class="cls-1" d="m0,2.13c.93.77,1.69,1.4,2.45,2.02,5.16,4.28,10.32,8.56,15.48,12.85,1.87,1.55,2.04,3.95.34,5.66C12.34,28.62,6.38,34.55.43,40.49c-.1.1-.22.17-.43.34V2.13Z"/>
    </g>
  </g>
</svg>