<?xml version="1.0" encoding="UTF-8"?>
<svg id="Layer_2" data-name="Layer 2" xmlns="http://www.w3.org/2000/svg" viewBox="0 0 34.32 43.15">
  <defs>
    <style>
      .cls-1 {
        fill: #fff;
      }

      .cls-1, .cls-2 {
        stroke-width: 0px;
      }

      .cls-2 {
        fill: #008e47;
      }
    </style>
  </defs>
  <g id="Layer_1-2" data-name="Layer 1">
    <g>
      <polygon class="cls-2" points="0 28.56 27.91 .61 34.32 0 32.42 31.26 10.29 43.15 0 28.56"/>
      <path class="cls-1" d="m15.36,8.72c-3.48,0-6.3,2.82-6.3,6.3s2.82,6.3,6.3,6.3,6.3-2.82,6.3-6.3c0-3.48-2.82-6.3-6.3-6.3Zm0,9.17c-1.58,0-2.86-1.28-2.86-2.86s1.28-2.86,2.86-2.86,2.86,1.28,2.86,2.86-1.28,2.86-2.86,2.86Zm0-16.04c-7.27,0-13.17,5.9-13.18,13.18,0,11.08,11.69,19.4,12.19,19.74.59.41,1.38.41,1.97,0,2.21-1.63,4.24-3.51,6.04-5.59,4.02-4.62,6.15-9.52,6.15-14.16,0-7.27-5.9-13.17-13.18-13.18Zm4.48,25.03c-1.37,1.57-2.87,3.02-4.48,4.32-1.62-1.31-3.12-2.75-4.48-4.32-2.39-2.77-5.26-7.08-5.26-11.85,0-5.38,4.36-9.74,9.74-9.74s9.74,4.36,9.74,9.74c0,4.77-2.86,9.08-5.26,11.85Z"/>
    </g>
  </g>
</svg>