<?xml version="1.0" encoding="UTF-8"?>
<svg id="Layer_2" data-name="Layer 2" xmlns="http://www.w3.org/2000/svg" viewBox="0 0 34.32 43.15">
  <defs>
    <style>
      .cls-1 {
        fill: #fff;
      }

      .cls-1, .cls-2 {
        stroke-width: 0px;
      }

      .cls-2 {
        fill: #008e47;
      }
    </style>
  </defs>
  <g id="Layer_1-2" data-name="Layer 1">
    <g>
      <polygon class="cls-2" points="0 28.56 27.91 .61 34.32 0 32.42 31.26 10.29 43.15 0 28.56"/>
      <path class="cls-1" d="m26.82,2.29h-2.86v-.57c0-.95-.77-1.72-1.72-1.72s-1.72.77-1.72,1.72v.57h-10.31v-.57c0-.95-.77-1.72-1.72-1.72s-1.72.77-1.72,1.72v.57h-2.86c-1.58,0-2.86,1.28-2.86,2.86v22.92c0,1.58,1.28,2.86,2.86,2.86h22.92c1.58,0,2.86-1.28,2.86-2.86V5.16c0-1.58-1.28-2.86-2.86-2.86ZM6.77,5.73c0,.95.77,1.72,1.72,1.72s1.72-.77,1.72-1.72h10.31c0,.95.77,1.72,1.72,1.72s1.72-.77,1.72-1.72h2.29v3.44H4.48v-3.44h2.29Zm-2.29,21.77v-14.9h21.77v14.9H4.48Z"/>
    </g>
  </g>
</svg>