<?xml version="1.0" encoding="UTF-8"?>
<svg id="Layer_2" data-name="Layer 2" xmlns="http://www.w3.org/2000/svg" viewBox="0 0 44.78 47.14">
  <defs>
    <style>
      .cls-1 {
        fill: #eab88b;
        stroke-width: 0px;
      }
    </style>
  </defs>
  <g id="Layer_1-2" data-name="Layer 1">
    <g id="B54ITj">
      <g>
        <path class="cls-1" d="m9.62,1.02c2.56,3.78,5.02,7.39,7.55,11.12-.47.36-.84.78-1.32.98-2.21.94-2.59,2.63-2.44,4.85.43,6.51,4.62,11.98,10.8,13.68.59.16,1.4-.09,1.99-.39.92-.47,1.74-1.15,2.69-1.8,2.62,3.86,5.16,7.61,7.83,11.54-2.91,1.94-5.74,3.97-8.71,5.75-1.53.91-3,.05-4.24-1.01-6.69-5.73-12.72-12.08-16.88-19.91-2.38-4.48-4.32-9.2-6.24-13.91C-.63,8.77-.08,7.56,2.75,5.66c2.25-1.52,4.49-3.03,6.88-4.64Z"/>
        <path class="cls-1" d="m44.78,15.09c.02,2.6-.65,4.97-2.32,6.95-.36.43-1.26.41-1.91.6,0-.67-.26-1.51.05-1.99,2.47-3.85,2.46-8.22-.32-12.28-2.66-3.9-6.22-6.05-11.16-5.28-.53.08-1.46-.3-1.65-.72-.42-.91.31-1.4,1.16-1.58,2.75-.58,5.44-.3,7.9,1.05,5.22,2.85,7.99,7.3,8.24,13.26Z"/>
        <path class="cls-1" d="m29.43,29.12c1.09-.75,1.95-1.34,3.01-2.07.73,1.04,1.45,2.06,2.15,3.09,1.21,1.79,2.46,3.55,3.61,5.38,1.14,1.82.79,3.5-.99,5.07-2.58-3.8-5.14-7.59-7.77-11.47Z"/>
        <path class="cls-1" d="m20.79,9.77c-1.05.71-1.99,1.34-3.07,2.07-2.53-3.73-4.99-7.36-7.46-11,1.65-1.27,3.53-1.12,4.77.57,1.99,2.7,3.81,5.53,5.75,8.36Z"/>
        <path class="cls-1" d="m38.63,15.85c-.29,1.11-.55,2.23-.89,3.32-.28.88-.92,1.6-1.83,1.02-.38-.24-.53-1.36-.34-1.92,1.31-3.81-.4-7.31-4.11-8.14-.53-.12-1.1-.14-1.65-.11-.91.05-1.69-.25-1.55-1.2.07-.46.92-1.09,1.46-1.14,4.71-.45,8.75,3.35,8.91,8.16Z"/>
        <path class="cls-1" d="m32.93,17.85c-.11.37-.22,1.23-.64,1.9-.23.37-1.07.71-1.45.56-.36-.14-.72-.96-.65-1.41.47-2.93.15-3.44-2.56-3.96-.45-.09-.8-.7-1.19-1.07.42-.41.79-1.1,1.26-1.18,2.66-.44,5.17,1.89,5.23,5.16Z"/>
      </g>
    </g>
  </g>
</svg>