<?xml version="1.0" encoding="UTF-8"?>
<svg id="Layer_2" data-name="Layer 2" xmlns="http://www.w3.org/2000/svg" viewBox="0 0 34.43 43.15">
  <defs>
    <style>
      .cls-1 {
        fill: #fff;
      }

      .cls-1, .cls-2 {
        stroke-width: 0px;
      }

      .cls-2 {
        fill: #008e47;
      }
    </style>
  </defs>
  <g id="Layer_1-2" data-name="Layer 1">
    <g>
      <polygon class="cls-2" points=".11 28.56 28.02 .61 34.43 0 32.53 31.26 10.4 43.15 .11 28.56"/>
      <path class="cls-1" d="m15.47,4.39C6.93,4.39,0,11.31,0,19.86s6.93,15.47,15.47,15.47,15.47-6.93,15.47-15.47c0-8.54-6.93-15.46-15.47-15.47Zm0,27.5c-6.65,0-12.03-5.39-12.03-12.03S8.82,7.82,15.47,7.82s12.03,5.39,12.03,12.03c0,6.64-5.39,12.03-12.03,12.03Zm9.74-12.03c0,.95-.77,1.72-1.72,1.72h-8.02c-.95,0-1.72-.77-1.72-1.72v-8.02c0-.95.77-1.72,1.72-1.72s1.72.77,1.72,1.72v6.3h6.3c.95,0,1.72.77,1.72,1.72Z"/>
    </g>
  </g>
</svg>