<?xml version="1.0" encoding="UTF-8"?>
<svg id="Layer_2" data-name="Layer 2" xmlns="http://www.w3.org/2000/svg" viewBox="0 0 1188.45 387.87">
  <defs>
    <style>
      .cls-1 {
        fill: #fff;
      }

      .cls-1, .cls-2 {
        stroke-width: 0px;
      }

      .cls-2 {
        fill: #00903e;
      }
    </style>
  </defs>
  <g id="Layer_1-2" data-name="Layer 1">
    <g>
      <polygon class="cls-2" points="891.39 261.58 1132.96 19.71 1188.45 14.4 1172.01 284.98 980.47 387.87 891.39 261.58"/>
      <g>
        <path class="cls-1" d="m1138.28,125.9l-116.29,54.22-13.69,13.69,116.57-49.9-1.17-2.75,11.18-5.02c1.31-3.47,2.45-6.86,3.41-10.24Z"/>
        <path class="cls-1" d="m1044.04,157.14c-3.9,4.55-8.35,9.28-13.34,14.26l-4.59,4.59,90.91-48.7-1.41-2.64,25.95-14.47c.42-3.31.64-6.55.7-9.77l-98.22,56.72Z"/>
        <path class="cls-2" d="m1027.1,38.13l-2.68-1.36L1042.2.06c-3.04-.11-6.1-.06-9.19.13l-40.62,87.13c4.74-3.55,9.46-6.41,14.18-8.59l20.53-40.61Z"/>
        <path class="cls-2" d="m1020.56,74.16c2.11-.39,4.15-.63,6.21-.69l16.27-26.23-2.56-1.59,25.04-41.9c-.87-.26-1.75-.51-2.63-.74-1.93-.51-3.87-.95-5.87-1.3l-42.74,74.03c2.08-.67,4.17-1.19,6.27-1.57Z"/>
        <path class="cls-1" d="m1060.54,133.8c-2.32,4.57-5.48,9.46-9.5,14.73l56.74-37.1-1.64-2.51,34.99-23.74c-.36-2.12-.77-4.21-1.3-6.29-.21-.82-.42-1.64-.68-2.44l-76.95,53.89c-.5,1.14-1.06,2.28-1.65,3.45Z"/>
        <path class="cls-2" d="m1043.91,76.72l14.23-19.01-2.41-1.8,31.37-43.42c-2.49-1.37-5.05-2.62-7.67-3.75l-45.55,65.05c3.52.46,6.86,1.46,10.04,2.94Z"/>
        <path class="cls-1" d="m1065.58,121.27l31.6-24.85-1.85-2.37,38.74-31.54c-1.17-2.62-2.47-5.18-3.91-7.7l-63.17,52.99c.41,4.12-.05,8.6-1.41,13.46Z"/>
        <path class="cls-2" d="m1055.46,85c.51.51,1.01,1.05,1.5,1.56l15.3-17.1-2.25-1.99,36.14-41.79c-2.14-1.88-4.36-3.65-6.62-5.3l-50.01,59.63c2.04,1.43,4.03,3.09,5.94,5Z"/>
        <path class="cls-1" d="m1065.55,100.93l19.76-18.54-2.05-2.18,38.81-37.68c-1.72-2.24-3.52-4.42-5.44-6.54l-55.64,55.64c2,2.97,3.53,6.07,4.58,9.3Z"/>
        <path class="cls-1" d="m1081.25,208.73l14.97-14.97-84.96,14.98h-2.61l93.83-21.99c3.78-4.29,7.24-8.5,10.41-12.74l-113.81,30.53,120.34-39.49c3.22-4.76,6.12-9.48,8.59-14.1l-120.86,44.02-76.56,76.56,86.59-.65,1.31.65,6.33-6.34,1.23,4.89h8.22l-3.02-11.33,4.63-4.63,1.8-1.78,6.16,17.74h8.5l-8.63-23.79,3.64-3.64.09.21,2.75-1.17,12.74,28.38h8.96l-16.53-35.43.7-.7h-.03s2.28-2.28,2.28-2.28l1.81,3.36,2.66-1.4,20.31,36.46h9.57l-26.65-46.12,3.01-3.01,3.17,4.84,2.5-1.64,31.14,45.91h10.36l-39.64-56.64,2.4-2.4,3.27,4.16,2.36-1.87,46.18,56.75.21.25.32-.25,2.79-2.27,1.91,2.27h5.27v-1.14l-50.53-60.2h-9.48Zm-53.05,38.67h.04s-.03.03-.03.03v-.03Z"/>
        <polygon class="cls-1" points="1095.32 208.73 1139.23 253.99 1141.26 252.02 1141.26 243.63 1106.36 208.73 1095.32 208.73"/>
        <polygon class="cls-1" points="1111.52 208.73 1141.26 234.45 1141.26 223.06 1124.18 208.73 1111.52 208.73"/>
      </g>
      <g>
        <path class="cls-1" d="m29.68,66.41h1.16l2.22,7.11c1.07,4,3.2,4.27,4.8,4.27,1.87,0,2.76.89,2.76,2.67v5.07c0,1.78-.89,2.67-2.67,2.67-2.49,0-4.27-.36-5.96-1.87-.71,9.51-7.56,14.85-16.89,14.85S.07,95.84.07,85.62c0-5.25,1.51-11.11,2.76-14.76l1.16.44c-.8,2.84-1.24,6.22-1.24,8.36,0,7.38,5.07,11.2,14.05,11.2,5.69,0,10.49-1.6,13.69-3.56l-4.98-11.91,4.18-8.98Zm-12.71,3.91l-5.51-5.51,5.51-5.42,4.45,4.36c.71.8.71,1.42,0,2.22l-4.45,4.36Z"/>
        <path class="cls-1" d="m38.03,77.79h11.47c1.6,0,2.67.71,2.67,1.78v7.29c0,.8-1.07,1.33-2.67,1.33h-11.47v-10.4Z"/>
        <path class="cls-1" d="m49.5,77.79h11.47c1.6,0,2.67.71,2.67,1.78v7.29c0,.8-1.07,1.33-2.67,1.33h-11.47v-10.4Z"/>
        <path class="cls-1" d="m60.97,77.79h11.47c1.6,0,2.67.71,2.67,1.78v7.29c0,.8-1.07,1.33-2.67,1.33h-11.47v-10.4Z"/>
        <path class="cls-1" d="m72.44,77.79h11.47c1.6,0,2.67.71,2.67,1.78v7.29c0,.8-1.07,1.33-2.67,1.33h-11.47v-10.4Z"/>
        <path class="cls-1" d="m86.66,102.24l-4.89-4.98,4.89-4.89,3.91,4c.09,0,.18.09.18.18l4.18-4.18,3.91,4c.62.62.62,1.24,0,1.87l-3.91,4-4.18-4.18c0,.09-.09.09-.18.18l-3.91,4Zm-2.76-24.45c4.45,0,8-.62,11.29-1.6l-6.13-8.09,5.07-7.56h1.16c2.76,6.76,3.2,10.76,1.07,16.89l-.27.71c-2.49,7.38-5.51,10.05-12.18,10.05v-10.4Z"/>
        <path class="cls-1" d="m110.04,86.33c0,6.05-2.76,11.29-7.91,16.72l-16.09-3.11v-1.16c10.58-2.93,17.34-6.67,22.32-12.54l-4.71-10.85,4.18-8.98h1.16l2.13,7.11c1.07,4,3.38,4.27,4.98,4.27,1.78,0,2.67.89,2.67,2.67v5.07c0,1.78-.89,2.67-2.67,2.67-2.4,0-4.36-.36-6.05-1.87Z"/>
        <path class="cls-1" d="m116.09,77.79h11.47c1.6,0,2.67.71,2.67,1.78v7.29c0,.8-1.07,1.33-2.67,1.33h-11.47v-10.4Z"/>
        <path class="cls-1" d="m127.56,77.79h11.47c1.6,0,2.67.71,2.67,1.78v7.29c0,.8-1.07,1.33-2.67,1.33h-11.47v-10.4Z"/>
        <path class="cls-1" d="m139.02,77.79h11.47c1.6,0,2.67.71,2.67,1.78v7.29c0,.8-1.07,1.33-2.67,1.33h-11.47v-10.4Z"/>
        <path class="cls-1" d="m176.63,84.73l-4.71,7.11-1.16.27-9.34-6.05c-1.24-.71-2.13-1.6-2.76-2.4-1.96,2.84-4.89,4.53-8.18,4.53v-10.4c3.38,0,5.51-.27,7.02-.8.8-2.49,2.67-4.89,4.8-6.76l10.22-8.89,1.16.18,5.96,12.54c1.16,2.49,2.4,3.73,4.27,3.73s2.67.89,2.67,2.67v5.07c0,1.78-.89,2.67-2.67,2.67-2.31,0-4.89-.71-7.29-3.47Zm-8.8-16.18l-4.36,3.47c-1.33,1.07-1.33,2.93.18,3.91l12,7.56c-.44-.62-.89-1.33-1.24-2.22l-6.58-12.71Z"/>
        <path class="cls-1" d="m183.92,77.79h11.47c1.6,0,2.67.71,2.67,1.78v7.29c0,.8-1.07,1.33-2.67,1.33h-11.47v-10.4Z"/>
        <path class="cls-1" d="m195.39,77.79h11.47c1.6,0,2.67.71,2.67,1.78v7.29c0,.8-1.07,1.33-2.67,1.33h-11.47v-10.4Z"/>
        <path class="cls-1" d="m217.26,76.99l-.27.98c-2.58,8.53-5.78,10.22-10.14,10.22v-10.4c5.78,0,9.42-1.16,11.82-6.49l.89-1.96h1.16c.98,5.07,2.22,8.45,5.6,8.45,1.78,0,2.67.89,2.67,2.67v5.07c0,1.78-.89,2.67-2.67,2.67-5.16,0-8.53-4.53-9.07-11.2Zm-1.24-12.27l-4.89-4.98,4.89-4.89,3.91,4c.09,0,.09.09.18.09l4.09-4.09,3.91,4c.62.62.62,1.24,0,1.87l-3.91,4-4.09-4.09c-.09,0-.09.09-.18.09l-3.91,4Zm4.18-8.45l-4.8-4.89,4.8-4.89,4,4c.62.62.62,1.24,0,1.87l-4,3.91Z"/>
        <path class="cls-1" d="m226.42,77.79h11.47c1.6,0,2.67.71,2.67,1.78v7.29c0,.8-1.07,1.33-2.67,1.33h-11.47v-10.4Z"/>
        <path class="cls-1" d="m237.88,77.79h11.47c1.6,0,2.67.71,2.67,1.78v7.29c0,.8-1.07,1.33-2.67,1.33h-11.47v-10.4Z"/>
        <path class="cls-1" d="m259.75,76.99l-.27.98c-2.58,8.53-5.78,10.22-10.14,10.22v-10.4c5.78,0,9.42-1.16,11.82-6.49l.89-1.96h1.16c.98,5.07,2.22,8.45,5.6,8.45,1.78,0,2.67.89,2.67,2.67v5.07c0,1.78-.89,2.67-2.67,2.67-5.16,0-8.53-4.53-9.07-11.2Zm-1.24-12.27l-4.89-4.98,4.89-4.89,3.91,4c.09,0,.09.09.18.09l4.09-4.09,3.91,4c.62.62.62,1.24,0,1.87l-3.91,4-4.09-4.09c-.09,0-.09.09-.18.09l-3.91,4Z"/>
        <path class="cls-1" d="m268.91,77.79h11.47c1.6,0,2.67.71,2.67,1.78v7.29c0,.8-1.07,1.33-2.67,1.33h-11.47v-10.4Z"/>
        <path class="cls-1" d="m280.38,77.79h11.47c1.6,0,2.67.71,2.67,1.78v7.29c0,.8-1.07,1.33-2.67,1.33h-11.47v-10.4Z"/>
        <path class="cls-1" d="m291.85,77.79h11.47c1.6,0,2.67.71,2.67,1.78v7.29c0,.8-1.07,1.33-2.67,1.33h-11.47v-10.4Z"/>
        <path class="cls-1" d="m315.32,68.19l1.69.44-2.22,7.02c2.84,1.42,5.87,2.13,8.89,2.13,3.56,0,4.27-1.07,5.51-4.18l2.13-5.33,1.69.44-2.4,7.82,4.18,1.16c1.07.36,1.96.44,2.76.44,1.07,0,1.78-.27,2.31-.89l-3.38-6.67,3.91-7.73,1.16.09,4.18,10.4c1.24,3.38,2.13,4.45,4.53,4.45,1.78,0,2.67.89,2.67,2.67v5.07c0,1.78-.89,2.67-2.67,2.67-4.09,0-6.05-2.22-8.18-6.49l-1.16-2.31-1.33,4.62c-.89,2.93-2.05,4.8-5.6,4.36-1.16,0-4.44-1.16-7.02-2.67-1.16,1.6-2.76,2.49-5.07,2.49-3.47,0-7.11-1.96-9.69-5.33-2.13,4.45-4.71,5.33-8.89,5.33v-10.4c5.16,0,8.36-.8,10.14-5.25l1.87-4.36Z"/>
        <path class="cls-1" d="m350.35,77.79h11.47c1.6,0,2.67.71,2.67,1.78v7.29c0,.8-1.07,1.33-2.67,1.33h-11.47v-10.4Z"/>
        <path class="cls-1" d="m361.81,77.79h11.47c1.6,0,2.67.71,2.67,1.78v7.29c0,.8-1.07,1.33-2.67,1.33h-11.47v-10.4Z"/>
        <path class="cls-1" d="m373.28,77.79h11.47c1.6,0,2.67.71,2.67,1.78v7.29c0,.8-1.07,1.33-2.67,1.33h-11.47v-10.4Z"/>
        <path class="cls-1" d="m384.75,77.79h11.47c1.6,0,2.67.71,2.67,1.78v7.29c0,.8-1.07,1.33-2.67,1.33h-11.47v-10.4Z"/>
        <path class="cls-1" d="m396.22,77.79h11.47c1.6,0,2.67.71,2.67,1.78v7.29c0,.8-1.07,1.33-2.67,1.33h-11.47v-10.4Z"/>
        <path class="cls-1" d="m433.83,84.73l-4.71,7.11-1.16.27-9.34-6.05c-1.24-.71-2.13-1.6-2.76-2.4-1.96,2.84-4.89,4.53-8.18,4.53v-10.4c3.38,0,5.51-.27,7.02-.8.8-2.49,2.67-4.89,4.8-6.76l10.22-8.89,1.16.18,5.96,12.54c1.16,2.49,2.4,3.73,4.27,3.73s2.67.89,2.67,2.67v5.07c0,1.78-.89,2.67-2.67,2.67-2.31,0-4.89-.71-7.29-3.47Zm-8.8-16.18l-4.36,3.47c-1.33,1.07-1.33,2.93.18,3.91l12,7.56c-.44-.62-.89-1.33-1.24-2.22l-6.58-12.71Z"/>
        <path class="cls-1" d="m441.11,77.79h11.47c1.6,0,2.67.71,2.67,1.78v7.29c0,.8-1.07,1.33-2.67,1.33h-11.47v-10.4Z"/>
        <path class="cls-1" d="m452.58,77.79h11.47c1.6,0,2.67.71,2.67,1.78v7.29c0,.8-1.07,1.33-2.67,1.33h-11.47v-10.4Z"/>
        <path class="cls-1" d="m464.05,77.79h11.47c1.6,0,2.67.71,2.67,1.78v7.29c0,.8-1.07,1.33-2.67,1.33h-11.47v-10.4Z"/>
        <path class="cls-1" d="m485.65,41.79l1.07.44-.71,3.11,7.2,5.16-3.56,6.93v10.94c0,2.76-1.16,6.05-4,11.65-.98,2.04-4.27,8.18-10.14,8.18v-10.4c2.93,0,6.05-.62,8.98-1.78v-20c-3.02-2.05-3.73-4.71-2.05-8l3.2-6.22Z"/>
        <path class="cls-1" d="m498.37,90.86h-1.16v-40.45l4.45-8.45h1.16v33.7c0,2.93-.53,5.78-1.69,8.53l-2.76,6.67Z"/>
        <path class="cls-1" d="m541.04,75.75c3.73,1.24,7.38,2.04,11.91,2.04l2.49.98v3.64c1.33.89,2.05,2.93,2.05,4.89,0,11.11-7.56,17.6-19.56,17.6-10.31,0-15.56-4.8-15.56-16.27,0-6.4,1.6-12.18,3.11-15.56l.98.44c-.62,1.69-1.87,5.69-1.87,9.42,0,7.38,4.71,11.65,15.02,11.65,6.76,0,13.25-1.87,16.36-4.62-1.24-.27-6.31-1.33-10.85-2.4-1.69-.27-3.38-.62-5.51-1.16l-.89-1.16,2.31-9.51Z"/>
        <path class="cls-1" d="m552.95,77.79h11.47c1.6,0,2.67.71,2.67,1.78v7.29c0,.8-1.07,1.33-2.67,1.33h-11.47v-10.4Z"/>
        <path class="cls-1" d="m564.42,77.79h11.47c1.6,0,2.67.71,2.67,1.78v7.29c0,.8-1.07,1.33-2.67,1.33h-11.47v-10.4Z"/>
        <path class="cls-1" d="m575.89,77.79h11.47c1.6,0,2.67.71,2.67,1.78v7.29c0,.8-1.07,1.33-2.67,1.33h-11.47v-10.4Z"/>
        <path class="cls-1" d="m587.36,77.79h11.47c1.6,0,2.67.71,2.67,1.78v7.29c0,.8-1.07,1.33-2.67,1.33h-11.47v-10.4Z"/>
        <path class="cls-1" d="m598.83,77.79h11.47c1.6,0,2.67.71,2.67,1.78v7.29c0,.8-1.07,1.33-2.67,1.33h-11.47v-10.4Z"/>
        <path class="cls-1" d="m624.16,84.02c-4.36,2.67-8.98,4.18-13.87,4.18v-10.4c2.84,0,6.05-.09,9.16-.35-.62-1.42-1.16-3.11-1.07-5.07,0-5.6,4.18-13.6,10.49-13.6,6.84,0,6.67,10.31,4.71,15.38-.53,1.16-1.16,2.31-1.96,3.38,1.96.18,3.91.27,5.69.27s2.67.89,2.67,2.67v5.07c0,1.78-.89,2.67-2.67,2.67-4.8,0-9.51-1.42-13.16-4.18Zm.18-29.96l-4.89-4.98,4.89-4.89,3.91,4c.09,0,.09.09.18.09l4.09-4.09,3.91,4c.62.62.62,1.24,0,1.87l-3.91,4-4.09-4.09c-.09,0-.09.09-.18.09l-3.91,4Zm2.31,22.32c2.13-.44,4-1.07,5.25-1.87-.26-2.49-1.69-5.16-3.38-6.4-3.38,0-6.13.8-8.8,2.31,1.33,3.11,3.91,4.98,6.93,5.96Z"/>
        <path class="cls-1" d="m637.32,77.79h11.47c1.6,0,2.67.71,2.67,1.78v7.29c0,.8-1.07,1.33-2.67,1.33h-11.47v-10.4Z"/>
        <path class="cls-1" d="m648.79,77.79h11.47c1.6,0,2.67.71,2.67,1.78v7.29c0,.8-1.07,1.33-2.67,1.33h-11.47v-10.4Z"/>
        <path class="cls-1" d="m660.26,77.79h11.47c1.6,0,2.67.71,2.67,1.78v7.29c0,.8-1.07,1.33-2.67,1.33h-11.47v-10.4Z"/>
        <path class="cls-1" d="m671.73,77.79h11.47c1.6,0,2.67.71,2.67,1.78v7.29c0,.8-1.07,1.33-2.67,1.33h-11.47v-10.4Z"/>
        <path class="cls-1" d="m693.6,76.99l-.27.98c-2.58,8.53-5.78,10.22-10.13,10.22v-10.4c5.78,0,9.42-1.16,11.82-6.49l.89-1.96h1.15c.98,5.07,2.22,8.45,5.6,8.45,1.78,0,2.67.89,2.67,2.67v5.07c0,1.78-.89,2.67-2.67,2.67-5.16,0-8.53-4.53-9.07-11.2Zm-1.24-12.27l-4.89-4.98,4.89-4.89,3.91,4c.09,0,.09.09.18.09l4.09-4.09,3.91,4c.62.62.62,1.24,0,1.87l-3.91,4-4.09-4.09c-.09,0-.09.09-.18.09l-3.91,4Z"/>
        <path class="cls-1" d="m702.75,77.79h11.47c1.6,0,2.67.71,2.67,1.78v7.29c0,.8-1.07,1.33-2.67,1.33h-11.47v-10.4Z"/>
        <path class="cls-1" d="m714.22,77.79h11.47c1.6,0,2.67.71,2.67,1.78v7.29c0,.8-1.07,1.33-2.67,1.33h-11.47v-10.4Z"/>
        <path class="cls-1" d="m725.69,77.79h11.47c1.6,0,2.67.71,2.67,1.78v7.29c0,.8-1.07,1.33-2.67,1.33h-11.47v-10.4Z"/>
        <path class="cls-1" d="m737.07,77.79c2.49,0,6.05-.27,7.73-1.33,1.16-.71,1.51-1.78,1.51-4.71v-21.43l4.44-8.45h1.16v29.16c0,4.89.71,6.76,4.53,6.76,1.87,0,2.67.89,2.67,2.67v5.07c0,1.78-.8,2.67-2.67,2.67-5.16,0-8.8-2.84-9.87-9.6-1.07,5.87-4.18,9.6-9.51,9.6v-10.4Z"/>
        <path class="cls-1" d="m756.54,77.79h11.47c1.6,0,2.67.71,2.67,1.78v7.29c0,.8-1.07,1.33-2.67,1.33h-11.47v-10.4Z"/>
        <path class="cls-1" d="m768.01,77.79h11.47c1.6,0,2.67.71,2.67,1.78v7.29c0,.8-1.07,1.33-2.67,1.33h-11.47v-10.4Z"/>
        <path class="cls-1" d="m779.48,77.79h11.47c1.6,0,2.67.71,2.67,1.78v7.29c0,.8-1.07,1.33-2.67,1.33h-11.47v-10.4Z"/>
        <path class="cls-1" d="m790.94,77.79h11.47c1.6,0,2.67.71,2.67,1.78v7.29c0,.8-1.07,1.33-2.67,1.33h-11.47v-10.4Z"/>
        <path class="cls-1" d="m829.35,72.9c.8,2.76-.44,5.78-1.69,8.62l-3.47,7.82-1.07.62-15.38-6.22-.18.36c-1.33,2.22-2.67,4.09-5.16,4.09v-10.4c4.98,0,7.47-.89,9.34-4.18l2.84-5.07c1.96-3.38,4.44-6.58,7.29-6.58.62,0,1.33.09,1.96.44,4.18,1.6,4.98,8.53,5.51,10.49Zm-16.27,1.87l12.18,4.8c-1.78-4.71-3.38-9.16-7.02-9.33-.71,0-2.58.09-4.44,3.29l-.71,1.24Z"/>
        <path class="cls-1" d="m38.48,152.71c3.02,7.47,4.18,11.73,4.09,16.71-.27,11.82-8.53,19.65-19.91,19.65-10.4,0-15.47-6.49-15.47-15.38,0-5.33,1.87-11.65,3.02-14.67l1.07.36c-.8,2.84-1.42,6.49-1.42,8.98,0,7.82,6.31,10.4,13.96,10.4,8.09,0,13.07-2.84,17.07-5.78l-8.71-12,5.07-8.27h1.24Zm-14.31,3.47l-5.51-5.51,5.51-5.42,4.45,4.36c.71.8.71,1.42,0,2.22l-4.45,4.36Z"/>
        <path class="cls-1" d="m50.57,177.78h-1.16v-40.45l4.45-8.45h1.16v33.7c0,2.93-.53,5.78-1.69,8.53l-2.76,6.67Z"/>
        <path class="cls-1" d="m64.53,189.87l-16.09-2.93v-1.24c11.65-3.02,20.54-9.07,23.65-17.78l-8.98-8.53,4.62-8.62h1.16c2.93,5.25,4.62,9.6,4.62,16.63,0,9.87-3.29,16.54-8.98,22.49Zm3.82-44.1l-5.51-5.51,5.51-5.42,4.45,4.36c.71.8.71,1.42,0,2.22l-4.45,4.36Z"/>
        <path class="cls-1" d="m79.55,162.76v-13.87c0-4.62-.8-7.38-1.51-9.69l5.51-10.4h1.16v32.27c0,2.76,2.4,3.64,5.07,3.64,1.69,0,2.67.98,2.67,2.67v5.07c0,1.69-.98,2.67-2.67,2.67-4.18,0-10.22-.71-10.22-12.36Z"/>
        <path class="cls-1" d="m89.77,164.71h11.47c1.6,0,2.67.71,2.67,1.78v7.29c0,.8-1.07,1.33-2.67,1.33h-11.47v-10.4Z"/>
        <path class="cls-1" d="m101.24,164.71h11.47c1.6,0,2.67.71,2.67,1.78v7.29c0,.8-1.07,1.33-2.67,1.33h-11.47v-10.4Z"/>
        <path class="cls-1" d="m112.71,164.71h11.47c1.6,0,2.67.71,2.67,1.78v7.29c0,.8-1.07,1.33-2.67,1.33h-11.47v-10.4Z"/>
        <path class="cls-1" d="m124.18,164.71h11.47c1.6,0,2.67.71,2.67,1.78v7.29c0,.8-1.07,1.33-2.67,1.33h-11.47v-10.4Z"/>
        <path class="cls-1" d="m135.65,175.11v-10.4h14.76c4.62,0,8.09-1.16,10.94-3.64-5.6-1.51-10.85-3.56-14.76-3.56-2.67,0-4.62.98-5.78,2.76l-.8-.44,2.4-5.25c2.22-4.71,4.71-6.58,8.36-6.58,6.31,0,12.8,5.33,22.32,5.42l2.58.09.8.89-3.38,8.27h-1.42c-2.31,0-4.71-.36-6.93-.8.18,2.22,1.87,2.84,3.64,2.84h9.25c1.78,0,2.67.89,2.67,2.67v5.07c0,1.78-.89,2.67-2.67,2.67h-5.42c-7.65,0-10.85-4.27-10.85-10.67v-1.51c-7.29,5.25-10.49,12.18-22.05,12.18h-3.64Zm23.92,16.36l-5.51-5.51,5.51-5.42,4.45,4.36c.71.8.71,1.42,0,2.22l-4.45,4.36Z"/>
        <path class="cls-1" d="m177.61,164.71c4.45,0,8-.62,11.29-1.6l-6.13-8.09,5.07-7.56h1.16c2.76,6.76,3.2,10.76,1.07,16.89l-.27.71c-2.49,7.38-5.51,10.05-12.18,10.05v-10.4Zm6.85,26.76l-5.51-5.51,5.51-5.42,4.45,4.36c.71.8.71,1.42,0,2.22l-4.45,4.36Z"/>
        <path class="cls-1" d="m227.48,162.67c3.73,1.24,7.38,2.04,11.91,2.04l2.49.98v3.64c1.33.89,2.05,2.93,2.05,4.89,0,11.11-7.56,17.6-19.56,17.6-10.31,0-15.56-4.8-15.56-16.27,0-6.4,1.6-12.18,3.11-15.56l.98.44c-.62,1.69-1.87,5.69-1.87,9.42,0,7.38,4.71,11.65,15.02,11.65,6.76,0,13.25-1.87,16.36-4.62-1.24-.27-6.31-1.33-10.85-2.4-1.69-.27-3.38-.62-5.51-1.16l-.89-1.16,2.31-9.51Zm-7.11,43.3l-4.89-4.98,4.89-4.89,3.91,4c.09,0,.09.09.18.09l4.09-4.09,3.91,4c.62.62.62,1.25,0,1.87l-3.91,4-4.09-4.09c-.09,0-.09.09-.18.09l-3.91,4Z"/>
        <path class="cls-1" d="m239.4,164.71h11.47c1.6,0,2.67.71,2.67,1.78v7.29c0,.8-1.07,1.33-2.67,1.33h-11.47v-10.4Z"/>
        <path class="cls-1" d="m250.86,164.71h11.47c1.6,0,2.67.71,2.67,1.78v7.29c0,.8-1.07,1.33-2.67,1.33h-11.47v-10.4Z"/>
        <path class="cls-1" d="m262.33,164.71h11.47c1.6,0,2.67.71,2.67,1.78v7.29c0,.8-1.07,1.33-2.67,1.33h-11.47v-10.4Z"/>
        <path class="cls-1" d="m273.8,164.71h11.47c1.6,0,2.67.71,2.67,1.78v7.29c0,.8-1.07,1.33-2.67,1.33h-11.47v-10.4Z"/>
        <path class="cls-1" d="m285.27,164.71c4.45,0,8-.62,11.29-1.6l-6.13-8.09,5.07-7.56h1.16c2.76,6.76,3.2,10.76,1.07,16.89l-.27.71c-2.49,7.38-5.51,10.05-12.18,10.05v-10.4Zm10.67-22.32l-5.51-5.51,5.51-5.42,4.44,4.36c.71.8.71,1.42,0,2.22l-4.44,4.36Z"/>
        <path class="cls-1" d="m306.96,162.76v-13.87c0-4.62-.8-7.38-1.51-9.69l5.51-10.4h1.16v32.27c0,2.76,2.4,3.64,5.07,3.64,1.69,0,2.67.98,2.67,2.67v5.07c0,1.69-.98,2.67-2.67,2.67-4.18,0-10.22-.71-10.22-12.36Z"/>
        <path class="cls-1" d="m317.18,164.71h11.47c1.6,0,2.67.71,2.67,1.78v7.29c0,.8-1.07,1.33-2.67,1.33h-11.47v-10.4Z"/>
        <path class="cls-1" d="m328.65,164.71h11.47c1.6,0,2.67.71,2.67,1.78v7.29c0,.8-1.07,1.33-2.67,1.33h-11.47v-10.4Z"/>
        <path class="cls-1" d="m340.12,164.71h11.47c1.6,0,2.67.71,2.67,1.78v7.29c0,.8-1.07,1.33-2.67,1.33h-11.47v-10.4Z"/>
        <path class="cls-1" d="m351.59,164.71h11.47c1.6,0,2.67.71,2.67,1.78v7.29c0,.8-1.07,1.33-2.67,1.33h-11.47v-10.4Z"/>
        <path class="cls-1" d="m363.06,164.71h11.47c1.6,0,2.67.71,2.67,1.78v7.29c0,.8-1.07,1.33-2.67,1.33h-11.47v-10.4Z"/>
        <path class="cls-1" d="m384.93,163.91l-.27.98c-2.58,8.53-5.78,10.22-10.14,10.22v-10.4c5.78,0,9.42-1.16,11.82-6.49l.89-1.96h1.16c.98,5.07,2.22,8.45,5.6,8.45,1.78,0,2.67.89,2.67,2.67v5.07c0,1.78-.89,2.67-2.67,2.67-5.16,0-8.53-4.53-9.07-11.2Zm-1.24-12.27l-4.89-4.98,4.89-4.89,3.91,4c.09,0,.09.09.18.09l4.09-4.09,3.91,4c.62.62.62,1.24,0,1.87l-3.91,4-4.09-4.09c-.09,0-.09.09-.18.09l-3.91,4Zm4.18-8.45l-4.8-4.89,4.8-4.89,4,4c.62.62.62,1.24,0,1.87l-4,3.91Z"/>
        <path class="cls-1" d="m394.08,164.71h11.47c1.6,0,2.67.71,2.67,1.78v7.29c0,.8-1.07,1.33-2.67,1.33h-11.47v-10.4Z"/>
        <path class="cls-1" d="m405.55,164.71h11.47c1.6,0,2.67.71,2.67,1.78v7.29c0,.8-1.07,1.33-2.67,1.33h-11.47v-10.4Z"/>
        <path class="cls-1" d="m417.02,164.71h11.47c1.6,0,2.67.71,2.67,1.78v7.29c0,.8-1.07,1.33-2.67,1.33h-11.47v-10.4Z"/>
        <path class="cls-1" d="m428.49,164.71h11.47c1.6,0,2.67.71,2.67,1.78v7.29c0,.8-1.07,1.33-2.67,1.33h-11.47v-10.4Z"/>
        <path class="cls-1" d="m439.96,164.71h11.47c1.6,0,2.67.71,2.67,1.78v7.29c0,.8-1.07,1.33-2.67,1.33h-11.47v-10.4Z"/>
        <path class="cls-1" d="m461.56,128.71l1.07.44-.71,3.11,7.2,5.16-3.56,6.93v10.94c0,2.76-1.16,6.05-4,11.65-.98,2.04-4.27,8.18-10.14,8.18v-10.4c2.93,0,6.05-.62,8.98-1.78v-20c-3.02-2.05-3.73-4.71-2.05-8l3.2-6.22Z"/>
        <path class="cls-1" d="m474.28,177.78h-1.16v-40.45l4.45-8.45h1.16v33.7c0,2.93-.53,5.78-1.69,8.53l-2.76,6.67Z"/>
        <path class="cls-1" d="m534.29,156.62c-.98-1.6-1.78-2.76-4.8-2.76-5.87,0-11.2,4.36-11.2,6.49,0,.8.62,1.24,3.11,1.6l11.11,1.24c2.84.36,3.38,2.49,3.11,5.07l-.44,5.51c-.89,9.42-9.87,14.67-19.83,14.67s-15.38-5.07-15.38-15.11c0-5.51,1.69-12.27,2.93-16.09l1.16.44c-.62,1.6-1.78,5.78-1.78,9.42,0,8.53,6.76,10.94,15.47,10.94,7.73,0,14.31-1.87,16.18-4.71l-11.91-1.24c-4.27-.44-5.25-3.82-5.16-7.82.09-8.98,5.25-20.54,14.22-20.54,7.38,0,5.42,7.91,4.09,12.71l-.89.18Zm-22.58,45.79l-4.89-4.98,4.89-4.89,3.91,4c.09,0,.09.09.18.09l4.09-4.09,3.91,4c.62.62.62,1.24,0,1.87l-3.91,4-4.09-4.09c-.09,0-.09.09-.18.09l-3.91,4Z"/>
        <path class="cls-1" d="m561.49,164.71c1.78,0,2.67.89,2.67,2.67v5.07c0,1.78-.89,2.67-2.67,2.67h-3.2c-1.16,6.13-3.64,10.94-6.85,14.67l-17.87-2.93v-1.16c10.58-3.38,20.27-7.11,23.38-10.58-14.31-.09-17.69-2.58-14.49-15.38,1.33-5.25,3.47-11.02,7.91-11.02,5.96,0,8,8.98,8.45,16h2.67Zm-17.69-3.82c-.89,3.02,4.18,3.73,11.29,3.82-1.96-3.82-4.62-6.4-7.47-6.4-2.67,0-3.56,1.69-3.82,2.58Z"/>
        <path class="cls-1" d="m561.49,164.71h11.47c1.6,0,2.67.71,2.67,1.78v7.29c0,.8-1.07,1.33-2.67,1.33h-11.47v-10.4Z"/>
        <path class="cls-1" d="m572.96,164.71h11.47c1.6,0,2.67.71,2.67,1.78v7.29c0,.8-1.07,1.33-2.67,1.33h-11.47v-10.4Z"/>
        <path class="cls-1" d="m584.43,164.71h11.47c1.6,0,2.67.71,2.67,1.78v7.29c0,.8-1.07,1.33-2.67,1.33h-11.47v-10.4Z"/>
        <path class="cls-1" d="m595.89,164.71h11.47c1.6,0,2.67.71,2.67,1.78v7.29c0,.8-1.07,1.33-2.67,1.33h-11.47v-10.4Z"/>
        <path class="cls-1" d="m607.36,164.71h11.47c1.6,0,2.67.71,2.67,1.78v7.29c0,.8-1.07,1.33-2.67,1.33h-11.47v-10.4Z"/>
        <path class="cls-1" d="m618.83,164.71h11.47c1.6,0,2.67.71,2.67,1.78v7.29c0,.8-1.07,1.33-2.67,1.33h-11.47v-10.4Z"/>
        <path class="cls-1" d="m630.3,164.71h11.47c1.6,0,2.67.71,2.67,1.78v7.29c0,.8-1.07,1.33-2.67,1.33h-11.47v-10.4Z"/>
        <path class="cls-1" d="m652.17,163.91l-.27.98c-2.58,8.53-5.78,10.22-10.13,10.22v-10.4c5.78,0,9.42-1.16,11.82-6.49l.89-1.96h1.15c.98,5.07,2.22,8.45,5.6,8.45,1.78,0,2.67.89,2.67,2.67v5.07c0,1.78-.89,2.67-2.67,2.67-5.16,0-8.53-4.53-9.07-11.2Zm2.93-12.71l-5.51-5.51,5.51-5.42,4.45,4.36c.71.8.71,1.42,0,2.22l-4.45,4.36Z"/>
        <path class="cls-1" d="m661.33,164.71h11.47c1.6,0,2.67.71,2.67,1.78v7.29c0,.8-1.07,1.33-2.67,1.33h-11.47v-10.4Z"/>
        <path class="cls-1" d="m672.79,164.71h11.47c1.6,0,2.67.71,2.67,1.78v7.29c0,.8-1.07,1.33-2.67,1.33h-11.47v-10.4Z"/>
        <path class="cls-1" d="m684.26,164.71h11.47c1.6,0,2.67.71,2.67,1.78v7.29c0,.8-1.07,1.33-2.67,1.33h-11.47v-10.4Z"/>
        <path class="cls-1" d="m695.73,164.71h11.47c1.6,0,2.67.71,2.67,1.78v7.29c0,.8-1.07,1.33-2.67,1.33h-11.47v-10.4Z"/>
        <path class="cls-1" d="m707.2,164.71h11.47c1.6,0,2.67.71,2.67,1.78v7.29c0,.8-1.07,1.33-2.67,1.33h-11.47v-10.4Z"/>
        <path class="cls-1" d="m730.67,155.11l1.69.44-2.22,7.02c2.84,1.42,5.87,2.13,8.89,2.13,3.56,0,4.27-1.07,5.51-4.18l2.13-5.33,1.69.44-2.4,7.82,4.18,1.16c1.07.36,1.96.44,2.76.44,1.07,0,1.78-.27,2.31-.89l-3.38-6.67,3.91-7.73,1.16.09,4.18,10.4c1.25,3.38,2.13,4.45,4.53,4.45,1.78,0,2.67.89,2.67,2.67v5.07c0,1.78-.89,2.67-2.67,2.67-4.09,0-6.04-2.22-8.18-6.49l-1.15-2.31-1.33,4.62c-.89,2.93-2.04,4.8-5.6,4.36-1.15,0-4.44-1.16-7.02-2.67-1.16,1.6-2.76,2.49-5.07,2.49-3.47,0-7.11-1.96-9.69-5.33-2.13,4.45-4.71,5.33-8.89,5.33v-10.4c5.16,0,8.36-.8,10.13-5.25l1.87-4.36Z"/>
        <path class="cls-1" d="m765.7,164.71h11.47c1.6,0,2.67.71,2.67,1.78v7.29c0,.8-1.07,1.33-2.67,1.33h-11.47v-10.4Z"/>
        <path class="cls-1" d="m777.17,164.71h11.47c1.6,0,2.67.71,2.67,1.78v7.29c0,.8-1.07,1.33-2.67,1.33h-11.47v-10.4Z"/>
        <path class="cls-1" d="m788.63,164.71h11.47c1.6,0,2.67.71,2.67,1.78v7.29c0,.8-1.07,1.33-2.67,1.33h-11.47v-10.4Z"/>
        <path class="cls-1" d="m810.24,128.71l1.07.44-.71,3.11,7.2,5.16-3.56,6.93v10.94c0,2.76-1.16,6.05-4,11.65-.98,2.04-4.27,8.18-10.13,8.18v-10.4c2.93,0,6.05-.62,8.98-1.78v-20c-3.02-2.05-3.73-4.71-2.04-8l3.2-6.22Z"/>
        <path class="cls-1" d="m822.95,177.78h-1.16v-40.45l4.45-8.45h1.15v33.7c0,2.93-.53,5.78-1.69,8.53l-2.76,6.67Z"/>
      </g>
      <g>
        <path class="cls-1" d="m18.59,228.8h6.58l18.41,42.72h-8.69l-3.98-9.78H12.37l-3.86,9.78H0l18.59-42.72Zm9.65,26.43l-6.58-17.38-6.7,17.38h13.28Z"/>
        <path class="cls-1" d="m47.67,242.56h6.88v4.65h.12c.68-1.45,1.73-2.71,3.14-3.77,1.41-1.07,3.32-1.6,5.73-1.6,1.93,0,3.57.32,4.92.96,1.35.64,2.44,1.49,3.29,2.53.85,1.05,1.45,2.25,1.81,3.62.36,1.37.54,2.8.54,4.28v18.28h-7.24v-14.66c0-.8-.04-1.7-.12-2.69-.08-.98-.29-1.91-.63-2.78-.34-.86-.88-1.59-1.6-2.17-.72-.58-1.71-.88-2.96-.88s-2.22.2-3.05.6c-.83.4-1.51.95-2.05,1.63-.54.69-.94,1.47-1.18,2.35-.24.89-.36,1.81-.36,2.78v15.81h-7.24v-28.97Z"/>
        <path class="cls-1" d="m82.31,242.56h6.88v4.65h.12c.68-1.45,1.73-2.71,3.14-3.77,1.41-1.07,3.32-1.6,5.73-1.6,1.93,0,3.57.32,4.92.96,1.35.64,2.44,1.49,3.29,2.53.85,1.05,1.45,2.25,1.81,3.62.36,1.37.54,2.8.54,4.28v18.28h-7.24v-14.66c0-.8-.04-1.7-.12-2.69-.08-.98-.29-1.91-.63-2.78-.34-.86-.88-1.59-1.6-2.17-.72-.58-1.71-.88-2.96-.88s-2.22.2-3.05.6c-.83.4-1.51.95-2.05,1.63-.54.69-.94,1.47-1.18,2.35-.24.89-.36,1.81-.36,2.78v15.81h-7.24v-28.97Z"/>
        <path class="cls-1" d="m143.38,271.53h-6.88v-4.65h-.12c-.69,1.45-1.73,2.71-3.14,3.77-1.41,1.07-3.32,1.6-5.73,1.6-1.93,0-3.57-.31-4.92-.94-1.35-.62-2.44-1.47-3.29-2.53-.85-1.06-1.45-2.28-1.81-3.65-.36-1.37-.54-2.8-.54-4.28v-18.28h7.24v14.66c0,.81.04,1.7.12,2.69.08.99.29,1.91.63,2.78.34.86.86,1.59,1.57,2.17.7.58,1.7.88,2.99.88,1.21,0,2.22-.2,3.05-.6.82-.4,1.51-.95,2.05-1.63s.94-1.47,1.18-2.35c.24-.88.36-1.81.36-2.78v-15.81h7.24v28.97Z"/>
        <path class="cls-1" d="m169.69,267.54h-.18c-1.05,1.69-2.37,2.9-3.98,3.62-1.61.72-3.38,1.09-5.31,1.09-1.33,0-2.63-.18-3.89-.54-1.27-.36-2.39-.91-3.38-1.63-.99-.72-1.78-1.63-2.38-2.72-.6-1.09-.9-2.35-.9-3.8,0-1.57.28-2.91.84-4.01.56-1.11,1.32-2.03,2.26-2.78.95-.74,2.04-1.34,3.29-1.78,1.25-.44,2.54-.77,3.89-1,1.35-.22,2.71-.36,4.07-.42,1.37-.06,2.66-.09,3.86-.09h1.81v-.78c0-1.81-.62-3.17-1.87-4.07-1.25-.91-2.84-1.36-4.77-1.36-1.53,0-2.96.27-4.28.81-1.33.54-2.47,1.28-3.44,2.2l-3.8-3.8c1.61-1.69,3.49-2.89,5.64-3.59,2.15-.7,4.38-1.06,6.67-1.06,2.05,0,3.78.23,5.19.69,1.41.46,2.57,1.06,3.5,1.78.93.72,1.64,1.56,2.14,2.5.5.95.86,1.9,1.09,2.87.22.97.35,1.9.39,2.81.04.91.06,1.7.06,2.38v16.66h-6.52v-3.98Zm-.42-8.99h-1.51c-1.01,0-2.13.04-3.38.12-1.25.08-2.42.27-3.53.57-1.11.3-2.04.75-2.81,1.36-.77.6-1.15,1.41-1.15,2.41,0,.68.15,1.26.45,1.72.3.46.69.86,1.18,1.18.48.32,1.03.55,1.63.69.6.14,1.21.21,1.81.21,2.53,0,4.38-.59,5.55-1.78,1.17-1.19,1.75-2.81,1.75-4.86v-1.63Z"/>
        <path class="cls-1" d="m184.11,225.91h7.24v45.62h-7.24v-45.62Z"/>
        <path class="cls-1" d="m215.25,228.8h7.6v42.72h-7.6v-42.72Z"/>
        <path class="cls-1" d="m231.55,242.56h6.88v4.65h.12c.68-1.45,1.73-2.71,3.14-3.77,1.41-1.07,3.32-1.6,5.73-1.6,1.93,0,3.57.32,4.92.96,1.35.64,2.44,1.49,3.29,2.53.85,1.05,1.45,2.25,1.81,3.62.36,1.37.54,2.8.54,4.28v18.28h-7.24v-14.66c0-.8-.04-1.7-.12-2.69-.08-.98-.29-1.91-.63-2.78-.34-.86-.88-1.59-1.6-2.17-.72-.58-1.71-.88-2.96-.88s-2.22.2-3.05.6c-.83.4-1.51.95-2.05,1.63-.54.69-.94,1.47-1.18,2.35-.24.89-.36,1.81-.36,2.78v15.81h-7.24v-28.97Z"/>
        <path class="cls-1" d="m262.26,242.56h7.91l7.72,20.28h.12l7.78-20.28h7.42l-11.41,28.97h-7.72l-11.83-28.97Z"/>
        <path class="cls-1" d="m303.3,259.58c.24,2.17,1.09,3.86,2.53,5.07,1.45,1.21,3.2,1.81,5.25,1.81,1.81,0,3.33-.37,4.56-1.12,1.23-.74,2.3-1.68,3.23-2.81l5.19,3.92c-1.69,2.09-3.58,3.58-5.67,4.47-2.09.88-4.28,1.33-6.58,1.33-2.17,0-4.22-.36-6.16-1.09-1.93-.72-3.6-1.75-5.01-3.08-1.41-1.33-2.52-2.93-3.35-4.8-.82-1.87-1.24-3.95-1.24-6.25s.41-4.38,1.24-6.25c.82-1.87,1.94-3.47,3.35-4.8,1.41-1.33,3.08-2.35,5.01-3.08,1.93-.72,3.98-1.09,6.16-1.09,2.01,0,3.85.35,5.52,1.06,1.67.7,3.1,1.72,4.28,3.05,1.19,1.33,2.11,2.97,2.78,4.92.66,1.95,1,4.19,1,6.73v1.99h-22.09Zm14.85-5.43c-.04-2.17-.7-3.86-1.99-5.07-1.29-1.21-3.08-1.81-5.37-1.81-2.17,0-3.89.62-5.16,1.87-1.27,1.25-2.04,2.92-2.32,5.01h14.85Z"/>
        <path class="cls-1" d="m347.59,250.59c-1.37-1.97-3.26-2.96-5.67-2.96-.97,0-1.91.24-2.84.72-.93.48-1.39,1.27-1.39,2.35,0,.89.38,1.53,1.15,1.93.76.4,1.73.74,2.9,1.03,1.17.28,2.42.57,3.77.88,1.35.3,2.6.76,3.77,1.39,1.17.62,2.13,1.48,2.9,2.56.76,1.09,1.15,2.58,1.15,4.47,0,1.73-.37,3.19-1.12,4.37-.75,1.19-1.71,2.14-2.9,2.87-1.19.72-2.53,1.25-4.01,1.57-1.49.32-2.98.48-4.47.48-2.29,0-4.38-.32-6.25-.97-1.87-.64-3.55-1.81-5.04-3.5l4.83-4.53c.93,1.05,1.92,1.9,2.99,2.56,1.06.66,2.36,1,3.89,1,.52,0,1.07-.06,1.63-.18s1.09-.32,1.57-.6c.48-.28.88-.63,1.18-1.06.3-.42.45-.92.45-1.48,0-1.01-.38-1.75-1.15-2.23-.77-.48-1.73-.87-2.9-1.18-1.17-.3-2.42-.58-3.77-.85-1.35-.26-2.6-.68-3.77-1.27-1.17-.58-2.13-1.4-2.9-2.44-.77-1.05-1.15-2.49-1.15-4.34,0-1.61.33-3.01,1-4.19.66-1.19,1.54-2.16,2.63-2.93,1.09-.76,2.33-1.33,3.74-1.69,1.41-.36,2.84-.54,4.29-.54,1.93,0,3.84.33,5.73,1,1.89.66,3.42,1.8,4.59,3.41l-4.83,4.34Z"/>
        <path class="cls-1" d="m355.56,248.72v-6.16h5.97v-8.39h7.24v8.39h7.97v6.16h-7.97v12.67c0,1.45.27,2.59.81,3.44.54.85,1.62,1.27,3.23,1.27.64,0,1.35-.07,2.11-.21.76-.14,1.37-.37,1.81-.69v6.1c-.77.36-1.7.61-2.81.75-1.11.14-2.08.21-2.93.21-1.93,0-3.51-.21-4.74-.63-1.23-.42-2.19-1.07-2.9-1.93-.7-.86-1.19-1.94-1.45-3.23-.26-1.29-.39-2.78-.39-4.47v-13.28h-5.97Z"/>
        <path class="cls-1" d="m380.96,257.04c0-2.29.41-4.38,1.24-6.25.82-1.87,1.94-3.47,3.35-4.8s3.08-2.35,5.01-3.08c1.93-.72,3.98-1.09,6.16-1.09s4.22.36,6.16,1.09c1.93.72,3.6,1.75,5.01,3.08,1.41,1.33,2.52,2.93,3.35,4.8.82,1.87,1.24,3.95,1.24,6.25s-.41,4.38-1.24,6.25c-.82,1.87-1.94,3.47-3.35,4.8-1.41,1.33-3.08,2.35-5.01,3.08-1.93.72-3.98,1.09-6.16,1.09s-4.22-.36-6.16-1.09c-1.93-.72-3.6-1.75-5.01-3.08s-2.52-2.93-3.35-4.8c-.82-1.87-1.24-3.95-1.24-6.25Zm7.24,0c0,1.13.19,2.21.57,3.26.38,1.05.95,1.97,1.69,2.78.74.8,1.64,1.45,2.68,1.93,1.05.48,2.23.72,3.56.72s2.51-.24,3.56-.72c1.04-.48,1.94-1.13,2.68-1.93s1.31-1.73,1.69-2.78c.38-1.04.57-2.13.57-3.26s-.19-2.21-.57-3.26-.95-1.97-1.69-2.78c-.74-.8-1.64-1.45-2.68-1.93-1.05-.48-2.23-.72-3.56-.72s-2.51.24-3.56.72c-1.05.48-1.94,1.13-2.68,1.93-.75.81-1.31,1.73-1.69,2.78s-.57,2.13-.57,3.26Z"/>
        <path class="cls-1" d="m419.22,242.56h7.24v4.59h.12c.8-1.69,1.95-3,3.44-3.92,1.49-.93,3.2-1.39,5.13-1.39.44,0,.87.04,1.3.12.42.08.85.18,1.3.3v7c-.6-.16-1.2-.29-1.78-.39-.58-.1-1.16-.15-1.72-.15-1.69,0-3.05.31-4.07.94s-1.81,1.34-2.35,2.14c-.54.81-.91,1.61-1.09,2.41-.18.8-.27,1.41-.27,1.81v15.51h-7.24v-28.97Z"/>
        <path class="cls-1" d="m458.45,228.8h27.58v6.88h-19.97v11.22h18.83v6.88h-18.83v17.74h-7.6v-42.72Z"/>
        <path class="cls-1" d="m490.97,257.04c0-2.29.41-4.38,1.24-6.25.82-1.87,1.94-3.47,3.35-4.8s3.08-2.35,5.01-3.08c1.93-.72,3.98-1.09,6.16-1.09s4.22.36,6.16,1.09c1.93.72,3.6,1.75,5.01,3.08,1.41,1.33,2.52,2.93,3.35,4.8.82,1.87,1.24,3.95,1.24,6.25s-.41,4.38-1.24,6.25c-.82,1.87-1.94,3.47-3.35,4.8-1.41,1.33-3.08,2.35-5.01,3.08-1.93.72-3.98,1.09-6.16,1.09s-4.22-.36-6.16-1.09c-1.93-.72-3.6-1.75-5.01-3.08s-2.52-2.93-3.35-4.8c-.82-1.87-1.24-3.95-1.24-6.25Zm7.24,0c0,1.13.19,2.21.57,3.26.38,1.05.95,1.97,1.69,2.78.74.8,1.64,1.45,2.68,1.93,1.05.48,2.23.72,3.56.72s2.51-.24,3.56-.72c1.04-.48,1.94-1.13,2.68-1.93s1.31-1.73,1.69-2.78c.38-1.04.57-2.13.57-3.26s-.19-2.21-.57-3.26-.95-1.97-1.69-2.78c-.74-.8-1.64-1.45-2.68-1.93-1.05-.48-2.23-.72-3.56-.72s-2.51.24-3.56.72c-1.05.48-1.94,1.13-2.68,1.93-.75.81-1.31,1.73-1.69,2.78s-.57,2.13-.57,3.26Z"/>
        <path class="cls-1" d="m529.23,242.56h7.24v4.59h.12c.8-1.69,1.95-3,3.44-3.92,1.49-.93,3.2-1.39,5.13-1.39.44,0,.87.04,1.3.12.42.08.85.18,1.3.3v7c-.6-.16-1.2-.29-1.78-.39-.58-.1-1.16-.15-1.72-.15-1.69,0-3.05.31-4.07.94-1.03.62-1.81,1.34-2.35,2.14-.54.81-.91,1.61-1.09,2.41s-.27,1.41-.27,1.81v15.51h-7.24v-28.97Z"/>
        <path class="cls-1" d="m579.14,271.53h-6.88v-4.65h-.12c-.69,1.45-1.73,2.71-3.14,3.77s-3.32,1.6-5.73,1.6c-1.93,0-3.57-.31-4.92-.94-1.35-.62-2.44-1.47-3.29-2.53-.85-1.06-1.45-2.28-1.81-3.65-.36-1.37-.54-2.8-.54-4.28v-18.28h7.24v14.66c0,.81.04,1.7.12,2.69.08.99.29,1.91.63,2.78.34.86.86,1.59,1.57,2.17.7.58,1.7.88,2.99.88,1.21,0,2.22-.2,3.05-.6.82-.4,1.51-.95,2.05-1.63s.94-1.47,1.18-2.35c.24-.88.36-1.81.36-2.78v-15.81h7.24v28.97Z"/>
        <path class="cls-1" d="m587.04,242.56h6.88v4.53h.12c.64-1.37,1.68-2.58,3.11-3.65,1.43-1.07,3.35-1.6,5.76-1.6,4.51,0,7.52,1.79,9.05,5.37,1.04-1.85,2.35-3.21,3.92-4.07,1.57-.86,3.44-1.3,5.61-1.3,1.93,0,3.56.32,4.89.96,1.33.64,2.4,1.53,3.23,2.66.82,1.13,1.42,2.44,1.78,3.95.36,1.51.54,3.13.54,4.86v17.26h-7.24v-16.41c0-.88-.08-1.74-.24-2.57-.16-.82-.44-1.55-.85-2.17-.4-.62-.95-1.12-1.63-1.48s-1.57-.54-2.66-.54-2.08.21-2.86.63c-.79.42-1.43.99-1.93,1.69-.5.7-.86,1.51-1.09,2.41-.22.9-.33,1.82-.33,2.75v15.69h-7.24v-17.26c0-1.81-.37-3.25-1.12-4.31-.75-1.07-2.02-1.6-3.83-1.6-1.21,0-2.22.2-3.05.6-.82.4-1.51.95-2.05,1.63-.54.69-.93,1.47-1.17,2.35-.24.89-.36,1.81-.36,2.78v15.81h-7.24v-28.97Z"/>
        <path class="cls-1" d="m642.26,263.2h7.36l-5.13,15.93h-6.46l4.22-15.93Z"/>
        <path class="cls-1" d="m694.4,259.7c0,1.69-.27,3.32-.81,4.89-.54,1.57-1.35,2.95-2.41,4.13-1.07,1.19-2.4,2.13-4.01,2.84-1.61.7-3.48,1.06-5.61,1.06-3.42,0-6.19-.78-8.33-2.35-2.13-1.57-3.54-4.06-4.22-7.48l7.12-1.69c.24,1.41.81,2.53,1.72,3.38.91.84,2.02,1.27,3.35,1.27,2.17,0,3.65-.73,4.44-2.2.78-1.47,1.18-3.49,1.18-6.06v-28.66h7.6v30.9Z"/>
        <path class="cls-1" d="m721.07,267.54h-.18c-1.05,1.69-2.37,2.9-3.98,3.62-1.61.72-3.38,1.09-5.31,1.09-1.33,0-2.62-.18-3.89-.54-1.27-.36-2.39-.91-3.38-1.63-.99-.72-1.78-1.63-2.38-2.72-.6-1.09-.91-2.35-.91-3.8,0-1.57.28-2.91.84-4.01.56-1.11,1.32-2.03,2.26-2.78.95-.74,2.04-1.34,3.29-1.78,1.25-.44,2.54-.77,3.89-1,1.35-.22,2.7-.36,4.07-.42s2.66-.09,3.86-.09h1.81v-.78c0-1.81-.62-3.17-1.87-4.07s-2.84-1.36-4.77-1.36c-1.53,0-2.96.27-4.28.81-1.33.54-2.48,1.28-3.44,2.2l-3.8-3.8c1.61-1.69,3.49-2.89,5.64-3.59,2.15-.7,4.38-1.06,6.67-1.06,2.05,0,3.78.23,5.19.69,1.41.46,2.57,1.06,3.5,1.78.93.72,1.64,1.56,2.14,2.5.5.95.86,1.9,1.09,2.87.22.97.35,1.9.39,2.81s.06,1.7.06,2.38v16.66h-6.52v-3.98Zm-.42-8.99h-1.51c-1.01,0-2.13.04-3.38.12-1.25.08-2.42.27-3.53.57-1.11.3-2.04.75-2.81,1.36-.76.6-1.14,1.41-1.14,2.41,0,.68.15,1.26.45,1.72.3.46.69.86,1.18,1.18.48.32,1.03.55,1.63.69.6.14,1.21.21,1.81.21,2.53,0,4.39-.59,5.55-1.78,1.17-1.19,1.75-2.81,1.75-4.86v-1.63Z"/>
        <path class="cls-1" d="m733.32,264.83l15.51-16.35v-.12h-14.78v-5.79h23.53v6.58l-15.69,16.6h16.41v5.79h-24.98v-6.7Z"/>
        <path class="cls-1" d="m782.56,267.54h-.18c-1.05,1.69-2.37,2.9-3.98,3.62-1.61.72-3.38,1.09-5.31,1.09-1.33,0-2.62-.18-3.89-.54-1.27-.36-2.39-.91-3.38-1.63-.99-.72-1.78-1.63-2.38-2.72-.6-1.09-.91-2.35-.91-3.8,0-1.57.28-2.91.84-4.01.56-1.11,1.32-2.03,2.26-2.78.95-.74,2.04-1.34,3.29-1.78,1.25-.44,2.54-.77,3.89-1,1.35-.22,2.7-.36,4.07-.42s2.66-.09,3.86-.09h1.81v-.78c0-1.81-.62-3.17-1.87-4.07s-2.84-1.36-4.77-1.36c-1.53,0-2.96.27-4.28.81-1.33.54-2.48,1.28-3.44,2.2l-3.8-3.8c1.61-1.69,3.49-2.89,5.64-3.59,2.15-.7,4.38-1.06,6.67-1.06,2.05,0,3.78.23,5.19.69,1.41.46,2.57,1.06,3.5,1.78.93.72,1.64,1.56,2.14,2.5.5.95.86,1.9,1.09,2.87.22.97.35,1.9.39,2.81s.06,1.7.06,2.38v16.66h-6.52v-3.98Zm-.42-8.99h-1.51c-1.01,0-2.13.04-3.38.12-1.25.08-2.42.27-3.53.57-1.11.3-2.04.75-2.81,1.36-.76.6-1.14,1.41-1.14,2.41,0,.68.15,1.26.45,1.72.3.46.69.86,1.18,1.18.48.32,1.03.55,1.63.69.6.14,1.21.21,1.81.21,2.53,0,4.39-.59,5.55-1.78,1.17-1.19,1.75-2.81,1.75-4.86v-1.63Z"/>
        <path class="cls-1" d="m796.86,242.56h6.88v4.65h.12c.68-1.45,1.73-2.71,3.14-3.77,1.41-1.07,3.32-1.6,5.73-1.6,1.93,0,3.57.32,4.92.96,1.35.64,2.44,1.49,3.29,2.53.84,1.05,1.45,2.25,1.81,3.62.36,1.37.54,2.8.54,4.28v18.28h-7.24v-14.66c0-.8-.04-1.7-.12-2.69-.08-.98-.29-1.91-.63-2.78-.34-.86-.87-1.59-1.6-2.17-.72-.58-1.71-.88-2.96-.88s-2.22.2-3.05.6c-.82.4-1.51.95-2.05,1.63-.54.69-.94,1.47-1.18,2.35-.24.89-.36,1.81-.36,2.78v15.81h-7.24v-28.97Z"/>
      </g>
    </g>
  </g>
</svg>