<?xml version="1.0" encoding="UTF-8"?>
<svg id="Layer_2" data-name="Layer 2" xmlns="http://www.w3.org/2000/svg" viewBox="0 0 989.82 322.58">
  <defs>
    <style>
      .cls-1 {
        font-family: FatimahArabic-Bold, 'Fatimah Arabic';
        font-size: 55.45px;
      }

      .cls-1, .cls-2 {
        fill: #1e1e1d;
        font-weight: 700;
      }

      .cls-3 {
        fill: #fff;
      }

      .cls-3, .cls-4 {
        stroke-width: 0px;
      }

      .cls-4 {
        fill: #008e47;
      }

      .cls-2 {
        font-family: JannaLT-Bold, 'JannaLT Bold';
        font-size: 50.19px;
      }
    </style>
  </defs>
  <g id="Layer_1-2" data-name="Layer 1">
    <g>
      <polygon class="cls-4" points="742.76 217.55 943.67 16.39 989.82 11.98 976.15 237.01 816.85 322.58 742.76 217.55"/>
      <g>
        <path class="cls-3" d="m948.1,104.71l-96.72,45.09-11.38,11.38,96.94-41.5-.98-2.28,9.3-4.17c1.09-2.89,2.04-5.7,2.83-8.52Z"/>
        <path class="cls-3" d="m869.72,130.69c-3.24,3.78-6.95,7.72-11.09,11.86l-3.82,3.82,75.61-40.5-1.17-2.19,21.58-12.03c.35-2.75.53-5.45.58-8.12l-81.69,47.17Z"/>
        <path class="cls-4" d="m855.63,31.71l-2.23-1.13L868.18.05c-2.53-.09-5.07-.05-7.64.11l-33.78,72.47c3.94-2.95,7.87-5.33,11.79-7.14l17.07-33.77Z"/>
        <path class="cls-4" d="m850.19,61.68c1.76-.32,3.45-.52,5.16-.58l13.53-21.82-2.13-1.32,20.83-34.85c-.72-.22-1.46-.42-2.19-.62-1.61-.43-3.22-.79-4.88-1.08l-35.54,61.57c1.73-.56,3.47-.99,5.21-1.31Z"/>
        <path class="cls-3" d="m883.44,111.28c-1.93,3.8-4.56,7.87-7.9,12.25l47.19-30.86-1.37-2.08,29.1-19.74c-.3-1.76-.64-3.5-1.08-5.23-.17-.68-.35-1.36-.56-2.03l-64,44.82c-.42.94-.88,1.89-1.37,2.87Z"/>
        <path class="cls-4" d="m869.61,63.81l11.84-15.81-2-1.5,26.09-36.11c-2.07-1.14-4.2-2.18-6.38-3.12l-37.89,54.1c2.93.38,5.7,1.22,8.35,2.44Z"/>
        <path class="cls-3" d="m887.63,100.86l26.28-20.67-1.53-1.97,32.22-26.23c-.98-2.18-2.06-4.3-3.25-6.4l-52.54,44.07c.34,3.42-.04,7.15-1.18,11.2Z"/>
        <path class="cls-4" d="m879.22,70.69c.43.43.84.87,1.24,1.3l12.73-14.22-1.87-1.66,30.05-34.76c-1.78-1.57-3.62-3.03-5.51-4.41l-41.59,49.59c1.69,1.19,3.35,2.57,4.94,4.16Z"/>
        <path class="cls-3" d="m887.61,83.94l16.43-15.42-1.71-1.81,32.27-31.34c-1.43-1.86-2.93-3.68-4.53-5.44l-46.28,46.28c1.67,2.47,2.94,5.05,3.81,7.73Z"/>
        <path class="cls-3" d="m900.66,173.59l12.45-12.45-70.66,12.46h-2.17l78.04-18.29c3.14-3.57,6.02-7.07,8.66-10.6l-94.65,25.39,100.09-32.84c2.68-3.96,5.09-7.88,7.14-11.72l-100.51,36.61-63.67,63.67,72.02-.54,1.09.54,5.26-5.27,1.03,4.07h6.83l-2.51-9.42,3.85-3.85,1.5-1.48,5.12,14.75h7.07l-7.18-19.79,3.02-3.03.08.18,2.29-.97,10.6,23.6h7.45l-13.74-29.47.58-.58h-.03s1.89-1.9,1.89-1.9l1.51,2.79,2.21-1.16,16.89,30.32h7.96l-22.17-38.36,2.5-2.5,2.63,4.03,2.08-1.37,25.9,38.18h8.62l-32.97-47.11,2-2,2.72,3.46,1.96-1.55,38.41,47.19.17.21.27-.21,2.32-1.89,1.59,1.89h4.38v-.95l-42.03-50.07h-7.89Zm-44.12,32.16h.03s-.02.02-.02.02v-.02Z"/>
        <polygon class="cls-3" points="912.37 173.59 948.89 211.23 950.58 209.6 950.58 202.62 921.55 173.59 912.37 173.59"/>
        <polygon class="cls-3" points="925.84 173.59 950.58 194.98 950.58 185.51 936.37 173.59 925.84 173.59"/>
      </g>
      <text class="cls-1" transform="translate(0 73.35)"><tspan x="0" y="0">نــــيرـــمــثــتـــســـــمـــلا ىـــــقــــتـــلــــم</tspan><tspan x="5.92" y="72.29">نازاــــجب يــــناـــــثـــــلا يوـــــــنـــــســـلا</tspan></text>
      <text class="cls-2" transform="translate(239.35 225.82)"><tspan x="0" y="0">Annual Investor Forum, Jazan</tspan></text>
    </g>
  </g>
</svg>