<?xml version="1.0" encoding="UTF-8"?>
<svg id="Layer_2" data-name="Layer 2" xmlns="http://www.w3.org/2000/svg" viewBox="0 0 373 122.46">
  <defs>
    <style>
      .cls-1 {
        fill: #fff;
      }

      .cls-1, .cls-2 {
        stroke-width: 0px;
      }

      .cls-2 {
        fill: #00903e;
      }
    </style>
  </defs>
  <g id="Layer_1-2" data-name="Layer 1">
    <g>
      <polygon class="cls-2" points="279.21 82.59 355.48 6.22 373 4.55 367.81 89.97 307.34 122.46 279.21 82.59"/>
      <g>
        <path class="cls-1" d="m357.16,39.75l-36.72,17.12-4.32,4.32,36.8-15.75-.37-.87,3.53-1.58c.41-1.1.77-2.16,1.08-3.23Z"/>
        <path class="cls-1" d="m327.41,49.61c-1.23,1.44-2.64,2.93-4.21,4.5l-1.45,1.45,28.7-15.38-.44-.83,8.19-4.57c.13-1.05.2-2.07.22-3.08l-31.01,17.91Z"/>
        <path class="cls-2" d="m322.06,12.04l-.85-.43L326.83.02c-.96-.03-1.93-.02-2.9.04l-12.82,27.51c1.5-1.12,2.99-2.02,4.48-2.71l6.48-12.82Z"/>
        <path class="cls-2" d="m320,23.41c.67-.12,1.31-.2,1.96-.22l5.14-8.28-.81-.5,7.91-13.23c-.27-.08-.55-.16-.83-.23-.61-.16-1.22-.3-1.85-.41l-13.49,23.37c.66-.21,1.32-.37,1.98-.5Z"/>
        <path class="cls-1" d="m332.62,42.24c-.73,1.44-1.73,2.99-3,4.65l17.91-11.71-.52-.79,11.05-7.49c-.11-.67-.24-1.33-.41-1.98-.07-.26-.13-.52-.21-.77l-24.3,17.02c-.16.36-.33.72-.52,1.09Z"/>
        <path class="cls-2" d="m327.37,24.22l4.49-6-.76-.57,9.9-13.71c-.78-.43-1.6-.83-2.42-1.19l-14.38,20.54c1.11.15,2.16.46,3.17.93Z"/>
        <path class="cls-1" d="m334.21,38.29l9.98-7.84-.58-.75,12.23-9.96c-.37-.83-.78-1.63-1.23-2.43l-19.94,16.73c.13,1.3-.02,2.71-.45,4.25Z"/>
        <path class="cls-2" d="m331.02,26.83c.16.16.32.33.47.49l4.83-5.4-.71-.63,11.41-13.2c-.67-.59-1.38-1.15-2.09-1.67l-15.79,18.83c.64.45,1.27.98,1.88,1.58Z"/>
        <path class="cls-1" d="m334.2,31.87l6.24-5.85-.65-.69,12.25-11.9c-.54-.71-1.11-1.4-1.72-2.07l-17.57,17.57c.63.94,1.12,1.92,1.45,2.94Z"/>
        <path class="cls-1" d="m339.16,65.9l4.73-4.73-26.82,4.73h-.83l29.62-6.94c1.19-1.36,2.28-2.68,3.29-4.02l-35.93,9.64,37.99-12.47c1.02-1.5,1.93-2.99,2.71-4.45l-38.16,13.9-24.17,24.17,27.34-.21.41.21,2-2,.39,1.54h2.59l-.95-3.58,1.46-1.46.57-.56,1.95,5.6h2.68l-2.72-7.51,1.15-1.15.03.07.87-.37,4.02,8.96h2.83l-5.22-11.19.22-.22h0s.72-.72.72-.72l.57,1.06.84-.44,6.41,11.51h3.02l-8.41-14.56.95-.95,1,1.53.79-.52,9.83,14.5h3.27l-12.51-17.88.76-.76,1.03,1.31.74-.59,14.58,17.92.07.08.1-.08.88-.72.6.72h1.66v-.36l-15.95-19.01h-2.99Zm-16.75,12.21h.01s0,0,0,0h0Z"/>
        <polygon class="cls-1" points="343.6 65.9 357.46 80.19 358.1 79.57 358.1 76.92 347.08 65.9 343.6 65.9"/>
        <polygon class="cls-1" points="348.71 65.9 358.1 74.02 358.1 70.42 352.71 65.9 348.71 65.9"/>
      </g>
      <g>
        <path class="cls-1" d="m9.35,20.97h.36l.7,2.25c.34,1.26,1.01,1.35,1.52,1.35.59,0,.87.28.87.84v1.6c0,.56-.28.84-.84.84-.79,0-1.35-.11-1.88-.59-.22,3-2.39,4.69-5.33,4.69s-4.74-1.68-4.74-4.91c0-1.66.48-3.51.87-4.66l.36.14c-.25.9-.39,1.96-.39,2.64,0,2.33,1.6,3.54,4.43,3.54,1.8,0,3.31-.51,4.32-1.12l-1.57-3.76,1.32-2.84Zm-4.01,1.24l-1.74-1.74,1.74-1.71,1.4,1.38c.22.25.22.45,0,.7l-1.4,1.38Z"/>
        <path class="cls-1" d="m11.98,24.56h3.62c.51,0,.84.22.84.56v2.3c0,.25-.34.42-.84.42h-3.62v-3.28Z"/>
        <path class="cls-1" d="m15.61,24.56h3.62c.51,0,.84.22.84.56v2.3c0,.25-.34.42-.84.42h-3.62v-3.28Z"/>
        <path class="cls-1" d="m19.23,24.56h3.62c.51,0,.84.22.84.56v2.3c0,.25-.34.42-.84.42h-3.62v-3.28Z"/>
        <path class="cls-1" d="m22.85,24.56h3.62c.51,0,.84.22.84.56v2.3c0,.25-.34.42-.84.42h-3.62v-3.28Z"/>
        <path class="cls-1" d="m27.34,32.28l-1.54-1.57,1.54-1.54,1.23,1.26s.06.03.06.06l1.32-1.32,1.24,1.26c.2.2.2.39,0,.59l-1.24,1.26-1.32-1.32s-.03.03-.06.06l-1.23,1.26Zm-.87-7.72c1.4,0,2.53-.2,3.56-.51l-1.94-2.55,1.6-2.39h.36c.87,2.13,1.01,3.4.34,5.33l-.08.22c-.79,2.33-1.74,3.17-3.85,3.17v-3.28Z"/>
        <path class="cls-1" d="m34.72,27.26c0,1.91-.87,3.56-2.5,5.28l-5.08-.98v-.36c3.34-.93,5.47-2.11,7.05-3.96l-1.49-3.42,1.32-2.84h.37l.67,2.25c.34,1.26,1.07,1.35,1.57,1.35.56,0,.84.28.84.84v1.6c0,.56-.28.84-.84.84-.76,0-1.38-.11-1.91-.59Z"/>
        <path class="cls-1" d="m36.63,24.56h3.62c.51,0,.84.22.84.56v2.3c0,.25-.34.42-.84.42h-3.62v-3.28Z"/>
        <path class="cls-1" d="m40.25,24.56h3.62c.51,0,.84.22.84.56v2.3c0,.25-.34.42-.84.42h-3.62v-3.28Z"/>
        <path class="cls-1" d="m43.87,24.56h3.62c.51,0,.84.22.84.56v2.3c0,.25-.34.42-.84.42h-3.62v-3.28Z"/>
        <path class="cls-1" d="m55.74,26.75l-1.49,2.25-.36.08-2.95-1.91c-.39-.22-.67-.5-.87-.76-.62.9-1.54,1.43-2.58,1.43v-3.28c1.07,0,1.74-.08,2.22-.25.25-.79.84-1.54,1.52-2.13l3.23-2.81.37.06,1.88,3.96c.36.79.76,1.18,1.35,1.18s.84.28.84.84v1.6c0,.56-.28.84-.84.84-.73,0-1.54-.22-2.3-1.09Zm-2.78-5.11l-1.38,1.09c-.42.34-.42.93.06,1.24l3.79,2.39c-.14-.2-.28-.42-.39-.7l-2.08-4.01Z"/>
        <path class="cls-1" d="m58.04,24.56h3.62c.51,0,.84.22.84.56v2.3c0,.25-.34.42-.84.42h-3.62v-3.28Z"/>
        <path class="cls-1" d="m61.67,24.56h3.62c.51,0,.84.22.84.56v2.3c0,.25-.34.42-.84.42h-3.62v-3.28Z"/>
        <path class="cls-1" d="m68.57,24.31l-.08.31c-.81,2.69-1.82,3.23-3.2,3.23v-3.28c1.82,0,2.98-.36,3.73-2.05l.28-.62h.36c.31,1.6.7,2.67,1.77,2.67.56,0,.84.28.84.84v1.6c0,.56-.28.84-.84.84-1.63,0-2.69-1.43-2.86-3.54Zm-.39-3.87l-1.54-1.57,1.54-1.54,1.23,1.26s.03.03.06.03l1.29-1.29,1.23,1.26c.2.2.2.39,0,.59l-1.23,1.26-1.29-1.29s-.03.03-.06.03l-1.23,1.26Zm1.32-2.67l-1.52-1.54,1.52-1.54,1.26,1.26c.2.2.2.39,0,.59l-1.26,1.23Z"/>
        <path class="cls-1" d="m71.46,24.56h3.62c.51,0,.84.22.84.56v2.3c0,.25-.34.42-.84.42h-3.62v-3.28Z"/>
        <path class="cls-1" d="m75.08,24.56h3.62c.51,0,.84.22.84.56v2.3c0,.25-.34.42-.84.42h-3.62v-3.28Z"/>
        <path class="cls-1" d="m81.99,24.31l-.08.31c-.81,2.69-1.82,3.23-3.2,3.23v-3.28c1.82,0,2.98-.36,3.73-2.05l.28-.62h.36c.31,1.6.7,2.67,1.77,2.67.56,0,.84.28.84.84v1.6c0,.56-.28.84-.84.84-1.63,0-2.69-1.43-2.86-3.54Zm-.39-3.87l-1.54-1.57,1.54-1.54,1.23,1.26s.03.03.06.03l1.29-1.29,1.23,1.26c.2.2.2.39,0,.59l-1.23,1.26-1.29-1.29s-.03.03-.06.03l-1.23,1.26Z"/>
        <path class="cls-1" d="m84.88,24.56h3.62c.51,0,.84.22.84.56v2.3c0,.25-.34.42-.84.42h-3.62v-3.28Z"/>
        <path class="cls-1" d="m88.5,24.56h3.62c.51,0,.84.22.84.56v2.3c0,.25-.34.42-.84.42h-3.62v-3.28Z"/>
        <path class="cls-1" d="m92.12,24.56h3.62c.51,0,.84.22.84.56v2.3c0,.25-.34.42-.84.42h-3.62v-3.28Z"/>
        <path class="cls-1" d="m99.53,21.53l.53.14-.7,2.22c.9.45,1.85.67,2.81.67,1.12,0,1.35-.34,1.74-1.32l.67-1.68.53.14-.76,2.47,1.32.36c.34.11.62.14.87.14.34,0,.56-.08.73-.28l-1.07-2.11,1.23-2.44.36.03,1.32,3.28c.39,1.07.67,1.4,1.43,1.4.56,0,.84.28.84.84v1.6c0,.56-.28.84-.84.84-1.29,0-1.91-.7-2.58-2.05l-.36-.73-.42,1.46c-.28.93-.65,1.52-1.77,1.38-.36,0-1.4-.36-2.22-.84-.36.51-.87.79-1.6.79-1.09,0-2.25-.62-3.06-1.68-.67,1.4-1.49,1.68-2.81,1.68v-3.28c1.63,0,2.64-.25,3.2-1.66l.59-1.38Z"/>
        <path class="cls-1" d="m110.59,24.56h3.62c.51,0,.84.22.84.56v2.3c0,.25-.34.42-.84.42h-3.62v-3.28Z"/>
        <path class="cls-1" d="m114.21,24.56h3.62c.51,0,.84.22.84.56v2.3c0,.25-.34.42-.84.42h-3.62v-3.28Z"/>
        <path class="cls-1" d="m117.83,24.56h3.62c.51,0,.84.22.84.56v2.3c0,.25-.34.42-.84.42h-3.62v-3.28Z"/>
        <path class="cls-1" d="m121.45,24.56h3.62c.51,0,.84.22.84.56v2.3c0,.25-.34.42-.84.42h-3.62v-3.28Z"/>
        <path class="cls-1" d="m125.07,24.56h3.62c.51,0,.84.22.84.56v2.3c0,.25-.34.42-.84.42h-3.62v-3.28Z"/>
        <path class="cls-1" d="m136.94,26.75l-1.49,2.25-.36.08-2.95-1.91c-.39-.22-.67-.5-.87-.76-.62.9-1.54,1.43-2.58,1.43v-3.28c1.07,0,1.74-.08,2.22-.25.25-.79.84-1.54,1.52-2.13l3.23-2.81.37.06,1.88,3.96c.36.79.76,1.18,1.35,1.18s.84.28.84.84v1.6c0,.56-.28.84-.84.84-.73,0-1.54-.22-2.3-1.09Zm-2.78-5.11l-1.38,1.09c-.42.34-.42.93.06,1.24l3.79,2.39c-.14-.2-.28-.42-.39-.7l-2.08-4.01Z"/>
        <path class="cls-1" d="m139.24,24.56h3.62c.51,0,.84.22.84.56v2.3c0,.25-.34.42-.84.42h-3.62v-3.28Z"/>
        <path class="cls-1" d="m142.87,24.56h3.62c.51,0,.84.22.84.56v2.3c0,.25-.34.42-.84.42h-3.62v-3.28Z"/>
        <path class="cls-1" d="m146.49,24.56h3.62c.51,0,.84.22.84.56v2.3c0,.25-.34.42-.84.42h-3.62v-3.28Z"/>
        <path class="cls-1" d="m153.31,13.19l.34.14-.22.98,2.27,1.63-1.12,2.19v3.45c0,.87-.36,1.91-1.26,3.68-.31.65-1.35,2.58-3.2,2.58v-3.28c.93,0,1.91-.2,2.84-.56v-6.32c-.95-.65-1.18-1.49-.65-2.53l1.01-1.96Z"/>
        <path class="cls-1" d="m157.32,28.69h-.36v-12.77l1.4-2.67h.36v10.64c0,.93-.17,1.82-.53,2.69l-.87,2.11Z"/>
        <path class="cls-1" d="m160.86,27.42l1.68-1.09c-.95-1.12-.84-2.67-.2-4.13.53-1.18,1.66-2.81,3.28-2.81,1.35,0,2.36,1.12,2.64,1.96l-1.09,2.3c-.56-.62-2.02-1.71-3.28-1.71-.51,0-.95.17-1.32.65.45,1.21,1.26,1.85,3.26,1.96h3.14l.31.59-1.24,2.69h-2.41c-1.99,0-2.81.22-4.86,1.4l-.28-.2.36-1.63Z"/>
        <path class="cls-1" d="m170.85,23.94v-4.38c0-1.46-.25-2.33-.48-3.06l1.74-3.28h.36v10.19c0,.87.76,1.15,1.6,1.15.53,0,.84.31.84.84v1.6c0,.53-.31.84-.84.84-1.32,0-3.23-.22-3.23-3.9Z"/>
        <path class="cls-1" d="m174.08,24.56h3.62c.51,0,.84.22.84.56v2.3c0,.25-.34.42-.84.42h-3.62v-3.28Z"/>
        <path class="cls-1" d="m177.7,24.56h3.62c.51,0,.84.22.84.56v2.3c0,.25-.34.42-.84.42h-3.62v-3.28Z"/>
        <path class="cls-1" d="m181.32,24.56h3.62c.51,0,.84.22.84.56v2.3c0,.25-.34.42-.84.42h-3.62v-3.28Z"/>
        <path class="cls-1" d="m184.94,24.56h3.62c.5,0,.84.22.84.56v2.3c0,.25-.34.42-.84.42h-3.62v-3.28Z"/>
        <path class="cls-1" d="m188.56,24.56h3.62c.51,0,.84.22.84.56v2.3c0,.25-.34.42-.84.42h-3.62v-3.28Z"/>
        <path class="cls-1" d="m192.18,24.56h3.62c.5,0,.84.22.84.56v2.3c0,.25-.34.42-.84.42h-3.62v-3.28Z"/>
        <path class="cls-1" d="m195.8,24.56h3.62c.51,0,.84.22.84.56v2.3c0,.25-.34.42-.84.42h-3.62v-3.28Z"/>
        <path class="cls-1" d="m199.42,24.56h3.62c.5,0,.84.22.84.56v2.3c0,.25-.34.42-.84.42h-3.62v-3.28Z"/>
        <path class="cls-1" d="m203.04,24.56h3.62c.5,0,.84.22.84.56v2.3c0,.25-.34.42-.84.42h-3.62v-3.28Z"/>
        <path class="cls-1" d="m206.66,24.56h3.62c.5,0,.84.22.84.56v2.3c0,.25-.34.42-.84.42h-3.62v-3.28Z"/>
        <path class="cls-1" d="m210.28,24.56h3.62c.5,0,.84.22.84.56v2.3c0,.25-.34.42-.84.42h-3.62v-3.28Z"/>
        <path class="cls-1" d="m213.9,24.56h3.62c.5,0,.84.22.84.56v2.3c0,.25-.34.42-.84.42h-3.62v-3.28Z"/>
        <path class="cls-1" d="m217.53,24.56h3.62c.5,0,.84.22.84.56v2.3c0,.25-.34.42-.84.42h-3.62v-3.28Z"/>
        <path class="cls-1" d="m225.53,26.53c-1.38.84-2.84,1.32-4.38,1.32v-3.28c.9,0,1.91-.03,2.89-.11-.2-.45-.37-.98-.34-1.6,0-1.77,1.32-4.29,3.31-4.29,2.16,0,2.11,3.26,1.49,4.86-.17.36-.37.73-.62,1.07.62.06,1.24.08,1.8.08s.84.28.84.84v1.6c0,.56-.28.84-.84.84-1.52,0-3-.45-4.15-1.32Zm.06-9.46l-1.54-1.57,1.54-1.54,1.24,1.26s.03.03.06.03l1.29-1.29,1.24,1.26c.2.2.2.39,0,.59l-1.24,1.26-1.29-1.29s-.03.03-.06.03l-1.24,1.26Zm.73,7.05c.67-.14,1.26-.34,1.66-.59-.08-.79-.53-1.63-1.07-2.02-1.07,0-1.94.25-2.78.73.42.98,1.23,1.57,2.19,1.88Z"/>
        <path class="cls-1" d="m229.68,24.56h3.62c.5,0,.84.22.84.56v2.3c0,.25-.34.42-.84.42h-3.62v-3.28Z"/>
        <path class="cls-1" d="m233.3,24.56h3.62c.5,0,.84.22.84.56v2.3c0,.25-.34.42-.84.42h-3.62v-3.28Z"/>
        <path class="cls-1" d="m236.92,24.56h3.62c.5,0,.84.22.84.56v2.3c0,.25-.34.42-.84.42h-3.62v-3.28Z"/>
        <path class="cls-1" d="m240.54,24.56h3.62c.5,0,.84.22.84.56v2.3c0,.25-.34.42-.84.42h-3.62v-3.28Z"/>
        <path class="cls-1" d="m244.16,24.56h3.62c.5,0,.84.22.84.56v2.3c0,.25-.34.42-.84.42h-3.62v-3.28Z"/>
        <path class="cls-1" d="m247.78,24.56h3.62c.5,0,.84.22.84.56v2.3c0,.25-.34.42-.84.42h-3.62v-3.28Z"/>
        <path class="cls-1" d="m251.4,24.56h3.62c.5,0,.84.22.84.56v2.3c0,.25-.34.42-.84.42h-3.62v-3.28Z"/>
        <path class="cls-1" d="m258.22,13.19l.34.14-.22.98,2.27,1.63-1.12,2.19v3.45c0,.87-.37,1.91-1.26,3.68-.31.65-1.35,2.58-3.2,2.58v-3.28c.93,0,1.91-.2,2.84-.56v-6.32c-.95-.65-1.18-1.49-.65-2.53l1.01-1.96Z"/>
        <path class="cls-1" d="m10.16,48.21c.95,2.36,1.32,3.7,1.29,5.28-.08,3.73-2.69,6.2-6.29,6.2-3.28,0-4.88-2.05-4.88-4.86,0-1.68.59-3.68.95-4.63l.34.11c-.25.9-.45,2.05-.45,2.84,0,2.47,1.99,3.28,4.41,3.28,2.55,0,4.13-.9,5.39-1.82l-2.75-3.79,1.6-2.61h.39Zm-4.52,1.09l-1.74-1.74,1.74-1.71,1.4,1.38c.22.25.22.45,0,.7l-1.4,1.38Z"/>
        <path class="cls-1" d="m13.98,56.13h-.36v-12.77l1.4-2.67h.36v10.64c0,.93-.17,1.82-.53,2.69l-.87,2.11Z"/>
        <path class="cls-1" d="m18.38,59.95l-5.08-.93v-.39c3.68-.95,6.48-2.86,7.47-5.61l-2.84-2.69,1.46-2.72h.36c.93,1.66,1.46,3.03,1.46,5.25,0,3.12-1.04,5.22-2.84,7.1Zm1.21-13.92l-1.74-1.74,1.74-1.71,1.4,1.38c.22.25.22.45,0,.7l-1.4,1.38Z"/>
        <path class="cls-1" d="m23.13,51.39v-4.38c0-1.46-.25-2.33-.48-3.06l1.74-3.28h.37v10.19c0,.87.76,1.15,1.6,1.15.53,0,.84.31.84.84v1.6c0,.53-.31.84-.84.84-1.32,0-3.23-.22-3.23-3.9Z"/>
        <path class="cls-1" d="m26.36,52h3.62c.51,0,.84.22.84.56v2.3c0,.25-.34.42-.84.42h-3.62v-3.28Z"/>
        <path class="cls-1" d="m29.98,52h3.62c.51,0,.84.22.84.56v2.3c0,.25-.34.42-.84.42h-3.62v-3.28Z"/>
        <path class="cls-1" d="m33.6,52h3.62c.51,0,.84.22.84.56v2.3c0,.25-.34.42-.84.42h-3.62v-3.28Z"/>
        <path class="cls-1" d="m37.22,52h3.62c.51,0,.84.22.84.56v2.3c0,.25-.34.42-.84.42h-3.62v-3.28Z"/>
        <path class="cls-1" d="m40.84,55.29v-3.28h4.66c1.46,0,2.55-.36,3.45-1.15-1.77-.48-3.42-1.12-4.66-1.12-.84,0-1.46.31-1.82.87l-.25-.14.76-1.66c.7-1.49,1.49-2.08,2.64-2.08,1.99,0,4.04,1.68,7.05,1.71l.81.03.25.28-1.07,2.61h-.45c-.73,0-1.49-.11-2.19-.25.06.7.59.9,1.15.9h2.92c.56,0,.84.28.84.84v1.6c0,.56-.28.84-.84.84h-1.71c-2.41,0-3.42-1.35-3.42-3.37v-.48c-2.3,1.66-3.31,3.85-6.96,3.85h-1.15Zm7.55,5.16l-1.74-1.74,1.74-1.71,1.4,1.38c.22.25.22.45,0,.7l-1.4,1.38Z"/>
        <path class="cls-1" d="m54.09,52c1.4,0,2.53-.2,3.56-.51l-1.94-2.55,1.6-2.39h.36c.87,2.13,1.01,3.4.34,5.33l-.08.22c-.79,2.33-1.74,3.17-3.85,3.17v-3.28Zm2.16,8.45l-1.74-1.74,1.74-1.71,1.4,1.38c.22.25.22.45,0,.7l-1.4,1.38Z"/>
        <path class="cls-1" d="m69.72,51.36c1.18.39,2.33.65,3.76.65l.79.31v1.15c.42.28.65.93.65,1.54,0,3.51-2.39,5.56-6.18,5.56-3.26,0-4.91-1.52-4.91-5.14,0-2.02.5-3.85.98-4.91l.31.14c-.2.53-.59,1.8-.59,2.98,0,2.33,1.49,3.68,4.74,3.68,2.13,0,4.18-.59,5.16-1.46-.39-.08-1.99-.42-3.42-.76-.53-.08-1.07-.2-1.74-.36l-.28-.36.73-3Zm-2.25,13.67l-1.54-1.57,1.54-1.54,1.24,1.26s.03.03.06.03l1.29-1.29,1.23,1.26c.2.2.2.39,0,.59l-1.23,1.26-1.29-1.29s-.03.03-.06.03l-1.24,1.26Z"/>
        <path class="cls-1" d="m73.48,52h3.62c.51,0,.84.22.84.56v2.3c0,.25-.34.42-.84.42h-3.62v-3.28Z"/>
        <path class="cls-1" d="m77.1,52h3.62c.51,0,.84.22.84.56v2.3c0,.25-.34.42-.84.42h-3.62v-3.28Z"/>
        <path class="cls-1" d="m80.72,52h3.62c.51,0,.84.22.84.56v2.3c0,.25-.34.42-.84.42h-3.62v-3.28Z"/>
        <path class="cls-1" d="m84.34,52h3.62c.51,0,.84.22.84.56v2.3c0,.25-.34.42-.84.42h-3.62v-3.28Z"/>
        <path class="cls-1" d="m87.96,52c1.4,0,2.53-.2,3.56-.51l-1.94-2.55,1.6-2.39h.36c.87,2.13,1.01,3.4.34,5.33l-.08.22c-.79,2.33-1.74,3.17-3.85,3.17v-3.28Zm3.37-7.05l-1.74-1.74,1.74-1.71,1.4,1.38c.22.25.22.45,0,.7l-1.4,1.38Z"/>
        <path class="cls-1" d="m94.81,51.39v-4.38c0-1.46-.25-2.33-.48-3.06l1.74-3.28h.36v10.19c0,.87.76,1.15,1.6,1.15.53,0,.84.31.84.84v1.6c0,.53-.31.84-.84.84-1.32,0-3.23-.22-3.23-3.9Z"/>
        <path class="cls-1" d="m98.04,52h3.62c.51,0,.84.22.84.56v2.3c0,.25-.34.42-.84.42h-3.62v-3.28Z"/>
        <path class="cls-1" d="m101.66,52h3.62c.51,0,.84.22.84.56v2.3c0,.25-.34.42-.84.42h-3.62v-3.28Z"/>
        <path class="cls-1" d="m105.28,52h3.62c.51,0,.84.22.84.56v2.3c0,.25-.34.42-.84.42h-3.62v-3.28Z"/>
        <path class="cls-1" d="m108.9,52h3.62c.51,0,.84.22.84.56v2.3c0,.25-.34.42-.84.42h-3.62v-3.28Z"/>
        <path class="cls-1" d="m112.52,52h3.62c.51,0,.84.22.84.56v2.3c0,.25-.34.42-.84.42h-3.62v-3.28Z"/>
        <path class="cls-1" d="m119.43,51.75l-.08.31c-.81,2.69-1.82,3.23-3.2,3.23v-3.28c1.82,0,2.98-.36,3.73-2.05l.28-.62h.36c.31,1.6.7,2.67,1.77,2.67.56,0,.84.28.84.84v1.6c0,.56-.28.84-.84.84-1.63,0-2.69-1.43-2.86-3.54Zm-.39-3.87l-1.54-1.57,1.54-1.54,1.23,1.26s.03.03.06.03l1.29-1.29,1.23,1.26c.2.2.2.39,0,.59l-1.23,1.26-1.29-1.29s-.03.03-.06.03l-1.23,1.26Zm1.32-2.67l-1.52-1.54,1.52-1.54,1.26,1.26c.2.2.2.39,0,.59l-1.26,1.23Z"/>
        <path class="cls-1" d="m122.32,52h3.62c.51,0,.84.22.84.56v2.3c0,.25-.34.42-.84.42h-3.62v-3.28Z"/>
        <path class="cls-1" d="m125.94,52h3.62c.51,0,.84.22.84.56v2.3c0,.25-.34.42-.84.42h-3.62v-3.28Z"/>
        <path class="cls-1" d="m129.56,52h3.62c.51,0,.84.22.84.56v2.3c0,.25-.34.42-.84.42h-3.62v-3.28Z"/>
        <path class="cls-1" d="m133.18,52h3.62c.51,0,.84.22.84.56v2.3c0,.25-.34.42-.84.42h-3.62v-3.28Z"/>
        <path class="cls-1" d="m136.8,52h3.62c.51,0,.84.22.84.56v2.3c0,.25-.34.42-.84.42h-3.62v-3.28Z"/>
        <path class="cls-1" d="m143.62,40.63l.34.14-.22.98,2.27,1.63-1.12,2.19v3.45c0,.87-.36,1.91-1.26,3.68-.31.65-1.35,2.58-3.2,2.58v-3.28c.93,0,1.91-.2,2.84-.56v-6.32c-.95-.65-1.18-1.49-.65-2.53l1.01-1.96Z"/>
        <path class="cls-1" d="m147.64,56.13h-.36v-12.77l1.4-2.67h.36v10.64c0,.93-.17,1.82-.53,2.69l-.87,2.11Z"/>
        <path class="cls-1" d="m166.47,49.45c-.31-.51-.56-.87-1.52-.87-1.85,0-3.54,1.38-3.54,2.05,0,.25.2.39.98.51l3.51.39c.9.11,1.07.79.98,1.6l-.14,1.74c-.28,2.98-3.12,4.63-6.26,4.63s-4.86-1.6-4.86-4.77c0-1.74.53-3.87.93-5.08l.37.14c-.2.51-.56,1.82-.56,2.98,0,2.69,2.13,3.45,4.88,3.45,2.44,0,4.52-.59,5.11-1.49l-3.76-.39c-1.35-.14-1.66-1.21-1.63-2.47.03-2.84,1.66-6.48,4.49-6.48,2.33,0,1.71,2.5,1.29,4.01l-.28.06Zm-7.13,14.46l-1.54-1.57,1.54-1.54,1.23,1.26s.03.03.06.03l1.29-1.29,1.24,1.26c.2.2.2.39,0,.59l-1.24,1.26-1.29-1.29s-.03.03-.06.03l-1.23,1.26Z"/>
        <path class="cls-1" d="m175.06,52c.56,0,.84.28.84.84v1.6c0,.56-.28.84-.84.84h-1.01c-.36,1.94-1.15,3.45-2.16,4.63l-5.64-.93v-.36c3.34-1.07,6.4-2.25,7.38-3.34-4.52-.03-5.59-.81-4.58-4.86.42-1.66,1.09-3.48,2.5-3.48,1.88,0,2.53,2.83,2.67,5.05h.84Zm-5.59-1.21c-.28.95,1.32,1.18,3.57,1.21-.62-1.21-1.46-2.02-2.36-2.02-.84,0-1.12.53-1.21.81Z"/>
        <path class="cls-1" d="m175.06,52h3.62c.51,0,.84.22.84.56v2.3c0,.25-.34.42-.84.42h-3.62v-3.28Z"/>
        <path class="cls-1" d="m178.68,52h3.62c.5,0,.84.22.84.56v2.3c0,.25-.34.42-.84.42h-3.62v-3.28Z"/>
        <path class="cls-1" d="m182.3,52h3.62c.51,0,.84.22.84.56v2.3c0,.25-.34.42-.84.42h-3.62v-3.28Z"/>
        <path class="cls-1" d="m185.92,52h3.62c.5,0,.84.22.84.56v2.3c0,.25-.34.42-.84.42h-3.62v-3.28Z"/>
        <path class="cls-1" d="m189.54,52h3.62c.51,0,.84.22.84.56v2.3c0,.25-.34.42-.84.42h-3.62v-3.28Z"/>
        <path class="cls-1" d="m193.16,52h3.62c.51,0,.84.22.84.56v2.3c0,.25-.34.42-.84.42h-3.62v-3.28Z"/>
        <path class="cls-1" d="m196.78,52h3.62c.5,0,.84.22.84.56v2.3c0,.25-.34.42-.84.42h-3.62v-3.28Z"/>
        <path class="cls-1" d="m203.69,51.75l-.08.31c-.81,2.69-1.82,3.23-3.2,3.23v-3.28c1.82,0,2.98-.36,3.73-2.05l.28-.62h.36c.31,1.6.7,2.67,1.77,2.67.56,0,.84.28.84.84v1.6c0,.56-.28.84-.84.84-1.63,0-2.69-1.43-2.86-3.54Zm.93-4.01l-1.74-1.74,1.74-1.71,1.4,1.38c.22.25.22.45,0,.7l-1.4,1.38Z"/>
        <path class="cls-1" d="m206.58,52h3.62c.5,0,.84.22.84.56v2.3c0,.25-.34.42-.84.42h-3.62v-3.28Z"/>
        <path class="cls-1" d="m210.2,52h3.62c.5,0,.84.22.84.56v2.3c0,.25-.34.42-.84.42h-3.62v-3.28Z"/>
        <path class="cls-1" d="m213.82,52h3.62c.5,0,.84.22.84.56v2.3c0,.25-.34.42-.84.42h-3.62v-3.28Z"/>
        <path class="cls-1" d="m217.44,52h3.62c.5,0,.84.22.84.56v2.3c0,.25-.34.42-.84.42h-3.62v-3.28Z"/>
        <path class="cls-1" d="m221.06,52h3.62c.5,0,.84.22.84.56v2.3c0,.25-.34.42-.84.42h-3.62v-3.28Z"/>
        <path class="cls-1" d="m228.47,48.97l.53.14-.7,2.22c.9.45,1.85.67,2.81.67,1.12,0,1.35-.34,1.74-1.32l.67-1.68.53.14-.76,2.47,1.32.36c.34.11.62.14.87.14.34,0,.56-.08.73-.28l-1.07-2.11,1.24-2.44.37.03,1.32,3.28c.39,1.07.67,1.4,1.43,1.4.56,0,.84.28.84.84v1.6c0,.56-.28.84-.84.84-1.29,0-1.91-.7-2.58-2.05l-.36-.73-.42,1.46c-.28.93-.65,1.52-1.77,1.38-.36,0-1.4-.36-2.22-.84-.37.51-.87.79-1.6.79-1.09,0-2.25-.62-3.06-1.68-.67,1.4-1.49,1.68-2.81,1.68v-3.28c1.63,0,2.64-.25,3.2-1.66l.59-1.38Z"/>
        <path class="cls-1" d="m239.53,52h3.62c.5,0,.84.22.84.56v2.3c0,.25-.34.42-.84.42h-3.62v-3.28Z"/>
        <path class="cls-1" d="m243.15,52h3.62c.5,0,.84.22.84.56v2.3c0,.25-.34.42-.84.42h-3.62v-3.28Z"/>
        <path class="cls-1" d="m246.77,52h3.62c.5,0,.84.22.84.56v2.3c0,.25-.34.42-.84.42h-3.62v-3.28Z"/>
        <path class="cls-1" d="m253.59,40.63l.34.14-.22.98,2.27,1.63-1.12,2.19v3.45c0,.87-.37,1.91-1.26,3.68-.31.65-1.35,2.58-3.2,2.58v-3.28c.93,0,1.91-.2,2.84-.56v-6.32c-.95-.65-1.18-1.49-.65-2.53l1.01-1.96Z"/>
        <path class="cls-1" d="m257.61,56.13h-.37v-12.77l1.4-2.67h.36v10.64c0,.93-.17,1.82-.53,2.69l-.87,2.11Z"/>
      </g>
      <g>
        <path class="cls-1" d="m3.7,81.71l-1.26,3.83H.81l4.13-12.16h1.89l4.15,12.16h-1.68l-1.3-3.83H3.7Zm3.99-1.23l-1.19-3.5c-.27-.79-.45-1.52-.63-2.22h-.04c-.18.72-.38,1.46-.61,2.2l-1.19,3.52h3.66Z"/>
        <path class="cls-1" d="m12.67,79.16c0-.9-.02-1.64-.07-2.36h1.41l.09,1.44h.04c.43-.83,1.44-1.64,2.89-1.64,1.21,0,3.09.72,3.09,3.72v5.21h-1.59v-5.03c0-1.41-.52-2.58-2.02-2.58-1.05,0-1.86.74-2.13,1.62-.07.2-.11.47-.11.74v5.25h-1.59v-6.37Z"/>
        <path class="cls-1" d="m22.68,79.16c0-.9-.02-1.64-.07-2.36h1.41l.09,1.44h.04c.43-.83,1.44-1.64,2.89-1.64,1.21,0,3.09.72,3.09,3.72v5.21h-1.59v-5.03c0-1.41-.52-2.58-2.02-2.58-1.05,0-1.86.74-2.13,1.62-.07.2-.11.47-.11.74v5.25h-1.59v-6.37Z"/>
        <path class="cls-1" d="m40,83.15c0,.9.02,1.7.07,2.38h-1.41l-.09-1.43h-.04c-.42.7-1.34,1.62-2.89,1.62-1.37,0-3.01-.76-3.01-3.83v-5.11h1.59v4.84c0,1.66.51,2.78,1.95,2.78,1.06,0,1.8-.74,2.09-1.44.09-.23.14-.52.14-.81v-5.36h1.59v6.35Z"/>
        <path class="cls-1" d="m47.47,85.53l-.13-1.1h-.05c-.49.69-1.43,1.3-2.67,1.3-1.77,0-2.67-1.24-2.67-2.51,0-2.11,1.88-3.27,5.25-3.25v-.18c0-.72-.2-2.02-1.98-2.02-.81,0-1.66.25-2.27.65l-.36-1.05c.72-.47,1.77-.78,2.87-.78,2.67,0,3.32,1.82,3.32,3.57v3.27c0,.76.04,1.5.14,2.09h-1.44Zm-.23-4.46c-1.73-.04-3.7.27-3.7,1.97,0,1.03.69,1.52,1.5,1.52,1.14,0,1.86-.72,2.11-1.46.05-.16.09-.34.09-.5v-1.52Z"/>
        <path class="cls-1" d="m51.34,72.72h1.59v12.81h-1.59v-12.81Z"/>
        <path class="cls-1" d="m61.04,73.37v12.16h-1.57v-12.16h1.57Z"/>
        <path class="cls-1" d="m63.91,79.16c0-.9-.02-1.64-.07-2.36h1.41l.09,1.44h.04c.43-.83,1.44-1.64,2.89-1.64,1.21,0,3.09.72,3.09,3.72v5.21h-1.59v-5.03c0-1.41-.52-2.58-2.02-2.58-1.05,0-1.86.74-2.13,1.62-.07.2-.11.47-.11.74v5.25h-1.59v-6.37Z"/>
        <path class="cls-1" d="m74.3,76.8l1.71,4.91c.29.79.52,1.52.7,2.24h.05c.2-.72.45-1.44.74-2.24l1.7-4.91h1.66l-3.43,8.73h-1.52l-3.32-8.73h1.7Z"/>
        <path class="cls-1" d="m83.07,81.45c.04,2.15,1.41,3.03,3,3.03,1.14,0,1.82-.2,2.42-.45l.27,1.14c-.56.25-1.52.54-2.9.54-2.69,0-4.29-1.77-4.29-4.4s1.55-4.71,4.1-4.71c2.85,0,3.61,2.51,3.61,4.11,0,.32-.04.58-.05.74h-6.13Zm4.66-1.14c.02-1.01-.42-2.58-2.2-2.58-1.61,0-2.31,1.48-2.44,2.58h4.64Z"/>
        <path class="cls-1" d="m91.01,83.91c.47.31,1.3.63,2.09.63,1.15,0,1.7-.58,1.7-1.3,0-.76-.45-1.17-1.62-1.61-1.57-.56-2.31-1.43-2.31-2.47,0-1.41,1.14-2.56,3.01-2.56.88,0,1.66.25,2.15.54l-.4,1.15c-.34-.22-.97-.51-1.79-.51-.94,0-1.46.54-1.46,1.19,0,.72.52,1.05,1.66,1.48,1.52.58,2.29,1.34,2.29,2.63,0,1.53-1.19,2.62-3.27,2.62-.96,0-1.84-.23-2.45-.6l.4-1.21Z"/>
        <path class="cls-1" d="m100.29,74.29v2.51h2.27v1.21h-2.27v4.71c0,1.08.31,1.7,1.19,1.7.42,0,.72-.05.92-.11l.07,1.19c-.31.13-.79.22-1.41.22-.74,0-1.34-.23-1.71-.67-.45-.47-.61-1.24-.61-2.27v-4.76h-1.35v-1.21h1.35v-2.09l1.55-.41Z"/>
        <path class="cls-1" d="m112.14,81.09c0,3.23-2.24,4.64-4.35,4.64-2.36,0-4.19-1.73-4.19-4.49,0-2.92,1.91-4.64,4.33-4.64s4.2,1.82,4.2,4.49Zm-6.93.09c0,1.91,1.1,3.36,2.65,3.36s2.65-1.43,2.65-3.39c0-1.48-.74-3.36-2.62-3.36s-2.69,1.73-2.69,3.39Z"/>
        <path class="cls-1" d="m114.14,79.52c0-1.03-.02-1.91-.07-2.72h1.39l.05,1.71h.07c.4-1.17,1.35-1.91,2.42-1.91.18,0,.31.02.45.05v1.5c-.16-.04-.32-.05-.54-.05-1.12,0-1.91.85-2.13,2.04-.04.22-.07.47-.07.74v4.66h-1.57v-6.01Z"/>
        <path class="cls-1" d="m123.92,73.37h6.55v1.32h-4.98v4.04h4.6v1.3h-4.6v5.5h-1.57v-12.16Z"/>
        <path class="cls-1" d="m140,81.09c0,3.23-2.24,4.64-4.35,4.64-2.36,0-4.19-1.73-4.19-4.49,0-2.92,1.91-4.64,4.33-4.64s4.2,1.82,4.2,4.49Zm-6.93.09c0,1.91,1.1,3.36,2.65,3.36s2.65-1.43,2.65-3.39c0-1.48-.74-3.36-2.62-3.36s-2.69,1.73-2.69,3.39Z"/>
        <path class="cls-1" d="m142,79.52c0-1.03-.02-1.91-.07-2.72h1.39l.05,1.71h.07c.4-1.17,1.35-1.91,2.42-1.91.18,0,.31.02.45.05v1.5c-.16-.04-.32-.05-.54-.05-1.12,0-1.91.85-2.13,2.04-.04.22-.07.47-.07.74v4.66h-1.57v-6.01Z"/>
        <path class="cls-1" d="m155.21,83.15c0,.9.02,1.7.07,2.38h-1.41l-.09-1.43h-.04c-.42.7-1.34,1.62-2.89,1.62-1.37,0-3.01-.76-3.01-3.83v-5.11h1.59v4.84c0,1.66.51,2.78,1.95,2.78,1.06,0,1.8-.74,2.09-1.44.09-.23.14-.52.14-.81v-5.36h1.59v6.35Z"/>
        <path class="cls-1" d="m157.85,79.16c0-.9-.02-1.64-.07-2.36h1.39l.07,1.41h.05c.49-.83,1.3-1.61,2.74-1.61,1.19,0,2.09.72,2.47,1.75h.04c.27-.49.61-.87.97-1.14.52-.4,1.1-.61,1.93-.61,1.15,0,2.87.76,2.87,3.79v5.14h-1.55v-4.94c0-1.68-.61-2.69-1.89-2.69-.9,0-1.61.67-1.88,1.44-.07.22-.13.51-.13.79v5.39h-1.55v-5.23c0-1.39-.61-2.4-1.82-2.4-.99,0-1.71.79-1.97,1.59-.09.23-.13.51-.13.78v5.27h-1.55v-6.37Z"/>
        <path class="cls-1" d="m176.21,85.53v-.97l1.24-1.21c2.99-2.85,4.35-4.37,4.37-6.13,0-1.19-.58-2.29-2.33-2.29-1.06,0-1.95.54-2.49.99l-.5-1.12c.81-.69,1.97-1.19,3.32-1.19,2.53,0,3.59,1.73,3.59,3.41,0,2.17-1.57,3.92-4.04,6.3l-.94.87v.04h5.27v1.32h-7.49Z"/>
        <path class="cls-1" d="m193.26,79.54c0,3.99-1.48,6.19-4.08,6.19-2.29,0-3.84-2.15-3.88-6.03,0-3.93,1.7-6.1,4.08-6.1s3.88,2.2,3.88,5.94Zm-6.37.18c0,3.05.94,4.78,2.38,4.78,1.62,0,2.4-1.89,2.4-4.89s-.74-4.78-2.38-4.78c-1.39,0-2.4,1.7-2.4,4.89Z"/>
        <path class="cls-1" d="m194.73,85.53v-.97l1.24-1.21c3-2.85,4.35-4.37,4.37-6.13,0-1.19-.58-2.29-2.33-2.29-1.06,0-1.95.54-2.49.99l-.51-1.12c.81-.69,1.97-1.19,3.32-1.19,2.53,0,3.59,1.73,3.59,3.41,0,2.17-1.57,3.92-4.04,6.3l-.94.87v.04h5.27v1.32h-7.49Z"/>
        <path class="cls-1" d="m208.89,85.53v-3.19h-5.45v-1.05l5.23-7.49h1.71v7.29h1.64v1.24h-1.64v3.19h-1.5Zm0-4.44v-3.92c0-.61.02-1.23.05-1.84h-.05c-.36.69-.65,1.19-.97,1.73l-2.87,3.99v.04h3.84Z"/>
        <path class="cls-1" d="m212.72,87.75c.4-1.06.88-3,1.08-4.31l1.77-.18c-.42,1.53-1.21,3.54-1.71,4.38l-1.14.11Z"/>
        <path class="cls-1" d="m223.85,73.37h1.57v8.14c0,3.23-1.59,4.22-3.68,4.22-.58,0-1.28-.13-1.68-.29l.23-1.28c.33.13.79.23,1.32.23,1.41,0,2.24-.63,2.24-3.01v-8.01Z"/>
        <path class="cls-1" d="m232.82,85.53l-.13-1.1h-.05c-.49.69-1.43,1.3-2.67,1.3-1.77,0-2.67-1.24-2.67-2.51,0-2.11,1.88-3.27,5.25-3.25v-.18c0-.72-.2-2.02-1.98-2.02-.81,0-1.66.25-2.27.65l-.36-1.05c.72-.47,1.77-.78,2.87-.78,2.67,0,3.32,1.82,3.32,3.57v3.27c0,.76.04,1.5.14,2.09h-1.44Zm-.23-4.46c-1.73-.04-3.7.27-3.7,1.97,0,1.03.69,1.52,1.5,1.52,1.14,0,1.86-.72,2.11-1.46.05-.16.09-.34.09-.5v-1.52Z"/>
        <path class="cls-1" d="m235.68,84.61l3.95-5.14c.38-.47.74-.88,1.14-1.35v-.04h-4.73v-1.28h6.66l-.02.99-3.9,5.07c-.36.49-.72.92-1.12,1.37v.04h5.11v1.26h-7.09v-.92Z"/>
        <path class="cls-1" d="m249.24,85.53l-.13-1.1h-.05c-.49.69-1.43,1.3-2.67,1.3-1.77,0-2.67-1.24-2.67-2.51,0-2.11,1.88-3.27,5.25-3.25v-.18c0-.72-.2-2.02-1.98-2.02-.81,0-1.66.25-2.27.65l-.36-1.05c.72-.47,1.77-.78,2.87-.78,2.67,0,3.32,1.82,3.32,3.57v3.27c0,.76.04,1.5.14,2.09h-1.44Zm-.23-4.46c-1.73-.04-3.7.27-3.7,1.97,0,1.03.69,1.52,1.5,1.52,1.14,0,1.86-.72,2.11-1.46.05-.16.09-.34.09-.5v-1.52Z"/>
        <path class="cls-1" d="m253.1,79.16c0-.9-.02-1.64-.07-2.36h1.41l.09,1.44h.04c.43-.83,1.44-1.64,2.89-1.64,1.21,0,3.09.72,3.09,3.72v5.21h-1.59v-5.03c0-1.41-.52-2.58-2.02-2.58-1.05,0-1.86.74-2.13,1.62-.07.2-.11.47-.11.74v5.25h-1.59v-6.37Z"/>
      </g>
    </g>
  </g>
</svg>