<?xml version="1.0" encoding="UTF-8"?>
<svg id="Layer_2" data-name="Layer 2" xmlns="http://www.w3.org/2000/svg" viewBox="0 0 430.27 95.47">
  <defs>
    <style>
      .cls-1 {
        fill: #fff;
        stroke-width: 0px;
      }
    </style>
  </defs>
  <g id="Layer_2-2" data-name="Layer 2">
    <g>
      <path class="cls-1" d="m383.32,0c-25.93,0-46.96,21.38-46.96,47.73s21.03,47.73,46.96,47.73,46.96-21.38,46.96-47.73S409.24,0,383.32,0m0,94.65c-25.53,0-46.15-20.97-46.15-46.92S357.79.81,383.32.81s46.23,20.97,46.23,46.92-20.71,46.92-46.23,46.92"/>
      <path class="cls-1" d="m383.32,81.92c18.54,0,33.63-15.34,33.63-34.19s-15.09-34.19-33.63-34.19-33.55,15.34-33.55,34.19,15.01,34.19,33.55,34.19m0-67.48c18.06,0,32.75,14.93,32.75,33.29s-14.69,33.29-32.75,33.29-32.67-14.93-32.67-33.29,14.61-33.29,32.67-33.29"/>
      <path class="cls-1" d="m383.48,79.72c17.02,0,30.82-14.03,30.82-31.33,0-1.8-.16-3.59-.48-5.3h-10.75v-2.94h-5.38v-6.61h-2.01v6.69h-1.28v10.85h-.56v-12.73h-2.17v12.73h-.96v-9.55h-2.89v2.37h-3.69v-2.86h-1.2v-3.67h-1.77v14.69h-.56v-22.6h-2.17v6.77h-1.2v15.83h-.8v-5.38s-4.57-4.16-10.52,0v1.71h-3.61v5.87h-1.77v-14.12h-2.65v16.24h-4.26c3.53,13.46,15.57,23.34,29.86,23.34m29.78-35.82s.97,5.55,0,8.89c0,0-5.05-4.16-10.52-.08v-1.63h-3.53v-7.18h14.04Zm-15.57-3.1h4.82v2.29h-4.02v8h-.8v-10.28Zm-1.29-6.53h.56v16.81h-.56v-16.81Zm-1.44,6.61h.72v10.2h-.72v-10.2Zm-2.73-1.8h.96v11.99h-.96v-11.99Zm-3.77,3.02h1.6v9.06h-1.6v-9.06Zm-3.93,2.45h3.29v6.61h-3.29v-6.61Zm-2.89-6.53h.64v14.12h-.64v-14.12Zm-2.49-7.91h.8v22.03h-.8v-22.03Zm-1.45,6.93h.72v15.01h-.72v-15.01Zm-19.1,20.07v-16.32h1.28v16.32h.64v-2.2h2.41v-5.63h2.89v3.76h.64v-5.96s4.66-3.35,9.31-.16v5.22h-4.33l.08.65h11.4v-11.18h.72v10.28h18.54v3.43h.56v-1.55s1.77-2.12,5.22-2.12,5.14,2.04,5.14,2.04v.08c-2.57,14.36-14.85,25.21-29.7,25.21-13.64,0-25.12-9.22-28.81-21.95l4.01.08Z"/>
      <path class="cls-1" d="m348.48,59.32l-.4-1.39c-1.04-.41-2.17-.9-3.21-1.39l2.65-.65-.24-1.06-5.94,1.3.24,1.23,1.85-.49,1.2.65c-.8.82-1.6,1.55-2.33,2.37l.48,1.55c.96-1.23,1.85-2.29,2.89-3.35.88.41,1.93.82,2.81,1.23"/>
      <polygon class="cls-1" points="348.72 59.89 343.02 62.01 343.42 63.15 349.04 60.87 348.72 59.89"/>
      <path class="cls-1" d="m350.81,64.62l-3.61,1.96c.88-1.3,1.77-2.61,2.65-3.83-.08-.33-.24-.65-.4-.98l-5.62,2.45c.16.41.32.73.48,1.06l3.61-1.71c-.88,1.23-1.76,2.61-2.49,3.92.16.41.32.73.56,1.06l5.3-3.02c-.16-.33-.32-.57-.48-.9"/>
      <path class="cls-1" d="m352.26,72.13c-.48-.65-.96-1.3-1.45-1.96l-.8.57c.24.41.48.73.8,1.14l-.64.49c-.24-.08-.48-.16-.72-.33-.16-.16-.4-.33-.56-.57-.24-.41-.32-.82-.16-1.3.08-.49.48-.9,1.12-1.31.56-.33,1.04-.49,1.45-.49.48.08.8.24,1.12.65.16.24.24.49.16.82,0,.24-.08.49-.32.73l.88.73c.4-.41.56-.9.56-1.39.08-.49-.08-.98-.48-1.47-.24-.41-.56-.73-.88-.9-.48-.24-.96-.33-1.52-.24-.56.08-1.12.24-1.68.57-.48.33-.88.73-1.2,1.14-.32.49-.4.98-.4,1.55s.24,1.06.56,1.63c.32.41.64.73,1.12.98.4.24.8.41,1.2.49l1.85-1.55Z"/>
      <path class="cls-1" d="m355.95,76.54c.4-.41.64-.82.88-1.14.16-.41.24-.73.32-1.06,0-.41-.08-.73-.16-.98-.16-.24-.32-.49-.64-.82-.4-.49-.8-.98-1.2-1.47l-4.74,4c.48.57,1.04,1.14,1.52,1.71.32.41.56.57.8.73.4.16.72.24.96.24.4,0,.8-.16,1.2-.33.32-.24.72-.49,1.04-.9m-1.69-.08c-.24.08-.48.16-.64.16s-.32-.08-.48-.16c-.16-.08-.32-.24-.56-.49l-.56-.65,2.97-2.69.32.33c.32.33.48.57.56.73.16.16.16.33.16.49,0,.24-.08.41-.16.65-.16.24-.4.57-.72.9-.32.33-.64.57-.88.73"/>
      <path class="cls-1" d="m360.76,80.45c.56-.82.8-1.63.72-2.37-.08-.73-.4-1.31-.96-1.8-.32-.25-.64-.41-1.04-.49-.24-.08-.48-.08-.8-.08-.32.08-.64.16-.97.33-.4.25-.8.57-1.2.98-.64.73-1.04,1.55-.96,2.28,0,.73.32,1.47,1.04,2.04.72.57,1.44.73,2.17.57.8-.16,1.45-.65,2-1.47m-2.25.33c-.48.08-.88,0-1.28-.24-.32-.33-.56-.73-.56-1.23s.24-.98.72-1.47c.48-.57.88-.9,1.37-.98.4-.08.8,0,1.12.24.32.33.48.66.56,1.14,0,.41-.24.9-.64,1.47-.4.57-.8.98-1.28,1.06"/>
      <path class="cls-1" d="m363.17,83.31c.4-1.39.8-2.77,1.28-4.16-.48-.24-.88-.49-1.36-.82l-3.29,5.22c.32.16.56.41.88.57l2.57-4.16c-.56,1.63-1.04,3.18-1.52,4.81.32.16.72.41,1.04.57,1.12-1.22,2.17-2.53,3.21-3.75l-2.17,4.33,1.04.49,2.57-5.63c-.4-.16-.88-.41-1.36-.65-.88,1.06-1.85,2.12-2.89,3.18"/>
      <path class="cls-1" d="m372.4,82.65c-.4-.08-.72-.16-1.12-.08-.24,0-.56.16-.8.33-.32.16-.56.33-.72.57-.32.33-.64.81-.8,1.39-.4.98-.4,1.8-.16,2.45.32.73.88,1.22,1.77,1.55.88.25,1.6.16,2.25-.24.64-.49,1.04-1.14,1.29-2.12.24-.98.16-1.8-.16-2.45-.32-.65-.8-1.14-1.52-1.39m.56,3.51c-.16.73-.48,1.23-.8,1.47-.4.24-.8.33-1.28.16-.48-.16-.8-.41-.96-.9-.16-.41-.16-.98.08-1.63.24-.66.56-1.14.96-1.39.32-.25.72-.33,1.12-.16.48.08.72.41.88.82.16.41.16.98,0,1.63"/>
      <path class="cls-1" d="m374.33,89.67l1.2.24.4-2.53c.8.08,1.61.24,2.33.33l.16-1.06c-.8-.08-1.52-.16-2.25-.33l.24-1.47c.8.16,1.69.33,2.49.41l.16-1.06c-1.2-.08-2.33-.33-3.45-.57l-1.28,6.04Z"/>
      <path class="cls-1" d="m385.16,87.22c-.24-.16-.64-.33-1.2-.41-.48-.16-.88-.33-.96-.41-.16-.16-.16-.24-.16-.41s0-.33.16-.41c.16-.08.4-.16.72-.16s.48,0,.64.16c.16.16.32.33.32.65.4,0,.72-.08,1.12-.08-.08-.57-.24-.98-.64-1.3-.32-.33-.8-.49-1.45-.49-.4,0-.72.08-1.04.16-.24.16-.48.41-.64.65-.16.24-.24.57-.24.9,0,.49.08.9.4,1.23.24.24.72.49,1.28.65.48.08.8.16.97.24.16.08.32.16.4.25.08.08.08.24.08.41.08.25-.08.41-.24.57-.16.16-.48.24-.8.33-.4,0-.64-.16-.88-.33-.24-.16-.32-.49-.4-.9l-1.12.08c0,.73.24,1.23.64,1.63.4.33.96.57,1.77.57.48-.08.88-.16,1.28-.33.32-.16.56-.41.72-.73.16-.33.24-.65.24-.98,0-.41-.16-.73-.32-.98-.16-.24-.32-.49-.64-.57"/>
      <path class="cls-1" d="m388.13,84.12c-.4,2.12-.88,4.32-1.45,6.44.4-.08.8-.08,1.28-.16l.32-1.47c.72,0,1.53-.16,2.25-.33l.72,1.3,1.37-.24c-1.28-1.88-2.33-3.75-3.37-5.71l-1.12.16Zm.32,3.75c.16-.73.32-1.55.48-2.37.32.73.72,1.47,1.04,2.12-.48.08-.96.16-1.52.24"/>
      <path class="cls-1" d="m395.76,82.33l-.96.33,1.04,3.26c.16.49.24.81.24.98.08.24,0,.41-.08.65-.16.16-.4.33-.72.41-.32.08-.56.08-.8,0-.24-.08-.4-.24-.48-.49-.08-.16-.16-.49-.32-.98l-.8-3.26-1.04.25.72,3.18c.16.73.32,1.22.48,1.55.16.25.32.41.48.57.24.16.48.33.8.33.32.08.8,0,1.28-.16.48-.08.8-.24,1.04-.49.24-.25.48-.49.56-.73.08-.25.08-.49.08-.82-.08-.33-.24-.82-.48-1.55l-1.04-3.02Z"/>
      <path class="cls-1" d="m402.18,82.9c-.32-.57-.56-.98-.88-1.22-.24-.33-.56-.49-.88-.65-.32-.16-.64-.25-.97-.16-.24,0-.56.16-.96.33-.56.24-1.12.49-1.68.73l2.17,5.79c.72-.33,1.45-.66,2.17-.9.4-.24.64-.41.88-.65.24-.24.4-.49.56-.82.08-.33.08-.73,0-1.22-.08-.41-.16-.82-.4-1.23m-.72,2.2c-.08.16-.16.33-.32.41-.08.16-.32.24-.64.41l-.8.33-1.52-3.76.4-.24c.4-.16.72-.24.8-.24.24-.08.4-.08.64,0,.16.08.32.24.48.41.16.16.4.49.56.9.24.49.4.82.4,1.14.08.24.08.49,0,.65"/>
      <polygon class="cls-1" points="401.46 79.64 404.43 85.1 405.47 84.45 402.34 79.15 401.46 79.64"/>
      <path class="cls-1" d="m405.79,76.7c.72,2.12,1.28,4.16,1.85,6.36l1.04-.82-.4-1.39c.56-.49,1.2-.98,1.77-1.47l1.28.73.97-.9c-1.93-.98-3.85-2.04-5.62-3.18l-.88.65Zm3.29,2.12l-1.2.98-.8-2.28c.64.41,1.37.9,2.01,1.3"/>
      <path class="cls-1" d="m413.9,74.41c-.24,0-.48.08-.8.16.32-.49.4-.9.32-1.22-.08-.41-.24-.73-.64-1.06-.24-.24-.56-.41-.88-.49-.24,0-.56,0-.8.08-.24.16-.56.41-.96.82-.48.57-.97,1.06-1.53,1.55l4.17,4.57.88-.9-1.77-1.8.16-.16c.16-.24.32-.33.4-.41.16-.08.32-.08.48-.08s.48.08,1.04.16l1.52.25.97-1.06-1.37-.25c-.56-.08-.96-.16-1.2-.16m-1.52-.41c-.08.16-.24.41-.64.82l-.56.57-1.04-1.14.56-.57c.32-.33.48-.49.56-.57.08-.08.24-.16.4-.16.16.08.32.08.48.24.16.16.24.25.24.41.08.16.08.24,0,.41"/>
      <path class="cls-1" d="m413.02,69.19c1.2,1.8,2.41,3.67,3.53,5.55.24-.33.48-.65.8-.98l-.8-1.3c.48-.57.88-1.23,1.28-1.88l1.45.33.72-1.14c-2.17-.41-4.25-.9-6.34-1.47l-.64.9Zm3.77,1.06l-.88,1.3c-.48-.65-.96-1.3-1.36-1.96l2.25.65Z"/>
      <path class="cls-1" d="m421.69,64.46c-.16-.24-.4-.41-.64-.49-.32-.16-.64-.25-.97-.16-.32.08-.64.24-.88.49,0-.25-.08-.49-.24-.73-.16-.25-.32-.41-.64-.49-.24-.16-.4-.16-.64-.16s-.48.08-.64.16c-.24.08-.4.16-.48.33-.16.16-.24.49-.48.82-.32.65-.64,1.22-.96,1.88l5.22,3.1c.4-.57.72-1.14,1.04-1.8.32-.65.56-1.14.56-1.3.16-.33.16-.66.08-.9,0-.24-.16-.49-.32-.73m-3.29.49c0,.08-.16.33-.32.73l-.32.65-1.29-.73.32-.49c.24-.49.4-.73.4-.81.16-.16.24-.25.4-.25.16-.08.32-.08.48.08.16.08.24.16.32.33.08.16.08.33,0,.49m2.49.98c0,.08-.16.33-.32.73l-.56.98-1.36-.82.4-.81c.24-.49.4-.73.56-.9.08-.08.24-.16.4-.16s.32,0,.48.08c.16.08.32.24.4.41,0,.08.08.33,0,.49"/>
      <path class="cls-1" d="m417.35,61.36l5.7,2.37c.16-.33.24-.73.4-1.14l-5.7-2.2c-.08.33-.24.65-.4.98"/>
      <path class="cls-1" d="m418.55,58.01c1.77,1.31,3.45,2.61,5.14,4.08.16-.41.24-.82.4-1.23l-1.12-.9c.24-.73.4-1.55.64-2.29l1.45-.16.32-1.31c-2.25.33-4.34.57-6.5.73l-.32,1.06Zm3.93-.24l-.4,1.55c-.64-.49-1.37-.98-2.01-1.39.8-.08,1.6-.08,2.41-.16"/>
      <path class="cls-1" d="m372.64,10.12l.32,1.3c1.2-.41,2.49-.65,3.69-.9l.56-.08c1.37-.25,2.73-.41,4.09-.49h.8c1.12,0,2.25,0,3.37.08.16,0,.24-.08.4-.16.16-.16.24-.24.24-.41l.24-2.94c-.72.41-1.04.65-1.12.73-.16.16-.16.57-.24,1.3h-2.89c-.32,0-.56,0-.88.08l-.08-2.2c-.64.49-.96.82-1.04.9-.08.16-.08.66,0,1.39-1.04.08-2.09.16-3.13.33l-.56.16h-.24l-.48-2.94c-.4.49-.64.73-.96.82-.24.08-.64.16-1.12.33-.48.24-.8.57-.96,1.14-.16.57-.16,1.06,0,1.55m1.2-1.23c.16-.24.4-.41.56-.49h.4l.24,1.06c-.4.08-.88.25-1.28.33l-.08-.24c-.08-.16,0-.41.16-.65"/>
      <path class="cls-1" d="m399.77,13.87l3.45-7.02-1.04.08c-.4.08-.64.24-.72.57l-2.65,5.87c.32.08.64.33.96.49"/>
      <path class="cls-1" d="m387.89,12.24c.48.08.88-.08,1.12-.49.16-.24.32-.65.4-1.3l.56.08.88.16c1.36.33,2.65.66,3.93,1.06l.96.33c.48.16.96.41,1.37.57l2.89-7.26-1.04.16c-.32.08-.56.24-.64.57l-1.77,4.82-.32-.08-.96-.41c-.4-.08-.8-.24-1.2-.33-.16-.08-.32-.24-.48-.41-.08-.24-.08-.49-.08-.65.08-.16.32-.16.88,0,.16,0,.48.08.8.24.32.08.48.25.56.25l.64-1.88c-.48.24-.88.41-1.36.24-.08,0-.24-.08-.48-.16-.32-.08-.48-.25-.72-.25-.32-.08-.72-.08-.96.08-.32.16-.48.41-.56.82-.08.33-.08.73.08,1.3-.4-.16-.8-.24-1.2-.33l-.96-.16-.56-.08.24-1.39-.8.24c-.24.08-.4.16-.56.24-.08.16-.16.41-.24.73l-.24,1.96-1.45-.16c0,.33.16.73.4.98.24.33.56.49.88.49"/>
      <path class="cls-1" d="m352.5,24.48l.96.73c.4-.57.88-1.14,1.28-1.71l.72.65c-.4.49-.8,1.06-1.2,1.63.32.24.64.33,1.12.16.32-.08.64-.24.88-.57.4-.49.56-.98.32-1.47-.16-.33-.48-.73-1.04-1.3l.32-.33.64-.73c.96-.98,1.93-1.96,3.05-2.86l.72-.57c1.45-1.23,3.05-2.37,4.73-3.26l.8-.49c.48-.24.88-.49,1.37-.73l-3.29-7.02-.64.9c-.16.33-.16.57,0,.9l2.33,4.57-.4.16-.72.49-1.2-2.04c-.4.57-.64.9-.64.98-.08.24-.08.41.08.65.08.08.16.24.24.41.16.25.32.41.4.66l-.72.41-1.04-1.55c-.4.57-.64.9-.64.98-.08.16,0,.41.16.65.08.08.16.16.24.33.08.08.16.25.24.33l-.8.57-.72-1.14-.56.82c-.08.16-.08.33-.08.41.08.16.16.33.4.65l-.4.24-.72.65-.96.82c-.16.16-.4.24-.64.16-.24,0-.4-.08-.56-.24-.08-.08,0-.41.48-.73.08-.16.32-.33.64-.57.24-.16.4-.33.48-.33l-1.29-1.55c.08.57-.08.98-.48,1.3,0,.08-.16.16-.4.33-.24.16-.4.33-.56.49-.24.24-.4.57-.4.9-.08.33.08.66.32.9.24.24.64.41,1.12.57l-.88.9-.72.73-.32.41-2.17-1.96c-.08.41-.24.98-.64,1.71-.24.65-.4,1.14-.32,1.47.08.49.48,1.06,1.12,1.55m.32-2.61l.88.73c-.16.33-.4.57-.64.82l-.08-.08c-.24-.16-.4-.41-.4-.65s.08-.57.24-.82"/>
      <path class="cls-1" d="m349.45,26.76c0-.08.08-.16.24-.24.16-.08.24-.08.32,0l.64.41c-.64.98-1.2,2.04-1.69,3.02l1.2.65c.56-1.14,1.2-2.37,1.93-3.43.24-.33.16-.57-.16-.82l-1.68-1.06c-.32-.33-.64-.33-.97-.16-.24.16-.48.41-.8.9,0,.08-.08.16-.16.33-.08.16-.16.24-.16.33-.48.82-.96,1.31-1.45,1.31l1.52.9c.32-.73.8-1.47,1.2-2.12"/>
      <path class="cls-1" d="m343.75,37.37c0,.49.16.98.56,1.39.4.41.8.65,1.28.73l1.28.33c.32-1.3.64-2.53,1.04-3.75l.16-.49c.4-1.14.8-2.28,1.28-3.34.08-.16.08-.24,0-.49-.08-.16-.16-.24-.24-.33l-2.65-1.22c.08.73.24,1.22.32,1.3.08.16.48.33,1.12.65-.4.98-.8,1.96-1.12,2.94l-.16.57-.08.24-2.81-.9c.24.49.32.9.24,1.23-.08.24-.16.65-.24,1.14m1.28-.24c0-.16.08-.33.16-.41l1.04.33c-.16.41-.24.9-.4,1.31l-.16-.08c-.24,0-.4-.16-.56-.41-.16-.33-.16-.57-.08-.73"/>
      <path class="cls-1" d="m368.79,12.89c.32-.16.72-.24,1.04-.41l-2.73-7.26-.72.82c-.16.33-.16.65-.08.98l2.49,5.87Z"/>
      <path class="cls-1" d="m425.7,37.21l-6.18,1.55.24,1.14,7.54-1.63-.8-.82c-.24-.24-.56-.33-.8-.24"/>
      <path class="cls-1" d="m405.71,17.54l.56.41c1.93,1.55,3.69,3.26,5.22,5.14l.32.24c.56.82,1.2,1.55,1.77,2.37l.24.41c.32.41.64.9.88,1.31-.16.33-.32.65-.32.98s.08.65.24.9c.16.33.4.49.64.66.32.16.64.24,1.04.16l.16.49c.16.24.32.57.48.9.48.98.88,2.04,1.29,3.02-.48.16-.8.49-.97.82-.24.41-.32.82-.16,1.23.08.41.4.73.8.98.4.24.88.24,1.29.16l7.47-2.12-.8-.73c-.32-.25-.56-.25-.88-.16l-6.1,1.88c-.08.08-.24.08-.4,0-.16-.08-.24-.16-.32-.33-.08-.33.16-.66.8-.9.16-.08.32-.08.48-.16.16,0,.24-.08.24-.08l2.81-.98c-.32-.25-.72-.65-1.12-1.31-.4-.65-.8-.98-1.04-1.14-.48-.33-1.04-.25-1.76.08l-.4-.81-.48-.98-.24-.49c.16-.16.32-.49.4-.98,0-.57.16-.98.32-1.23-.32,0-.72-.08-1.12-.24-.56-.16-.97-.24-1.2-.33-.24-.41-.56-.9-.88-1.3l-.32-.49-.16-.24,5.14-3.76-.96-.49c-.32-.08-.64,0-.88.16l-3.93,3.18c-.32-.49-.64-.81-1.04-1.22l-.24-.33-.24-.33c.72-.66,1.12-1.14,1.2-1.39.16-.33,0-.57-.24-.9-.08-.08-.24-.24-.4-.49-.24-.16-.4-.33-.56-.49-.4-.41-.72-.82-1.04-1.23-.08-.08-.08-.16,0-.33v-.08c.08-.08.72,0,1.85.33.56.16,1.2.41,1.85.65l.32-.16c-2.09-.9-4.25-1.63-6.34-2.2-.24,0-.4.08-.64.41l-.16.25c1.28,1.06,2.57,2.2,3.77,3.51.32.33.32.73-.08,1.06-.08.08-.16.16-.24.24-1.44-1.55-2.89-2.86-4.49-4.16l-.56-.41-.08-.08,1.77-2.37c-.56,0-.96,0-1.2-.16-.24-.16-.56-.41-.96-.65-.48-.16-.96-.16-1.52.08-.48.24-.8.57-1.12.98l-.72,1.23c1.04.57,2.09,1.3,3.05,2.04m13.64,15.1c.16,0,.4,0,.56.16.24.16.32.33.4.49.08.08.08.24.08.33l-.96.41-.48-1.23c.16-.08.32-.16.4-.16m-3.53-4.73c.16-.08.32-.08.4-.08.16.08.32.16.4.33.08.08.08.24,0,.41,0,.16-.08.25-.24.33-.16.08-.32.16-.48.08-.08,0-.24-.08-.32-.24-.08-.16-.08-.33-.08-.41.08-.16.16-.33.32-.41m-11.32-13.22c.08-.16.32-.24.64-.33.24,0,.48,0,.72.16.08.08.24.16.24.25l-.56.98c-.4-.33-.8-.57-1.2-.82l.16-.24Z"/>
      <path class="cls-1" d="m341.74,37.7c.08-.41-.16-.82-.48-.9-.32-.08-.64.16-.8.57-.08.41.16.82.48.9.32.08.72-.16.8-.57"/>
      <path class="cls-1" d="m341.5,36.06c.32.08.64-.16.8-.57.08-.33-.08-.73-.4-.82-.32-.16-.72.08-.8.49-.16.41.08.81.4.9"/>
      <path class="cls-1" d="m372.24,5.79c.32-.08.56-.49.48-.82-.08-.33-.4-.49-.8-.41-.4.08-.64.49-.56.82.08.33.48.49.88.41"/>
      <path class="cls-1" d="m374.33,5.3c.4-.08.64-.49.64-.82-.08-.33-.48-.57-.88-.49-.4.08-.64.49-.56.81.08.33.48.49.8.49"/>
      <path class="cls-1" d="m405.87,10.85c.32.16.72.16.96-.16.16-.33.08-.73-.32-.9-.32-.24-.72-.16-.96.16-.16.24,0,.65.32.9"/>
      <path class="cls-1" d="m407.72,12.08c.32.24.72.16.96-.08.16-.33.08-.73-.24-.98-.32-.24-.8-.16-.96.16-.16.24-.08.65.24.9"/>
      <path class="cls-1" d="m378.34,12.4c.32,0,.56-.33.48-.73,0-.33-.32-.57-.64-.49-.32,0-.56.33-.48.73,0,.33.32.57.64.49"/>
      <path class="cls-1" d="m380.19,12.24c.32-.08.56-.33.48-.73,0-.33-.32-.57-.64-.57s-.56.33-.48.73c0,.33.32.57.64.57"/>
      <path class="cls-1" d="m384.76,11.42c0-.33-.24-.65-.56-.65-.4,0-.64.33-.64.65s.24.65.56.65.64-.24.64-.65"/>
      <path class="cls-1" d="m349.29,34.6c-.08.33.08.65.4.82.32.08.64-.08.8-.33.08-.33-.08-.66-.4-.82-.32-.16-.64,0-.8.33"/>
      <path class="cls-1" d="m350.33,33.62c.32.16.72,0,.8-.24.16-.33,0-.65-.32-.82-.32-.16-.64-.08-.8.24-.16.33,0,.73.32.82"/>
      <path class="cls-1" d="m365.9,27.82l.88-.73.24.33-.8.73c.08.16.32.24.48.24.24,0,.4-.08.56-.24.16-.16.32-.33.4-.49,0-.24,0-.41-.16-.57l-1.52-2.04c-.08.16-.24.41-.56.73-.16.33-.32.49-.32.73s.16.49.4.81l.4.49Zm-.08-1.47c0-.08.08-.16.16-.24l.32.41-.4.41v-.08h-.08c0-.08,0-.16-.08-.25,0-.08,0-.24.08-.24"/>
      <path class="cls-1" d="m374.01,23.58c-.24.08-.32.33-.24.49.08.16.32.24.48.16.16-.08.24-.24.16-.41-.08-.24-.24-.33-.4-.24"/>
      <path class="cls-1" d="m372.24,24.4c-.16.08-.24.33-.16.49.08.16.24.24.4.16.16-.08.24-.33.16-.49-.08-.16-.24-.25-.4-.16"/>
      <path class="cls-1" d="m371.28,24.89c-.16.08-.24.33-.16.49.08.16.32.24.48.08.16-.08.16-.24.08-.41-.08-.16-.24-.25-.4-.16"/>
      <path class="cls-1" d="m362.05,32.96c-.16.16-.16.41,0,.49.16.16.4.08.48-.08.08-.08.08-.33-.08-.41-.08-.16-.32-.16-.4,0"/>
      <path class="cls-1" d="m365.18,29.45c-.08.08-.16.33,0,.49.16.08.32.08.48,0,.16-.16.16-.41,0-.49-.08-.16-.32-.16-.48,0"/>
      <path class="cls-1" d="m364.46,30.19c-.16.16-.16.33,0,.49.08.16.32.08.4,0,.16-.16.16-.33,0-.49-.08-.16-.32-.16-.4,0"/>
      <path class="cls-1" d="m376.58,22.68c-.16.08-.32.24-.24.41.08.16.24.33.4.24.16-.08.32-.24.24-.41-.08-.16-.24-.24-.4-.24"/>
      <path class="cls-1" d="m358.76,34.43c.16.08.32.08.56.08-.16.24-.24.49-.16.73,0,.33.16.49.4.65.24.08.48.16.72.08.24-.08.48-.16.64-.41.24-.41.48-.73.72-1.14,0,0,.08-.08,0-.16,0-.08,0-.16-.08-.24l-.32-.16c-.4.41-.72.98-1.04,1.47,0,.08-.08.08-.16.08s-.08,0-.16-.08c-.08,0-.08-.08-.16-.16v-.16c.4-.65.88-1.22,1.28-1.87.32-.49.72-.9,1.12-1.39l.32-.41c.32-.41.72-.82,1.04-1.23l.4-.33,1.2-1.22c0-.08.08-.16.08-.25s0-.16-.08-.24l-.96-1.06c-.08.41-.16.65-.16.73.08.08.16.24.4.49l-.97,1.06-.32.33-.56-.57-.16.57c0,.08.08.24.32.41-.24.33-.56.57-.8.9l-.24.33-.56-.49-.16.57c0,.08.16.24.32.41-.24.33-.48.65-.8.98,0,.08,0,.16-.08.24-.16.16-.24.33-.24.41-.4.49-.64.65-.97.41,0,0,0-.16.16-.33,0-.08.16-.25.24-.41.16-.16.24-.24.24-.24l-.8-.57c.08.08.08.25.08.33s-.08.25-.16.33l-.16.16c0,.08-.08.16-.08.16-.16.25-.24.49-.24.66,0,.24.08.41.32.57"/>
      <path class="cls-1" d="m361,29.29c.16-.16.16-.41,0-.49-.16-.16-.32-.16-.48,0-.16.16-.16.41,0,.57.16.08.32.08.48-.08"/>
      <path class="cls-1" d="m385.16,22.11c0,.16.08.33.32.41.16,0,.32-.16.32-.33s-.08-.33-.32-.33c-.16-.08-.32.08-.32.24"/>
      <path class="cls-1" d="m383.32,18.52c.16,0,.4-.08.4-.33,0-.16-.24-.33-.4-.33-.24,0-.4.16-.4.33,0,.24.16.41.4.33"/>
      <path class="cls-1" d="m396.96,24.97l2.01-3.34h-.56c-.16,0-.32.08-.4.24l-1.6,2.77.56.33Z"/>
      <path class="cls-1" d="m402.18,30.6c-.08.08-.16.33,0,.49.16.08.32.16.48,0,.16-.16.16-.33,0-.49-.16-.16-.32-.16-.48,0"/>
      <path class="cls-1" d="m401.46,29.78c-.16.16-.16.41,0,.49.16.16.32.16.48,0,.08-.08.08-.33,0-.49-.16-.08-.4-.08-.48,0"/>
      <path class="cls-1" d="m398.49,25.95l1.6,1.23.24.24c.48.41.96.82,1.45,1.3l.16.08c.56.57,1.12,1.14,1.6,1.71l.32.33c.56.73,1.2,1.39,1.69,2.12l.08.08c.32.41.64.82.88,1.3l3.21-2.2-.48-.24c-.16-.08-.32,0-.48.08l-2,1.47-.48-.65q.08-.08.24-.16c.16-.16.32-.41.32-.65,0-.33-.08-.65-.24-.82l.72-.57c-.4-.16-.56-.16-.64-.16-.16,0-.32.08-.48.25-.32-.16-.56-.25-.88-.25-.24,0-.48,0-.72.16l-.24-.16-.24-.33.72-.73c-.4-.16-.56-.16-.64-.16s-.24.16-.56.41c-.4-.49-.8-.9-1.2-1.31l-.16-.08v-.08l.48-.57-.56-.08c-.08,0-.24.08-.4.24l-1.04-.9-.24-.16-.08-.08.88-1.22c-.24.08-.48,0-.64-.08-.08-.08-.24-.16-.48-.33-.24-.16-.48-.16-.72-.08-.24.16-.48.33-.64.49l-.32.57Zm7.62,6.12c-.08,0-.08.08-.08.08l-.16.08-.24-.33.4-.33c.16.16.16.33.08.49m-1.04-1.06h.08c.16-.08.32-.08.48.08l-.4.33-.24-.33.08-.08Zm-5.7-5.39c.08-.08.16-.08.32-.08s.32,0,.4.08c.08,0,.16.08.16.16l-.32.41-.56-.41v-.16Z"/>
      <path class="cls-1" d="m401.54,24.8c.16-.16.08-.33-.08-.49-.16-.16-.4-.08-.48,0-.16.16-.08.41.08.57.16.08.4.08.48-.08"/>
      <path class="cls-1" d="m400.58,24.07c.08-.16.08-.33-.08-.49-.16-.16-.4-.08-.56.08-.08.08,0,.33.16.49.16.08.4.08.48-.08"/>
      <path class="cls-1" d="m407.08,35.17l.32.49,3.21-2.04-.4-.24c-.24-.08-.4-.08-.48,0l-2.65,1.8Z"/>
      <path class="cls-1" d="m369.67,25.05c.08.16.08.33-.08.49,0,.16-.16.24-.32.41-.16.08-.32.08-.48.08-.08,0-.24-.08-.32-.24l-.32-.33c-.16.16-.16.49.08.73.08.24.32.33.64.41.32,0,.56,0,.72-.16.32-.16.48-.49.64-.82.08-.33.08-.57-.08-.9l.24-.16.4-.16c.56-.41,1.2-.65,1.77-.98l.4-.16,1.69-.65.4-.16c.64-.24,1.2-.41,1.85-.57,0,0,.08-.08.16-.08v.08c.56-.16,1.12-.33,1.68-.41l.32-.08c.32-.08.64-.08,1.04-.16l-.56-3.83-.4.33c-.08.08-.16.24-.16.41l.4,2.53-.48.08-.24.08h-.16l-.56-3.18-.48.33c-.08.16-.16.33-.08.49l.48,2.45-.8.24c-.24-.08-.48-.24-.72-.41l-.56-.49c-.16-.16-.32-.16-.48-.16-.16.08-.32.16-.4.41l.16.57c.08-.16.16-.24.24-.24s.24,0,.32.16c.24.16.4.33.64.33-.48.16-.96.33-1.37.49l-.4.08-.24-.65-.4.41c-.08.08-.08.24.08.49l-1.2.49-.4.16-.4-.98c-.24.41-.4.57-.4.65s.08.33.24.66c-.48.16-.88.41-1.37.65l-.4.24-.16.16-1.61-2.78-.24.49c-.08.16-.08.33,0,.49l1.69,2.69Z"/>
      <path class="cls-1" d="m382.11,18.6c.16,0,.32-.16.32-.33,0-.24-.16-.33-.4-.33-.16,0-.32.16-.32.33s.16.33.4.33"/>
      <path class="cls-1" d="m403.3,27.01l.24-.24c-.08,0-.08-.08-.16-.08,0-.08-.08-.08-.08-.08-.16-.16-.16-.33-.08-.41h.08l.4.33.16-.16-.48-.49c-.08-.08-.16-.08-.24-.08s-.16,0-.16.08c-.08.08-.16.25-.08.33l-.16-.16-.24.24c.32.16.56.41.8.73"/>
      <path class="cls-1" d="m384.12,22.11c0,.16.08.33.32.33.16,0,.32-.16.32-.33s-.16-.33-.32-.33-.32.08-.32.33"/>
      <path class="cls-1" d="m382.03,19.66c-.16.24-.24.49-.16.73v.65c.72,0,1.37-.08,2.01,0h.32c.72,0,1.45.08,2.17.16h.48c1.28.25,2.49.49,3.69.82l.24.08,1.44.49.24.16,1.93.73c-.16.24-.16.49-.08.65.08.24.16.41.4.49.16.16.4.16.64.08s.48-.16.56-.41l1.85-3.34h-.56c-.16,0-.32.08-.32.24l-1.52,2.86s-.08.08-.16.08c-.08.08-.16.08-.24.08-.16-.16-.16-.33,0-.66,0-.08,0-.16.08-.24l.08-.08.64-1.39c-.24.08-.48,0-.88-.08-.4-.08-.64-.08-.8-.08-.24.08-.48.33-.64.65l-.72-.24-.24-.16h-.16l1.12-3.02-.56.08c-.16.08-.24.16-.32.33l-.8,2.37-.8-.24-.16-.08h-.24c.16-.49.16-.82.16-.98-.08-.16-.16-.25-.4-.25,0-.08-.16-.08-.32-.08-.08-.08-.24-.08-.32-.08l-.8-.25q-.08-.08-.16-.16l.08-.08s.24-.16.88-.33l.96-.16.08-.16c-1.12.16-2.33.41-3.37.73-.08,0-.16.08-.24.33v.08c.88.16,1.85.33,2.65.57.24.08.32.24.32.49-.08,0-.08.08-.08.16-.96-.33-2.01-.49-3.05-.65h-.4l.08-1.06c-.32.16-.56.24-.56.33-.08.08-.16.24-.16.65-.56-.08-1.12-.08-1.68-.16h-.4v-1.47c-.16.16-.4.24-.56.33h-.56c-.24.08-.48.24-.64.49m12.04,2.77c.08-.08.16-.16.32-.16.08,0,.16,0,.32.08l.08.08-.16.49c-.24-.08-.4-.24-.64-.33,0-.08.08-.16.08-.16m-11.64-2.2c0-.08.08-.24.16-.33.16-.08.24-.16.4-.16h.16v.57h-.72v-.08Z"/>
      <path class="cls-1" d="m359.08,61.68c.16.16.32.25.48.25s.32-.08.48-.25c.16-.08.24-.16.32-.33.08-.08.08-.24.08-.33,0-.16-.08-.24-.16-.49l-.56-.73-2.33,1.47.24.41.96-.65.08.08c.08.08.08.16.08.24v.16c0,.08-.08.16-.24.41l-.24.65.24.49.32-.57c.08-.24.16-.41.24-.49v-.33Zm.48-1.3l.24.33c.08.16.16.24.16.24v.25q-.08.08-.16.16c-.08.08-.16.08-.24.08,0,0-.08,0-.16-.08,0,0-.08-.08-.24-.33l-.16-.24.56-.41Z"/>
      <path class="cls-1" d="m359.72,64.21c.24,0,.48-.08.72-.24.24-.16.4-.41.48-.65s0-.49-.16-.65c-.08-.16-.16-.25-.32-.33h-.48c-.16.08-.32.08-.48.24-.16.08-.32.24-.4.41-.08.16-.16.33-.16.49.08.16.08.33.24.41.08.25.32.33.56.33m0-1.3c.16-.08.32-.16.4-.16.16,0,.24.08.32.16.08.08.08.16.08.33-.08.08-.16.24-.32.33-.16.16-.32.24-.4.24-.16,0-.24-.08-.32-.16-.08-.08-.08-.24-.08-.33.08-.16.16-.24.32-.41"/>
      <path class="cls-1" d="m362.13,64.38l-1.37.65.88-1.22-.32-.41-1.12,1.8c-.16.08-.24.08-.32.08s-.16,0-.24-.08l-.08-.16-.32.24.16.25c.08.08.08.16.16.16.08.08.16.08.16.08h.24c.08,0,.16-.08.24-.08l.32-.16,1.85-.82-.24-.33Z"/>
      <path class="cls-1" d="m362.93,66.42c.16-.16.24-.33.32-.41v-.25c0-.16-.08-.24-.24-.41-.16-.16-.24-.24-.4-.24s-.32,0-.48.08l.16.41q.16-.08.24-.08c.08,0,.16,0,.16.08.08.08.16.16.16.24s-.08.08-.16.16v.08c-.08-.08-.24-.16-.4-.24-.16-.08-.24-.16-.32-.16h-.32c-.08,0-.16.08-.24.16-.16.08-.24.24-.24.41,0,.08.08.24.16.41.08.08.16.08.24.16h.32v.08q-.08.08-.08.16l.24.33c.08-.16.16-.25.16-.25.08-.08.16-.16.24-.33l.48-.41Zm-.8.16h-.16c-.16,0-.24,0-.24-.08-.08-.08-.08-.16-.08-.16,0-.08.08-.16.08-.25.08,0,.16-.08.24,0,0,0,.08,0,.24.08.08.08.16.08.24.16l-.08.08q-.16.08-.24.16"/>
      <polygon class="cls-1" points="364.62 65.93 364.3 65.68 362.29 67.64 362.61 67.97 364.62 65.93"/>
      <path class="cls-1" d="m363.97,68.78c0,.33.16.57.4.82.16.16.4.24.56.24.24,0,.48-.16.72-.33l-.24-.41c-.16.16-.32.16-.4.24-.16,0-.24-.08-.4-.16-.08-.08-.16-.24-.16-.41.08-.16.16-.41.4-.65.24-.24.4-.41.56-.49.24,0,.32,0,.48.16.08,0,.16.16.16.24,0,.16,0,.24-.08.41l.4.16c.08-.24.16-.41.16-.57,0-.24-.16-.49-.32-.65-.24-.16-.48-.24-.8-.16-.32.08-.64.25-.96.57-.24.33-.4.65-.48.98"/>
      <path class="cls-1" d="m365.98,69.6c-.16.16-.24.33-.24.49-.08.16-.08.33,0,.49.08.16.16.33.24.41.24.16.48.16.72.08.24,0,.48-.16.64-.41.16-.33.24-.57.24-.82s-.16-.41-.32-.57c-.08-.08-.24-.16-.4-.16s-.32,0-.48.08c-.16.16-.32.24-.4.41m1.04,0c.08.08.16.16.16.33,0,.08-.08.24-.24.41-.08.16-.24.33-.32.33-.16,0-.24,0-.32-.08-.08,0-.16-.16-.16-.24,0-.16.08-.33.16-.49.16-.16.24-.24.4-.24.08-.08.24-.08.32,0"/>
      <path class="cls-1" d="m367.43,71.88l.48-.82c.16-.16.24-.24.32-.33,0-.08.08-.08.16-.08h.16q.08.08.08.16c.08,0,.08.08,0,.08,0,.08-.08.16-.16.33l-.56.98.32.24.56-.81c.08-.16.16-.33.24-.33q.08-.08.16-.16c.08,0,.16,0,.16.08.08,0,.16.08.16.16s-.08.16-.16.41l-.64.98.4.25.64-1.14c.08-.16.16-.33.16-.41.08-.08.08-.24,0-.33,0-.08-.08-.16-.24-.24-.08,0-.16-.08-.24-.08s-.16.08-.32.08v-.25c-.08-.08-.08-.16-.16-.24-.16-.08-.4-.08-.64,0l.16-.24-.32-.24-1.12,1.71.4.24Z"/>
      <path class="cls-1" d="m369.91,73.43l.4-.9c.16-.16.24-.25.24-.33.08-.08.16-.08.24-.16,0,0,.08,0,.16.08q.08,0,.08.08v.16s-.08.16-.16.33l-.48.98.4.25.4-.9c.08-.16.16-.33.24-.41.08,0,.16-.08.16-.08h.24c.08,0,.08.08.08.16s0,.24-.08.41l-.48,1.06.4.16.48-1.14c.08-.16.16-.33.16-.41,0-.16,0-.24-.08-.33,0-.08-.08-.16-.24-.25h-.24c-.08,0-.24,0-.32.08,0-.08,0-.24-.08-.33,0-.08-.08-.08-.16-.16-.16-.08-.4-.08-.56.08l.08-.24-.32-.24-.96,1.8.4.24Z"/>
      <polygon class="cls-1" points="372.56 74.74 373.37 72.78 372.96 72.7 372.16 74.5 372.56 74.74"/>
      <polygon class="cls-1" points="373.61 72.13 373.21 71.96 373.04 72.37 373.44 72.54 373.61 72.13"/>
      <path class="cls-1" d="m373.45,74.01c.08.08.24.24.56.49,0,.08.08.08.08.08v.16l-.08.08c-.08.08-.16,0-.32,0-.08-.08-.16-.08-.16-.16-.08-.08-.08-.16,0-.24l-.48-.08c0,.16,0,.33.08.49.08.16.24.24.48.33.24.16.4.08.56,0,.16-.08.32-.16.4-.33,0-.16,0-.33-.08-.49,0-.08-.16-.24-.32-.33-.24-.16-.32-.24-.32-.33v-.08q0-.08.08-.08c0-.08.08,0,.24,0q.08.08.16.16v.16l.4.08c.08-.16,0-.33-.08-.49,0-.08-.16-.16-.4-.25-.16-.08-.4-.08-.48-.08-.16.08-.24.24-.32.41-.08.16-.08.33,0,.49"/>
      <path class="cls-1" d="m375.69,75.07c.08,0,.08.08.08.08v.16s0,.08-.08.08c-.08.08-.16,0-.24,0-.16,0-.16-.08-.24-.16,0-.08-.08-.16,0-.25l-.48-.08c0,.25,0,.41.08.49.16.16.32.33.48.41.24.08.48,0,.64-.08.16-.08.24-.24.32-.41,0-.16,0-.33-.08-.41,0-.16-.16-.24-.4-.41-.16-.08-.24-.16-.32-.25v-.08c0-.08.08-.08.08-.08.08-.08.16-.08.24,0,.08,0,.16.08.16.08.08.08.08.16.08.24h.4c0-.16,0-.33-.08-.41-.08-.16-.24-.24-.48-.33-.16,0-.4,0-.48.08-.16.08-.24.16-.32.33-.08.16,0,.33.08.49.08.08.24.25.56.49"/>
      <polygon class="cls-1" points="377.38 74.17 376.98 74.09 376.5 76.05 376.9 76.13 377.38 74.17"/>
      <polygon class="cls-1" points="377.54 73.43 377.14 73.27 377.06 73.76 377.46 73.84 377.54 73.43"/>
      <path class="cls-1" d="m377.46,75.8c0,.16.08.33.24.41.08.16.24.25.4.25.24,0,.48,0,.64-.16.24-.16.32-.41.4-.73,0-.33,0-.57-.08-.82-.16-.24-.32-.33-.56-.41-.16,0-.32,0-.48.08-.08.08-.24.16-.32.33-.08.16-.16.33-.24.49,0,.24-.08.41,0,.57m.64-.9c.08-.08.24-.16.32-.08.08,0,.16.08.24.16.08.16.08.33,0,.49,0,.16-.08.33-.16.41-.08.08-.24.16-.32.16-.08-.08-.16-.08-.24-.25-.08-.08-.08-.24-.08-.49.08-.16.16-.33.24-.41"/>
      <path class="cls-1" d="m380.75,74.74c-.08,0-.16-.08-.24-.08-.16,0-.4.08-.56.25l.08-.25-.4-.08-.32,2.04.48.08.08-.98c.08-.16.08-.33.08-.41.08-.08.08-.16.16-.24h.24s.08,0,.16.08v.16c.08,0,0,.16,0,.41l-.08.98.4.08.16-1.22v-.41c0-.08,0-.16-.08-.24,0-.08-.08-.08-.16-.16"/>
      <polygon class="cls-1" points="382.27 76.86 382.76 76.86 382.76 75.72 383.72 75.72 383.72 75.23 382.76 75.23 382.76 74.58 383.8 74.58 383.8 74.09 382.35 74.09 382.27 76.86"/>
      <path class="cls-1" d="m384.92,74.74c-.16,0-.32.08-.4.16-.16.08-.24.24-.32.41-.08.16-.08.33-.08.49,0,.25.08.49.08.66.08.16.24.24.4.33.08.08.24.16.4.08.24,0,.48-.08.64-.33.16-.24.16-.49.16-.81,0-.25-.16-.49-.32-.66-.16-.24-.32-.33-.56-.33m.4,1.55c-.08.08-.24.16-.32.16s-.24,0-.32-.16c-.08-.08-.08-.24-.16-.41,0-.24.08-.41.16-.49.08-.16.16-.16.24-.16s.24,0,.32.16c.08.08.08.24.16.41,0,.25-.08.41-.08.49"/>
      <path class="cls-1" d="m386.61,74.66c-.08.08-.08.16-.16.33v-.33l-.4.08.16,1.96h.48l-.08-.65c0-.33-.08-.57-.08-.65.08-.08.08-.16.08-.24q.08-.08.16-.08c.08,0,.16,0,.24.08l.08-.49c-.16-.08-.24-.08-.32-.08s-.16.08-.16.08"/>
      <path class="cls-1" d="m389.1,75.72c0,.08-.08.16-.16.16-.16,0-.24,0-.32-.08,0-.08-.08-.16-.08-.33l-.4.08c0,.33.16.57.24.66.16.16.4.16.64.16.16-.08.32-.16.4-.24.08-.16.16-.33.16-.49,0-.08,0-.24-.08-.49l-.4-1.71-.4.08.32,1.8c.08.16.08.33.08.41"/>
      <path class="cls-1" d="m390.22,75.72c.08.08.16.16.24.16.08.08.16.08.32,0,.08,0,.16-.08.24-.16.08-.08.16-.16.16-.33l.16.33.32-.16-.56-1.96-.4.16.24.81c.08.33.16.49.16.57s-.08.16-.08.24c-.08,0-.16.08-.16.08h-.24s-.08-.08-.08-.16c-.08,0-.08-.16-.16-.49l-.24-.9-.4.08.32,1.3c0,.16.08.33.16.41"/>
      <path class="cls-1" d="m392.55,75.31l-.16-.33c.16.16.24.16.32.24.16,0,.24,0,.32-.08.24-.08.32-.16.4-.41.08-.25,0-.49-.08-.82-.16-.33-.32-.57-.48-.65-.16-.16-.4-.16-.56-.08-.16.08-.24.16-.32.41l-.32-.98-.4.16.88,2.69.4-.16Zm-.16-1.71c.08,0,.16,0,.24.08s.24.16.32.41c.08.24.08.41,0,.49,0,.16-.08.25-.16.25-.08.08-.24,0-.32-.08-.08-.08-.16-.25-.24-.41-.08-.24-.08-.41-.08-.49,0-.16.08-.16.24-.24"/>
      <path class="cls-1" d="m393.75,73.27c0-.08,0-.16.08-.16,0-.08.08-.16.08-.16.16,0,.24-.08.24,0,.08,0,.16.08.16.16h.08c-.08.08-.16.25-.4.33-.08.08-.16.16-.24.25-.08.08-.08.16-.08.24s0,.24.08.33c0,.16.16.24.24.33.16.08.32.08.48,0,.08,0,.16-.08.24-.16,0-.08.08-.16.08-.25h.08c0,.08.08.08.08.16l.4-.24q-.08-.08-.16-.16c-.08-.08-.08-.24-.16-.41l-.32-.57c-.08-.16-.16-.33-.24-.41-.08,0-.16-.08-.24-.08s-.24,0-.4.08c-.24.08-.32.24-.4.33-.08.16-.08.33,0,.49l.32-.08Zm.8.33c0,.08.08.16.08.24v.16c-.08.08-.16.16-.16.16-.08.08-.16.08-.24,0-.08,0-.08-.08-.16-.16v-.16q.08-.08.24-.16c.08-.08.16-.16.16-.25l.08.16Z"/>
      <polygon class="cls-1" points="395.68 73.92 396.08 73.76 395.2 71.97 394.8 72.13 395.68 73.92"/>
      <polygon class="cls-1" points="395.04 71.72 394.88 71.23 394.47 71.39 394.72 71.89 395.04 71.72"/>
      <polygon class="cls-1" points="396.88 73.35 395.6 70.82 395.2 71.07 396.48 73.52 396.88 73.35"/>
      <path class="cls-1" d="m397.69,71.23c-.08-.08-.08-.16-.08-.16,0-.08.08-.16.16-.16.08-.08.16-.08.24-.08l.16.16c0,.08-.16.24-.24.41-.16.08-.24.16-.24.24-.08.08-.08.16-.08.33,0,.08.08.16.08.24.08.16.24.25.4.33.16,0,.24,0,.4-.08.08-.08.16-.16.24-.25,0-.08.08-.16.08-.33v.08c.08.08.16.08.16.08l.4-.24q-.16-.08-.24-.16c-.08-.08-.16-.16-.24-.33l-.32-.49c-.16-.24-.24-.33-.32-.41-.08,0-.16-.08-.32-.08-.08,0-.24.08-.4.16-.16.16-.24.25-.32.41,0,.16,0,.33.08.49l.4-.16Zm.64.08l.08.08c.08.08.16.16.16.24v.16q-.08.16-.16.24c-.08,0-.08.08-.16,0-.08,0-.16-.08-.16-.08-.08-.08-.08-.16-.08-.24.08,0,.08-.08.16-.16.08-.16.16-.24.16-.24"/>
      <path class="cls-1" d="m400.01,71.39l-.56-.82c-.08-.16-.16-.24-.24-.33v-.24c0-.08.08-.16.08-.24h.16c.08,0,.16,0,.16.08.08,0,.16.08.32.33l.56.82.4-.33-.8-.98c-.08-.08-.16-.16-.24-.24,0-.08-.08-.08-.16-.16h-.24c-.08,0-.16.08-.24.08-.16.16-.24.33-.24.65l-.16-.24-.32.16,1.12,1.71.4-.24Z"/>
      <path class="cls-1" d="m400.25,68.95c0,.24.08.49.32.73.16.24.4.41.64.49.16.08.4,0,.56-.08,0-.08.08-.16.16-.24v-.41l.16.24.32-.24-1.77-2.12-.32.24.64.73c-.24,0-.4,0-.56.08-.16.16-.24.33-.16.57m.48-.33c.08,0,.24-.08.32,0,.08,0,.24.16.4.33.16.16.24.33.24.41,0,.16-.08.24-.16.33-.08.08-.16.08-.32,0-.08,0-.24-.16-.32-.33-.16-.16-.24-.33-.24-.41,0-.16,0-.24.08-.33"/>
      <path class="cls-1" d="m403.87,68.05l.32-.33-.8-.82c-.24-.57-.4-1.14-.64-1.71l-.32.41c.16.33.32.73.4,1.14l-1.12-.49-.4.41,1.69.57.88.82Z"/>
      <path class="cls-1" d="m404.03,65.85q-.08-.08-.08-.16c0-.08,0-.16.08-.16.08-.08.16-.16.24-.16,0,0,.08.08.16.08l.08.08c-.08.08-.08.24-.24.41-.08.08-.08.24-.16.33,0,.08,0,.16.08.24,0,.16.08.24.16.33.08.08.24.16.4.16s.24-.08.4-.16c.08-.08.08-.16.16-.24v-.33h.08l.08.08.32-.33c-.08-.08-.16-.08-.24-.16-.08,0-.16-.08-.32-.25l-.48-.41c-.16-.16-.24-.25-.32-.25h-.32c-.08,0-.24.08-.32.25-.16.16-.24.33-.24.41,0,.16,0,.33.16.49l.32-.24Zm.72-.08l.08.08c.08.08.16.08.16.16q.08.08.08.16c0,.16-.08.24-.08.24-.08.08-.16.08-.24.08,0,0-.08,0-.16-.08q-.08-.08-.08-.16c0-.08.08-.16.08-.25.08-.16.16-.24.16-.24"/>
      <path class="cls-1" d="m406.27,65.36l-.64-.57c-.16-.16-.32-.25-.32-.33-.08-.08-.08-.16-.08-.25v-.16q.08-.08.16-.08h.16c.08,0,.16.08.4.24l.72.65.32-.33-.96-.81c-.16-.08-.24-.16-.32-.16-.08-.08-.16-.08-.24-.08h-.24q-.08.08-.16.16c-.16.16-.16.41-.08.65l-.24-.16-.24.25,1.52,1.3.24-.33Z"/>
      <path class="cls-1" d="m407.48,63.81l-.24-.16c.16,0,.32,0,.4-.08.08,0,.16-.08.24-.16.08-.16.16-.33.08-.57-.08-.24-.24-.41-.56-.65-.24-.16-.48-.25-.72-.25s-.4.08-.48.25c-.16.16-.16.33-.08.57l-.8-.65-.24.33,2.17,1.71.24-.33Zm-.8-.65c-.16-.08-.24-.24-.32-.33,0-.16,0-.24.08-.33s.16-.16.24-.08c.16,0,.32,0,.48.16.16.16.32.24.32.41.08.08.08.16,0,.25-.08.16-.24.16-.4.16-.08,0-.24-.08-.4-.24"/>
      <path class="cls-1" d="m408.2,62.26c.16.08.24.08.32,0,.08,0,.24-.08.24-.24.08-.08.08-.16.08-.25,0-.16,0-.24-.08-.41l.32.16.16-.33-1.68-1.06-.24.33.72.49c.24.16.4.24.48.33,0,.08.08.08.08.16s0,.16-.08.25c0,.08-.08.08-.08.08-.08.08-.16.08-.24,0,0,0-.16-.08-.4-.24l-.8-.49-.24.33,1.04.73c.16.08.32.16.4.16"/>
      <path class="cls-1" d="m380.13,58.71c-.02.07-.02.12-.02.12,0-.04.02-.08.02-.12"/>
      <path class="cls-1" d="m384.76,56.22s0-.02,0-.03c-.01.01-.01.02,0,.03"/>
      <path class="cls-1" d="m379.71,57.77s.01-.02.02-.03c-.02.02-.03.03-.02.03"/>
      <path class="cls-1" d="m381.94,56.18s0,.02.01.03c0,0,0-.02-.01-.03"/>
      <path class="cls-1" d="m381.31,57.61c.08,0-.97,0-1.18,1.11.06-.2.31-.58,1.26-.45,0,.08-.56.24-.4,1.47,0,.08.08-1.14.88-.82.08,0-.4.41-.08,1.06,0,0,.16-.73.8-.81l-.08,1.14.24.25.08,2.61-.16.24-.08.9-.72.65s1.12.9,1.45.9c.4,0,1.44-.9,1.44-.9l-.64-.65-.16-.9-.16-.24.08-2.61.24-.25s0-1.14-.08-1.14c.72.08.8.81.8.81.4-.65-.16-1.06-.08-1.06.88-.33.97.9.97.82.08-1.23-.48-1.39-.48-1.47,1.37-.16,1.28.57,1.37.57-.16-1.23-1.37-1.23-1.2-1.23.56-.57,1.6.16,1.6.16-.48-.9-1.77-.98-1.77-.98.32-.57,1.37-.41,1.37-.49-.74-.67-1.74-.25-1.84-.11,0,0,0,.02,0,.03,0,0,0-.02,0-.03.11-.56.96-1.03.96-1.03-1.29-.08-1.69.65-1.69.65,0-.65.8-.98.88-1.06-1.28-.08-1.6,1.23-1.6,1.23,0,0-.24-1.31-1.52-1.23,0,.08.8.41.8,1.06,0,0-.4-.73-1.68-.65,0,0,.84.47,1.03,1.03.01.01.02.03.01.03,0-.01,0-.02-.01-.03-.13-.14-1.18-.55-1.83.12,0,.08,1.04-.08,1.37.49,0,0-1.25.08-1.75.95.15-.13,1.02-.64,1.59-.14"/>
      <path class="cls-1" d="m381.07,68.54c0-.08-.16-.49-.16-.49h-.56l-.08.66.56.16s-.24.24-.48.57c-.24.25-.48.49-.88.16-.32-.24-.48.16-.48.33-.16.24,0,.33.08.49,0,.33.24.33.4.33.56.33,1.85-1.39,1.85-1.39l.24.49h.48l.08-.57s.08,0-.48-.24c.56-.57,1.12-1.14,1.68-1.55.56.41,1.12.98,1.69,1.55l-.48.24.08.57h.56l.24-.49s1.2,1.71,1.77,1.39c.16,0,.4,0,.4-.33.08-.16.24-.25.08-.49,0-.16-.08-.57-.48-.33-.32.33-.56.08-.8-.16-.32-.33-.48-.57-.48-.57l.56-.16-.08-.66h-.64s-.16.41-.16.49c-.64-.57-1.2-1.06-1.69-1.47,2.57-2.04,4.74-2.77,4.74-2.77,0,0-.24-.16-.8-.16-.64.08-1.52.08-4.5,2.45-2.97-2.37-3.77-2.37-4.49-2.45-.56,0-.8.16-.8.16,0,0,2.17.73,4.82,2.77-.56.41-1.12.9-1.77,1.47"/>
      <rect class="cls-1" x="19.98" y="40.89" width="2.2" height="2.33"/>
      <rect class="cls-1" x="31.8" y="22.97" width="2.23" height="2.33"/>
      <rect class="cls-1" x="39.21" y="40.92" width="2.2" height="2.33"/>
      <rect class="cls-1" x="42.88" y="40.92" width="2.2" height="2.33"/>
      <path class="cls-1" d="m44.07,27.72c.06,4.59.08,6.92.09,7.06,0,1.36-.86,2.05-2.02,2.05h-5.48c-.56,0-1.13-.27-1.64-.82-.6-.63-.89-1.48-.92-2.54-.03-1.91-.06-3.81-.06-5.75h-2.05c.09,5.14.09,7.48.03,6.99,0,.69-.3,1.24-.89,1.66-.48.3-.98.46-1.55.46h-4.94c-.56,0-1.13-.27-1.64-.82-.6-.63-.89-1.48-.92-2.54-.03-1.91-.06-3.81-.06-5.75h-2.06c.09,5.14.09,7.48.03,6.99,0,.69-.3,1.24-.92,1.66-.48.3-.98.46-1.52.46h-4.7c-.95,0-1.7-.58-2.2-1.76-.27-.61-.45-1.24-.54-1.88h1.82v-1.94h-2.59c-1.52,0-2.74-1.09-2.74-2.87-.03-1.78.75-2.69,2.32-2.69.56,0,1.22.27,1.99.85l1.1-1.18c-.84-1.06-1.97-1.6-3.42-1.6-1.01,0-1.94.39-2.77,1.15-.89.88-1.34,1.94-1.34,3.21-.03,1.24.36,2.3,1.13,3.21-1.55.12-2.86.79-3.96,2-1.1,1.18-1.64,2.6-1.64,4.21,0,1.69.59,3.15,1.76,4.33,1.19,1.21,2.62,1.82,4.29,1.82h4.17v-2.06h-3.93c-1.13,0-2.11-.42-2.92-1.24-.8-.82-1.22-1.78-1.22-2.97s.42-2.15,1.22-2.96c.8-.82,1.78-1.24,2.92-1.24h1.99c.69,3.72,2.26,5.57,4.74,5.57h5.09c1.64-.09,3.16-.97,3.72-2.45.15.45.39.88.75,1.3.62.76,1.37,1.15,2.26,1.15h5.3c1.64-.09,3.16-.97,3.72-2.45.15.45.39.88.75,1.3.62.76,1.37,1.15,2.26,1.15h5.3c2.62,0,4.05-1.51,4.05-3.94,0,.03-.03-2.33-.09-7.11h-2.06Z"/>
      <path class="cls-1" d="m54.64,38.77h2.68c-.45,1.42-1.22,2.54-2.26,3.39-1.1.88-2.41,1.3-3.9,1.3l.89,1.91c2.32-.21,4.2-1.18,5.6-2.91,1.4-1.73,2.11-3.87,2.11-6.51v-3.51c0-3.18-1.55-4.78-4.64-4.78-1.19,0-2.26.4-3.19,1.21-1.16,1.03-1.81,2.51-1.85,4.48,0,1.48.36,2.78,1.22,3.85.86,1.06,1.97,1.57,3.33,1.57m-1.34-8.66c.56-.7,1.22-1.03,2.02-1.03,1.52,0,2.29.91,2.32,2.69l.06,5.05h-2.53c-1.76,0-2.86-1.6-2.86-3.63,0-1.3.36-2.33.98-3.09"/>
      <rect class="cls-1" x="92.33" y="40.92" width="2.23" height="2.33"/>
      <rect class="cls-1" x="96" y="40.92" width="2.2" height="2.33"/>
      <rect class="cls-1" x="106.06" y="40.89" width="2.2" height="2.33"/>
      <rect class="cls-1" x="118.51" y="40.89" width="2.2" height="2.33"/>
      <path class="cls-1" d="m146.73,19.19h-2.06c0,1.42.03,4.03.06,7.81.03,3.27.06,5.87.06,7.78,0,1.36-.86,2.06-2.02,2.06h-4.14c-.56,0-1.1-.27-1.64-.82-.6-.64-.92-1.36-.95-2.18-.09-5.72-.12-10.62-.15-14.71h-2.06c.09,6.18.15,11.38.15,15.59,0,.7-.3,1.24-.89,1.67-.51.3-1.01.45-1.55.45h-3.81c-.24-2.72-.92-4.87-2.03-6.48-1.4-1.97-3.37-2.94-5.95-2.94-1.43,0-3.04.42-4.82,1.27l.86,1.78c1.4-.78,2.77-1.18,4.11-1.18,1.49,0,2.77.67,3.87,2,1.16,1.42,1.76,3.27,1.82,5.54h-14.89c-.56,0-1.13-.27-1.64-.82-.6-.64-.89-1.48-.92-2.54-.03-1.91-.06-3.81-.06-5.75h-2.05c.09,5.14.09,7.48.03,6.99,0,.7-.3,1.24-.92,1.67-.48.3-.98.45-1.52.45h-4.94c-.57,0-1.13-.27-1.64-.82-.6-.64-.89-1.48-.92-2.54-.03-1.91-.06-3.81-.06-5.75h-2.05c.09,5.14.09,7.48.03,6.99,0,.7-.3,1.24-.92,1.67-.48.3-.98.45-1.55.45h-4.91c-.56,0-1.13-.24-1.64-.73-.6-.58-.89-1.3-.92-2.24-.09-6.66-.12-11.66-.12-15.02h-2.06l.18,17.92c.03,1.79-.54,3.3-1.7,4.57-1.16,1.27-2.53,1.91-4.17,1.91s-3.04-.64-4.2-1.88c-1.16-1.24-1.73-2.75-1.73-4.54-.03-.27-.03-2.36-.03-6.23h-2.02c.03,2.54.06,4.6.06,6.21,0,2.36.77,4.39,2.32,6.05,1.55,1.66,3.42,2.51,5.6,2.51s3.96-.82,5.51-2.48c1.55-1.63,2.32-3.6,2.35-5.93.68,1.21,1.61,1.82,2.77,1.82h5.3c1.64-.09,3.16-.97,3.72-2.45.15.45.39.88.75,1.3.63.76,1.37,1.15,2.26,1.15h5.3c1.64-.09,3.16-.97,3.72-2.45.15.45.39.88.75,1.3.63.76,1.37,1.15,2.26,1.15h21.2c1.64-.09,3.16-.97,3.72-2.45.15.45.39.88.74,1.3.63.76,1.37,1.15,2.26,1.15h3.96c2.62,0,4.05-1.51,4.05-3.94,0-1.94-.03-4.54-.06-7.81-.03-3.84-.06-6.45-.06-7.84"/>
      <rect class="cls-1" x="161.14" y="20.7" width="2.2" height="2.36"/>
      <rect class="cls-1" x="157.51" y="20.7" width="2.2" height="2.36"/>
      <rect class="cls-1" x="175.88" y="40.92" width="2.2" height="2.33"/>
      <rect class="cls-1" x="172.22" y="40.92" width="2.23" height="2.33"/>
      <path class="cls-1" d="m232.85,19.19h-2.06c0,1.42.03,4.03.06,7.81.03,3.27.06,5.87.06,7.78,0,1.36-.86,2.06-2.03,2.06h-4.47c.03-.33.03-.67.03-1,0-1.51-.45-2.81-1.34-3.9-.95-1.18-2.23-1.76-3.81-1.76-3.1,0-4.94,2.15-4.94,5.66,0,.33.03.67.06,1h-5.33c-.56,0-1.1-.27-1.64-.82-.59-.64-.92-1.36-.95-2.18-.09-5.72-.12-10.62-.15-14.71h-2.06c.09,6.17.15,11.38.15,15.59,0,.69-.3,1.24-.89,1.66-.51.3-1.01.46-1.55.46h-6.01c-.06-.76-.18-1.48-.33-2.18-1.04-4.63-3.63-6.93-7.83-6.93-.62,0-1.28.06-1.97.18l5.18-5.12-1.37-1.36-7.12,7.54c-.06.03-.12.03-.15.06l.95,1.76c1.37-.82,2.74-1.24,4.11-1.24,1.78,0,3.28.67,4.5,2.03,1.22,1.33,1.91,3.09,1.99,5.27h-15.39c-.57,0-1.13-.27-1.64-.82-.6-.64-.89-1.49-.92-2.54-.03-1.91-.06-3.81-.06-5.75h-2.05c.09,5.15.09,7.48.03,6.99,0,.69-.3,1.24-.92,1.66-.48.3-.98.46-1.55.46h-5.21c-.83,0-1.25-.51-1.25-1.51v-9.57h-2.06v1.48h-.06c-.6-.97-1.88-1.72-3.28-1.72-1.1,0-2.06.42-2.83,1.24-.98,1-1.46,2.45-1.46,4.36,0,2.87,1.13,4.33,3.39,4.33h4.38c-.03,2.21,1.01,3.33,3.16,3.33h5.81c1.64-.09,3.16-.97,3.72-2.45.15.45.39.88.75,1.3.63.76,1.37,1.15,2.26,1.15h23.79c1.64-.09,3.16-.97,3.72-2.45.15.45.38.88.74,1.3.63.76,1.37,1.15,2.26,1.15h5.75c.92,1.85,2.41,2.76,4.47,2.76s3.6-.91,4.41-2.76h5c2.62,0,4.05-1.51,4.05-3.94,0-1.94-.03-4.54-.06-7.81-.03-3.85-.06-6.45-.06-7.84m-73.72,14.38c-.72,0-1.19-.27-1.43-.82-.15-.33-.24-.82-.24-1.51,0-1.3.27-2.33.84-3.03.47-.67,1.1-1,1.85-1,1.16,0,2.08.64,2.8,1.88l.03,4.48h-3.84Zm62.41,5.27c-.51.64-1.19.97-1.99.97s-1.49-.33-2.06-.97c-.63-.73-.95-1.73-.95-3s.27-2.3.83-3.03c.51-.64,1.19-.94,2.03-.94s1.49.3,2.06.94c.62.76.92,1.78.92,3.03s-.27,2.27-.84,3"/>
      <polygon class="cls-1" points="238.89 19.19 236.83 19.19 236.98 38.77 239.04 38.77 238.89 19.19"/>
      <rect class="cls-1" x="249.7" y="20.7" width="2.2" height="2.36"/>
      <rect class="cls-1" x="253.33" y="20.7" width="2.2" height="2.36"/>
      <path class="cls-1" d="m269.44,24.24h-1.19c-.8,0-1.43-.6-1.46-1.48-.03-1.06.33-1.58,1.04-1.58.38,0,.74.18,1.04.55l.5-.73c-.42-.55-.95-.82-1.58-.82-1.28,0-2.2,1.09-2.2,2.42,0,.63.18,1.18.57,1.63h-1.55l-.56,1.06h5.39v-1.06Z"/>
      <rect class="cls-1" x="280.1" y="40.92" width="2.2" height="2.33"/>
      <rect class="cls-1" x="276.44" y="40.92" width="2.23" height="2.33"/>
      <path class="cls-1" d="m312.02,34.84c0-1.94-.03-4.54-.06-7.81-.03-3.85-.06-6.45-.06-7.84h-2.06c0,1.42.03,4.03.06,7.81.03,3.27.06,5.87.06,7.78,0,1.36-.86,2.06-2.02,2.06h-6.31c-.77-6.08-3.84-9.11-9.2-9.11-2.03,0-4.02.42-5.96,1.24l.68,1.49c.63-.4,1.34-.67,2.12-.88-.77,1.03-1.16,2.33-1.16,3.87,0,1.36.39,2.48,1.19,3.39h-6.52c-.56,0-1.13-.27-1.64-.82-.59-.64-.89-1.48-.92-2.54-.03-1.91-.06-3.81-.06-5.75h-2.06c.09,5.15.09,7.48.03,6.99,0,.7-.3,1.24-.92,1.67-.47.3-.98.45-1.55.45h-4.91c-.56,0-1.13-.27-1.64-.82-.6-.64-.89-1.48-.92-2.54-.03-1.91-.06-3.81-.06-5.75h-2.06c.09,5.15.09,7.48.03,6.99,0,.7-.3,1.24-.92,1.67-.48.3-.98.45-1.52.45h-5.24c-.83,0-1.25-.51-1.25-1.51v-9.56h-2.05v1.48h-.06c-.59-.97-1.87-1.73-3.28-1.73-1.1,0-2.06.42-2.83,1.24-.98,1-1.46,2.45-1.46,4.36,0,2.87,1.13,4.33,3.39,4.33h4.38c-.03,2.21,1.01,3.33,3.16,3.33h5.81c1.64-.09,3.16-.97,3.72-2.45.15.45.39.88.75,1.3.62.76,1.37,1.15,2.26,1.15h5.3c1.64-.09,3.16-.97,3.72-2.45.15.45.39.88.75,1.3.63.76,1.37,1.15,2.26,1.15h24.98c2.62,0,4.05-1.51,4.05-3.94m-60.71-1.27c-.72,0-1.19-.27-1.43-.82-.15-.33-.24-.82-.24-1.51,0-1.3.27-2.33.83-3.03.48-.67,1.1-1,1.85-1,1.16,0,2.08.64,2.8,1.88l.03,4.48h-3.84Zm41.39,3.39c-.68,0-1.28-.3-1.79-.94-.54-.67-.8-1.6-.8-2.78s.24-2.15.71-2.82c.45-.6,1.01-.91,1.73-.91s1.28.3,1.76.91c.56.7.84,1.64.84,2.82,0,2.42-1.04,3.72-2.44,3.72m3.51-.12c.59-.88.89-2,.89-3.39,0-1.18-.3-2.21-.89-3.09.8.4,1.52,1.18,2.14,2.42.69,1.3,1.1,2.63,1.22,4.05h-3.37Z"/>
      <polygon class="cls-1" points="318.09 38.77 317.94 19.19 315.89 19.19 316.04 38.77 318.09 38.77"/>
      <path class="cls-1" d="m5.79,63.21v-.07c1.55-.63,2.71-2.06,2.71-4.26,0-1.25-.4-2.38-1.09-3.1-.86-.92-2.1-1.36-3.99-1.36-1.15,0-2.41.13-3.3.35v16.42h1.59v-7.37h1.78c1.72,0,2.52,1.03,2.94,3.34.38,2.08.71,3.54.94,4.03h1.64c-.29-.64-.61-2.1-1.07-4.51-.34-1.81-1.01-3.06-2.14-3.47m-2.22-.79h-1.87v-6.38c.33-.09.94-.18,1.8-.18,1.78,0,3.4.76,3.4,3.24,0,2.01-1.3,3.32-3.32,3.32"/>
      <path class="cls-1" d="m15.32,58.99c-2.65,0-4.87,2.25-4.87,6.32,0,3.85,2.06,6.14,4.74,6.14,2.31,0,4.87-1.88,4.87-6.32,0-3.65-1.89-6.14-4.74-6.14m-.1,11.04c-1.87,0-3.15-2.14-3.15-4.79,0-2.3.94-4.83,3.19-4.83s3.17,2.67,3.17,4.79c0,2.69-1.32,4.83-3.21,4.83"/>
      <path class="cls-1" d="m26.68,66.46c-.25.92-.5,1.81-.67,2.54h-.06c-.17-.72-.4-1.66-.67-2.49l-2.27-7.24h-1.74l3.69,11.4c.08.22.11.02.11.12,0,.24-.94,3.26-3.36,4.29l.44,1.53c.38-.11,1.24-.48,2.12-1.4,1.3-1.4,2.18-3.63,3.42-7.5l2.77-8.44h-1.68l-2.1,7.19Z"/>
      <path class="cls-1" d="m39.2,63.73c0-2.36-.77-4.74-3.71-4.74-1.16,0-2.33.37-3.17,1.01l.38,1.25c.71-.57,1.64-.85,2.54-.85,2.37,0,2.37,2.27,2.37,3.28-3.86-.02-6.04,1.53-6.04,4.39,0,1.73,1.05,3.39,3.04,3.39,1.47,0,2.54-.85,3.08-1.79h.06l.15,1.53h1.45c-.13-.83-.15-1.86-.15-2.84v-4.61Zm-1.57,3.52c0,1.44-1.09,2.8-2.64,2.8-.95,0-1.8-.68-1.8-2.21,0-2.51,2.46-2.84,4.43-2.84v2.25Z"/>
      <rect class="cls-1" x="42.41" y="53.7" width="1.59" height="17.49"/>
      <path class="cls-1" d="m58.34,55.82c1.15,0,2.08.3,2.75.68l.42-1.53c-.46-.26-1.47-.68-3.21-.68-4.26,0-7.18,3.34-7.18,8.72,0,5.64,3.02,8.42,6.76,8.42,1.66,0,2.96-.37,3.63-.75l-.34-1.46c-.73.39-1.81.68-2.92.68-3.4,0-5.46-2.58-5.46-6.95,0-4.59,2.25-7.13,5.56-7.13"/>
      <path class="cls-1" d="m68.02,58.99c-2.65,0-4.87,2.25-4.87,6.32,0,3.85,2.06,6.14,4.74,6.14,2.31,0,4.87-1.88,4.87-6.32,0-3.65-1.89-6.14-4.74-6.14m-.1,11.04c-1.87,0-3.15-2.14-3.15-4.79,0-2.3.94-4.83,3.19-4.83s3.17,2.67,3.17,4.79c0,2.69-1.32,4.83-3.21,4.83"/>
      <path class="cls-1" d="m86.19,58.99c-1.6,0-2.65.96-3.34,2.38h-.04c-.44-1.42-1.49-2.38-2.85-2.38-1.64,0-2.6,1.03-3.17,2.19h-.06l-.1-1.92h-1.39c.04.98.08,1.86.08,3.08v8.85h1.56v-7.3c0-1.86,1.2-3.39,2.56-3.39,1.47,0,2.18,1.45,2.18,3.35v7.35h1.56v-7.5c0-1.81,1.17-3.19,2.45-3.19,1.57,0,2.29,1.49,2.29,3.81v6.89h1.56v-7.17c0-4.09-2.02-5.03-3.3-5.03"/>
      <path class="cls-1" d="m103.59,58.99c-1.6,0-2.65.96-3.34,2.38h-.04c-.44-1.42-1.49-2.38-2.85-2.38-1.64,0-2.6,1.03-3.17,2.19h-.06l-.1-1.92h-1.39c.04.98.08,1.86.08,3.08v8.85h1.56v-7.3c0-1.86,1.2-3.39,2.56-3.39,1.47,0,2.18,1.45,2.18,3.35v7.35h1.56v-7.5c0-1.81,1.17-3.19,2.45-3.19,1.57,0,2.29,1.49,2.29,3.81v6.89h1.56v-7.17c0-4.09-2.02-5.03-3.3-5.03"/>
      <path class="cls-1" d="m110.92,54.7c-.61,0-1.05.55-1.05,1.23s.42,1.25,1.03,1.25,1.05-.48,1.05-1.25c0-.68-.4-1.23-1.03-1.23"/>
      <rect class="cls-1" x="110.12" y="59.27" width="1.59" height="11.92"/>
      <path class="cls-1" d="m118.03,64.32c-1.34-.66-1.93-1.14-1.93-2.16,0-.96.61-1.77,1.76-1.77.94,0,1.64.42,2.03.7l.46-1.38c-.56-.4-1.39-.72-2.39-.72-2.1,0-3.4,1.53-3.4,3.39,0,1.44.9,2.56,2.65,3.37,1.38.63,1.93,1.25,1.93,2.36s-.69,1.92-2.08,1.92c-.9,0-1.8-.43-2.35-.81l-.44,1.4c.71.48,1.7.81,2.73.81,2.27,0,3.69-1.4,3.69-3.52,0-1.79-.97-2.8-2.65-3.59"/>
      <path class="cls-1" d="m126.28,64.32c-1.34-.66-1.93-1.14-1.93-2.16,0-.96.61-1.77,1.76-1.77.94,0,1.64.42,2.03.7l.46-1.38c-.55-.4-1.39-.72-2.39-.72-2.1,0-3.4,1.53-3.4,3.39,0,1.44.9,2.56,2.65,3.37,1.38.63,1.93,1.25,1.93,2.36s-.69,1.92-2.08,1.92c-.9,0-1.8-.43-2.35-.81l-.44,1.4c.71.48,1.7.81,2.73.81,2.27,0,3.69-1.4,3.69-3.52,0-1.79-.97-2.8-2.65-3.59"/>
      <rect class="cls-1" x="131.51" y="59.27" width="1.59" height="11.92"/>
      <path class="cls-1" d="m132.32,54.7c-.61,0-1.05.55-1.05,1.23s.42,1.25,1.03,1.25,1.05-.48,1.05-1.25c0-.68-.4-1.23-1.03-1.23"/>
      <path class="cls-1" d="m140.51,58.99c-2.65,0-4.87,2.25-4.87,6.32,0,3.85,2.06,6.14,4.74,6.14,2.31,0,4.87-1.88,4.87-6.32,0-3.65-1.89-6.14-4.74-6.14m-.1,11.04c-1.87,0-3.15-2.14-3.15-4.79,0-2.3.94-4.83,3.19-4.83s3.17,2.67,3.17,4.79c0,2.69-1.32,4.83-3.21,4.83"/>
      <path class="cls-1" d="m152.62,58.99c-1.62,0-2.83,1.05-3.34,2.21h-.04l-.1-1.94h-1.41c.04.96.08,1.86.08,3.08v8.85h1.59v-7.3c0-2.08,1.37-3.39,2.73-3.39,1.81,0,2.43,1.71,2.43,3.65v7.04h1.58v-7.26c0-4.04-2.21-4.94-3.51-4.94"/>
      <path class="cls-1" d="m165.29,54.51c-1.15,1.33-1.15,3.28-1.15,4.77h-1.43v1.42h1.43v10.49h1.59v-10.49h2.52v-1.42h-2.52v-.68c0-1.92.4-3.67,2.04-3.67.55,0,.92.15,1.2.29l.27-1.42c-.34-.18-.88-.35-1.55-.35-.82,0-1.72.3-2.41,1.07"/>
      <path class="cls-1" d="m174.15,58.99c-2.65,0-4.87,2.25-4.87,6.32,0,3.85,2.06,6.14,4.74,6.14,2.31,0,4.87-1.88,4.87-6.32,0-3.65-1.89-6.14-4.74-6.14m-.1,11.04c-1.87,0-3.15-2.14-3.15-4.79,0-2.3.94-4.83,3.19-4.83s3.17,2.67,3.17,4.79c0,2.69-1.32,4.83-3.21,4.83"/>
      <path class="cls-1" d="m182.9,61.57h-.06l-.08-2.29h-1.39c.06,1.14.07,2.29.07,3.56v8.35h1.59v-6.47c0-2.01.88-3.96,2.6-3.96.23,0,.4.02.57.04v-1.73c-.17-.02-.3-.06-.48-.06-1.28,0-2.37,1.07-2.83,2.56"/>
      <path class="cls-1" d="m195.7,65.74c0,3.3-.95,4.15-2.64,4.15-.59,0-1.11-.13-1.47-.28l-.23,1.49c.4.2,1.16.35,1.81.35,2.33,0,4.11-1.29,4.11-5.55v-11.35h-1.59v11.19Z"/>
      <path class="cls-1" d="m208.63,59.27h-1.59v7.41c0,2.1-1.47,3.24-2.71,3.24-1.74,0-2.33-1.62-2.33-3.94v-6.71h-1.58v7.04c0,4.11,1.85,5.14,3.42,5.14,1.78,0,2.85-1.2,3.32-2.14h.06l.08,1.88h1.43c-.04-.92-.1-1.95-.1-3.17v-8.74Z"/>
      <path class="cls-1" d="m217,58.99c-1.62,0-2.81.83-3.46,2.21h-.04v-7.5h-1.59v14.54c0,.96-.04,2.16-.08,2.95h1.38l.1-1.97h.06c.75,1.53,1.85,2.23,3.36,2.23,2.16,0,4.47-2.03,4.47-6.36,0-3.67-1.74-6.1-4.2-6.1m-.57,10.97c-1.76,0-2.92-1.66-2.92-3.43v-2.36c0-1.75,1.16-3.69,2.98-3.69,2.03,0,3.09,2.19,3.09,4.68,0,2.82-1.13,4.81-3.15,4.81"/>
      <path class="cls-1" d="m230.56,63.73c0-2.36-.76-4.74-3.71-4.74-1.16,0-2.33.37-3.17,1.01l.38,1.25c.71-.57,1.64-.85,2.54-.85,2.37,0,2.37,2.27,2.37,3.28-3.86-.02-6.04,1.53-6.04,4.39,0,1.73,1.05,3.39,3.04,3.39,1.47,0,2.54-.85,3.08-1.79h.06l.15,1.53h1.45c-.14-.83-.15-1.86-.15-2.84v-4.61Zm-1.57,3.52c0,1.44-1.09,2.8-2.64,2.8-.95,0-1.8-.68-1.8-2.21,0-2.51,2.47-2.84,4.43-2.84v2.25Z"/>
      <rect class="cls-1" x="233.77" y="59.27" width="1.59" height="11.92"/>
      <path class="cls-1" d="m234.57,54.7c-.61,0-1.05.55-1.05,1.23s.42,1.25,1.03,1.25,1.05-.48,1.05-1.25c0-.68-.4-1.23-1.03-1.23"/>
      <rect class="cls-1" x="238.66" y="53.7" width="1.59" height="17.49"/>
      <path class="cls-1" d="m258.62,62.2h-1.47c-.27,2.06-.69,3.76-1.36,5-1.03-1.36-2.46-3.28-3.67-4.94v-.09c2.29-1.36,3.17-2.71,3.17-4.46,0-2.16-1.34-3.46-3-3.46-2.25,0-3.48,2.01-3.48,4.02,0,1.2.46,2.43,1.2,3.56v.07c-1.64,1.11-2.77,2.69-2.77,4.9,0,2.49,1.59,4.64,4.26,4.64,1.53,0,2.89-.57,4.15-1.95.59.72.97,1.18,1.38,1.68h1.91c-.9-1.14-1.61-2.01-2.32-2.89,1.05-1.46,1.63-3.56,1.99-6.1m-6.48-6.62c1.22,0,1.72,1.16,1.72,2.25,0,1.46-.98,2.43-2.48,3.41-.59-.92-1.09-1.88-1.09-3.13s.59-2.54,1.85-2.54m-.36,14.47c-1.76,0-2.98-1.53-2.98-3.5,0-1.86,1.13-2.97,1.95-3.59,1.56,2.14,3.19,4.24,4.11,5.47-.77,1.03-1.89,1.62-3.08,1.62"/>
      <path class="cls-1" d="m270.9,59.16c-.57,1.29-1.07,2.43-1.47,3.54h-.06c-.44-1.2-.9-2.28-1.45-3.52l-2.02-4.65h-1.82l4.43,9.55v7.1h1.59v-7.15l4.68-9.51h-1.78l-2.1,4.63Z"/>
      <path class="cls-1" d="m283.36,63.73c0-2.36-.76-4.74-3.71-4.74-1.16,0-2.33.37-3.17,1.01l.38,1.25c.71-.57,1.64-.85,2.54-.85,2.37,0,2.37,2.27,2.37,3.28-3.86-.02-6.04,1.53-6.04,4.39,0,1.73,1.05,3.39,3.04,3.39,1.47,0,2.54-.85,3.08-1.79h.06l.15,1.53h1.45c-.13-.83-.15-1.86-.15-2.84v-4.61Zm-1.57,3.52c0,1.44-1.09,2.8-2.64,2.8-.95,0-1.8-.68-1.8-2.21,0-2.51,2.46-2.84,4.43-2.84v2.25Z"/>
      <path class="cls-1" d="m291.38,58.99c-1.62,0-2.83,1.05-3.34,2.21h-.04l-.1-1.94h-1.41c.04.96.08,1.86.08,3.08v8.85h1.59v-7.3c0-2.08,1.37-3.39,2.73-3.39,1.81,0,2.43,1.71,2.43,3.65v7.04h1.59v-7.26c0-4.04-2.22-4.94-3.52-4.94"/>
      <path class="cls-1" d="m303.2,58.99c-1.62,0-2.81.83-3.46,2.21h-.04v-7.5h-1.59v14.54c0,.96-.04,2.16-.08,2.95h1.38l.1-1.97h.06c.75,1.53,1.85,2.23,3.36,2.23,2.16,0,4.47-2.03,4.47-6.36,0-3.67-1.73-6.1-4.2-6.1m-.57,10.97c-1.76,0-2.92-1.66-2.92-3.43v-2.36c0-1.75,1.17-3.69,2.98-3.69,2.03,0,3.09,2.19,3.09,4.68,0,2.82-1.12,4.81-3.15,4.81"/>
      <path class="cls-1" d="m318.1,68.02v-8.74h-1.58v7.41c0,2.1-1.47,3.24-2.71,3.24-1.74,0-2.33-1.62-2.33-3.94v-6.71h-1.59v7.04c0,4.11,1.85,5.14,3.42,5.14,1.78,0,2.85-1.2,3.33-2.14h.06l.08,1.88h1.43c-.04-.92-.1-1.94-.1-3.17"/>
    </g>
  </g>
</svg>