<?xml version="1.0" encoding="UTF-8"?>
<svg id="Layer_2" data-name="Layer 2" xmlns="http://www.w3.org/2000/svg" xmlns:xlink="http://www.w3.org/1999/xlink" viewBox="0 0 2616.59 2353.34">
  <defs>
    <style>
      .cls-1 {
        fill: none;
      }

      .cls-1, .cls-2, .cls-3 {
        stroke-width: 0px;
      }

      .cls-2 {
        fill: url(#New_Pattern_2);
        opacity: .12;
      }

      .cls-3 {
        fill: #d1d1d1;
      }
    </style>
    <pattern id="New_Pattern_2" data-name="New Pattern 2" x="0" y="0" width="144" height="144" patternTransform="translate(475.54 352.62) scale(10.34)" patternUnits="userSpaceOnUse" viewBox="0 0 144 144">
      <g>
        <rect class="cls-1" width="144" height="144"/>
        <polygon class="cls-3" points="154.76 127.31 113.59 154.58 111.25 162.28 150.03 167.71 170.09 143.54 154.76 127.31"/>
        <g>
          <path class="cls-3" d="m87.08,154.61l-7.83-13.41,27.26-15.34s12.4,18.43,12.32,18.72-31.75,10.03-31.75,10.03Z"/>
          <polygon class="cls-3" points="10.76 127.31 -30.41 154.58 -32.75 162.28 6.03 167.71 26.09 143.54 10.76 127.31"/>
          <polygon class="cls-3" points="154.7 127.31 113.53 154.58 111.19 162.28 149.97 167.71 170.03 143.54 154.7 127.31"/>
          <polygon class="cls-3" points="29.92 136.18 67.2 135.18 67.09 145.71 61.98 150.71 38.36 150.47 29.92 136.18"/>
        </g>
        <polygon class="cls-3" points="10.7 127.31 -30.47 154.58 -32.81 162.28 5.97 167.71 26.03 143.54 10.7 127.31"/>
        <g>
          <polygon class="cls-3" points="165.42 41.98 165.31 50.19 113.22 51.59 114.47 43.91 134.82 37.52 165.42 41.98"/>
          <path class="cls-3" d="m125.6,120.89l-8.76-15.01,30.51-17.16s13.88,20.62,13.79,20.95-35.53,11.22-35.53,11.22Z"/>
          <polygon class="cls-3" points="154.76 -16.69 113.59 10.58 111.25 18.28 150.03 23.71 170.09 -.46 154.76 -16.69"/>
          <polygon class="cls-3" points="154.76 127.25 113.59 154.52 111.25 162.23 150.03 167.66 170.09 143.49 154.76 127.25"/>
          <polygon class="cls-3" points="124.05 67.89 161.13 66.9 161.02 77.37 155.94 82.35 132.45 82.1 124.05 67.89"/>
        </g>
        <g>
          <g>
            <polygon class="cls-3" points="21.42 41.98 21.31 50.19 -30.78 51.59 -29.53 43.91 -9.18 37.52 21.42 41.98"/>
            <path class="cls-3" d="m-18.4,120.89l-8.76-15.01L3.34,88.71s13.88,20.62,13.79,20.95-35.53,11.22-35.53,11.22Z"/>
            <path class="cls-3" d="m87.08,10.61l-7.83-13.41,27.26-15.34S118.92.29,118.83.58s-31.75,10.03-31.75,10.03Z"/>
            <polygon class="cls-3" points="10.76 -16.69 -30.41 10.58 -32.75 18.28 6.03 23.71 26.09 -.46 10.76 -16.69"/>
            <polygon class="cls-3" points="10.76 127.25 -30.41 154.52 -32.75 162.23 6.03 167.66 26.09 143.49 10.76 127.25"/>
            <polygon class="cls-3" points="90.02 107.17 65.8 123.22 64.42 127.75 87.24 130.94 99.04 116.72 90.02 107.17"/>
            <polygon class="cls-3" points="36.49 67.73 22.83 76.78 22.05 79.33 34.92 81.13 41.57 73.12 36.49 67.73"/>
            <polygon class="cls-3" points="86.78 60.4 99.43 94.3 104.54 97.24 114.83 70.47 100.9 52.15 86.78 60.4"/>
            <polygon class="cls-3" points="-19.95 67.89 17.13 66.9 17.02 77.37 11.94 82.35 -11.55 82.1 -19.95 67.89"/>
            <polygon class="cls-3" points="165.36 41.98 165.25 50.19 113.16 51.59 114.41 43.91 134.76 37.52 165.36 41.98"/>
            <polygon class="cls-3" points="86.95 34.51 83.31 37.52 63.33 15.2 67.16 12.89 77.53 19.44 86.95 34.51"/>
            <polygon class="cls-3" points="56.23 121.26 50.45 127.09 12.01 91.91 18.24 87.26 37.32 96.79 56.23 121.26"/>
            <polygon class="cls-3" points="74.2 63.43 75.81 67.91 47.78 79.23 46.9 74.81 56.66 67.2 74.2 63.43"/>
            <polygon class="cls-3" points="46.97 12.08 48.58 16.57 20.55 27.89 19.67 23.46 29.43 15.86 46.97 12.08"/>
            <path class="cls-3" d="m125.54,120.89l-8.76-15.01,30.51-17.16s13.88,20.62,13.79,20.95-35.53,11.22-35.53,11.22Z"/>
            <path class="cls-3" d="m80.96,104.8l-3.81-6.53,13.28-7.47s6.04,8.98,6,9.12-15.46,4.88-15.46,4.88Z"/>
            <path class="cls-3" d="m26.09,48.11l4.46-12.76,25.55,9.39s-5.2,18.62-5.44,18.73-24.57-15.36-24.57-15.36Z"/>
            <polygon class="cls-3" points="154.7 -16.69 113.53 10.58 111.19 18.28 149.97 23.71 170.03 -.46 154.7 -16.69"/>
            <polygon class="cls-3" points="154.7 127.25 113.53 154.52 111.19 162.23 149.97 167.66 170.03 143.49 154.7 127.25"/>
            <polygon class="cls-3" points="123.99 67.89 161.07 66.9 160.96 77.37 155.88 82.35 132.39 82.1 123.99 67.89"/>
            <polygon class="cls-3" points="93.74 28.62 121.19 27.89 121.11 35.64 117.35 39.33 99.96 39.15 93.74 28.62"/>
            <polygon class="cls-3" points="51.46 102.44 66.1 86.99 70.31 91.28 70.27 95.36 60.63 104.8 51.46 102.44"/>
            <polygon class="cls-3" points="62.68 53.4 77.33 37.94 81.54 42.24 81.5 46.32 71.86 55.76 62.68 53.4"/>
            <polygon class="cls-3" points="29.92 -7.82 67.2 -8.82 67.09 1.71 61.98 6.71 38.36 6.47 29.92 -7.82"/>
            <path class="cls-3" d="m87.08,154.56l-7.83-13.41,27.26-15.34s12.4,18.43,12.32,18.72-31.75,10.03-31.75,10.03Z"/>
            <polygon class="cls-3" points="29.92 136.12 67.2 135.12 67.09 145.65 61.98 150.65 38.36 150.41 29.92 136.12"/>
          </g>
          <rect class="cls-1" x=".22" y=".22" width="143.78" height="143.78"/>
        </g>
        <g>
          <polygon class="cls-3" points="21.36 41.98 21.25 50.19 -30.84 51.59 -29.59 43.91 -9.24 37.52 21.36 41.98"/>
          <path class="cls-3" d="m-18.46,120.89l-8.76-15.01L3.28,88.71s13.88,20.62,13.79,20.95-35.53,11.22-35.53,11.22Z"/>
          <polygon class="cls-3" points="10.7 -16.69 -30.47 10.58 -32.81 18.28 5.97 23.71 26.03 -.46 10.7 -16.69"/>
          <polygon class="cls-3" points="10.7 127.25 -30.47 154.52 -32.81 162.23 5.97 167.66 26.03 143.49 10.7 127.25"/>
          <polygon class="cls-3" points="-20.01 67.89 17.07 66.9 16.96 77.37 11.88 82.35 -11.61 82.1 -20.01 67.89"/>
        </g>
        <polygon class="cls-3" points="154.76 -16.75 113.59 10.52 111.25 18.23 150.03 23.66 170.09 -.51 154.76 -16.75"/>
        <g>
          <polygon class="cls-3" points="10.76 -16.75 -30.41 10.52 -32.75 18.23 6.03 23.66 26.09 -.51 10.76 -16.75"/>
          <polygon class="cls-3" points="154.7 -16.75 113.53 10.52 111.19 18.23 149.97 23.66 170.03 -.51 154.7 -16.75"/>
          <path class="cls-3" d="m87.08,10.56l-7.83-13.41,27.26-15.34S118.92.24,118.83.53s-31.75,10.03-31.75,10.03Z"/>
          <polygon class="cls-3" points="29.92 -7.88 67.2 -8.88 67.09 1.65 61.98 6.65 38.36 6.41 29.92 -7.88"/>
        </g>
        <polygon class="cls-3" points="10.7 -16.75 -30.47 10.52 -32.81 18.23 5.97 23.66 26.03 -.51 10.7 -16.75"/>
      </g>
    </pattern>
  </defs>
  <g id="Layer_1-2" data-name="Layer 1">
    <rect class="cls-2" width="2616.59" height="2353.34"/>
  </g>
</svg>